<svg width="60" height="60" viewBox="0 0 60 60" fill="none" xmlns="http://www.w3.org/2000/svg">
<path d="M30.3 60C26.1 60 22.1625 59.2 18.4875 57.6C14.8125 56 11.6125 53.8375 8.8875 51.1125C6.1625 48.3875 4 45.1875 2.4 41.5125C0.8 37.8375 0 33.9 0 29.7C0 22.4 2.325 15.9625 6.975 10.3875C11.625 4.8125 17.55 1.35 24.75 0C23.85 4.95 24.125 9.7875 25.575 14.5125C27.025 19.2375 29.525 23.375 33.075 26.925C36.625 30.475 40.7625 32.975 45.4875 34.425C50.2125 35.875 55.05 36.15 60 35.25C58.7 42.45 55.25 48.375 49.65 53.025C44.05 57.675 37.6 60 30.3 60V60" fill="currentColor"/>
</svg>
