<svg width="160" height="140" viewBox="0 0 160 140" fill="none" xmlns="http://www.w3.org/2000/svg">
<g filter="url(#filter0_d_1_115)">
<path d="M54.75 55.25C53 55.25 51.7708 54.8958 51.0625 54.1875C50.3542 53.4792 50 52.25 50 50.5C50 47.1667 50.7917 44.0833 52.375 41.25C53.9583 38.4167 56.0833 36.0833 58.75 34.25L80 20L101.25 34.25C103.917 36.0833 106.042 38.4167 107.625 41.25C109.208 44.0833 110 47.1667 110 50.5C110 52.25 109.646 53.4792 108.938 54.1875C108.229 54.8958 107 55.25 105.25 55.25H54.75V55.25M25 120V58.625C23.5 57.7083 22.2917 56.5208 21.375 55.0625C20.4583 53.6042 20 51.9167 20 50C20 48.0833 21 45.75 23 43C25 40.25 27.3333 37.5833 30 35C32.6667 37.5833 35 40.25 37 43C39 45.75 40 48.0833 40 50C40 51.9167 39.5417 53.6042 38.625 55.0625C37.7083 56.5208 36.5 57.7083 35 58.625V80H45V70C45 67.9167 45.6667 65.9167 47 64C48.3333 62.0833 50.25 60.8333 52.75 60.25H107.25C109.75 60.8333 111.667 62.0833 113 64C114.333 65.9167 115 67.9167 115 70V80H125V58.625C123.5 57.7083 122.292 56.5208 121.375 55.0625C120.458 53.6042 120 51.9167 120 50C120 48.0833 121 45.75 123 43C125 40.25 127.333 37.5833 130 35C132.667 37.5833 135 40.25 137 43C139 45.75 140 48.0833 140 50C140 51.9167 139.542 53.6042 138.625 55.0625C137.708 56.5208 136.5 57.7083 135 58.625V120H90V100C90 97.25 89.0208 94.8958 87.0625 92.9375C85.1042 90.9792 82.75 90 80 90C77.25 90 74.8958 90.9792 72.9375 92.9375C70.9792 94.8958 70 97.25 70 100V120H25V120" fill="currentColor"/>
</g>
<defs>
<filter id="filter0_d_1_115" x="0" y="0" width="160" height="140" filterUnits="userSpaceOnUse" color-interpolation-filters="sRGB">
<feFlood flood-opacity="0" result="BackgroundImageFix"/>
<feColorMatrix in="SourceAlpha" type="matrix" values="0 0 0 0 0 0 0 0 0 0 0 0 0 0 0 0 0 0 127 0" result="hardAlpha"/>
<feOffset/>
<feGaussianBlur stdDeviation="10"/>
<feComposite in2="hardAlpha" operator="out"/>
<feColorMatrix type="matrix" values="0 0 0 0 0 0 0 0 0 0.203922 0 0 0 0 0.301961 0 0 0 1 0"/>
<feBlend mode="normal" in2="BackgroundImageFix" result="effect1_dropShadow_1_115"/>
<feBlend mode="normal" in="SourceGraphic" in2="effect1_dropShadow_1_115" result="shape"/>
</filter>
</defs>
</svg>
