<svg width="12" height="12" viewBox="0 0 12 12" fill="none" xmlns="http://www.w3.org/2000/svg">
<path d="M7 7.58333C7.16528 7.58333 7.30868 7.52257 7.43021 7.40104C7.55174 7.27951 7.6125 7.13611 7.6125 6.97083C7.6125 6.80556 7.55174 6.66215 7.43021 6.54063C7.30868 6.4191 7.16528 6.35833 7 6.35833C6.83472 6.35833 6.69132 6.4191 6.56979 6.54063C6.44826 6.66215 6.3875 6.80556 6.3875 6.97083C6.3875 7.13611 6.44826 7.27951 6.56979 7.40104C6.69132 7.52257 6.83472 7.58333 7 7.58333V7.58333M6.5625 5.71667H7.4375C7.4375 5.43472 7.46667 5.22813 7.525 5.09688C7.58333 4.96563 7.71944 4.79306 7.93333 4.57917C8.225 4.2875 8.41944 4.05174 8.51667 3.87188C8.61389 3.69201 8.6625 3.48056 8.6625 3.2375C8.6625 2.8 8.50938 2.44271 8.20312 2.16563C7.89687 1.88854 7.49583 1.75 7 1.75C6.60139 1.75 6.25382 1.86181 5.95729 2.08542C5.66076 2.30903 5.45417 2.60556 5.3375 2.975L6.125 3.29583C6.2125 3.05278 6.3316 2.87049 6.48229 2.74896C6.63299 2.62743 6.80556 2.56667 7 2.56667C7.23333 2.56667 7.42292 2.63229 7.56875 2.76354C7.71458 2.89479 7.7875 3.07222 7.7875 3.29583C7.7875 3.43194 7.74861 3.56076 7.67083 3.68229C7.59306 3.80382 7.45694 3.95694 7.2625 4.14167C6.94167 4.42361 6.74479 4.64479 6.67188 4.80521C6.59896 4.96562 6.5625 5.26944 6.5625 5.71667V5.71667M3.5 9.33333C3.17917 9.33333 2.90451 9.2191 2.67604 8.99063C2.44757 8.76215 2.33333 8.4875 2.33333 8.16667V1.16667C2.33333 0.845833 2.44757 0.571181 2.67604 0.342708C2.90451 0.114236 3.17917 0 3.5 0H10.5C10.8208 0 11.0955 0.114236 11.324 0.342708C11.5524 0.571181 11.6667 0.845833 11.6667 1.16667V8.16667C11.6667 8.4875 11.5524 8.76215 11.324 8.99063C11.0955 9.2191 10.8208 9.33333 10.5 9.33333H3.5V9.33333M1.16667 11.6667C0.845833 11.6667 0.571181 11.5524 0.342708 11.324C0.114236 11.0955 0 10.8208 0 10.5V2.33333H1.16667V10.5V10.5V10.5H9.33333V11.6667H1.16667V11.6667" fill="#3DF2C0"/>
</svg>
