<svg width="42" height="54" viewBox="0 0 42 54" fill="none" xmlns="http://www.w3.org/2000/svg">
<path d="M9 45C8.15 45 7.4375 44.7125 6.8625 44.1375C6.2875 43.5625 6 42.85 6 42C6 41.15 6.2875 40.4375 6.8625 39.8625C7.4375 39.2875 8.15 39 9 39C9.85 39 10.5625 39.2875 11.1375 39.8625C11.7125 40.4375 12 41.15 12 42C12 42.85 11.7125 43.5625 11.1375 44.1375C10.5625 44.7125 9.85 45 9 45V45M21 45C20.15 45 19.4375 44.7125 18.8625 44.1375C18.2875 43.5625 18 42.85 18 42C18 41.15 18.2875 40.4375 18.8625 39.8625C19.4375 39.2875 20.15 39 21 39C21.85 39 22.5625 39.2875 23.1375 39.8625C23.7125 40.4375 24 41.15 24 42C24 42.85 23.7125 43.5625 23.1375 44.1375C22.5625 44.7125 21.85 45 21 45V45M33 45C32.15 45 31.4375 44.7125 30.8625 44.1375C30.2875 43.5625 30 42.85 30 42C30 41.15 30.2875 40.4375 30.8625 39.8625C31.4375 39.2875 32.15 39 33 39C33.85 39 34.5625 39.2875 35.1375 39.8625C35.7125 40.4375 36 41.15 36 42C36 42.85 35.7125 43.5625 35.1375 44.1375C34.5625 44.7125 33.85 45 33 45V45M0 33V27C0 21.7 1.7 17.1 5.1 13.2C8.5 9.3 12.8 7 18 6.3V0H24V6.3C29.2 7 33.5 9.3 36.9 13.2C40.3 17.1 42 21.7 42 27V33H0V33M9 54C8.15 54 7.4375 53.7125 6.8625 53.1375C6.2875 52.5625 6 51.85 6 51C6 50.15 6.2875 49.4375 6.8625 48.8625C7.4375 48.2875 8.15 48 9 48C9.85 48 10.5625 48.2875 11.1375 48.8625C11.7125 49.4375 12 50.15 12 51C12 51.85 11.7125 52.5625 11.1375 53.1375C10.5625 53.7125 9.85 54 9 54V54M21 54C20.15 54 19.4375 53.7125 18.8625 53.1375C18.2875 52.5625 18 51.85 18 51C18 50.15 18.2875 49.4375 18.8625 48.8625C19.4375 48.2875 20.15 48 21 48C21.85 48 22.5625 48.2875 23.1375 48.8625C23.7125 49.4375 24 50.15 24 51C24 51.85 23.7125 52.5625 23.1375 53.1375C22.5625 53.7125 21.85 54 21 54V54M33 54C32.15 54 31.4375 53.7125 30.8625 53.1375C30.2875 52.5625 30 51.85 30 51C30 50.15 30.2875 49.4375 30.8625 48.8625C31.4375 48.2875 32.15 48 33 48C33.85 48 34.5625 48.2875 35.1375 48.8625C35.7125 49.4375 36 50.15 36 51C36 51.85 35.7125 52.5625 35.1375 53.1375C34.5625 53.7125 33.85 54 33 54V54" fill="currentColor"/>
</svg>
