<svg width="66" height="66" viewBox="0 0 66 66" fill="none" xmlns="http://www.w3.org/2000/svg">
<path d="M30 12V0H36V12H30V12M49.95 20.25L45.825 16.125L54.225 7.5L58.425 11.775L49.95 20.25V20.25M54 36V30H66V36H54V36M30 66V54H36V66H30V66M16.05 20.1L7.5 11.775L11.775 7.575L20.25 16.05L16.05 20.1V20.1M54.15 58.5L45.825 49.875L49.875 45.825L58.425 54.075L54.15 58.5V58.5M0 36V30H12V36H0V36M11.775 58.5L7.575 54.225L15.975 45.825L18.15 47.85L20.325 49.95L11.775 58.5V58.5M33 51C28 51 23.75 49.25 20.25 45.75C16.75 42.25 15 38 15 33C15 28 16.75 23.75 20.25 20.25C23.75 16.75 28 15 33 15C38 15 42.25 16.75 45.75 20.25C49.25 23.75 51 28 51 33C51 38 49.25 42.25 45.75 45.75C42.25 49.25 38 51 33 51V51" fill="currentColor"/>
</svg>
