<svg width="43" height="55" viewBox="0 0 43 55" fill="none" xmlns="http://www.w3.org/2000/svg">
<path d="M21.25 55.0001C15.3333 55.0001 10.3125 52.9376 6.1875 48.8126C2.0625 44.6876 0 39.6667 0 33.7501V10.0001C0 9.29173 0.239583 8.69798 0.71875 8.21881C1.19792 7.73964 1.79167 7.50006 2.5 7.50006C3.20833 7.50006 3.80208 7.73964 4.28125 8.21881C4.76042 8.69798 5 9.29173 5 10.0001V25.0001H10V5.00006C10 4.29173 10.2396 3.69798 10.7188 3.21881C11.1979 2.73964 11.7917 2.50006 12.5 2.50006C13.2083 2.50006 13.8021 2.73964 14.2812 3.21881C14.7604 3.69798 15 4.29173 15 5.00006V25.0001H20V2.50006C20 1.79173 20.2396 1.19798 20.7188 0.718811C21.1979 0.239644 21.7917 6.10352e-05 22.5 6.10352e-05C23.2083 6.10352e-05 23.8021 0.239644 24.2812 0.718811C24.7604 1.19798 25 1.79173 25 2.50006V25.0001H30V7.50006C30 6.79173 30.2396 6.19798 30.7188 5.71881C31.1979 5.23964 31.7917 5.00006 32.5 5.00006C33.2083 5.00006 33.8021 5.23964 34.2812 5.71881C34.7604 6.19798 35 6.79173 35 7.50006V21.8751C33.7917 22.7501 32.8646 23.8542 32.2188 25.1876C31.5729 26.5209 31.25 27.9167 31.25 29.3751V32.5001H28.125C25.5 32.5001 23.2812 33.4063 21.4688 35.2188C19.6562 37.0313 18.75 39.2501 18.75 41.8751V45.0001H22.5V41.8751C22.5 40.2917 23.0417 38.9584 24.125 37.8751C25.2083 36.7917 26.5417 36.2501 28.125 36.2501H35V29.3751C35 27.7917 35.5417 26.4584 36.625 25.3751C37.7083 24.2917 39.0417 23.7501 40.625 23.7501H42.5V33.7501C42.5 39.6667 40.4375 44.6876 36.3125 48.8126C32.1875 52.9376 27.1667 55.0001 21.25 55.0001V55.0001" fill="#3EBBFF"/>
</svg>
