<svg width="20" height="18" viewBox="0 0 20 18" fill="none" xmlns="http://www.w3.org/2000/svg">
<path d="M1 2V0H4V2H1ZM4.125 7.325L2.7 5.925L4.825 3.8L6.25 5.2L4.125 7.325ZM10 5C8.61667 5 7.4375 4.5125 6.4625 3.5375C5.4875 2.5625 5 1.38333 5 0H15C15 1.38333 14.5125 2.5625 13.5375 3.5375C12.5625 4.5125 11.3833 5 10 5ZM9 9V6H11V9H9ZM15.875 7.325L13.775 5.2L15.175 3.8L17.3 5.9L15.875 7.325ZM16 2V0H19V2H16ZM0 18V16C0.633333 16 1.10417 15.8333 1.4125 15.5C1.72083 15.1667 2.36667 15 3.35 15C4.33333 15 4.97917 15.1667 5.2875 15.5C5.59583 15.8333 6.05 16 6.65 16C7.28333 16 7.75417 15.8333 8.0625 15.5C8.37083 15.1667 9.01667 15 10 15C10.95 15 11.5958 15.1667 11.9375 15.5C12.2792 15.8333 12.75 16 13.35 16C13.9833 16 14.4458 15.8333 14.7375 15.5C15.0292 15.1667 15.6667 15 16.65 15C17.6333 15 18.2792 15.1667 18.5875 15.5C18.8958 15.8333 19.3667 16 20 16V18C19.05 18 18.4042 17.8333 18.0625 17.5C17.7208 17.1667 17.25 17 16.65 17C16.05 17 15.5958 17.1667 15.2875 17.5C14.9792 17.8333 14.3333 18 13.35 18C12.4 18 11.7542 17.8333 11.4125 17.5C11.0708 17.1667 10.6 17 10 17C9.36667 17 8.89583 17.1667 8.5875 17.5C8.27917 17.8333 7.63333 18 6.65 18C5.66667 18 5.02917 17.8333 4.7375 17.5C4.44583 17.1667 3.98333 17 3.35 17C2.71667 17 2.24583 17.1667 1.9375 17.5C1.62917 17.8333 0.983333 18 0 18ZM0 14V12C0.633333 12 1.10417 11.8333 1.4125 11.5C1.72083 11.1667 2.36667 11 3.35 11C4.3 11 4.9375 11.1667 5.2625 11.5C5.5875 11.8333 6.05 12 6.65 12C7.28333 12 7.75417 11.8333 8.0625 11.5C8.37083 11.1667 9.01667 11 10 11C10.95 11 11.5917 11.1667 11.925 11.5C12.2583 11.8333 12.7167 12 13.3 12C13.9333 12 14.4042 11.8333 14.7125 11.5C15.0208 11.1667 15.6667 11 16.65 11C17.6 11 18.2458 11.1667 18.5875 11.5C18.9292 11.8333 19.4 12 20 12V14C19.0167 14 18.3625 13.8333 18.0375 13.5C17.7125 13.1667 17.25 13 16.65 13C16.05 13 15.5958 13.1667 15.2875 13.5C14.9792 13.8333 14.3333 14 13.35 14C12.4 14 11.7542 13.8333 11.4125 13.5C11.0708 13.1667 10.6 13 10 13C9.36667 13 8.90417 13.1667 8.6125 13.5C8.32083 13.8333 7.68333 14 6.7 14C5.71667 14 5.0625 13.8333 4.7375 13.5C4.4125 13.1667 3.95 13 3.35 13C2.75 13 2.27917 13.1667 1.9375 13.5C1.59583 13.8333 0.95 14 0 14Z" fill="currentColor"/>
</svg>
