<svg width="48" height="60" viewBox="0 0 48 60" fill="none" xmlns="http://www.w3.org/2000/svg">
<path d="M24.825 51C25.425 50.95 25.9375 50.7125 26.3625 50.2875C26.7875 49.8625 27 49.35 27 48.75C27 48.05 26.775 47.4875 26.325 47.0625C25.875 46.6375 25.3 46.45 24.6 46.5C22.55 46.65 20.375 46.0875 18.075 44.8125C15.775 43.5375 14.325 41.225 13.725 37.875C13.625 37.325 13.3625 36.875 12.9375 36.525C12.5125 36.175 12.025 36 11.475 36C10.775 36 10.2 36.2625 9.75 36.7875C9.3 37.3125 9.15 37.925 9.3 38.625C10.15 43.175 12.15 46.425 15.3 48.375C18.45 50.325 21.625 51.2 24.825 51V51M24 60C17.15 60 11.4375 57.65 6.8625 52.95C2.2875 48.25 0 42.4 0 35.4C0 30.4 1.9875 24.9625 5.9625 19.0875C9.9375 13.2125 15.95 6.85 24 0C32.05 6.85 38.0625 13.2125 42.0375 19.0875C46.0125 24.9625 48 30.4 48 35.4C48 42.4 45.7125 48.25 41.1375 52.95C36.5625 57.65 30.85 60 24 60V60" fill="currentColor"/>
</svg>
