<svg width="66" height="66" viewBox="0 0 66 66" fill="none" xmlns="http://www.w3.org/2000/svg">
<path d="M30 9V0H36V9H30V9M30 66V57H36V66H30V66M57 36V30H66V36H57V36M0 36V30H9V36H0V36M53.1 17.1L48.9 12.9L54.15 7.5L58.5 11.85L53.1 17.1V17.1M11.85 58.5L7.5 54.15L12.9 48.9L17.1 53.1L11.85 58.5V58.5M54.15 58.5L48.9 53.1L53.1 48.9L58.5 54.15L54.15 58.5V58.5M12.9 17.1L7.5 11.85L11.85 7.5L17.1 12.9L12.9 17.1V17.1M33 51C28 51 23.75 49.25 20.25 45.75C16.75 42.25 15 38 15 33C15 28 16.75 23.75 20.25 20.25C23.75 16.75 28 15 33 15C38 15 42.25 16.75 45.75 20.25C49.25 23.75 51 28 51 33C51 38 49.25 42.25 45.75 45.75C42.25 49.25 38 51 33 51V51" fill="currentColor"/>
</svg>
