<svg width="376" height="797" viewBox="0 0 376 797" fill="none" xmlns="http://www.w3.org/2000/svg">
<path d="M220.171 10.2719C231.523 19.1198 241.224 30.8034 244.171 45.2719C244.261 46.981 244.301 48.6932 244.303 50.4047C244.305 51.3754 244.306 52.346 244.307 53.3461C244.303 54.3529 244.3 55.3596 244.296 56.3969C244.299 57.4114 244.303 58.4259 244.307 59.4711C244.305 60.9232 244.305 60.9232 244.303 62.4047C244.302 63.2904 244.301 64.1762 244.3 65.0888C244.171 67.2719 244.171 67.2719 243.171 69.2719C243.872 69.3209 244.573 69.3699 245.296 69.4203C259.797 70.5631 272.008 74.6424 283.171 84.2719C283.785 84.7437 284.4 85.2155 285.034 85.7016C297.389 95.3996 304.718 112.054 307.171 127.272C307.751 133.904 307.554 140.561 307.421 147.209C307.4 148.972 307.382 150.734 307.366 152.496C307.322 156.756 307.254 161.013 307.171 165.272C308.438 165.419 309.706 165.566 311.012 165.717C317.153 166.429 322.046 168.699 326.038 173.534C331.221 181.234 332.051 186.912 331.171 196.272C329.32 202.184 326.589 207.021 321.171 210.272C318.358 211.522 318.358 211.522 316.171 212.272C315.923 211.633 315.676 210.993 315.421 210.334C314.378 208.172 314.378 208.172 312.483 207.522C311.72 207.439 310.957 207.357 310.171 207.272C309.036 207.148 307.902 207.024 306.733 206.897C302.207 207.373 301.224 209.057 298.171 212.272C295.522 212.428 295.522 212.428 293.171 212.272C293.202 213.108 293.202 213.108 293.234 213.962C293.899 234.442 291.203 250.423 276.717 265.881C268.842 273.274 258.178 280.432 246.983 280.522C246.055 280.439 245.127 280.357 244.171 280.272C244.171 284.232 244.171 288.192 244.171 292.272C247.471 292.272 250.771 292.272 254.171 292.272C254.501 305.142 254.831 318.012 255.171 331.272C260.121 331.602 265.071 331.932 270.171 332.272C284.533 334.642 297.194 340.694 308.171 350.272C308.757 350.728 309.344 351.185 309.948 351.655C324.615 363.295 334.43 381.548 342.171 398.272C342.681 399.353 343.192 400.435 343.717 401.549C360.614 439.022 367.805 481.612 372.171 522.272C372.317 523.575 372.317 523.575 372.466 524.904C374.462 542.67 375.395 560.395 375.171 578.272C373.191 578.272 371.211 578.272 369.171 578.272C369.315 579.313 369.459 580.355 369.608 581.428C373.559 611.264 373.559 611.264 365.628 622.448C360.816 628.471 354.659 632.528 346.893 633.581C338.711 633.977 333.15 631.365 326.171 627.272C326.387 628.069 326.604 628.865 326.827 629.686C327.105 630.746 327.384 631.805 327.671 632.897C327.949 633.941 328.227 634.985 328.514 636.061C329.162 639.229 329.287 642.049 329.171 645.272C331.811 645.272 327.451 645.272 330.171 645.272C330.671 651.272 331.671 656.272 332.171 662.272C333.871 662.272 330.521 662.272 332.171 662.272C332.387 663.152 332.604 664.033 332.827 664.94C333.105 666.101 333.384 667.263 333.671 668.459C334.088 670.182 334.088 670.182 334.514 671.94C335.086 674.84 335.303 677.333 335.171 680.272C335.831 680.272 334.991 680.272 335.671 680.272C335.671 686.272 335.671 692.272 336.171 698.272C330.561 698.272 325.951 698.272 320.171 698.272C320.171 692.152 320.171 704.212 320.171 698.272C314.231 698.272 308.291 698.272 302.171 698.272C302.171 704.392 302.171 692.332 302.171 698.272C284.021 698.272 265.871 698.272 247.171 698.272C247.171 704.212 247.171 710.152 247.171 716.272C247.114 719.849 247.049 723.422 246.952 726.998C246.932 727.786 246.913 728.574 246.892 729.386C246.821 732.223 246.746 735.06 246.671 737.897C246.506 744.291 246.341 750.684 246.171 757.272C230.661 757.272 215.151 757.272 199.171 757.272C199.171 743.742 199.171 730.212 199.171 716.272C200.871 716.272 197.521 716.272 199.171 716.272C199.171 710.332 199.171 704.392 199.171 698.272C194.551 698.272 184.931 698.272 180.171 698.272C180.171 704.212 180.171 710.152 180.171 716.272C175.751 716.272 184.461 716.272 180.171 716.272C180.171 722.212 180.171 728.152 180.171 734.272C184.591 734.272 175.881 734.272 180.171 734.272C180.171 741.862 180.171 749.452 180.171 757.272C164.331 757.272 148.491 757.272 132.171 757.272C132.171 737.802 132.171 718.332 132.171 698.272C116.661 698.272 101.151 698.272 85.1706 698.272C85.1706 692.152 85.1706 704.212 85.1706 698.272C79.5606 698.272 73.9506 698.272 68.1706 698.272C68.1706 704.392 68.1706 692.332 68.1706 698.272C64.1178 698.303 64.1178 698.303 59.9831 698.334C52.3257 698.363 44.795 698.026 37.1706 697.272C38.1341 685.75 38.1341 685.75 39.1706 680.272C41.5506 680.272 36.8606 680.272 39.1706 680.272C39.1706 674.662 42.1706 668.052 42.1706 662.272C38.7706 662.612 45.4706 661.942 42.1706 662.272C43.1606 656.332 44.1506 650.392 45.1706 644.272C49.5906 644.272 40.8806 644.272 45.1706 644.272C45.1706 640.642 61.6707 635.512 61.6707 631.772C60.392 631.731 54.9882 625.814 53.6707 625.772C46.4063 624.958 15.5459 627.96 10.6707 623.272C4.5459 612.96 3.88042 604.393 4.96063 592.575C5.15552 590.437 5.3226 588.3 5.47528 586.159C5.68908 583.195 5.92088 581.233 6.17075 578.272C4.19075 578.272 2.21075 578.272 0.170747 578.272C-0.850651 551.687 2.90063 524.206 6.35809 497.897C6.5247 496.626 6.69131 495.355 6.86297 494.045C7.17075 492.772 7.49916 492.03 7.67075 490.772C7.80763 489.769 8.02972 488.806 8.17075 487.772C8.67075 485.772 8.6709 485.772 9.17075 484.272C9.4944 482.233 9.77015 480.187 10.0261 478.139C11.081 470.445 12.6842 462.953 14.4831 455.397C14.7161 454.412 14.7161 454.412 14.9538 453.406C17.2909 443.547 19.8159 433.841 23.1706 424.272C23.4552 423.438 23.7397 422.604 24.0329 421.745C28.2436 409.44 32.9204 397.684 39.1706 386.272C39.7455 385.207 40.3204 384.142 40.9128 383.045C54.4727 358.862 73.1293 341.146 99.9284 333.151C104.677 331.997 109.309 332.05 114.171 332.147C115.041 332.156 115.911 332.165 116.807 332.174C118.929 332.198 121.05 332.233 123.171 332.272C123.094 331.612 123.017 330.953 122.938 330.273C121.521 317.67 121.732 304.859 123.171 292.272C126.801 292.272 131.431 291.272 135.171 291.272C135.171 288.632 135.171 286.992 135.171 284.272C136.171 286.272 135.171 283.772 135.171 281.272C134.841 279.622 125.171 278.272 121.671 277.772C119.173 276.293 116.318 275.901 113.671 274.772C99.9308 268.392 90.5104 259.188 84.9948 244.987C82.6538 237.276 81.8998 230.268 82.0456 222.209C82.0546 221.248 82.0636 220.287 82.0729 219.297C82.0962 216.955 82.1289 214.614 82.1706 212.272C81.0633 212.312 79.956 212.352 78.8151 212.393C75.1706 212.272 75.1706 212.272 72.8581 210.334C72.3012 209.654 71.7443 208.973 71.1706 208.272C68.0319 206.703 65.632 206.92 62.1706 207.272C59.2309 209.626 59.2309 209.626 57.1706 212.272C49.9259 209.788 46.5 205.931 43.1706 199.272C41.1662 192.953 40.9597 185.062 43.6706 178.959C47.611 172.276 53.8408 167.579 61.1706 165.272C63.1702 165.231 65.1712 165.224 67.1706 165.272C67.1392 163.708 67.1392 163.708 67.1071 162.113C67.0336 158.172 66.9884 154.23 66.9509 150.288C66.931 148.596 66.9039 146.903 66.8688 145.212C66.4411 124.009 71.2901 105.239 86.1706 89.2719C98.4029 76.696 113.662 70.0787 131.171 69.2719C130.841 68.2819 130.511 67.2919 130.171 66.2719C128.424 46.8302 132.868 33.0045 145.042 17.9594C164.335 -3.28393 196.947 -5.46698 220.171 10.2719Z" fill="#AE7585"/>
<path d="M66.1707 413.272C67.4907 413.602 68.8108 413.932 70.1708 414.272C71.1248 416.816 71.2721 417.986 70.3504 420.584C69.9199 421.471 69.4893 422.358 69.0458 423.272C55.074 455.755 61.8949 486.144 71.1708 519.272C147.731 519.272 224.291 519.272 303.171 519.272C313.551 488.13 318.708 460.206 307.647 428.655C304.441 419.484 304.441 419.484 304.171 415.272C304.831 414.612 305.491 413.952 306.171 413.272C308.112 413.319 308.112 413.319 310.171 414.272C323.89 434.062 324.135 464.145 320.225 486.885C315.643 511.311 315.643 511.311 311.421 519.784C308.38 528.268 311.856 538.497 313.546 547.084C315.174 555.584 316.641 564.061 317.733 572.647C318.76 580.694 320.116 588.621 321.688 596.579C322.986 603.175 324.08 609.786 325.09 616.432C326.089 622.944 327.315 629.397 328.62 635.854C329.138 639.066 329.671 641.772 330.171 645.272C327.451 645.272 332.811 645.272 330.171 645.272C330.671 650.772 331.671 656.272 332.171 662.272C333.871 662.272 330.521 662.272 332.171 662.272C332.387 663.152 332.604 664.033 332.827 664.94C333.244 666.682 333.244 666.682 333.671 668.459C334.088 670.182 334.088 670.182 334.514 671.94C335.171 675.272 335.171 677.272 335.671 680.272C334.991 680.272 336.331 680.272 335.671 680.272C335.671 686.212 336.171 692.152 336.171 698.272C330.561 698.272 325.951 698.272 320.171 698.272C314.231 698.272 308.291 698.272 302.171 698.272C284.021 698.272 265.871 698.272 247.171 698.272C247.171 704.212 247.171 710.152 247.171 716.272C247.114 719.849 247.049 723.422 246.952 726.998C246.922 728.18 246.922 728.18 246.892 729.386C246.821 732.223 246.746 735.06 246.671 737.897C246.506 744.291 246.341 750.684 246.171 757.272C230.661 757.272 215.151 757.272 199.171 757.272C199.171 743.742 199.171 730.212 199.171 716.272C200.871 716.272 197.521 716.272 199.171 716.272C199.171 710.332 199.171 704.392 199.171 698.272C194.551 698.272 184.931 698.272 180.171 698.272C180.171 704.212 180.171 710.152 180.171 716.272C175.751 716.272 184.461 716.272 180.171 716.272C180.171 722.212 180.171 728.152 180.171 734.272C184.591 734.272 175.881 734.272 180.171 734.272C180.171 741.862 180.171 749.452 180.171 757.272C164.331 757.272 148.491 757.272 132.171 757.272C132.171 737.802 132.171 718.332 132.171 698.272C116.661 698.272 101.151 698.272 85.1706 698.272C85.1706 692.152 85.1706 704.212 85.1706 698.272C79.5606 698.272 73.9506 698.272 68.1706 698.272C68.1706 704.392 68.1706 692.332 68.1706 698.272C64.1178 698.303 64.1178 698.303 59.9831 698.334C52.3257 698.363 44.795 698.026 37.1706 697.272C38.1341 685.75 38.1341 685.75 39.1706 680.272C41.5506 680.272 36.8606 680.272 39.1706 680.272C39.1706 674.662 41.3193 668.732 42.1707 662.772C42.6707 659.272 42.0151 663.205 42.1706 662.272C43.1606 656.332 44.1506 650.392 45.1706 644.272C49.5906 644.272 40.8806 644.272 45.1706 644.272C45.7539 640.772 46.6707 636.772 47.1707 633.272C47.6707 631.979 48.6707 627.772 48.1707 630.772C48.1707 630.442 48.6708 628.612 48.6708 628.272C49.5886 628.258 49.4321 623.787 50.3778 623.772C52.2186 623.7 48.2928 623.845 50.1708 623.772C51.3774 623.737 49.1346 623.808 50.3778 623.772C55.1757 622.889 45.6707 639.772 48.6707 626.772C50.108 623.745 49.9858 620.249 50.3778 616.94C50.5147 616.031 50.6516 615.121 50.7927 614.184C51.2229 611.28 51.6042 608.371 51.9832 605.459C52.2553 603.546 52.5307 601.632 52.8094 599.719C53.2193 596.899 53.6259 594.079 54.0178 591.256C54.9773 584.368 56.1941 577.563 57.5211 570.738C58.4174 565.956 59.0671 561.16 59.6707 556.334C60.6549 548.753 61.7955 541.231 63.2567 533.725C64.5618 526.82 64.3413 522.072 61.9207 515.459C59.9627 509.894 58.3263 504.33 56.9832 498.584C56.8289 497.933 56.6745 497.282 56.5155 496.611C56.0352 494.503 55.5949 492.392 55.1707 490.272C54.9912 489.378 54.8117 488.484 54.6268 487.563C51.3497 469.822 51.3428 450.464 57.1707 433.272C57.4116 432.55 57.6525 431.828 57.9007 431.084C62.4771 417.623 62.4771 417.623 66.1707 413.272Z" fill="#905C69"/>
<path d="M220.171 10.2719C231.523 19.1198 241.224 30.8034 244.171 45.2719C244.261 46.981 244.301 48.6932 244.303 50.4047C244.305 51.3754 244.306 52.346 244.307 53.3461C244.303 54.3529 244.3 55.3596 244.296 56.3969C244.299 57.4114 244.303 58.4259 244.307 59.4711C244.305 60.9232 244.305 60.9232 244.303 62.4047C244.302 63.2904 244.301 64.1762 244.3 65.0888C244.171 67.2719 244.171 67.2719 243.171 69.2719C243.872 69.3209 244.573 69.3699 245.296 69.4203C259.797 70.5631 272.008 74.6424 283.171 84.2719C283.785 84.7437 284.4 85.2155 285.034 85.7016C297.389 95.3996 304.718 112.054 307.171 127.272C307.751 133.904 307.554 140.561 307.421 147.209C307.4 148.972 307.382 150.734 307.366 152.496C307.322 156.756 307.254 161.013 307.171 165.272C308.438 165.419 309.706 165.566 311.012 165.717C317.153 166.429 322.046 168.699 326.038 173.534C331.221 181.234 332.051 186.912 331.171 196.272C329.32 202.184 326.589 207.021 321.171 210.272C318.358 211.522 318.358 211.522 316.171 212.272C315.923 211.633 315.676 210.993 315.421 210.334C314.378 208.172 314.378 208.172 312.483 207.522C311.72 207.439 310.957 207.357 310.171 207.272C309.036 207.148 307.902 207.024 306.733 206.897C302.207 207.373 301.224 209.057 298.171 212.272C295.522 212.428 295.522 212.428 293.171 212.272C293.192 212.829 293.212 213.387 293.234 213.962C293.899 234.442 291.203 250.423 276.717 265.881C268.842 273.274 258.178 280.432 246.983 280.522C246.055 280.439 245.127 280.357 244.171 280.272C244.171 283.902 244.171 287.532 244.171 291.272C230.971 291.602 217.771 291.932 204.171 292.272C202.418 297.036 200.664 301.801 198.858 306.709C198.311 308.194 197.764 309.678 197.201 311.207C194.756 317.864 192.36 324.525 190.171 331.272C189.511 331.272 188.851 331.272 188.171 331.272C186.313 326.06 184.462 320.845 182.616 315.629C181.988 313.854 181.357 312.08 180.725 310.306C179.817 307.759 178.915 305.209 178.014 302.659C177.73 301.865 177.446 301.071 177.153 300.253C176.06 297.144 175.171 294.593 175.171 291.272C161.971 291.272 148.771 291.272 135.171 291.272C135.171 287.972 135.171 284.672 135.171 281.272C133.789 281.21 132.407 281.148 130.983 281.084C116.899 279.65 103.193 272.095 94.1707 261.272C86.9505 251.689 81.9985 240.345 82.073 228.19C82.0762 227.259 82.0795 226.327 82.0828 225.368C82.0954 223.928 82.0954 223.928 82.1082 222.459C82.1127 221.48 82.1172 220.501 82.1218 219.493C82.1336 217.086 82.1499 214.679 82.1706 212.272C81.0633 212.312 79.956 212.352 78.8151 212.393C75.1706 212.272 75.1706 212.272 72.8581 210.334C72.3012 209.654 71.7443 208.973 71.1706 208.272C68.0319 206.703 65.632 206.92 62.1706 207.272C59.2309 209.626 59.2309 209.626 57.1706 212.272C49.9259 209.788 46.5 205.931 43.1706 199.272C41.1662 192.953 40.9597 185.062 43.6706 178.959C47.611 172.276 53.8408 167.579 61.1706 165.272C63.1702 165.231 65.1712 165.224 67.1706 165.272C67.1496 164.23 67.1287 163.187 67.1071 162.113C67.0336 158.172 66.9884 154.23 66.9509 150.288C66.931 148.596 66.9039 146.903 66.8688 145.212C66.4411 124.009 71.2901 105.239 86.1706 89.2719C98.4029 76.696 113.662 70.0787 131.171 69.2719C130.841 68.2819 130.511 67.2919 130.171 66.2719C128.424 46.8302 132.868 33.0045 145.042 17.9594C164.335 -3.28393 196.947 -5.46698 220.171 10.2719Z" fill="#C1C1C0"/>
<path d="M307.171 127.272C306.83 127.272 307.501 127.272 307.171 127.272C307.171 139.812 307.778 152.352 307.778 165.272C311.747 165.767 311.747 165.767 315.796 166.272C323.996 169.091 328.071 174.767 331.832 182.272C332.687 191.336 332.229 198.733 326.821 206.272C323.766 209.32 320.869 210.879 316.798 212.272C316.55 211.633 316.302 210.993 316.046 210.334C315.002 208.172 315.002 208.172 313.102 207.522C312.337 207.439 311.572 207.357 310.784 207.272C309.647 207.148 308.51 207.024 307.339 206.897C302.803 207.373 301.818 209.057 298.757 212.272C296.102 212.428 296.102 212.428 293.746 212.272C293.767 212.83 293.788 213.387 293.809 213.962C294.475 234.442 291.774 250.424 277.255 265.881C269.361 273.274 258.673 280.432 247.452 280.522C246.522 280.439 245.592 280.357 244.634 280.272C244.634 283.902 244.634 287.532 244.634 291.272C231.403 291.602 218.173 291.932 204.542 292.272C202.785 297.036 201.028 301.801 199.217 306.709C198.669 308.194 198.121 309.678 197.556 311.207C195.106 317.864 192.704 324.525 190.51 331.272C189.849 331.272 189.187 331.272 188.506 331.272C186.644 326.06 184.788 320.845 182.939 315.629C182.308 313.854 181.676 312.08 181.043 310.306C180.133 307.759 179.229 305.209 178.326 302.659C177.899 301.468 177.899 301.468 177.462 300.253C176.367 297.144 175.476 294.593 175.476 291.272C162.246 291.272 149.016 291.272 135.384 291.272C135.384 287.972 135.384 284.672 135.384 281.272C133.999 281.21 132.614 281.148 131.187 281.084C117.071 279.65 103.333 272.095 94.2907 261.272C87.054 251.689 82.0907 240.345 82.1654 228.19C82.1686 227.259 82.1719 226.327 82.1752 225.368C82.1878 223.928 82.1878 223.928 82.2006 222.459C82.2052 221.48 82.2097 220.501 82.2143 219.493C82.2261 217.086 82.2426 214.679 82.2633 212.272C80.5985 212.332 80.5985 212.332 78.9001 212.393C75.2473 212.272 75.2473 212.272 72.9295 210.334C72.3714 209.654 71.8132 208.973 71.2381 208.272C68.0923 206.703 65.6869 206.92 62.2176 207.272C59.2711 209.626 59.2711 209.626 57.2061 212.272C49.9449 209.788 46.5112 205.931 43.1741 199.272C41.1652 192.954 40.9582 185.062 43.6753 178.959C46.8337 173.569 52.2905 168.45 58.2084 166.272C61.6694 166.077 61.6695 166.077 65.475 166.147C67.3743 166.174 67.3743 166.174 69.3119 166.202C70.7615 166.236 70.7615 166.236 72.2404 166.272C72.2404 164.952 72.2404 163.632 72.2404 162.272C78.5098 162.746 83.1623 164.891 88.7116 167.745C89.5915 168.187 90.4715 168.63 91.3781 169.086C94.1705 170.492 96.9556 171.913 99.7406 173.334C101.64 174.294 103.539 175.253 105.439 176.211C110.081 178.554 114.716 180.91 119.348 183.272C119.903 182.85 120.459 182.429 121.031 181.995C121.757 181.447 122.484 180.899 123.232 180.334C123.953 179.789 124.674 179.244 125.416 178.682C128.818 176.222 130.873 176.153 135.048 176.174C136.172 176.178 137.296 176.181 138.454 176.184C139.632 176.192 140.811 176.201 142.025 176.209C143.211 176.214 144.397 176.218 145.619 176.223C148.555 176.235 151.491 176.251 154.428 176.272C154.428 172.972 154.428 169.672 154.428 166.272C155.544 165.839 156.66 165.406 157.811 164.959C161.619 163.573 161.619 163.573 163.448 160.272C163.834 158.616 164.178 156.95 164.451 155.272C171.665 154.784 171.665 154.784 175.351 157.022C178.452 160.299 179.715 162.92 179.794 167.424C179.819 168.201 179.845 168.978 179.871 169.778C179.906 171.395 179.937 173.012 179.965 174.629C180.125 179.334 180.542 182.384 183.494 186.272C184.156 186.107 184.817 185.942 185.499 185.772C191.231 184.819 196.223 184.622 201.535 187.272C201.69 186.406 201.69 186.406 201.848 185.522C202.538 183.272 202.538 183.272 204.01 181.553C206.012 178.576 206.274 176.061 206.735 172.522C206.894 171.352 207.052 170.181 207.216 168.975C207.326 168.083 207.436 167.191 207.549 166.272C208.81 166.024 210.071 165.777 211.37 165.522C214.158 164.819 215.374 164.452 217.509 162.459C218.676 160.062 219.21 157.906 219.576 155.272C222.771 154.897 222.771 154.897 226.592 155.272C229.27 157.463 231.059 160.184 232.606 163.272C232.677 165.479 232.69 167.689 232.669 169.897C232.66 171.085 232.651 172.274 232.641 173.499C232.624 174.871 232.624 174.871 232.606 176.272C233.237 176.251 233.869 176.23 234.519 176.208C237.41 176.125 240.301 176.073 243.193 176.022C244.186 175.988 245.179 175.955 246.202 175.92C252.599 175.836 256.538 176.339 261.672 180.272C263.113 182.522 263.113 182.522 263.677 184.272C265.001 183.425 266.326 182.578 267.649 181.73C268.862 180.954 270.076 180.18 271.292 179.407C275.209 176.908 279.082 174.353 282.928 171.745C283.816 171.149 284.705 170.554 285.621 169.941C287.387 168.756 289.146 167.56 290.896 166.351C291.714 165.807 292.531 165.263 293.374 164.702C294.46 163.963 294.46 163.963 295.568 163.209C298.346 162.019 299.915 162.439 302.766 163.272C302.766 163.932 302.766 164.592 302.766 165.272C304.089 165.272 306.414 165.272 307.778 165.272C307.778 152.732 307.171 140.192 307.171 127.272Z" fill="#F7B099"/>
<path d="M220.171 10.2719C231.523 19.1198 241.224 30.8034 244.171 45.2719C244.261 46.981 244.301 48.6932 244.303 50.4047C244.305 51.3754 244.306 52.346 244.307 53.3461C244.303 54.3529 244.3 55.3596 244.296 56.3969C244.299 57.4114 244.303 58.4259 244.307 59.4711C244.306 60.4392 244.305 61.4073 244.303 62.4047C244.302 63.2904 244.301 64.1762 244.3 65.0888C244.171 67.2719 244.171 67.2719 243.171 69.2719C204.891 69.6019 166.611 69.9319 127.171 70.2719C129.151 69.7769 129.151 69.7769 131.171 69.2719C130.841 68.2819 130.511 67.2919 130.171 66.2719C128.424 46.8302 132.868 33.0045 145.042 17.9594C164.335 -3.28393 196.947 -5.46698 220.171 10.2719Z" fill="#A0A09D"/>
<path d="M164.171 155.272C171.369 154.784 171.369 154.784 175.046 157.022C178.14 160.299 179.4 162.92 179.479 167.424C179.504 168.201 179.53 168.978 179.556 169.778C179.591 171.395 179.622 173.012 179.649 174.629C179.809 179.334 180.225 182.384 183.171 186.272C183.831 186.107 184.491 185.942 185.171 185.772C190.89 184.819 195.87 184.622 201.171 187.272C201.325 186.406 201.325 186.406 201.483 185.522C202.171 183.272 202.171 183.272 203.639 181.553C205.638 178.576 205.898 176.061 206.358 172.522C206.517 171.352 206.675 170.181 206.839 168.975C206.948 168.083 207.058 167.191 207.171 166.272C208.429 166.024 209.687 165.777 210.983 165.522C213.764 164.819 214.978 164.452 217.108 162.459C218.273 160.062 218.805 157.906 219.171 155.272C222.358 154.897 222.358 154.897 226.171 155.272C228.842 157.463 230.627 160.184 232.171 163.272C232.242 165.479 232.255 167.689 232.233 169.897C232.224 171.085 232.215 172.274 232.206 173.499C232.188 174.871 232.188 174.871 232.171 176.272C232.801 176.251 233.43 176.23 234.079 176.208C236.964 176.125 239.848 176.073 242.733 176.022C243.724 175.988 244.715 175.955 245.735 175.92C252.118 175.836 256.048 176.339 261.171 180.272C262.608 182.522 262.608 182.522 263.171 184.272C264.492 183.425 265.813 182.578 267.134 181.73C268.344 180.954 269.556 180.18 270.768 179.407C274.677 176.908 278.541 174.353 282.378 171.745C283.264 171.149 284.151 170.554 285.064 169.941C286.827 168.756 288.582 167.56 290.328 166.351C291.144 165.807 291.959 165.263 292.8 164.702C293.884 163.963 293.884 163.963 294.989 163.209C297.76 162.019 299.326 162.439 302.171 163.272C302.073 164.991 302.073 164.991 301.171 167.272C299.051 168.937 297.01 170.354 294.733 171.772C293.377 172.645 292.022 173.519 290.667 174.393C289.944 174.854 289.22 175.316 288.475 175.791C284.382 178.422 280.342 181.132 276.296 183.834C275.505 184.359 274.714 184.884 273.9 185.424C272.8 186.155 272.8 186.155 271.679 186.901C271.025 187.335 270.372 187.769 269.699 188.216C268.196 189.187 268.196 189.187 267.171 190.272C267.037 192.124 266.94 193.979 266.858 195.834C266.312 202.901 264.788 207.782 259.608 212.709C256.331 214.81 253.79 215.398 249.978 215.449C249.137 215.462 248.296 215.475 247.429 215.488C246.069 215.499 246.069 215.499 244.682 215.51C243.747 215.518 242.811 215.526 241.846 215.535C239.865 215.549 237.884 215.559 235.902 215.567C232.88 215.584 229.859 215.628 226.837 215.672C224.91 215.682 222.984 215.691 221.057 215.698C220.157 215.715 219.257 215.733 218.33 215.751C211.517 215.727 208.041 213.823 202.921 209.272C200.588 205.273 200.309 201.485 199.858 196.917C199.442 194.173 199.442 194.173 197.331 192.924C194.187 191.975 191.431 192.035 188.171 192.272C184.965 193.942 184.965 193.942 184.432 196.846C184.243 197.874 184.053 198.901 183.858 199.959C182.557 205.663 180.739 209.541 176.171 213.272C173.291 214.945 171.185 215.528 167.865 215.562C167.023 215.575 166.182 215.588 165.315 215.601C163.964 215.605 163.964 215.605 162.585 215.608C161.65 215.615 160.716 215.621 159.753 215.628C157.778 215.638 155.802 215.643 153.827 215.643C150.813 215.647 147.801 215.683 144.788 215.721C142.866 215.727 140.944 215.731 139.022 215.733C138.125 215.747 137.228 215.762 136.304 215.776C130.75 215.736 127.576 214.977 123.171 211.272C118.5 206.212 117.03 202.153 117.153 195.333C116.855 190.891 116.855 190.891 114.381 187.365C111.806 185.758 109.228 184.505 106.448 183.288C105.473 182.816 104.498 182.345 103.493 181.859C100.384 180.369 97.2486 178.946 94.1082 177.522C91.991 176.521 89.8757 175.516 87.7625 174.506C82.5874 172.045 77.3896 169.639 72.1707 167.272C72.1707 165.622 72.1707 163.972 72.1707 162.272C78.4258 162.746 83.0677 164.891 88.6043 167.745C89.4823 168.187 90.3602 168.63 91.2648 169.086C94.0508 170.492 96.8295 171.913 99.6082 173.334C101.503 174.294 103.398 175.253 105.294 176.211C109.925 178.554 114.549 180.91 119.171 183.272C119.725 182.85 120.279 182.429 120.85 181.995C121.575 181.447 122.299 180.899 123.046 180.334C123.765 179.789 124.484 179.244 125.225 178.682C128.619 176.222 130.669 176.153 134.835 176.174C135.956 176.178 137.078 176.181 138.233 176.184C139.409 176.192 140.584 176.201 141.796 176.209C142.979 176.214 144.162 176.218 145.382 176.223C148.311 176.235 151.241 176.251 154.171 176.272C154.171 172.972 154.171 169.672 154.171 166.272C155.284 165.839 156.398 165.406 157.546 164.959C161.346 163.573 161.346 163.573 163.171 160.272C163.556 158.616 163.899 156.95 164.171 155.272Z" fill="#6A6361"/>
<path d="M134.171 291.272C129.305 291.272 138.671 291.272 134.171 291.272C131.671 291.272 135.171 291.272 135.171 291.272C148.371 291.272 161.571 291.272 175.171 291.272C177.316 297.315 179.461 303.358 181.671 309.584C182.349 311.489 183.028 313.393 183.727 315.355C184.261 316.865 184.794 318.375 185.327 319.885C185.608 320.669 185.888 321.452 186.177 322.26C187.274 325.379 188.171 327.939 188.171 331.272C188.831 331.272 189.491 331.272 190.171 331.272C190.494 329.524 190.493 329.524 190.823 327.741C192.269 321.239 194.645 315.059 196.966 308.831C197.741 306.751 198.506 304.668 199.27 302.584C203.022 292.421 203.022 292.421 204.171 291.272C207.011 291.171 209.826 291.132 212.667 291.139C213.961 291.138 213.961 291.138 215.281 291.136C217.116 291.136 218.951 291.137 220.787 291.142C223.565 291.147 226.343 291.142 229.122 291.135C230.908 291.136 232.693 291.137 234.479 291.139C235.709 291.136 235.709 291.136 236.965 291.133C242.816 291.156 248.285 291.683 254.171 292.272C254.501 305.472 254.831 318.672 255.171 332.272C211.611 332.272 168.051 332.272 123.171 332.272C122.555 325.502 122.003 319.023 122.046 312.272C122.048 311.504 122.049 310.737 122.051 309.946C122.096 304.009 122.496 298.174 123.171 292.272C126.801 292.272 130.431 291.272 134.171 291.272C134.171 293.992 134.171 288.772 134.171 291.272C146.171 291.272 130.211 291.272 134.171 291.272C134.171 293.272 134.171 290.272 134.171 291.272Z" fill="#8F5C68"/>
<path d="M248.171 757.272C253.671 758.272 253.171 757.954 259.171 761.772C264.171 764.954 259.671 762.272 265.17 765.272C266.82 765.932 267.971 767.092 269.671 767.772C270.661 768.762 272.17 769.272 272.17 769.272C275.171 771.772 274.671 771.272 278.171 775.272C281.671 781.084 282.171 782.272 285.671 789.272C286.671 791.772 286.671 791.772 286.671 795.272C292.451 795.272 281.061 795.272 286.671 795.272C286.671 799.012 286.671 791.642 286.671 795.272C280.401 795.272 271.63 795.272 265.17 795.272C265.17 791.532 265.17 798.902 265.17 795.272C259.56 795.272 253.671 794.721 248.17 794.272C248.17 798.352 248.17 790.312 248.17 794.272C247.16 794.189 246.149 794.107 245.108 794.022C240.78 793.426 237.884 791.514 234.17 789.272C233.171 788.772 233.171 788.772 232.171 788.272C228.171 785.772 227.319 785.582 225.17 783.272C224.407 782.55 223.644 781.828 222.858 781.084C221.171 779.272 221.171 779.272 219.171 777.272C219.851 777.272 218.511 777.272 219.171 777.272C219.171 781.232 219.17 785.192 219.17 789.272C215.77 789.272 222.47 789.272 219.17 789.272C219.17 794.882 219.17 789.492 219.17 795.272C213.56 795.272 217.95 795.272 212.17 795.272C212.17 799.012 212.17 791.642 212.17 795.272C208.21 795.272 203.25 795.272 199.17 795.272C199.17 792.962 199.171 790.652 199.171 788.272C201.211 788.272 197.191 788.272 199.171 788.272C199.171 782.332 199.17 776.392 199.17 770.272C197.47 770.272 200.82 770.272 199.17 770.272C199.17 765.982 199.171 761.692 199.171 757.272C215.341 757.272 231.511 757.272 248.171 757.272C248.171 758.632 248.171 755.952 248.171 757.272Z" fill="#794B57"/>
<path d="M122.171 759.772C125.171 758.772 128.111 757.272 131.171 757.272C131.171 755.912 131.171 758.592 131.171 757.272C147.341 757.272 162.599 757.272 179.259 757.272C178.171 757.272 181.171 757.272 180.171 757.272C175.751 757.272 184.461 757.272 180.171 757.272C180.171 762.772 180.171 764.492 180.171 770.272C184.931 770.272 175.551 770.272 180.171 770.272C180.171 776.542 180.171 782.397 180.171 789.272C175.411 789.272 184.791 789.272 180.171 789.272C180.171 794.882 180.171 791.272 180.171 795.272C174.561 795.272 181.951 795.272 176.171 795.272C176.171 799.012 176.171 791.642 176.171 795.272C170.561 795.272 164.951 795.272 159.171 795.272C158.181 787.352 158.181 787.352 157.171 779.272C156.222 780.303 155.273 781.334 154.296 782.397C151.342 785.454 149.671 787.272 145.671 789.772C142.826 791.55 143.671 791.272 140.171 792.772C140.171 792.772 145.171 790.272 137.671 794.272C124.671 795.272 127.951 795.272 122.171 795.272C122.171 799.012 122.171 791.642 122.171 795.272C115.901 795.272 109.631 795.272 103.171 795.272C103.171 791.532 103.171 798.902 103.171 795.272C97.5607 795.272 100.951 795.272 95.1707 795.272C92.6707 795.272 89.1707 795.272 89.1707 795.272C89.5229 795.272 91.6707 791.272 94.6707 787.272C94.6707 787.272 94.6707 787.272 95.1707 786.459C99.1707 778.272 104.81 770.24 111.776 764.928C118.508 760.272 118.671 760.772 122.171 759.772C122.171 762.152 122.171 757.462 122.171 759.772Z" fill="#7A4957"/>
<path d="M132.171 698.272C147.351 698.272 164.531 698.272 180.171 698.272C180.171 717.412 180.171 737.552 180.171 757.272C164.991 757.272 147.811 757.272 132.171 757.272C132.171 738.132 132.171 717.992 132.171 698.272Z" fill="#F6B29C"/>
<path d="M199.171 698.272C213.864 698.272 232.032 698.272 247.171 698.272C247.171 717.412 247.171 737.552 247.171 757.272C232.477 757.272 214.31 757.272 199.171 757.272C199.171 738.132 199.171 717.992 199.171 698.272Z" fill="#F7B19A"/>
<path d="M188.608 105.834C191.98 107.726 192.612 109.799 194.171 113.272C195.152 114.29 196.147 115.297 197.171 116.272C197.171 116.932 197.171 117.592 197.171 118.272C197.728 118.499 198.284 118.726 198.858 118.959C201.832 120.647 203.891 122.739 206.171 125.272C206.171 125.932 206.171 126.592 206.171 127.272C206.748 127.519 207.326 127.767 207.921 128.022C210.482 129.445 212.104 131.205 214.171 133.272C214.975 133.746 215.779 134.221 216.608 134.709C219.598 136.532 221.7 138.801 224.171 141.272C225.099 141.829 226.027 142.386 226.983 142.959C227.705 143.393 228.427 143.826 229.171 144.272C229.171 144.932 229.171 145.592 229.171 146.272C229.831 146.272 230.491 146.272 231.171 146.272C231.171 147.262 231.171 148.252 231.171 149.272C230.536 149.281 229.901 149.291 229.246 149.3C226.345 149.354 223.446 149.438 220.546 149.522C219.547 149.536 218.548 149.55 217.518 149.565C211.645 149.759 207.684 150.123 203.171 154.272C196.603 163.507 197.288 175.441 197.171 186.272C193.871 186.272 190.571 186.272 187.171 186.272C187.084 184.728 186.998 183.183 186.909 181.592C186.768 179.527 186.626 177.462 186.483 175.397C186.403 173.877 186.403 173.877 186.321 172.327C185.809 165.377 184.611 158.855 180.171 153.272C175.664 150.345 171.62 149.809 166.366 149.76C165.642 149.742 164.918 149.724 164.172 149.706C161.88 149.652 159.588 149.618 157.296 149.584C155.733 149.551 154.171 149.517 152.608 149.481C148.796 149.396 144.984 149.329 141.171 149.272C144.047 143.068 149.207 140.633 155.018 137.51C157.621 136.013 159.851 134.17 162.171 132.272C162.831 132.272 163.491 132.272 164.171 132.272C164.212 131.55 164.253 130.828 164.296 130.084C165.326 126.771 166.896 125.596 169.612 123.538C171.828 121.738 173.425 119.516 175.171 117.272C175.831 116.942 176.491 116.612 177.171 116.272C178.209 114.629 179.206 112.959 180.171 111.272C180.831 110.282 181.491 109.292 182.171 108.272C182.831 108.272 183.491 108.272 184.171 108.272C184.171 107.612 184.171 106.952 184.171 106.272C186.171 105.272 186.171 105.272 188.608 105.834Z" fill="#F7B099"/>
<path d="M350.921 578.21C352.697 578.215 354.473 578.219 356.249 578.223C360.556 578.234 364.863 578.251 369.171 578.272C369.5 580.928 369.825 583.584 370.147 586.241C370.24 586.98 370.332 587.72 370.427 588.482C371.897 600.697 375.671 612.772 365.628 622.448C360.832 628.45 354.606 632.639 346.823 633.545C339.671 634.272 332.671 631.772 327.171 628.272C325.171 623.772 324.323 619.918 323.565 614.936C323.436 614.139 323.307 613.341 323.175 612.519C322.905 610.837 322.641 609.155 322.381 607.471C321.985 604.911 321.573 602.353 321.157 599.795C320.896 598.155 320.637 596.514 320.378 594.874C320.256 594.116 320.134 593.359 320.009 592.578C319.671 588.272 319.171 583.772 318.671 579.272C329.254 578.085 340.29 578.157 350.921 578.21Z" fill="#F5B09C"/>
<path d="M6.17075 578.272C40.66 578.066 40.6599 578.066 56.1706 579.272C55.159 589.57 53.7532 599.821 52.1693 610.045C51.9624 611.401 51.763 612.758 51.5712 614.116C51.2956 616.052 50.9895 617.985 50.6824 619.917C50.5118 621.044 50.3412 622.172 50.1655 623.334C48.9306 626.981 47.3303 628.165 44.1706 630.272C43.5751 630.674 42.9795 631.076 42.3659 631.491C35.7803 633.834 26.5502 633.482 20.0066 631.139C12.4485 626.778 7.63225 620.984 4.82298 612.725C3.42107 605.304 4.47782 597.738 5.17063 590.272C5.35616 588.073 5.53972 585.874 5.72142 583.674C5.8069 582.647 5.89238 581.619 5.98045 580.561C6.04321 579.806 6.10608 579.05 6.17075 578.272Z" fill="#F5B19C"/>
<path d="M137.374 181.077C138.843 181.086 138.843 181.086 140.342 181.096C141.358 181.113 142.374 181.13 143.421 181.147C144.452 181.156 145.483 181.165 146.546 181.174C149.087 181.198 151.629 181.231 154.171 181.272C154.626 183.258 155.082 185.243 155.538 187.229C156.633 190.764 158.116 192.236 161.171 194.272C166.17 195.201 169.897 195.121 174.171 192.272C174.831 191.612 175.491 190.952 176.171 190.272C176.831 190.272 177.491 190.272 178.171 190.272C178.741 202.344 178.741 202.344 175.171 206.272C170.207 210.301 166.655 210.888 160.518 210.873C159.7 210.882 158.881 210.891 158.038 210.899C156.315 210.911 154.591 210.912 152.867 210.903C150.243 210.897 147.624 210.944 145.001 210.995C143.319 210.999 141.637 211 139.956 210.998C139.179 211.017 138.403 211.035 137.603 211.054C132.178 210.963 129.427 209.467 125.491 205.754C122.103 201.95 122.787 197.333 122.819 192.487C123.333 187.783 124.59 186.283 128.171 183.272C131.336 181.331 133.683 181.034 137.374 181.077Z" fill="#FBFAF9"/>
<path d="M232.171 181.272C235.379 181.155 238.586 181.084 241.796 181.022C243.151 180.972 243.151 180.972 244.534 180.92C250.453 180.834 253.639 181.386 258.171 185.272C261.543 189.094 261.683 192.858 261.522 197.768C260.851 202.548 258.908 205.9 255.063 208.936C251.236 210.703 247.715 210.721 243.581 210.706C242.348 210.713 242.348 210.713 241.089 210.721C239.356 210.728 237.622 210.727 235.888 210.718C233.245 210.71 230.604 210.738 227.962 210.77C226.272 210.772 224.583 210.771 222.893 210.768C221.716 210.785 221.716 210.785 220.516 210.802C215.29 210.736 212.319 209.719 208.171 206.272C204.822 201.473 204.61 196.935 205.171 191.272C205.501 190.282 205.831 189.292 206.171 188.272C206.831 188.272 207.491 188.272 208.171 188.272C208.377 189.056 208.583 189.839 208.796 190.647C209.96 193.468 209.96 193.468 212.733 194.647C217.988 195.602 222.925 195.69 227.546 192.772C229.12 190.351 229.893 188.346 230.772 185.616C231.036 184.803 231.3 183.99 231.572 183.153C231.769 182.532 231.967 181.911 232.171 181.272Z" fill="#FAFAF9"/>
<path d="M147.69 148.971C148.426 148.967 149.163 148.963 149.921 148.958C151.479 148.953 153.036 148.952 154.594 148.956C156.964 148.96 159.334 148.936 161.704 148.911C163.22 148.908 164.737 148.908 166.253 148.909C166.956 148.9 167.659 148.89 168.384 148.881C173.043 148.924 176.205 149.841 180.171 152.272C181.815 154.21 181.815 154.21 182.983 156.272C183.382 156.953 183.78 157.633 184.19 158.335C188.368 166.59 187.312 177.273 187.171 186.272C185.191 186.767 185.191 186.767 183.171 187.272C178.563 181.568 178.647 177.028 178.682 169.905C178.584 164.607 177.891 161.359 174.171 157.272C171.634 156.143 171.634 156.143 168.921 155.897C168.029 155.766 167.137 155.634 166.218 155.499C165.204 155.386 165.204 155.386 164.171 155.272C164.078 156.881 164.078 156.881 163.983 158.522C163.171 162.272 163.171 162.272 160.858 164.71C158.171 166.272 158.171 166.272 154.171 166.272C154.171 169.572 154.171 172.872 154.171 176.272C146.251 176.272 138.331 176.272 130.171 176.272C130.171 166.145 130.499 159.083 137.171 151.272C140.798 148.854 143.496 148.966 147.69 148.971Z" fill="#FAF7F5"/>
<path d="M237.817 149.965C243.54 152.151 248.637 154.91 252.038 160.147C253.892 165.262 253.351 169.865 253.171 175.272C246.241 175.272 239.311 175.272 232.171 175.272C232.089 173.416 232.006 171.56 231.921 169.647C231.447 163.746 230.381 160.482 226.171 156.272C223.843 155.904 221.509 155.57 219.171 155.272C219.078 156.881 219.078 156.881 218.984 158.522C218.171 162.272 218.171 162.272 215.984 164.71C212.736 166.514 210.82 166.398 207.171 166.272C207.145 167.152 207.119 168.033 207.093 168.94C207.036 170.101 206.979 171.263 206.921 172.46C206.851 174.182 206.851 174.182 206.78 175.94C206.076 179.792 204.74 181.389 202.171 184.272C201.841 185.262 201.511 186.252 201.171 187.272C199.851 186.942 198.531 186.612 197.171 186.272C196.14 163.087 196.14 163.088 202.171 154.272C211.043 146.446 226.706 147.056 237.817 149.965Z" fill="#FBFAF8"/>
<path d="M132.171 155.272C131.941 158.475 131.699 161.674 131.425 164.874C131.134 168.103 131.134 168.103 131.198 170.67C131.152 174.02 130.532 175.91 128.175 178.276C125.302 180.551 122.452 182.631 119.171 184.272C116.847 183.287 114.651 182.243 112.413 181.088C111.75 180.754 111.087 180.42 110.404 180.075C108.281 179.002 106.163 177.919 104.046 176.835C102.61 176.107 101.174 175.379 99.7372 174.653C96.2107 172.868 92.6895 171.072 89.1707 169.272C89.5007 168.282 89.8307 167.292 90.1707 166.272C92.5418 165.393 92.5418 165.393 95.6082 164.71C96.6911 164.462 97.7739 164.215 98.8895 163.96C102.602 163.182 106.323 162.454 110.05 161.745C112.549 161.188 114.807 160.245 117.171 159.272C118.491 159.272 119.811 159.272 121.171 159.272C121.171 158.612 121.171 157.952 121.171 157.272C125.029 155.457 127.938 155.178 132.171 155.272Z" fill="#F0B19C"/>
<path d="M196.171 193.272C198.224 197.868 199.936 202.446 201.425 207.256C202.181 209.537 202.181 209.537 204.171 212.272C204.7 216.241 204.329 217.988 202.358 221.522C199.996 224.492 198.475 226.098 194.647 226.608C186.907 226.714 186.907 226.714 183.046 224.397C180.297 221.282 179.993 219.476 179.921 215.397C179.895 214.533 179.869 213.67 179.843 212.78C180.237 209.762 181.342 208.66 183.171 206.272C184.096 203.274 184.096 203.274 184.733 200.084C185.151 198.133 185.617 196.189 186.171 194.272C189.385 192.665 192.607 193.214 196.171 193.272Z" fill="#EB976F"/>
<path d="M253.171 160.272C255.481 160.602 257.791 160.932 260.171 161.272C261.328 161.414 262.486 161.556 263.679 161.702C272.006 162.727 280.03 164.213 288.171 166.272C288.171 167.262 288.171 168.252 288.171 169.272C286.199 170.882 286.199 170.882 283.464 172.592C281.995 173.518 281.995 173.518 280.497 174.463C279.461 175.101 278.425 175.74 277.358 176.397C276.334 177.043 275.31 177.689 274.255 178.354C266.647 183.113 266.647 183.113 263.171 184.272C262.428 183.488 261.686 182.704 260.921 181.897C258.198 179.041 258.198 179.041 254.171 177.272C253.841 171.662 253.511 166.052 253.171 160.272Z" fill="#F4B19B"/>
<path d="M164.171 155.272C171.369 154.784 171.369 154.784 175.046 157.022C178.221 160.384 179.432 162.974 179.366 167.6C179.36 168.399 179.353 169.199 179.347 170.022C179.33 170.847 179.313 171.672 179.296 172.522C179.287 173.362 179.278 174.203 179.268 175.069C179.245 177.137 179.209 179.204 179.171 181.272C178.21 180.627 177.25 179.983 176.261 179.319C171.824 176.783 167.757 176.611 162.733 176.522C161.493 176.478 161.493 176.478 160.227 176.432C158.209 176.362 156.19 176.315 154.171 176.272C154.171 172.972 154.171 169.672 154.171 166.272C155.284 165.839 156.398 165.406 157.546 164.959C161.346 163.573 161.346 163.573 163.171 160.272C163.556 158.616 163.899 156.95 164.171 155.272Z" fill="#3B3B3B"/>
<path d="M161.171 233.272C167.715 234.035 173.621 236.512 179.739 238.833C189.454 242.379 195.992 241.013 205.608 237.772C206.626 237.438 207.644 237.104 208.692 236.76C211.188 235.94 213.681 235.11 216.171 234.272C218.171 237.272 218.171 237.272 218.171 241.272C212.193 243.566 206.158 245.678 200.046 247.584C198.402 248.105 198.402 248.105 196.725 248.635C188.448 250.118 181.078 247.533 173.296 244.834C171.892 244.366 171.892 244.366 170.46 243.887C166.672 242.6 163.519 241.504 160.171 239.272C160.501 237.292 160.831 235.312 161.171 233.272Z" fill="#B5544E"/>
<path d="M219.171 155.272C223.467 154.767 225.52 154.815 229.108 157.334C232.903 162.431 231.516 170.234 231.171 176.272C230.586 176.297 230.001 176.322 229.398 176.348C226.739 176.464 224.08 176.587 221.421 176.709C220.5 176.749 219.58 176.788 218.632 176.829C217.742 176.87 216.853 176.912 215.936 176.956C215.119 176.992 214.302 177.029 213.461 177.067C210.858 177.24 210.858 177.24 207.171 178.272C207.171 174.312 207.171 170.352 207.171 166.272C208.429 166.024 209.687 165.777 210.983 165.522C213.764 164.819 214.978 164.452 217.108 162.459C218.273 160.062 218.805 157.906 219.171 155.272Z" fill="#393938"/>
<path d="M310.171 206.272C313.617 207.421 315.443 209.075 317.171 212.272C317.715 217.262 317.252 220.278 314.171 224.272C310.168 226.94 306.878 227.106 302.171 226.272C299.415 224.09 297.735 222.4 296.171 219.272C296.131 217.272 297.171 215.272 297.671 213.272C298.171 212.272 297.867 212.972 298.171 212.272C296.471 212.272 299.821 212.272 298.171 212.272C298.439 211.653 298.707 211.034 298.983 210.397C301.658 205.611 305.201 205.923 310.171 206.272Z" fill="#8B5B67"/>
<path d="M65.3582 205.959C69.7743 206.321 71.792 207.47 75.1707 210.272C75.1707 210.932 75.1707 211.592 75.1707 212.272C75.1707 212.772 75.1707 212.772 75.1707 213.272C75.8507 213.272 74.2332 213.272 75.1707 213.272C75.1707 214.272 75.5645 215.518 75.6707 216.772C75.6465 220.188 76.1848 221.25 74.2332 224.272C70.6592 226.606 68.523 226.996 64.327 226.772C60.877 225.972 59.2615 224.016 57.1707 221.272C55.6014 218.133 55.8187 215.733 56.1707 212.272C58.6082 209.397 58.6082 209.397 61.1707 207.272C62.1707 206.272 62.1707 206.272 65.3582 205.959Z" fill="#8F5F68"/>
<path d="M193.171 358.272C195.981 360.066 197.68 361.291 199.171 364.272C199.546 369.243 199.33 372.323 196.171 376.272C192.955 378.6 190.061 378.817 186.171 378.272C182.841 376.261 180.801 375.009 179.468 371.334C178.848 367.78 178.965 365.745 180.421 362.397C184.016 358.031 187.778 357.389 193.171 358.272Z" fill="#8C5764"/>
<path d="M214.171 221.272C216.034 221.35 216.034 221.35 218.171 222.272C219.776 224.694 219.776 224.694 221.358 228.022C221.646 228.625 221.933 229.229 222.229 229.85C223.231 231.981 224.203 234.125 225.171 236.272C225.566 237.138 225.961 238.003 226.368 238.895C227.632 241.68 228.874 244.474 230.108 247.272C230.51 248.168 230.912 249.063 231.326 249.986C233.308 254.575 234.717 258.165 234.171 263.272C232.191 263.767 232.191 263.767 230.171 264.272C225.837 257.856 222.701 251.149 219.666 244.035C218.854 242.138 218.024 240.25 217.192 238.362C216.673 237.154 216.154 235.946 215.62 234.702C215.149 233.611 214.678 232.52 214.193 231.396C213.128 228.141 212.895 225.673 213.171 222.272C213.501 221.942 213.831 221.612 214.171 221.272Z" fill="#E99576"/>
<path d="M159.171 222.272C161.233 222.459 161.233 222.459 163.171 223.272C166.389 232.926 154.24 250.174 149.733 259.209C148.881 260.898 148.028 262.586 147.171 264.272C143.296 263.397 143.296 263.397 142.171 262.272C142.171 255.992 144.332 251.511 147.228 245.997C150.064 240.59 152.503 235.057 154.861 229.426C156.061 226.604 156.98 224.463 159.171 222.272Z" fill="#E99475"/>
<path d="M221.983 180.96C222.867 180.982 223.751 181.005 224.661 181.028C226.832 181.087 229.001 181.176 231.171 181.272C231.344 189.464 231.344 189.464 228.171 193.272C223.851 196.358 220.386 196.698 215.292 195.917C211.166 194.663 209.088 191.904 207.046 188.272C207.171 186.272 207.171 186.272 209.065 183.667C213.398 180.326 216.68 180.703 221.983 180.96Z" fill="#3C3C3B"/>
<path d="M131.171 182.272C131.209 183.432 131.209 183.432 131.249 184.616C131.608 191.209 132.146 196.869 136.171 202.272C136.922 203.319 137.674 204.365 138.448 205.444C143.197 210.086 149.818 209.16 156.046 209.147C157.937 209.178 157.937 209.178 159.866 209.209C162.968 209.256 166.068 209.276 169.171 209.272C169.171 209.602 167.671 209.932 167.671 210.272C162.171 211.272 158.456 210.88 153.171 210.952C151.171 210.979 149.466 210.9 147.671 210.952C145.081 211.025 142.761 211.246 140.171 211.272C138.671 211.272 139.193 211.272 137.671 211.272C131.584 211.592 129.48 209.551 125.483 205.759C122.113 201.94 122.79 197.341 122.811 192.491C123.33 187.847 124.676 186.268 128.171 183.272C130.171 182.272 130.171 182.272 131.171 182.272Z" fill="#F2B39D"/>
<path d="M252.671 181.772C257.171 183.772 257.944 185.022 259.983 187.272C261.934 192.201 262.196 197.313 260.444 202.37C258.367 206.346 256.671 208.772 252.171 210.272C249.23 210.666 246.633 210.829 243.671 210.772C242.834 210.768 241.532 210.776 240.671 210.772C238.011 210.755 235.33 210.81 232.671 210.772C230.863 210.757 229.479 210.784 227.671 210.772C223.249 210.739 218.671 211.272 214.171 210.272C214.171 209.942 214.171 209.612 214.171 209.272C215.404 209.258 215.404 209.258 216.662 209.244C220.394 209.19 224.126 209.106 227.858 209.022C229.799 209.001 229.799 209.001 231.778 208.979C233.649 208.931 233.649 208.931 235.557 208.881C236.704 208.86 237.851 208.839 239.033 208.818C243.346 208.068 245.826 206.023 248.464 202.588C251.599 196.441 251.883 188.573 252.671 181.772Z" fill="#EBAE9A"/>
<path d="M154.171 181.272C156.901 181.163 159.627 181.084 162.358 181.022C163.127 180.988 163.896 180.955 164.688 180.92C168.685 180.852 170.681 180.971 174.171 183.116C176.421 185.542 176.899 187.012 177.171 190.272C173.607 194.024 171.367 195.654 166.108 195.834C162.657 195.653 161.229 195.306 158.171 193.522C154.435 189.32 154.087 186.863 154.171 181.272Z" fill="#3B3B3B"/>
</svg>
