<svg width="469" height="802" viewBox="0 0 469 802" fill="none" xmlns="http://www.w3.org/2000/svg">
<path d="M453.207 2.16138C460.813 7.2283 465.464 13.0526 467.808 21.9036C469.771 33.2431 468.932 43.8105 462.55 53.5247C456.404 61.6559 449.468 66.5769 440.316 70.8372C439.656 71.1672 438.996 71.4972 438.316 71.8372C438.832 72.889 439.347 73.9409 439.879 75.0247C441.313 78.3224 441.481 80.3436 440.316 83.8372C438.316 82.8372 438.316 82.8372 437.379 80.8372C436.427 78.4911 436.427 78.4911 433.316 77.8372C432.205 76.6083 431.148 75.3301 430.129 74.0247C426.688 70.0148 423.497 67.2066 418.316 65.8372C413.826 65.5438 410.437 66.2144 406.504 68.3997C401.532 73.939 399.839 79.5126 399.316 86.8372C400.182 85.445 400.182 85.445 401.066 84.0247C403.118 81.1176 404.338 79.6387 407.316 77.8372C412.363 76.9909 416.932 77.2367 421.629 79.2747C429.32 86.6085 433.356 95.1137 433.611 105.718C433.637 108.785 433.607 111.781 433.316 114.837C432.656 115.497 431.996 116.157 431.316 116.837C430.986 115.187 430.656 113.537 430.316 111.837C429.656 112.167 428.996 112.497 428.316 112.837C428.646 111.517 428.976 110.197 429.316 108.837C429.976 108.837 430.636 108.837 431.316 108.837C429.666 106.857 428.016 104.877 426.316 102.837C423.442 105.553 423.442 105.553 421.316 108.837C422.636 109.497 423.956 110.157 425.316 110.837C424.976 112.57 424.976 112.57 424.629 114.337C424.127 118.297 424.941 120.671 426.586 124.325C427.389 127.089 427.395 129.583 427.378 132.446C427.379 141.599 429.928 146.13 435.863 152.927C442.6 160.919 443.772 169.889 443.644 180.072C442.722 190.657 438.284 197.781 430.718 205.009C428.457 206.73 427.092 207.453 424.316 207.837C424.192 208.402 424.069 208.966 423.941 209.548C421.052 220.13 413.819 229.211 404.691 235.15C395.093 240.412 385.154 243.038 374.316 243.837C374.502 244.68 374.688 245.522 374.879 246.39C381.378 276.01 386.609 305.439 389.007 335.695C389.27 338.797 389.27 338.797 389.826 341.672C390.297 344.711 390.449 347.545 390.461 350.617C390.471 352.291 390.471 352.291 390.481 353.999C390.482 355.795 390.482 355.795 390.484 357.626C390.487 358.88 390.491 360.134 390.494 361.425C390.499 364.083 390.502 366.741 390.501 369.399C390.501 373.399 390.522 377.399 390.541 381.4C390.582 399.591 390.086 417.553 386.254 435.4C386.044 436.381 385.834 437.362 385.618 438.373C380.975 458.965 374.088 479.18 362.316 496.837C361.913 499.032 361.605 501.245 361.351 503.462C361.235 504.444 361.235 504.444 361.116 505.445C360.95 506.847 360.788 508.249 360.628 509.652C360.209 513.321 359.758 516.987 359.312 520.654C359.225 521.374 359.138 522.094 359.048 522.836C356.529 543.656 351.982 563.822 346.22 583.986C344.05 591.624 342.166 599.332 340.283 607.044C340.041 608.028 339.799 609.011 339.55 610.025C339.336 610.905 339.122 611.786 338.901 612.693C338.316 614.837 338.316 614.837 337.316 616.837C337.438 621.291 338.223 625.609 339.379 629.9C342.041 641.633 341.142 653.215 335.316 663.837C334.823 664.394 334.33 664.95 333.822 665.524C328.401 671.664 328.425 677.114 328.629 685.087C328.653 687.023 328.653 687.023 328.678 688.997C329.028 705.396 331.51 721.7 334.316 737.837C334.429 738.513 334.543 739.188 334.659 739.885C334.992 741.831 335.354 743.772 335.718 745.712C336.026 747.379 336.026 747.379 336.339 749.079C337.495 752.344 338.566 753.209 341.566 754.837C342.359 755.17 343.152 755.502 343.968 755.845C350.541 758.623 354.219 763.642 357.316 769.837C357.85 770.777 357.85 770.777 358.394 771.736C360.104 775.634 359.975 779.681 359.316 783.837C354.417 789.808 345.382 791.389 338.043 792.486C322.351 793.966 303.344 794.999 290.316 784.837C289.118 782.44 289.106 780.7 288.941 778.025C288.611 773.835 287.899 770.032 286.797 765.982C284.931 758.066 284.903 750.406 285.004 742.337C285.012 740.771 285.021 739.205 285.029 737.638C285.124 726.165 285.649 714.727 286.316 703.275C286.362 702.491 286.407 701.708 286.454 700.901C286.544 699.355 286.634 697.81 286.725 696.265C288.334 676.884 288.334 676.884 284.215 658.204C282.955 653.485 282.934 648.953 282.941 644.087C282.94 643.199 282.938 642.311 282.937 641.396C283.004 637.318 283.281 633.961 284.402 630.009C287.763 617.549 282.68 601.308 280.754 588.837C280.258 585.624 279.765 582.41 279.276 579.196C278.973 577.209 278.667 575.222 278.358 573.236C278.221 572.337 278.084 571.439 277.943 570.513C277.821 569.728 277.7 568.944 277.575 568.135C277.299 565.685 277.272 563.301 277.316 560.837C276.627 561.008 275.938 561.18 275.227 561.356C272.029 562.147 268.829 562.93 265.629 563.712C264.545 563.982 263.462 564.251 262.345 564.529C254.714 566.386 247.096 567.764 239.316 568.837C239.059 570.052 238.802 571.267 238.538 572.518C237.573 577.072 236.605 581.625 235.636 586.177C235.219 588.139 234.802 590.101 234.388 592.063C230.192 611.901 230.192 611.901 227.887 619.723C226.604 624.474 225.639 628.903 227.289 633.615C228.474 637.333 228.621 640.728 228.566 644.587C228.556 645.295 228.547 646.003 228.537 646.733C228.293 657.403 226.125 663.902 220.093 672.661C216.91 678.349 217.152 684.64 217.113 691.032C217.106 691.81 217.099 692.588 217.092 693.389C217.074 695.913 217.068 698.438 217.066 700.962C217.065 701.826 217.064 702.69 217.063 703.581C216.109 740.655 216.109 740.655 229.73 773.689C233.653 779.004 234.13 784.424 233.316 790.837C231.472 794.605 229.361 796.044 225.566 797.525C210.111 801.969 188.176 804.179 173.32 796.853C170.57 795.138 169.129 793.556 167.316 790.837C167.086 788.427 167.086 788.427 167.129 785.775C167.138 784.458 167.138 784.458 167.148 783.115C167.316 780.837 167.316 780.837 168.316 778.837C167.421 778.8 166.527 778.762 165.605 778.724C145.949 777.655 145.949 777.655 140.316 771.837C139.802 769.37 139.533 767.206 139.379 764.712C138.708 757.289 137.501 750.075 136.004 742.775C135.783 741.699 135.562 740.623 135.335 739.514C134.667 736.287 133.992 733.062 133.316 729.837C132.942 728.029 132.568 726.22 132.195 724.411C130.751 717.428 129.284 710.45 127.819 703.471C126.662 697.957 125.506 692.443 124.35 686.929C123.772 684.174 123.193 681.42 122.614 678.666C121.506 673.391 120.409 668.115 119.316 662.837C119.126 661.923 118.936 661.01 118.74 660.068C118.177 657.351 117.621 654.634 117.066 651.915C116.896 651.098 116.726 650.28 116.551 649.438C113.667 635.183 116.512 623.707 121.379 610.275C127.292 593.799 128.071 576.992 124.316 559.837C123.981 558.171 123.648 556.504 123.316 554.837C122.642 554.746 121.968 554.654 121.273 554.56C117.565 553.654 114.368 552.024 111.004 550.275C110.036 549.781 110.036 549.781 109.048 549.277C107.468 548.469 105.892 547.654 104.316 546.837C104.268 547.44 104.22 548.043 104.17 548.664C101.767 575.724 91.9076 602.661 76.984 625.302C75.2589 627.924 73.6206 630.585 72.0036 633.275C71.2978 634.448 71.2978 634.448 70.5778 635.646C70.1614 636.369 69.7451 637.092 69.3161 637.837C68.9663 638.366 68.6164 638.896 68.256 639.441C66.8526 643.019 67.0116 646.579 67.0153 650.368C67.0098 651.22 67.0043 652.071 66.9986 652.948C66.9868 655.744 66.9933 658.54 67.0036 661.337C67.0047 662.296 67.0059 663.254 67.0071 664.241C67.0723 691.631 69.7297 718.699 73.3161 745.837C74.2236 746.104 75.1311 746.371 76.0661 746.646C84.0743 749.581 89.2848 756.571 93.3161 763.837C95.6825 769.029 96.2092 773.532 94.6911 779.15C89.4651 785.563 78.057 786.04 70.3161 786.837C57.3335 787.701 42.9328 788.548 32.3161 779.837C29.8893 776.197 30.0251 774.306 29.8786 769.962C29.5434 762.584 28.6415 755.371 27.5077 748.076C26.6544 742.505 25.9877 736.932 25.3903 731.329C24.3795 721.955 23.0185 712.652 21.5661 703.337C21.3061 701.643 21.0462 699.95 20.7863 698.256C19.3839 689.195 17.8557 680.169 16.1662 671.158C12.2451 650.23 9.54231 633.726 18.3161 613.837C24.7403 596.758 22.8305 573.853 16.9489 556.857C14.7515 550.35 13.1315 543.692 11.5036 537.025C11.2447 535.968 11.2447 535.968 10.9806 534.89C8.13108 523.158 5.8414 511.373 3.87857 499.462C3.75324 498.706 3.62791 497.949 3.49878 497.17C1.49908 484.991 0.167731 473.034 0.112945 460.677C0.107245 459.648 0.101545 458.618 0.0956718 457.558C0.0862906 455.392 0.0797155 453.227 0.0758354 451.061C0.0661662 447.807 0.0350905 444.554 0.00356976 441.3C-0.0599115 428.815 0.710819 417.053 3.31607 404.837C3.50959 403.892 3.70311 402.948 3.9025 401.974C4.38382 399.764 4.91823 397.584 5.50357 395.4C5.71006 394.627 5.91655 393.853 6.1293 393.057C8.68028 383.968 12.3148 375.372 16.3161 366.837C16.6292 366.167 16.9422 365.497 17.2648 364.806C24.8218 348.96 35.9284 334.658 48.6911 322.65C62.3649 308.944 69.8928 291.419 77.3161 273.837C77.9761 273.837 78.6361 273.837 79.3161 273.837C79.7286 274.786 80.1411 275.735 80.5661 276.712C82.0279 279.792 82.0279 279.792 84.0661 281.212C90.8547 283.098 95.6201 281.179 101.504 278.025C102.202 277.668 102.9 277.312 103.619 276.945C107.099 275.14 110.186 273.206 113.316 270.837C113.976 270.837 114.636 270.837 115.316 270.837C115.607 272.021 115.899 273.204 116.199 274.423C118.813 284.657 121.358 293.631 128.816 301.462C135.475 304.078 142.659 304.369 149.32 301.579C152.172 299.835 154.726 297.95 157.316 295.837C158.596 294.824 158.596 294.824 159.902 293.79C165.761 288.851 170.142 283.384 174.504 277.146C175.102 276.384 175.7 275.622 176.316 274.837C176.976 274.837 177.636 274.837 178.316 274.837C178.573 275.371 178.829 275.905 179.093 276.454C184.56 287.092 193.947 298.216 205.316 302.837C209.833 303.403 213.988 303.346 218.254 301.712C223.133 297.276 223.706 292.277 224.105 286.009C224.316 283.837 224.316 283.837 225.316 281.837C226.691 281.981 228.066 282.127 229.441 282.275C230.207 282.356 230.972 282.437 231.761 282.521C232.604 282.625 233.447 282.73 234.316 282.837C235.828 282.882 235.828 282.882 237.371 282.927C240.316 283.837 240.316 283.837 242.441 286.97C243.085 288.292 243.709 289.623 244.316 290.962C244.996 292.339 245.682 293.713 246.375 295.083C246.705 295.738 247.034 296.393 247.374 297.067C250.701 303.32 255.083 306.721 261.316 309.837C265.551 275.161 260.367 239.785 249.316 206.837C249.029 205.971 248.742 205.104 248.446 204.211C244.854 193.497 240.699 183.281 235.691 173.15C230.828 163.277 227.025 153.506 224.316 142.837C224.141 142.167 223.966 141.496 223.786 140.805C221.409 131.284 221.025 121.814 220.941 112.025C220.927 110.904 220.913 109.783 220.899 108.628C220.943 100.981 222.137 94.1613 224.316 86.8372C223.193 86.667 222.071 86.4968 220.914 86.3215C204.819 83.7668 190.947 78.4207 180.843 64.8606C174.002 54.5285 173.592 41.3702 176.004 29.4348C178.88 20.8896 183.54 13.7726 191.757 9.68482C197.83 7.67293 204.537 7.6982 210.441 10.2747C216.563 13.8671 221.594 19.1879 226.648 24.1067C233.53 30.6231 241.108 35.2077 249.316 39.8372C252.736 37.9074 255.492 35.8685 258.316 33.1497C269.99 22.6314 284.97 15.5244 299.941 11.0247C300.585 10.8298 301.228 10.6349 301.891 10.4341C334.004 1.37582 367.265 7.02465 396.011 22.9075C399.211 24.7758 402.26 26.7468 405.316 28.8372C412.757 25.6892 417.162 19.6882 422.082 13.5637C430.137 3.73415 439.958 -3.90774 453.207 2.16138Z" fill="#37AA8C"/>
<path d="M176.316 358.837C176.646 359.497 176.976 360.157 177.316 360.837C176.607 362.922 176.607 362.922 175.437 365.501C175.014 366.449 174.59 367.398 174.154 368.375C173.692 369.394 173.229 370.412 172.753 371.462C171.813 373.586 170.876 375.711 169.941 377.837C169.256 379.394 169.256 379.394 168.558 380.982C145.549 433.873 130.877 504.81 152.691 560.337C156.851 569.381 162.549 576.561 172.035 580.216C179.298 582.194 186.496 580.811 193.316 577.837C197.495 574.636 200.079 570.956 201.316 565.837C201.842 561.176 202.127 556.523 202.316 551.837C203.064 551.884 203.811 551.93 204.582 551.978C210.481 552.258 210.481 552.258 216.003 550.525C218.283 545.857 218.313 541.91 217.316 536.837C214.954 530.616 211.601 524.715 208.228 518.991C202.482 508.664 202.974 496.712 203.066 485.212C203.069 484.505 203.073 483.798 203.076 483.07C203.138 472.214 203.476 461.553 205.316 450.837C205.472 449.904 205.628 448.971 205.789 448.01C208.829 430.3 212.938 412.842 221.316 396.837C222.821 399.847 221.817 401.934 221.128 405.212C219.527 413.193 218.332 421.217 217.191 429.275C217.021 430.471 216.85 431.667 216.675 432.899C216.209 436.211 215.746 439.521 215.316 442.837C215.182 443.845 215.182 443.845 215.046 444.872C214.325 450.701 214.155 456.452 214.148 462.322C214.145 463.299 214.141 464.276 214.138 465.284C214.133 467.341 214.13 469.398 214.131 471.455C214.128 474.565 214.11 477.673 214.091 480.782C213.748 500.573 213.748 500.573 220.191 518.962C220.911 520.321 221.627 521.681 222.339 523.044C222.681 523.691 223.022 524.337 223.374 525.004C227.282 532.609 229.827 540.237 228.316 548.837C226.247 553.89 223.036 558.028 218.316 560.837C214.503 561.587 214.503 561.587 211.316 561.837C211.419 562.745 211.522 563.652 211.628 564.587C211.573 571.429 208.625 578.135 204.226 583.282C197.395 589.611 191.01 592.355 181.753 592.15C181.024 592.153 180.296 592.156 179.544 592.159C175.101 592.115 171.5 591.496 167.316 589.837C168.554 598.367 168.554 598.367 170.117 606.841C174.063 626.15 174.063 626.15 171.32 633.509C169.908 638.19 169.935 642.595 169.941 647.462C169.94 648.549 169.938 649.635 169.937 650.755C170.1 664.489 171.537 678.146 172.893 691.804C172.985 692.737 173.076 693.669 173.171 694.63C173.345 696.383 173.523 698.135 173.706 699.887C174.487 707.659 174.532 714.646 172.816 722.337C171.44 729.058 171.126 735.367 171.277 742.243C171.381 748.115 171.079 753.973 170.816 759.837C170.768 760.919 170.72 762.001 170.671 763.116C170.555 765.69 170.437 768.264 170.316 770.837C170.976 770.837 171.636 770.837 172.316 770.837C172.316 770.177 172.316 769.517 172.316 768.837C173.96 767.47 173.96 767.47 176.128 765.962C178.489 764.32 180.172 763.039 181.851 760.689C183.316 758.837 183.316 758.837 186.941 758.087C188.731 757.973 190.523 757.896 192.316 757.837C192.955 757.806 193.594 757.775 194.252 757.743C204.866 757.256 212.287 757.818 221.316 763.837C221.976 763.177 222.636 762.517 223.316 761.837C223.904 763.353 223.904 763.353 224.503 764.9C225.689 767.695 227.069 770.026 228.878 772.462C233.19 778.345 234.238 783.57 233.316 790.837C231.472 794.605 229.361 796.044 225.566 797.525C210.111 801.969 188.176 804.179 173.32 796.853C170.57 795.138 169.129 793.556 167.316 790.837C167.086 788.427 167.086 788.427 167.129 785.775C167.135 784.897 167.141 784.019 167.148 783.115C167.316 780.837 167.316 780.837 168.316 778.837C167.421 778.8 166.527 778.762 165.605 778.724C145.949 777.655 145.949 777.655 140.316 771.837C139.802 769.37 139.533 767.206 139.379 764.712C138.708 757.289 137.501 750.075 136.004 742.775C135.783 741.699 135.562 740.623 135.335 739.514C134.667 736.287 133.992 733.062 133.316 729.837C132.942 728.029 132.568 726.22 132.195 724.411C130.751 717.428 129.284 710.45 127.819 703.471C126.662 697.957 125.506 692.443 124.35 686.929C123.772 684.174 123.193 681.42 122.614 678.666C121.506 673.391 120.409 668.115 119.316 662.837C119.126 661.923 118.936 661.01 118.74 660.068C118.177 657.351 117.621 654.634 117.066 651.915C116.896 651.098 116.726 650.28 116.551 649.438C113.667 635.183 116.512 623.707 121.379 610.275C127.292 593.799 128.071 576.992 124.316 559.837C123.981 558.171 123.648 556.504 123.316 554.837C122.324 554.708 122.324 554.708 121.312 554.575C108.09 551.317 96.9753 541.978 87.3159 532.837C86.4888 532.079 86.4888 532.079 85.645 531.306C64.9578 512.324 46.9998 483.528 45.3159 454.837C45.1379 447.503 45.1887 440.172 45.3159 432.837C47.8255 435.347 48.2414 437.389 49.3159 440.775C55.0725 457.629 67.4768 484.418 84.3159 492.837C84.3159 493.497 84.3159 494.157 84.3159 494.837C85.0913 495.185 85.0913 495.185 85.8823 495.54C88.5039 496.937 90.9009 498.572 93.3391 500.264C103.226 507.097 113.22 511.996 124.726 515.505C125.826 515.845 125.826 515.845 126.949 516.191C128.737 516.742 130.526 517.29 132.316 517.837C132.3 516.771 132.285 515.705 132.268 514.606C131.735 474.831 131.735 474.831 135.316 456.837C135.493 455.906 135.67 454.975 135.852 454.015C142.004 422.028 153.495 391.59 172.316 364.837C173.659 362.844 174.988 360.841 176.316 358.837Z" fill="#2A8574"/>
<path d="M359.316 498.837C359.646 498.837 359.976 498.837 360.316 498.837C360.674 508.976 359.64 518.808 358.316 528.837C358.22 529.584 358.123 530.33 358.024 531.099C355.64 549.044 351.189 566.598 346.22 583.986C344.05 591.624 342.166 599.332 340.283 607.044C339.92 608.52 339.92 608.52 339.55 610.025C339.336 610.905 339.122 611.786 338.901 612.693C338.316 614.837 338.316 614.837 337.316 616.837C337.438 621.291 338.223 625.609 339.379 629.9C342.041 641.633 341.142 653.215 335.316 663.837C334.823 664.394 334.33 664.95 333.822 665.524C328.401 671.664 328.425 677.114 328.629 685.087C328.645 686.378 328.661 687.668 328.678 688.997C329.028 705.396 331.51 721.7 334.316 737.837C334.429 738.513 334.543 739.188 334.659 739.885C334.992 741.831 335.354 743.772 335.718 745.712C335.923 746.823 336.128 747.935 336.339 749.079C337.495 752.344 338.566 753.209 341.566 754.837C342.359 755.17 343.152 755.502 343.968 755.845C350.541 758.623 354.219 763.642 357.316 769.837C357.672 770.464 358.028 771.09 358.394 771.736C360.104 775.634 359.975 779.681 359.316 783.837C354.417 789.808 345.382 791.389 338.043 792.486C322.351 793.966 303.344 794.999 290.316 784.837C289.118 782.44 289.106 780.7 288.941 778.025C288.611 773.835 287.899 770.032 286.797 765.982C284.931 758.066 284.903 750.406 285.004 742.337C285.012 740.771 285.021 739.205 285.029 737.638C285.124 726.165 285.649 714.727 286.316 703.275C286.362 702.491 286.407 701.708 286.454 700.901C286.544 699.355 286.634 697.81 286.725 696.265C288.334 676.884 288.334 676.884 284.215 658.204C282.955 653.485 282.934 648.953 282.941 644.087C282.94 643.199 282.938 642.311 282.937 641.396C283.004 637.318 283.281 633.961 284.402 630.009C287.763 617.549 282.68 601.308 280.754 588.837C280.258 585.624 279.765 582.41 279.276 579.196C278.973 577.209 278.667 575.222 278.358 573.236C278.221 572.337 278.084 571.439 277.943 570.513C277.821 569.728 277.7 568.944 277.575 568.135C277.299 565.685 277.272 563.301 277.316 560.837C278.19 560.491 278.19 560.491 279.082 560.138C281.83 559.045 284.573 557.942 287.316 556.837C288.278 556.452 289.239 556.066 290.23 555.669C317.854 544.408 343.237 527.152 358.187 500.673C358.56 500.067 358.932 499.461 359.316 498.837Z" fill="#328C7C"/>
<path d="M203.552 225.717C212.197 232.945 223.562 243.043 224.691 254.712C224.459 259.767 223.351 264.591 219.886 268.415C215.155 272.511 211.456 273.23 205.316 272.837C196.443 269.749 189.299 264.67 182.491 258.307C181.159 257.082 179.743 255.95 178.316 254.837C174.361 256.156 174.108 257.64 172.191 261.275C166.781 270.854 159.338 279.826 149.316 284.837C145.004 285.542 141.047 285.724 137.09 283.697C127.89 276.38 124.558 264.93 122.316 253.837C119.141 255.291 116.295 257.129 113.392 259.062C98.1643 269.173 98.1643 269.173 89.3161 267.837C86.3161 265.775 86.3161 265.775 84.3161 262.837C83.5288 252.996 93.0137 243.498 98.945 236.466C109.556 224.702 122.224 216.653 137.316 211.837C138.087 211.591 138.858 211.345 139.652 211.091C161.652 205.495 185.974 211.807 203.552 225.717Z" fill="#449B89"/>
<path d="M176.316 358.837C176.646 359.497 176.976 360.157 177.316 360.837C176.607 362.922 176.607 362.922 175.437 365.501C175.014 366.449 174.59 367.398 174.154 368.375C173.692 369.394 173.229 370.412 172.753 371.462C171.813 373.586 170.876 375.711 169.941 377.837C169.256 379.394 169.256 379.394 168.558 380.982C144.177 437.028 133.381 504.042 153.316 562.837C149.635 564.064 148.09 563.47 144.371 562.474C143.212 562.164 142.053 561.854 140.859 561.534C139.648 561.201 138.438 560.868 137.191 560.525C135.364 560.042 135.364 560.042 133.5 559.55C126.771 557.723 126.771 557.723 124.316 556.837C123.986 556.177 123.656 555.517 123.316 554.837C122.634 554.71 121.952 554.582 121.25 554.45C108.112 551.704 96.7849 541.797 87.3159 532.837C86.4888 532.079 86.4888 532.079 85.645 531.306C64.9578 512.324 46.9998 483.528 45.3159 454.837C45.1379 447.503 45.1887 440.172 45.3159 432.837C47.8255 435.347 48.2414 437.389 49.3159 440.775C55.0725 457.629 67.4768 484.418 84.3159 492.837C84.3159 493.497 84.3159 494.157 84.3159 494.837C85.0913 495.185 85.0913 495.185 85.8823 495.54C88.5039 496.937 90.9009 498.572 93.3391 500.264C103.226 507.097 113.22 511.996 124.726 515.505C125.826 515.845 125.826 515.845 126.949 516.191C128.737 516.742 130.526 517.29 132.316 517.837C132.3 516.771 132.285 515.705 132.268 514.606C131.735 474.831 131.735 474.831 135.316 456.837C135.493 455.906 135.67 454.975 135.852 454.015C142.004 422.028 153.495 391.59 172.316 364.837C173.659 362.844 174.988 360.841 176.316 358.837Z" fill="#308D7B"/>
<path d="M418.316 77.8371C425.344 80.8869 429.407 88.0484 432.191 94.9621C434.084 101.268 433.935 108.331 433.316 114.837C432.326 115.827 432.326 115.827 431.316 116.837C430.986 115.187 430.656 113.537 430.316 111.837C429.326 112.332 429.326 112.332 428.316 112.837C428.646 111.517 428.976 110.197 429.316 108.837C429.976 108.837 430.636 108.837 431.316 108.837C429.666 106.857 428.016 104.877 426.316 102.837C423.442 105.553 423.442 105.553 421.316 108.837C422.636 109.497 423.956 110.157 425.316 110.837C425.089 111.992 424.862 113.147 424.629 114.337C424.127 118.297 424.941 120.671 426.586 124.325C427.389 127.089 427.395 129.583 427.378 132.446C427.379 141.599 429.928 146.13 435.863 152.927C442.6 160.919 443.772 169.889 443.644 180.072C442.744 190.403 438.514 197.795 430.949 204.739C420.904 212.743 410.883 214.096 398.316 212.837C395.672 212.065 393.55 211.179 391.175 209.81C388.824 208.58 386.968 208.046 384.316 207.837C382.097 208.905 382.097 208.905 380.066 210.587C370.851 217.072 361.363 218.032 350.316 216.837C342.243 215.187 335.874 211.711 329.316 206.837C327.831 205.847 327.831 205.847 326.316 204.837C326.316 204.177 325.447 204.319 325.447 203.639C324.787 203.639 324.996 202.837 324.316 202.837C311.316 187.779 311.316 187.779 311.316 180.837C310.411 180.998 310.411 180.998 309.488 181.161C302.879 182.153 302.879 182.153 299.753 180.4C299.279 179.884 298.805 179.368 298.316 178.837C299.191 173.962 299.191 173.962 300.316 172.837C301.512 172.796 302.708 172.755 303.941 172.712C308.74 172.223 310.61 169.834 313.71 166.364C315.316 164.837 315.316 164.837 318.191 164.337C320.316 164.837 320.316 164.837 321.316 165.837C320.716 172.437 320.716 172.437 318.316 174.837C319.416 185.238 327.713 193.799 335.136 200.474C343.388 206.864 353.169 208.009 363.335 207.148C369.371 206.201 375.429 203.402 379.078 198.443C382.015 192.263 381.499 185.658 381.503 178.962C381.516 177.899 381.528 176.835 381.541 175.739C381.686 167.537 381.686 167.537 379.316 159.837C376.64 157.634 373.738 156.156 370.628 154.65C369.779 154.218 368.93 153.787 368.055 153.342C361.624 150.188 355.33 148.301 348.386 146.681C344.08 145.497 342.038 144.384 339.316 140.837C338.766 137.293 338.659 135.11 340.316 131.9C343.588 130.161 346.757 130.247 350.316 130.837C356.601 133.238 360.819 137.987 365.003 143.087C367.02 145.855 367.02 145.855 369.316 146.837C369.316 147.497 369.316 148.157 369.316 148.837C370.017 149.105 370.718 149.373 371.441 149.65C374.316 150.837 374.316 150.837 377.253 152.462C380.724 154.02 382.563 154.463 386.316 153.837C392.81 149.778 395.903 143.403 399.406 136.775C401.51 132.853 403.409 130.07 407.316 127.837C410.503 127.9 410.503 127.9 413.316 128.837C415.316 131.837 415.316 131.837 415.316 134.587C413.167 141.573 408.606 144.849 402.378 148.337C400.355 149.499 398.334 150.666 396.316 151.837C395.523 152.275 394.73 152.714 393.914 153.165C391.44 154.948 390.454 155.977 389.316 158.837C389.08 164.431 390.155 169.99 391.002 175.5C391.994 182.896 391.679 190.511 390.316 197.837C395.828 202.89 403.361 203.32 410.511 203.142C417.262 202.408 422.553 200.086 427.253 195.15C433.431 187.224 434.351 178.684 433.316 168.837C431.887 162.416 428.853 158.226 424.628 153.275C420.01 147.44 419.592 143.261 419.554 136.134C419.48 129.215 417.631 123.931 414.316 117.837C413.918 117.086 413.519 116.334 413.109 115.56C408.219 107.391 400.216 99.1042 392.316 93.8371C392.646 93.1771 392.976 92.5171 393.316 91.8371C394.966 92.4971 396.616 93.1571 398.316 93.8371C398.445 92.967 398.445 92.967 398.578 92.0793C399.627 86.2479 401.117 83.036 405.316 78.8371C409.274 76.858 414.002 77.421 418.316 77.8371Z" fill="#277C6C"/>
<path d="M224.316 251.837C228.496 256.435 230.844 261.7 233.441 267.275C233.883 268.203 234.325 269.132 234.781 270.089C236.909 274.605 238.89 279.039 240.316 283.837C238.753 283.695 237.191 283.548 235.628 283.4C234.758 283.318 233.888 283.237 232.992 283.154C230.393 282.846 227.874 282.386 225.316 281.837C225.29 282.622 225.264 283.407 225.238 284.216C224.818 291.998 224.167 297.326 218.191 302.775C212.74 304.789 207.955 305.01 202.574 302.618C192.249 296.418 183.499 287.793 178.316 276.837C178.316 276.177 178.316 275.517 178.316 274.837C177.656 274.837 176.996 274.837 176.316 274.837C176.066 275.391 175.816 275.946 175.558 276.517C170.384 286.182 161.89 293.309 153.316 299.837C152.713 300.336 152.109 300.835 151.488 301.349C145.998 305.3 138.7 304.567 132.316 303.837C126.405 301.409 123.17 296.393 120.316 290.837C117.812 284.264 116.203 277.812 115.316 270.837C113.814 271.759 113.814 271.759 112.281 272.7C110.938 273.517 109.596 274.333 108.253 275.15C107.268 275.756 107.268 275.756 106.263 276.374C93.9857 283.813 93.9857 283.813 86.3159 282.837C82.9409 281.15 82.9409 281.15 80.3159 278.837C79.5659 276.15 79.5661 276.15 79.3161 273.837C78.6561 273.507 77.9959 273.177 77.3159 272.837C80.2859 266.402 80.2859 266.402 83.3159 259.837C84.3059 261.322 84.3059 261.322 85.3159 262.837C87.542 265.723 88.6949 266.721 92.3159 267.4C101.719 266.777 109.846 261.123 116.941 255.411C119.316 253.837 119.316 253.837 123.316 253.837C123.662 255.305 123.662 255.305 124.015 256.802C126.417 266.618 128.927 276.307 137.304 282.794C141.297 284.864 144.992 284.824 149.316 283.837C152.709 282.26 155.457 280.236 158.316 277.837C158.922 277.342 159.528 276.847 160.152 276.337C165.04 271.913 168.211 266.456 171.519 260.825C173.002 258.359 174.537 256.093 176.316 253.837C179.834 255.369 182.325 257.494 185.191 260.025C192.946 266.449 201.875 272.646 212.316 271.837C217.506 270.006 219.861 267.746 222.316 262.837C223.199 259.195 223.814 255.549 224.316 251.837Z" fill="#88C8AF"/>
<path d="M270.316 200.837C271.054 201.215 271.054 201.215 271.806 201.6C283.632 207.59 295.465 213.272 308.925 214.044C313.401 215.091 315.185 217.501 317.816 221.025C318.772 222.22 319.732 223.413 320.695 224.603C321.149 225.169 321.603 225.736 322.07 226.32C330.808 236.965 345.007 241.95 358.316 243.837C363.324 244.212 368.302 244.096 373.316 243.837C375.935 251.47 377.937 259.128 379.566 267.025C379.741 267.843 379.916 268.661 380.096 269.504C381.257 275.336 381.514 280.899 381.316 286.837C380.986 286.837 380.656 286.837 380.316 286.837C380.316 285.187 380.316 283.537 380.316 281.837C379.514 281.811 378.712 281.786 377.886 281.759C348.951 280.316 323.315 269.104 303.316 247.837C302.047 246.569 302.047 246.569 300.753 245.275C299.949 244.47 299.145 243.666 298.316 242.837C297.818 242.386 297.321 241.935 296.808 241.47C285.867 231.241 276.598 216.362 270.316 202.837C270.316 202.177 270.316 201.517 270.316 200.837Z" fill="#338E7D"/>
<path d="M168.316 740.837C168.646 751.727 168.976 762.617 169.316 773.837C169.976 773.837 170.636 773.837 171.316 773.837C172.47 772.411 173.623 770.985 174.773 769.556C177.565 766.446 180.861 764.158 184.316 761.837C184.875 761.42 185.435 761.002 186.011 760.572C192.698 756.314 201.684 756.879 209.316 757.837C213.914 759.12 217.374 761.209 221.316 763.837C221.976 763.177 222.636 762.517 223.316 761.837C223.904 763.353 223.904 763.353 224.503 764.9C225.689 767.695 227.069 770.026 228.878 772.462C233.19 778.345 234.238 783.57 233.316 790.837C231.472 794.605 229.361 796.044 225.566 797.525C210.111 801.969 188.176 804.179 173.32 796.853C170.57 795.138 169.129 793.556 167.316 790.837C167.086 788.427 167.086 788.427 167.129 785.775C167.135 784.897 167.141 784.019 167.148 783.115C167.316 780.837 167.316 780.837 168.316 778.837C167.421 778.8 166.527 778.762 165.605 778.724C146.327 777.676 146.327 777.676 140.316 771.837C139.083 767.222 139.381 762.652 141.574 758.396C148.402 749.265 156.639 740.837 168.316 740.837Z" fill="#BE956B"/>
<path d="M453.207 2.16138C460.813 7.2283 465.464 13.0526 467.808 21.9036C469.771 33.2431 468.932 43.8105 462.55 53.5247C456.453 61.5899 449.483 66.7277 440.316 70.8372C439.656 70.8372 438.996 70.8372 438.316 70.8372C437.719 69.6983 437.719 69.6983 437.109 68.5364C436.579 67.5425 436.049 66.5487 435.504 65.5247C434.981 64.5385 434.459 63.5524 433.921 62.5364C432.544 60.2205 431.321 58.6011 429.316 56.8372C428.945 57.3528 428.574 57.8684 428.191 58.3997C426.316 59.8372 426.316 59.8372 423.441 59.7747C420.316 58.8372 420.316 58.8372 418.035 56.8372C414.01 53.8763 410.146 54.0178 405.277 53.6223C402.316 52.8372 402.316 52.8372 400.41 50.4348C399.098 47.3184 399.155 45.9874 400.316 42.8372C401.531 41.2044 401.531 41.2044 403.316 39.8372C405.875 39.509 405.875 39.509 408.754 39.5872C409.701 39.6026 410.648 39.6181 411.625 39.634C413.987 39.8124 416.05 40.1728 418.316 40.8372C417.394 40.0231 417.394 40.0231 416.453 39.1926C415.24 38.1195 415.24 38.1195 414.004 37.0247C412.803 35.9631 412.803 35.9631 411.578 34.8801C409.766 33.2438 408.019 31.5845 406.316 29.8372C406.861 29.3873 407.407 28.9374 407.968 28.4739C413.35 23.8831 417.782 18.9823 422.187 13.4583C430.17 3.62994 440.058 -3.86196 453.207 2.16138Z" fill="#348C7D"/>
<path d="M343.66 755.126C351.084 759.754 356.713 765.306 359.316 773.837C359.795 777.274 359.939 780.413 359.316 783.837C354.417 789.808 345.382 791.389 338.043 792.486C322.351 793.966 303.344 794.999 290.316 784.837C288.431 781.066 288.251 777.82 289.316 773.837C294.999 765.544 302.489 759.574 311.316 754.837C312.065 754.405 312.814 753.973 313.586 753.529C323.355 748.441 334.272 749.963 343.66 755.126Z" fill="#BF956B"/>
<path d="M72.3158 742.837C72.8108 744.322 72.8111 744.322 73.3161 745.837C74.5845 746.208 74.5843 746.208 75.8783 746.587C83.9802 749.533 89.2381 756.486 93.3161 763.837C95.6825 769.029 96.2092 773.532 94.6911 779.15C89.4651 785.563 78.057 786.04 70.3161 786.837C57.3335 787.701 42.9328 788.548 32.3161 779.837C29.2867 775.293 29.2997 771.147 30.3158 765.837C32.4736 761.974 35.2085 758.966 38.3158 755.837C38.9629 755.164 39.6101 754.491 40.2768 753.798C49.4112 745.036 60.2691 743.973 72.3158 742.837Z" fill="#BE956A"/>
<path d="M422.253 66.3997C426.715 68.789 429.936 72.1279 433.316 75.8372C435.349 78.0006 435.349 78.0006 438.316 79.8372C438.811 81.3222 438.811 81.3222 439.316 82.8372C440.504 79.4077 440.118 77.4593 438.878 74.0872C438.591 73.288 438.303 72.4887 438.007 71.6653C437.665 70.7604 437.665 70.7604 437.316 69.8372C443.045 74.7513 444.351 81.8354 446.316 88.8372C446.803 90.5291 446.803 90.5291 447.3 92.2551C449.546 101.8 449.631 111.391 449.691 121.15C449.699 121.841 449.707 122.533 449.715 123.245C449.791 131.858 449.16 139.649 446.316 147.837C445.79 149.4 445.79 149.4 445.253 150.993C444.944 151.767 444.635 152.54 444.316 153.337C444.007 154.131 443.697 154.925 443.378 155.743C442.284 157.9 441.116 159.242 439.316 160.837C438.821 159.723 438.326 158.61 437.816 157.462C436.054 153.806 433.922 151.323 431.128 148.4C426.72 143.162 426.453 138.582 426.528 131.99C426.573 126.788 425.514 123.554 423.316 118.837C423.128 115.025 423.128 115.025 423.316 111.837C423.316 111.177 423.316 110.517 423.316 109.837C422.656 109.507 421.996 109.177 421.316 108.837C422.688 105.883 424.305 103.397 426.316 100.837C426.584 101.456 426.852 102.075 427.128 102.712C428.271 105.137 428.271 105.137 431.316 106.837C431.316 107.497 431.316 108.157 431.316 108.837C430.326 109.332 430.326 109.332 429.316 109.837C429.811 110.332 429.811 110.332 430.316 110.837C430.999 112.162 431.667 113.495 432.316 114.837C432.782 101.731 431.765 92.3277 423.316 81.8372C420.048 78.7563 417.165 78.5976 412.816 78.3997C409.222 78.5108 407.524 78.7242 404.316 80.4622C402.098 83.0959 400.678 85.6823 399.316 88.8372C398.986 88.8372 398.656 88.8372 398.316 88.8372C398.486 81.4285 399.907 75.8723 404.316 69.8372C409.755 64.6573 415.293 63.2431 422.253 66.3997Z" fill="#43A78E"/>
<path d="M295.21 73.5872C304.601 79.1626 310.528 88.2787 313.316 98.8372C313.747 102.473 313.781 106.054 313.753 109.712C313.773 110.642 313.793 111.571 313.814 112.529C313.807 122.52 310.402 130.061 304.316 137.837C302.666 137.177 301.016 136.517 299.316 135.837C299.316 135.177 299.316 134.517 299.316 133.837C299.976 133.837 300.636 133.837 301.316 133.837C301.592 133.264 301.868 132.69 302.152 132.099C303.316 129.837 303.316 129.837 304.605 127.857C309.323 120.063 309.739 111.688 308.316 102.837C305.864 94.7318 301.802 88.89 294.316 84.8372C289.541 82.6022 284.53 82.1618 279.316 82.8372C278.326 83.4972 277.336 84.1572 276.316 84.8372C277.12 85.4559 277.925 86.0747 278.753 86.7122C281.326 88.8454 282.165 89.5825 282.554 92.8255C282.687 96.9913 282.704 99.2159 280.441 102.837C277.255 105.835 274.89 106.279 270.492 106.271C266.535 105.482 264.023 102.68 261.316 99.8372C258.182 109.238 260.257 119.097 264.316 127.837C264.976 129.157 265.636 130.477 266.316 131.837C262.686 132.497 259.056 133.157 255.316 133.837C248.189 122.771 245.521 112.406 247.777 99.1223C250.681 88.3082 257.207 78.4214 266.753 72.3997C275.144 68.6215 287.112 69.6803 295.21 73.5872Z" fill="#F5FCFB"/>
<path d="M204.316 26.8371C210.372 30.029 213.181 35.8003 216.337 41.5842C220.282 48.7563 224.569 53.6687 231.253 58.3371C235.085 61.2059 235.085 61.2059 236.062 63.8762C236.289 67.5556 235.463 69.6413 233.277 72.5481C229.529 75.4452 226.611 75.5279 222.066 75.3371C221.306 75.318 220.547 75.2988 219.765 75.279C209.51 74.8723 200.727 71.5316 193.523 63.9504C187.476 56.3505 185.717 49.5342 185.964 39.8332C186.592 34.4786 189.033 31.967 192.941 28.5246C197.18 25.5125 199.186 25.5758 204.316 26.8371Z" fill="#8CCAB0"/>
<path d="M294.409 83.8176C302.206 87.9875 306.751 94.3876 309.316 102.837C309.965 108.499 309.679 114.164 309.316 119.837C308.326 120.332 308.326 120.332 307.316 120.837C307.274 120.074 307.233 119.311 307.191 118.525C306.561 115.543 306.561 115.543 303.441 114.275C302.409 113.8 301.378 113.326 300.316 112.837C297.87 110.228 297.316 109.467 297.316 105.837C296.656 105.837 295.996 105.837 295.316 105.837C295.295 106.745 295.274 107.652 295.253 108.587C294.316 111.837 294.316 111.837 291.316 114.15C288.415 115.615 285.982 116.067 282.753 116.275C277.923 116.662 275.533 118.071 272.316 121.837C271.287 124.805 270.709 127.725 270.316 130.837C268.066 130.712 268.066 130.712 265.316 129.837C258.674 121.867 258.489 112.821 259.316 102.837C260.331 100.411 260.331 100.411 261.316 98.8371C261.934 99.4868 261.934 99.4868 262.566 100.15C265.65 103.124 268.038 105.282 272.441 105.525C276.351 105.089 276.351 105.089 279.316 102.9C281.651 99.3241 282.039 97.1873 281.816 92.9895C281.019 89.559 279.013 87.9567 276.316 85.8371C275.656 85.1771 274.996 84.5171 274.316 83.8371C280.745 80.5186 287.886 80.9828 294.409 83.8176Z" fill="#2B5450"/>
<path d="M391.816 102.775C395.716 105.992 397.124 108.299 397.754 113.337C397.22 117.61 396.508 118.957 393.316 121.837C385.668 127.423 375.335 126.865 366.316 125.837C359.908 124.309 353.875 121.493 350.004 115.962C348.756 112.105 348.844 109.048 350.316 105.275C360.733 92.579 379.066 95.0992 391.816 102.775Z" fill="#70BCA2"/>
<path d="M168.316 740.837C168.459 745.464 168.602 750.09 168.743 754.717C168.791 756.29 168.84 757.863 168.889 759.436C168.959 761.7 169.028 763.964 169.097 766.228C169.119 766.929 169.141 767.63 169.163 768.353C169.259 771.517 169.316 774.671 169.316 777.837C159.726 778.182 150.65 778.493 142.089 773.552C139.729 771.27 139.689 769.96 139.628 766.712C139.939 758.857 144.217 754.852 149.609 749.607C155.805 743.909 159.644 740.63 168.316 740.837Z" fill="#A57C4E"/>
<path d="M418.316 77.8371C425.344 80.8869 429.407 88.0484 432.191 94.9621C434.084 101.268 433.935 108.331 433.316 114.837C432.656 115.497 431.996 116.157 431.316 116.837C430.821 114.362 430.821 114.362 430.316 111.837C429.326 112.332 429.326 112.332 428.316 112.837C428.646 111.517 428.976 110.197 429.316 108.837C429.976 108.837 430.636 108.837 431.316 108.837C429.666 106.857 428.016 104.877 426.316 102.837C423.442 105.553 423.442 105.553 421.316 108.837C422.636 109.497 423.956 110.157 425.316 110.837C424.316 113.837 424.316 113.837 422.316 116.837C422.316 116.177 422.316 115.517 422.316 114.837C421.656 114.837 420.996 114.837 420.316 114.837C419.205 113.63 418.151 112.37 417.129 111.087C414.848 108.382 413.008 106.434 409.816 104.9C405.038 102.451 401.963 98.431 399.316 93.8371C398.479 89.3496 398.91 87.5906 401.066 83.5871C406.17 77.3486 410.496 76.8582 418.316 77.8371Z" fill="#2D5953"/>
<path d="M422.253 66.3997C432.191 71.851 437.721 81.3455 441.191 91.8997C442.408 96.928 442.625 101.875 442.691 107.025C442.705 107.773 442.719 108.521 442.733 109.293C442.687 114.734 441.832 118.972 439.316 123.837C436.617 125.056 436.617 125.056 433.628 125.337C432.635 125.451 431.641 125.564 430.617 125.681C429.857 125.732 429.098 125.784 428.316 125.837C428.605 125.136 428.893 124.435 429.191 123.712C433.032 113.896 434.405 102.968 430.363 92.8997C426.017 84.1398 426.017 84.1398 418.316 78.8372C413.209 78.2345 408.907 77.9752 404.316 80.4622C402.098 83.0959 400.678 85.6823 399.316 88.8372C398.986 88.8372 398.656 88.8372 398.316 88.8372C398.486 81.4285 399.907 75.8723 404.316 69.8372C409.755 64.6573 415.293 63.2431 422.253 66.3997Z" fill="#EDF9F7"/>
<path d="M295.316 105.837C295.976 105.837 296.636 105.837 297.316 105.837C297.666 106.745 298.017 107.652 298.378 108.587C300.334 111.868 300.746 112.272 303.941 113.775C307.316 115.837 307.316 115.837 308.691 118.9C308.127 124.819 305.184 129.374 301.316 133.837C298.041 135.366 295.893 134.588 292.566 133.462C285.248 131.288 277.896 131.113 270.316 130.837C270.255 126.918 270.347 123.338 272.519 119.974C276.943 115.646 281.516 114.965 287.546 114.454C290.933 113.7 292.162 112.506 294.316 109.837C295.103 107.699 295.103 107.699 295.316 105.837Z" fill="#38655B"/>
<path d="M289.191 40.9621C291.316 42.8371 291.316 42.8371 292.379 45.7121C292.316 48.8371 292.316 48.8371 291.066 51.6496C287.945 54.1325 286.982 54.1125 283.129 54.2746C275.894 54.5938 271.667 58.0646 266.258 62.5403C264.316 63.8371 264.316 63.8371 261.191 63.7121C258.316 62.8371 258.316 62.8371 256.316 59.8371C255.849 56.2527 255.978 54.415 257.816 51.2746C265.492 43.7906 278.534 36.792 289.191 40.9621Z" fill="#358C7C"/>
<path d="M335.066 760.712C339.932 762.397 341.819 765.454 344.316 769.837C347.544 776.623 348.807 782.35 348.316 789.837C345.346 789.837 342.376 789.837 339.316 789.837C339.218 788.968 339.12 788.1 339.019 787.204C338.045 779.7 337.364 774.451 331.566 769.275C330.316 767.837 330.316 767.837 330.003 765.275C330.468 761.652 331.443 760.877 335.066 760.712Z" fill="#A1764B"/>
<path d="M70.0658 755.65C73.9597 757.072 74.2535 757.932 76.0658 761.525C76.8383 763.286 77.5907 765.056 78.3158 766.837C78.7489 767.786 79.182 768.735 79.6283 769.712C80.7292 774.716 80.4644 779.735 80.3158 784.837C77.3592 786.315 74.5735 785.897 71.3158 785.837C71.1688 784.37 71.1688 784.37 71.0189 782.872C70.2253 775.915 69.2857 769.947 66.0736 763.642C65.0047 761.096 65.2918 759.358 66.3158 756.837C67.3158 755.837 67.3158 755.837 70.0658 755.65Z" fill="#A27549"/>
<path d="M208.316 770.837C212.999 775.521 213.476 782.555 213.523 788.901C213.495 791.881 213.423 794.858 213.316 797.837C210.359 799.315 207.574 798.897 204.316 798.837C204.243 797.192 204.243 797.192 204.168 795.513C204.093 794.058 204.017 792.604 203.941 791.15C203.91 790.428 203.879 789.707 203.847 788.964C203.62 784.816 202.995 781.683 201.316 777.837C201.24 775.505 201.225 773.169 201.316 770.837C204.022 769.484 205.449 770.049 208.316 770.837Z" fill="#A07648"/>
<path d="M246.316 527.837C252.518 537.14 251.417 552.27 249.316 562.837C248.986 564.157 248.656 565.477 248.316 566.837C243.861 567.332 243.861 567.332 239.316 567.837C239.988 563.587 240.663 559.336 241.342 555.087C241.572 553.645 241.801 552.203 242.029 550.761C243.245 543.066 244.503 535.419 246.316 527.837Z" fill="#278774"/>
<path d="M407.754 81.2747C411.316 81.8372 411.316 81.8372 413.816 83.8372C415.933 88.0714 415.369 90.2509 414.316 94.8372C412.316 96.8372 412.316 96.8372 408.379 97.1497C405.924 97.065 404.528 96.9431 402.316 95.8372C400.689 92.5834 400.814 89.3508 401.316 85.8372C402.884 82.1491 403.767 81.9269 407.754 81.2747Z" fill="#F1F9F7"/>
<path d="M425.316 100.837C430.191 105.462 430.191 105.462 431.316 108.837C430.326 109.332 430.326 109.332 429.316 109.837C429.646 110.167 429.976 110.497 430.316 110.837C430.646 110.837 430.976 110.837 431.316 110.837C432.324 115.627 432.896 118.517 430.378 122.837C429.698 123.827 429.017 124.817 428.316 125.837C427.326 125.507 426.336 125.177 425.316 124.837C423.324 120.434 423.132 116.623 423.316 111.837C423.316 111.177 423.316 110.517 423.316 109.837C422.656 109.507 421.996 109.177 421.316 108.837C422.649 106.17 423.983 103.504 425.316 100.837Z" fill="#375E54"/>
<path d="M295.316 105.837C295.976 105.837 296.636 105.837 297.316 105.837C297.708 106.745 298.1 107.652 298.503 108.587C300.395 111.978 302.171 113.627 305.316 115.837C303.893 116.672 303.893 116.672 302.441 117.525C299.227 119.903 298.36 121.078 297.316 124.837C296.656 124.837 295.996 124.837 295.316 124.837C295.089 124.115 294.862 123.393 294.628 122.65C293.068 119.305 291.013 117.321 288.316 114.837C289.1 114.466 289.883 114.095 290.691 113.712C293.922 111.404 294.391 109.621 295.316 105.837Z" fill="#E8F3F1"/>
<path d="M398.316 90.8372C399.731 92.6989 401.13 94.5443 402.382 96.5208C405.433 101.203 408.297 103.377 413.316 105.837C413.316 108.147 413.316 110.457 413.316 112.837C409.987 111.728 409.301 110.912 407.128 108.275C402.66 103.01 398.087 97.6843 392.316 93.8371C392.646 93.1771 392.976 92.5171 393.316 91.8371C395.791 92.8271 395.791 92.8271 398.316 93.8371C398.316 92.8471 398.316 91.8572 398.316 90.8372Z" fill="#257264"/>
<path d="M275.753 130.462C276.645 130.464 277.536 130.465 278.455 130.467C288.244 130.647 296.712 132.268 304.316 138.837C300.871 138.257 298.084 137.337 294.941 135.837C284.852 131.693 273.054 132.657 262.316 132.837C266.788 130.307 270.716 130.453 275.753 130.462Z" fill="#4AA38B"/>
<path d="M425.316 100.837C430.191 105.462 430.191 105.462 431.316 108.837C430.326 109.497 429.336 110.157 428.316 110.837C427.326 112.322 427.326 112.322 426.316 113.837C424.666 112.187 423.016 110.537 421.316 108.837C422.649 106.17 423.983 103.504 425.316 100.837Z" fill="#E3F2F0"/>
<path d="M221.316 396.837C222.646 399.497 222.156 400.933 221.628 403.837C221.48 404.724 221.332 405.611 221.179 406.525C220.316 408.837 220.316 408.837 218.234 410.15C217.284 410.49 217.284 410.49 216.316 410.837C216.851 405.489 218.783 401.479 221.316 396.837Z" fill="#269076"/>
<path d="M7.31592 515.837C8.30592 515.837 9.29592 515.837 10.3159 515.837C11.1627 520.918 11.4063 525.685 11.3159 530.837C9.50253 527.637 8.79378 524.704 8.19092 521.087C8.02334 520.102 7.85576 519.117 7.68311 518.103C7.56193 517.355 7.44076 516.607 7.31592 515.837Z" fill="#53A28D"/>
<path d="M44.3159 328.837C44.3159 331.837 44.3159 331.837 42.5659 333.661C41.8234 334.276 41.0809 334.891 40.3159 335.525C39.5734 336.147 38.8309 336.77 38.0659 337.411C37.4884 337.882 36.9109 338.352 36.3159 338.837C35.6559 338.507 34.9959 338.177 34.3159 337.837C35.4125 336.518 36.5185 335.207 37.6284 333.9C38.2433 333.169 38.8582 332.438 39.4917 331.685C41.3159 329.837 41.3159 329.837 44.3159 328.837Z" fill="#55A48F"/>
<path d="M252.316 130.837C253.399 131.332 253.399 131.332 254.503 131.837C257.333 132.843 259.345 133.007 262.316 132.837C262.316 133.497 262.316 134.157 262.316 134.837C259.003 135.525 259.003 135.525 255.316 135.837C253.378 134.525 253.378 134.525 252.316 132.837C252.316 132.177 252.316 131.517 252.316 130.837Z" fill="#4EA38C"/>
</svg>
