<svg width="701" height="753" viewBox="0 0 701 753" fill="none" xmlns="http://www.w3.org/2000/svg">
<path d="M571.894 1.87592C581.415 6.65331 585.922 13.2103 589.269 23.2509C590.276 39.5008 587.837 50.4186 577.269 63.2509C581.946 65.1867 586.636 67.0485 591.425 68.6884C607.68 74.3145 624.601 81.3025 637.269 93.2509C637.894 93.7988 638.519 94.3466 639.163 94.9111C649.885 104.792 655.987 118.311 657.019 132.688C657.635 140.689 660.448 145.56 665.003 152.013C672.974 163.405 672.865 173.85 672.269 187.251C673.589 187.911 674.909 188.571 676.269 189.251C675.955 196.635 672.688 201.94 667.409 207.052C662.155 211.287 656.109 214.251 649.269 214.251C649.164 214.959 649.06 215.666 648.952 216.395C646.039 228.565 635.956 238.336 625.894 245.063C606.911 256.448 584.184 258.627 562.714 253.419C553.448 250.278 545.182 246.029 537.769 239.626C533.68 236.437 531.091 235.899 526.101 236.421C524.042 236.738 522.009 237.114 519.968 237.532C516.598 238.187 513.682 238.306 510.269 238.251C510.56 238.933 510.852 239.614 511.152 240.317C517.893 256.197 523.714 272.002 528.493 288.594C529.12 290.741 529.789 292.875 530.472 295.005C532.992 302.995 534.461 311.141 535.956 319.376C536.171 320.557 536.386 321.737 536.607 322.954C538.952 336.367 539.407 349.43 539.331 363.001C539.326 364.584 539.322 366.168 539.318 367.751C539.307 371.584 539.29 375.418 539.269 379.251C562.448 375.573 583.508 367.434 599.269 349.251C599.857 348.637 600.444 348.024 601.05 347.392C602.544 345.251 602.544 345.251 601.976 342.446C601.533 340.926 601.533 340.926 601.081 339.376C600.782 338.307 600.483 337.239 600.175 336.138C599.545 334.132 598.841 332.149 598.081 330.188C596.677 325.109 595.794 319.068 598.32 314.243C600.071 312.105 601.788 310.491 604.269 309.251C609.427 308.744 609.427 308.744 612.269 309.251C615.144 311.688 615.144 311.688 617.269 314.251C617.929 314.581 618.589 314.911 619.269 315.251C619.632 314.659 619.996 314.068 620.37 313.458C625.692 305.093 631.49 299.706 641.269 297.251C651.001 296.157 658.408 297.137 666.417 302.759C673.517 308.434 677.434 315.241 678.507 324.251C679.097 340.156 669.182 356.683 660.441 369.388C657.818 373.51 657.739 376.39 657.956 381.251C657.99 382.27 657.99 382.27 658.025 383.31C658.083 384.958 658.172 386.605 658.269 388.251C659.589 388.251 660.909 388.251 662.269 388.251C662.283 388.945 662.298 389.64 662.313 390.355C662.389 393.571 662.485 396.786 662.581 400.001C662.615 401.639 662.615 401.639 662.65 403.31C662.868 410.018 663.773 416.037 665.544 422.508C666.548 426.308 667.076 430.109 667.581 434.001C668.849 443.054 670.492 452.024 672.206 461.001C674.228 471.601 676.14 482.208 677.868 492.861C678.911 499.244 680.084 505.592 681.331 511.938C682.876 519.802 684.127 527.673 685.142 535.623C685.774 540.401 686.636 545.068 687.679 549.774C688.851 555.107 689.841 560.436 690.699 565.825C690.875 566.93 690.875 566.93 691.054 568.057C691.295 569.573 691.535 571.09 691.775 572.607C694.243 588.302 694.243 588.302 698.144 603.688C700.1 610.294 700.761 616.548 700.831 623.438C700.853 624.732 700.853 624.732 700.876 626.051C700.784 631.706 699.913 636.767 696.269 641.251C691.463 645.592 686.893 647.22 680.593 648.278C679.763 648.433 678.933 648.587 678.077 648.746C675.373 649.244 672.665 649.716 669.956 650.188C668.068 650.531 666.179 650.875 664.291 651.221C659.524 652.089 654.752 652.935 649.979 653.774C646.648 654.36 643.319 654.955 639.989 655.55C633.788 656.659 627.585 657.752 621.378 658.829C615.196 659.904 609.023 661.023 602.851 662.153C591.747 664.183 580.623 666.095 569.497 668C552.54 670.905 535.602 673.879 518.706 677.126C509.341 678.925 499.987 680.706 490.555 682.128C470.768 685.119 451.064 688.704 431.394 692.376C412.507 695.901 393.577 699.175 374.646 702.453C353.468 706.119 332.299 709.829 311.144 713.626C295.657 716.405 280.166 719.156 264.653 721.787C251.572 724.006 238.513 726.341 225.46 728.716C216.911 730.267 208.353 731.746 199.781 733.161C187.77 735.146 175.786 737.273 163.805 739.428C160.177 740.08 156.548 740.729 152.919 741.377C142.594 743.222 132.269 745.068 121.948 746.935C118.261 747.601 114.573 748.261 110.884 748.918C109.203 749.22 107.523 749.524 105.843 749.831C83.1315 753.978 83.1315 753.978 76.2689 749.251C70.1545 743.316 67.0924 737.444 66.3314 728.876C65.5866 721.429 64.5032 714.07 63.2689 706.688C63.1027 705.678 62.9365 704.667 62.7652 703.626C62.0583 699.436 61.3264 695.297 60.2337 691.188C58.9942 686.457 58.4386 681.659 57.8314 676.813C56.8978 669.711 55.9147 662.625 54.7064 655.563C54.5917 654.864 54.4771 654.164 54.359 653.443C53.7695 650.095 53.1881 648.13 51.2689 645.251C50.9954 642.704 50.9954 642.704 50.8939 639.501C50.3458 629.656 48.4263 620.047 46.6202 610.367C46.2689 608.251 46.2689 608.251 46.2689 606.251C45.6089 606.251 44.9489 606.251 44.2689 606.251C44.2094 605.564 44.15 604.877 44.0887 604.169C42.9337 591.338 41.4544 578.861 38.2064 566.376C36.287 558.985 34.8366 551.935 34.3314 544.313C33.6973 534.933 31.8754 525.918 29.8939 516.751C26.5632 501.316 24.178 485.93 22.2689 470.251C22.0689 468.649 21.8685 467.048 21.6673 465.446C21.4701 463.865 21.4701 463.865 21.2689 462.251C20.6089 462.251 19.9489 462.251 19.2689 462.251C19.2188 461.676 19.1687 461.102 19.117 460.51C18.8834 457.881 18.6388 455.254 18.3939 452.626C18.3153 451.722 18.2366 450.819 18.1556 449.888C17.6931 445.013 16.8343 440.9 15.2689 436.251C14.5668 432.351 14.0543 428.426 13.5189 424.501C11.9285 413.316 10.1082 402.188 8.14388 391.063C8.01582 390.332 7.88776 389.6 7.75582 388.846C6.19856 379.732 6.19856 379.732 4.1556 370.72C2.91086 365.85 2.32643 360.976 1.74935 355.989C1.34888 352.36 1.34888 352.36 0.569665 349.294C-0.350937 344.835 -0.329746 342.311 1.94466 338.282C4.08703 335.449 6.29882 332.766 8.64779 330.106C11.008 327.405 13.2599 324.618 15.5257 321.838C17.3207 319.639 19.1284 317.451 20.9408 315.267C24.3806 311.119 27.7946 306.952 31.2025 302.778C32.6079 301.059 34.0169 299.343 35.429 297.63C39.5042 292.678 43.5115 287.682 47.4564 282.626C53.3919 275.026 59.5321 267.599 65.681 260.171C70.4865 254.36 75.2617 248.526 79.9564 242.626C83.6111 238.039 87.3436 233.52 91.0814 229.001C95.4464 223.722 99.7515 218.408 103.956 213.001C107.895 207.937 111.972 203.017 116.145 198.144C119.457 194.258 122.635 190.283 125.769 186.251C130.251 180.486 134.904 174.895 139.644 169.341C143.595 164.707 147.426 159.975 151.269 155.251C152.685 153.521 154.102 151.792 155.519 150.063C160.889 143.5 166.234 136.915 171.579 130.331C174.847 126.308 178.116 122.286 181.384 118.263C184.143 114.868 186.902 111.472 189.66 108.075C192.38 104.725 195.102 101.376 197.825 98.0273C199.117 96.4383 200.408 94.8486 201.699 93.2587C206.175 87.7623 210.731 82.3409 215.326 76.9433C217.862 73.9529 220.329 70.9308 222.706 67.8134C240.992 44.0903 240.992 44.0903 254.269 39.2509C264.747 37.9452 272.935 39.301 282.269 44.2509C282.903 44.5829 283.537 44.9148 284.191 45.2568C287.517 46.9994 290.825 48.7703 294.117 50.579C297.17 52.3098 297.17 52.3098 300.269 53.2509C300.384 52.5162 300.498 51.7814 300.617 51.0244C302.522 42.924 308.321 37.9949 314.999 33.5634C320.646 30.2981 327.401 30.2506 333.64 31.8642C340.733 34.7343 346.618 39.7778 352.117 45.0087C356.485 49.1369 361.196 52.1584 366.394 55.1259C367.075 55.5197 367.757 55.9134 368.459 56.319C372.322 58.4604 375.751 60.1922 380.269 60.2509C382.119 58.9936 382.119 58.9936 383.456 56.9384C401.033 34.9098 429.421 22.1014 456.929 18.4897C479.378 16.1993 503.134 19.8272 523.175 30.4658C525.752 31.4323 526.761 31.3586 529.269 30.2509C534.488 25.6589 538.352 19.7531 542.269 14.0634C549.561 3.51994 558.782 -3.53516 571.894 1.87592Z" fill="#FCC45B"/>
<path d="M571.894 1.87592C581.415 6.65331 585.922 13.2103 589.269 23.2509C590.276 39.5008 587.837 50.4186 577.269 63.2509C581.946 65.1867 586.636 67.0485 591.425 68.6884C607.68 74.3145 624.601 81.3025 637.269 93.2509C637.894 93.7988 638.519 94.3466 639.163 94.9111C649.885 104.792 655.987 118.311 657.019 132.688C657.635 140.689 660.448 145.56 665.003 152.013C672.974 163.405 672.865 173.85 672.269 187.251C673.589 187.911 674.909 188.571 676.269 189.251C675.955 196.635 672.688 201.94 667.409 207.052C662.155 211.287 656.109 214.251 649.269 214.251C649.164 214.959 649.06 215.666 648.952 216.395C646.039 228.565 635.956 238.336 625.894 245.063C606.911 256.448 584.184 258.627 562.714 253.419C553.448 250.278 545.182 246.029 537.769 239.626C533.68 236.437 531.091 235.899 526.101 236.421C524.042 236.738 522.009 237.114 519.968 237.532C516.598 238.187 513.682 238.306 510.269 238.251C510.56 238.933 510.852 239.614 511.152 240.317C517.893 256.197 523.714 272.002 528.493 288.594C529.12 290.741 529.789 292.875 530.472 295.005C532.992 302.995 534.461 311.141 535.956 319.376C536.171 320.557 536.386 321.737 536.607 322.954C538.952 336.367 539.407 349.43 539.331 363.001C539.326 364.584 539.322 366.168 539.318 367.751C539.307 371.584 539.29 375.418 539.269 379.251C562.448 375.573 583.508 367.434 599.269 349.251C599.857 348.637 600.444 348.024 601.05 347.392C602.544 345.251 602.544 345.251 601.976 342.446C601.533 340.926 601.533 340.926 601.081 339.376C600.782 338.307 600.483 337.239 600.175 336.138C599.545 334.132 598.841 332.149 598.081 330.188C596.677 325.109 595.794 319.068 598.32 314.243C600.071 312.105 601.788 310.491 604.269 309.251C609.427 308.744 609.427 308.744 612.269 309.251C615.144 311.688 615.144 311.688 617.269 314.251C617.929 314.581 618.589 314.911 619.269 315.251C619.632 314.659 619.996 314.068 620.37 313.458C625.692 305.093 631.49 299.706 641.269 297.251C651.001 296.157 658.408 297.137 666.417 302.759C673.517 308.434 677.434 315.241 678.507 324.251C679.355 347.109 660.413 371.872 646.269 388.251C645.436 389.219 644.603 390.187 643.745 391.185C624.628 412.963 599.234 428.564 571.269 436.251C570.614 436.431 569.959 436.611 569.284 436.797C560.974 438.985 552.847 440.294 544.257 440.708C542.824 440.791 541.392 440.875 539.96 440.959C537.128 441.125 534.31 441.207 531.474 441.246C525.809 441.473 521.653 441.847 517.515 446.044C515.151 449.284 513.238 452.761 511.269 456.251C509.446 458.623 507.467 460.785 505.394 462.938C504.888 463.472 504.382 464.005 503.862 464.555C494.551 474.269 484.733 482.259 473.269 489.251C472.681 489.609 472.094 489.968 471.489 490.337C446.02 505.548 416.747 511.693 387.394 511.688C386.514 511.69 385.634 511.691 384.728 511.693C357.215 511.657 329.883 507.862 303.053 501.867C300.226 501.242 297.394 500.652 294.558 500.071C228.143 486.332 163.915 459.874 106.269 424.251C105.377 423.701 104.484 423.151 103.565 422.585C89.118 413.638 75.1396 404.063 61.2686 394.251C62.6259 389.595 64.5816 385.673 67.2061 381.626C67.5979 381.021 67.9898 380.415 68.3936 379.791C76.8191 367.156 88.1463 357.296 100.172 348.185C105.404 344.204 110.405 339.976 115.394 335.696C117.187 334.171 119.012 332.682 120.882 331.251C133.281 320.861 141.335 303.187 145.94 288.04C151.503 271.056 162.873 255.83 175.269 243.251C175.925 242.582 176.581 241.913 177.257 241.224C191.883 227.411 210.111 222.47 229.753 222.659C238.732 222.958 246.088 224.357 254.269 228.251C255.403 228.782 256.537 229.313 257.706 229.86C285.438 243.855 301.831 270.142 317.065 295.997C327.74 314.054 338.936 332.015 352.269 348.251C352.927 349.085 353.586 349.919 354.265 350.778C359.608 357.239 366.228 362.571 374.269 365.251C375.677 365.331 377.089 365.359 378.499 365.349C379.703 365.344 379.703 365.344 380.931 365.339C381.764 365.33 382.597 365.322 383.456 365.313C384.724 365.307 384.724 365.307 386.017 365.3C388.101 365.288 390.185 365.27 392.269 365.251C392.599 364.261 392.929 363.271 393.269 362.251C394.919 360.897 396.586 359.564 398.269 358.251C398.929 357.261 399.589 356.271 400.269 355.251C400.929 355.251 401.589 355.251 402.269 355.251C409.508 330.591 406.359 306.562 399.269 282.251C398.977 281.241 398.685 280.232 398.384 279.192C391.68 256.181 383.193 234.37 372.116 213.106C371.269 211.251 371.269 211.251 371.269 209.251C370.279 208.921 369.289 208.591 368.269 208.251C366.371 205.294 365.709 202.216 364.956 198.813C363.936 194.524 362.651 190.664 360.894 186.626C351.973 163.552 352.642 139.544 353.269 115.251C352.403 115.274 351.538 115.297 350.647 115.321C339.228 115.5 339.228 115.5 333.956 113.251C332.601 112.694 332.601 112.694 331.218 112.126C330.575 111.837 329.931 111.548 329.269 111.251C329.269 110.591 329.269 109.931 329.269 109.251C328.553 109.148 327.838 109.045 327.101 108.938C318.108 106.755 310.479 99.6405 305.269 92.2509C299.269 81.934 299.269 81.934 299.269 77.2509C298.609 77.2509 297.949 77.2509 297.269 77.2509C296.535 62.7345 297.594 50.7586 307.366 39.1259C312.531 34.0357 318.112 31.1355 325.394 30.9384C336.568 31.1 344.279 37.552 352.117 45.0087C356.485 49.1369 361.196 52.1584 366.394 55.1259C367.075 55.5197 367.757 55.9134 368.459 56.319C372.322 58.4604 375.751 60.1922 380.269 60.2509C382.119 58.9936 382.119 58.9936 383.456 56.9384C401.033 34.9098 429.421 22.1014 456.929 18.4897C479.378 16.1993 503.134 19.8272 523.175 30.4658C525.752 31.4323 526.761 31.3586 529.269 30.2509C534.488 25.6589 538.352 19.7531 542.269 14.0634C549.561 3.51994 558.782 -3.53516 571.894 1.87592Z" fill="#35AF90"/>
<path d="M380.514 514.178C388.28 516.819 395.813 520.019 403.342 523.265C406.505 524.62 409.685 525.936 412.864 527.256C417.824 529.319 422.776 531.4 427.724 533.494C435.426 536.749 443.179 539.867 450.956 542.938C453.21 543.837 455.464 544.737 457.718 545.638C458.786 546.064 459.853 546.489 460.954 546.928C466.426 549.112 471.895 551.301 477.365 553.489C480.506 554.746 483.647 556.002 486.788 557.259C488.039 557.759 489.29 558.259 490.541 558.76C491.466 559.13 491.466 559.13 492.41 559.507C528.509 573.947 528.509 573.947 530.684 574.817C532.153 575.405 533.621 575.992 535.09 576.579C538.801 578.064 542.512 579.548 546.222 581.033C553.216 583.831 560.21 586.627 567.206 589.419C579.836 594.46 592.45 599.538 605.037 604.687C617.192 609.649 629.391 614.499 641.585 619.362C655.066 624.739 668.514 630.185 681.893 635.811C682.957 636.257 684.02 636.702 685.116 637.161C686.024 637.544 686.931 637.927 687.866 638.321C689.994 639.145 692.044 639.761 694.269 640.251C694.269 641.241 694.269 642.231 694.269 643.251C690.206 646.495 685.766 647.192 680.788 648.083C679.538 648.319 679.538 648.319 678.264 648.559C675.538 649.07 672.81 649.567 670.081 650.063C668.183 650.416 666.286 650.769 664.389 651.123C650.068 653.783 635.729 656.338 621.378 658.829C615.196 659.904 609.023 661.023 602.851 662.153C591.747 664.183 580.623 666.095 569.497 668C552.54 670.905 535.602 673.879 518.706 677.126C509.341 678.925 499.987 680.706 490.555 682.128C470.768 685.119 451.064 688.704 431.394 692.376C412.507 695.901 393.577 699.175 374.646 702.453C353.468 706.119 332.299 709.829 311.144 713.626C295.657 716.405 280.166 719.156 264.653 721.787C251.572 724.006 238.513 726.341 225.46 728.716C216.911 730.267 208.353 731.746 199.781 733.161C187.77 735.146 175.786 737.273 163.805 739.428C160.177 740.08 156.548 740.729 152.919 741.377C142.594 743.222 132.269 745.068 121.948 746.935C118.261 747.601 114.573 748.261 110.884 748.918C109.203 749.22 107.523 749.524 105.843 749.831C85.0304 753.632 85.0301 753.632 80.2686 751.251C81.8677 747.069 84.9572 744.483 88.2061 741.563C88.7865 741.034 89.367 740.506 89.9651 739.961C94.4042 735.948 98.99 732.142 103.655 728.395C106.267 726.252 108.772 724.027 111.269 721.751C115.493 717.905 119.858 714.284 124.296 710.688C129.429 706.48 134.442 702.132 139.47 697.799C142.399 695.278 145.334 692.765 148.269 690.251C149.435 689.251 150.602 688.251 151.769 687.251C158.769 681.251 165.769 675.251 172.769 669.251C173.346 668.756 173.924 668.26 174.519 667.75C175.683 666.752 176.848 665.755 178.012 664.758C180.969 662.224 183.924 659.687 186.874 657.145C192.207 652.555 197.55 647.993 203.019 643.563C207.4 640.008 211.586 636.283 215.757 632.485C218.27 630.25 220.842 628.117 223.456 626.001C229.896 620.786 236.123 615.338 242.372 609.897C247.066 605.822 251.798 601.789 256.521 597.748C258.307 596.218 260.089 594.684 261.87 593.149C267.182 588.576 272.504 584.033 277.956 579.626C282.64 575.826 287.078 571.807 291.515 567.724C295.101 564.504 298.836 561.492 302.585 558.466C305.216 556.295 307.748 554.049 310.269 551.751C314.568 547.832 319.028 544.159 323.55 540.501C326.19 538.316 328.736 536.059 331.269 533.751C335.594 529.809 340.05 526.085 344.655 522.474C347.296 520.36 347.296 520.36 349.226 517.872C356.944 508.833 370.109 511.206 380.514 514.178Z" fill="#F4AD46"/>
<path d="M276.206 41.1884C278.248 42.1657 280.267 43.1933 282.269 44.2509C283.775 45.0298 285.281 45.8084 286.788 46.5868C290.971 48.7666 295.125 50.9973 299.269 53.2509C299.115 54.0475 298.962 54.8442 298.804 55.6649C298.159 59.9854 297.918 64.2663 297.706 68.6259C297.663 69.4573 297.62 70.2888 297.575 71.1454C297.47 73.1804 297.369 75.2157 297.269 77.2509C297.929 77.2509 298.589 77.2509 299.269 77.2509C299.653 78.3589 299.653 78.3588 300.046 79.4892C305.278 93.353 313.338 101.553 326.269 108.251C327.259 108.581 328.249 108.911 329.269 109.251C329.269 109.911 329.269 110.571 329.269 111.251C335.23 113.15 340.905 114.436 347.163 114.849C348.313 114.927 349.462 115.006 350.647 115.087C351.512 115.141 352.377 115.195 353.269 115.251C353.273 116.266 353.277 117.281 353.281 118.327C353.447 145.648 355.081 170.646 365.543 196.248C366.289 198.306 366.769 200.323 367.226 202.462C368.336 206.497 369.632 208.084 372.269 211.251C374.023 214.451 375.547 217.753 377.081 221.063C377.521 222.006 377.961 222.948 378.415 223.918C379.3 225.821 380.182 227.725 381.06 229.631C382.079 231.841 383.116 234.041 384.159 236.239C390.007 248.808 394.07 262.062 398.269 275.251C398.545 276.11 398.822 276.969 399.106 277.854C406.767 301.812 412.881 331.403 402.269 355.251C399.956 357.751 399.956 357.751 397.269 360.251C396.402 361.158 395.536 362.066 394.644 363.001C390.022 367.38 384.17 366.728 378.124 366.579C367.771 365.698 359.978 358.78 353.269 351.251C343.64 339.619 335.206 327.079 327.269 314.251C326.826 313.538 326.383 312.824 325.927 312.089C321.635 305.155 317.404 298.186 313.261 291.161C304.442 276.233 295.307 262.753 283.269 250.251C282.542 249.449 281.814 248.647 281.065 247.821C269.172 235.091 250.761 224.623 233.167 223.782C230.993 223.748 228.818 223.738 226.644 223.751C225.501 223.756 224.358 223.761 223.18 223.766C202.213 224.196 184.969 233.815 170.519 248.692C159.561 261.152 151.396 276.399 145.558 291.849C140.842 304.294 134.923 316.086 126.269 326.251C125.155 327.736 125.155 327.736 124.019 329.251C120.537 333.36 116.181 336.549 111.981 339.884C108.702 342.501 105.458 345.162 102.206 347.813C97.7569 351.437 93.2871 355.026 88.7686 358.563C76.7883 368.204 68.8874 380.015 61.2686 393.251C55.5611 390.193 50.5893 386.577 45.5186 382.563C44.7229 381.938 43.9272 381.313 43.1074 380.669C33.4404 373.056 23.9513 365.252 14.667 357.177C12.5205 355.312 10.3466 353.5 8.12012 351.731C7.19973 350.975 6.27934 350.218 5.33105 349.438C4.11096 348.47 4.11096 348.47 2.86621 347.481C1.26855 345.251 1.26855 345.251 1.13965 341.974C2.5978 337.165 5.00512 334.245 8.26855 330.501C8.85798 329.801 9.4474 329.102 10.0547 328.381C11.2384 326.976 12.4275 325.576 13.6221 324.181C15.7959 321.633 17.9078 319.039 20.0186 316.438C21.4351 314.709 22.8517 312.98 24.2686 311.251C26.5217 308.497 28.7745 305.744 31.0264 302.989C32.4975 301.193 33.9713 299.398 35.4482 297.606C39.5167 292.662 43.5178 287.674 47.4564 282.626C53.3919 275.026 59.5321 267.599 65.681 260.171C70.4865 254.36 75.2617 248.526 79.9564 242.626C83.6111 238.039 87.3436 233.52 91.0814 229.001C95.4464 223.722 99.7515 218.408 103.956 213.001C107.895 207.937 111.972 203.017 116.145 198.144C119.457 194.258 122.635 190.283 125.769 186.251C130.251 180.486 134.904 174.895 139.644 169.341C143.595 164.707 147.426 159.975 151.269 155.251C152.685 153.521 154.102 151.792 155.519 150.063C160.889 143.5 166.234 136.915 171.579 130.331C174.847 126.308 178.116 122.286 181.384 118.263C184.143 114.868 186.902 111.472 189.66 108.075C192.38 104.725 195.102 101.376 197.825 98.0273C199.117 96.4383 200.408 94.8486 201.699 93.2587C206.175 87.7623 210.731 82.3409 215.326 76.9433C217.862 73.9529 220.329 70.9308 222.706 67.8134C236.096 50.4425 251.869 31.4738 276.206 41.1884Z" fill="#ECA33E"/>
<path d="M662.245 299.931C669.746 304.825 675.716 310.821 677.878 319.774C680.945 339.221 667.93 359.293 657.218 374.634C653.729 379.319 650.086 383.83 646.269 388.251C645.436 389.219 644.603 390.187 643.745 391.185C624.628 412.963 599.234 428.564 571.269 436.251C570.614 436.431 569.959 436.611 569.284 436.797C560.968 438.987 552.816 440.293 544.222 440.743C542.785 440.831 541.348 440.919 539.911 441.008C537.067 441.182 534.234 441.278 531.386 441.333C525.752 441.584 521.641 441.844 517.536 446.052C515.532 449.046 513.811 451.998 512.269 455.251C511.939 454.261 511.609 453.271 511.269 452.251C512.259 451.261 512.259 451.261 513.269 450.251C513.911 448.182 513.911 448.182 514.269 446.251C514.929 446.251 515.589 446.251 516.269 446.251C516.351 445.632 516.434 445.013 516.519 444.376C516.766 443.675 517.014 442.973 517.269 442.251C517.864 442.04 518.46 441.828 519.073 441.61C522.537 439.465 523.606 435.997 525.144 432.376C525.487 431.583 525.831 430.79 526.185 429.973C532.919 413.975 536.997 397.548 538.269 380.251C539.081 380.087 539.081 380.087 539.911 379.919C562.625 375.212 583.67 367.246 599.269 349.251C599.857 348.637 600.444 348.024 601.05 347.392C602.544 345.251 602.544 345.251 601.976 342.446C601.681 341.433 601.386 340.42 601.081 339.376C600.782 338.307 600.483 337.239 600.175 336.138C599.545 334.132 598.841 332.149 598.081 330.188C596.677 325.109 595.794 319.068 598.32 314.243C600.071 312.105 601.788 310.491 604.269 309.251C609.427 308.744 609.427 308.744 612.269 309.251C615.144 311.688 615.144 311.688 617.269 314.251C617.929 314.581 618.589 314.911 619.269 315.251C619.632 314.659 619.996 314.068 620.37 313.458C629.367 299.318 646.13 291.364 662.245 299.931Z" fill="#30937F"/>
<path d="M539.081 240.376C543.939 243.888 548.853 246.749 554.331 249.188C554.942 249.47 555.554 249.752 556.184 250.042C572.04 256.812 595.143 257.114 611.335 251.474C616.04 249.513 620.704 247.524 625.269 245.251C626.565 246.182 627.855 247.121 629.144 248.063C630.222 248.847 630.222 248.847 631.323 249.645C635.123 252.781 635.723 255.823 636.522 260.493C636.844 262.34 636.844 262.34 637.173 264.224C637.499 266.155 637.499 266.155 637.831 268.126C638.27 270.665 638.708 273.204 639.147 275.743C639.339 276.871 639.53 277.999 639.728 279.161C640.068 281.104 640.433 283.044 640.833 284.977C641.357 287.712 641.365 290.281 641.331 293.063C641.322 294.039 641.313 295.015 641.304 296.02C641.286 297.125 641.286 297.125 641.269 298.251C640.628 298.47 639.987 298.689 639.327 298.915C629.081 302.671 624.002 307.436 619.269 317.251C618.67 316.467 618.072 315.683 617.456 314.876C614.491 311.318 613.051 310.327 608.394 309.876C604.253 309.967 602.185 311.246 599.269 314.251C596.269 320.25 598.186 327.495 600.157 333.547C600.643 334.96 601.145 336.367 601.666 337.767C603.426 342.714 603.426 342.714 602.612 345.485C588.985 363.391 568.694 375.961 546.269 379.251C543.935 379.269 541.602 379.271 539.269 379.251C539.249 378.315 539.229 377.38 539.208 376.415C538.892 351.744 538.892 351.744 536.269 327.251C536.114 326.304 535.96 325.358 535.8 324.383C531.054 296.15 522.542 268.938 511.208 242.658C510.269 240.251 510.269 240.251 510.269 238.251C513.163 237.719 516.058 237.2 518.956 236.688C519.773 236.537 520.589 236.385 521.431 236.229C529.131 234.889 532.712 235.552 539.081 240.376Z" fill="#EBA33D"/>
<path d="M254.269 228.251C255.403 228.782 256.537 229.313 257.706 229.86C282.672 242.459 298.901 265.397 312.807 288.801C314.376 291.431 315.965 294.049 317.558 296.665C318.649 298.464 319.74 300.264 320.831 302.063C321.344 302.905 321.857 303.747 322.385 304.615C324.67 308.407 326.825 312.04 328.269 316.251C323.751 314.745 322.007 311.633 319.812 307.524C319.364 306.568 318.917 305.611 318.456 304.626C315.497 298.525 312.021 292.891 308.269 287.251C305.715 288.267 303.17 289.293 300.644 290.376C290.943 292.891 283.729 290.712 274.814 286.741C269.681 284.517 265.879 283.552 260.269 284.251C256.491 286.575 254.093 289.538 251.456 293.063C244.208 302.246 237.154 308.032 225.249 309.665C215.543 310.138 208.102 306.506 200.991 300.067C198.131 297.051 195.642 293.755 193.163 290.423C191.153 288.119 190.198 287.081 187.269 286.251C181.225 286.502 176.825 288.112 171.456 290.751C165.192 293.649 159.322 295.959 152.269 295.251C149.081 293.813 149.081 293.813 147.269 292.251C145.784 295.716 145.784 295.716 144.269 299.251C142.389 294.627 144.598 291.011 146.393 286.658C157.74 260.051 174.904 237.444 202.319 226.259C218.697 220.662 238.549 220.769 254.269 228.251Z" fill="#2F937E"/>
<path d="M648.269 119.251C650.787 121.769 650.68 122.873 650.831 126.376C650.728 131.984 649.184 134.652 645.272 138.556C643.455 140.093 641.625 141.436 639.644 142.751C635.633 145.498 632.785 148.559 631.269 153.251C631.372 157.088 632.304 160.552 633.269 164.251C635.285 172.177 635.512 179.722 635.394 187.876C635.385 189.071 635.376 190.266 635.366 191.497C635.343 194.415 635.31 197.333 635.269 200.251C642.627 202.503 649.412 203.89 656.644 200.563C661.237 197.935 663.56 194.503 666.144 189.938C668.269 187.251 668.269 187.251 671.394 186.751C674.269 187.251 674.269 187.251 676.269 189.251C676.269 195.804 673.411 200.307 669.269 205.251C663.022 211.3 655.888 214.337 647.206 214.563C641.615 214.39 636.561 213.129 631.331 211.126C626.82 211.31 625.115 213.938 621.948 216.981C609.617 227.425 593.949 230.329 578.269 229.251C558.635 226.917 542.542 215.158 530.269 200.251C528.519 197.958 526.881 195.644 525.269 193.251C524.526 193.746 524.526 193.746 523.769 194.251C520.052 195.738 517.274 195.569 513.269 195.251C511.206 194.063 511.206 194.063 510.269 192.251C510.513 188.909 510.874 187.645 513.269 185.251C514.693 184.792 516.133 184.381 517.581 184.001C523.803 182.014 525.981 178.688 529.019 172.938C529.431 172.052 529.844 171.165 530.269 170.251C531.269 169.251 531.269 169.251 533.644 169.001C536.269 169.251 536.269 169.251 538.144 170.313C539.972 173.463 539.099 175.811 538.269 179.251C537.732 180.138 537.196 181.025 536.644 181.938C535.065 184.067 535.065 184.067 535.464 186.067C539.84 197.942 550.966 206.661 561.979 211.944C574.293 217.561 587.478 219.676 600.644 215.626C606.259 213.467 611.305 210.633 616.269 207.251C616.89 206.85 617.511 206.449 618.151 206.036C621.608 203.557 623.26 201.045 624.022 196.856C625.146 184.962 624.145 173.824 621.269 162.251C621.109 161.363 620.949 160.475 620.784 159.56C618.166 155.571 613.745 154.588 609.394 153.001C608.482 152.65 607.571 152.3 606.632 151.938C600.395 149.564 595.217 148.183 588.519 147.876C581.669 147.413 576.453 146.619 570.831 142.438C568.759 139.537 568.197 137.833 568.269 134.251C570.026 131.269 572.129 128.821 575.269 127.251C582.393 126.488 587.398 128.142 593.269 132.251C595.316 134.147 597.229 136.16 599.144 138.188C605.494 144.889 612.646 150.289 622.206 150.938C625.382 150.675 626.34 150.201 629.081 148.313C633.249 142.479 635.264 137.106 636.269 130.001C637.459 122.021 639.529 118.118 648.269 119.251Z" fill="#1E7D6D"/>
<path d="M475.894 87.9384C488.273 96.8473 495.612 108.322 498.839 123.239C500.731 136.501 498.147 147.159 491.894 158.813C490.269 160.251 490.269 160.251 487.581 160.688C483.435 160.141 480.131 158.849 476.269 157.251C476.86 154.414 477.403 153.062 479.144 150.626C484.733 141.749 485.554 131.75 483.8 121.517C481.677 113.379 477.352 105.973 470.269 101.251C469.505 100.715 468.742 100.178 467.956 99.6259C459.415 95.2559 449.511 95.2526 440.269 97.2509C440.269 97.9109 440.269 98.5709 440.269 99.2509C440.99 99.2922 441.712 99.3334 442.456 99.3759C445.585 100.349 447.321 101.63 449.315 104.243C451.295 108.413 450.98 112.782 450.269 117.251C448.479 121.105 447.005 122.749 443.519 125.126C439.581 126.489 436.385 126.989 432.269 126.251C428.566 124.4 426.751 123.216 424.894 119.501C424.687 118.758 424.481 118.016 424.269 117.251C423.609 117.251 422.949 117.251 422.269 117.251C420.171 128.523 419.796 140.915 426.456 150.751C427.353 151.988 427.353 151.988 428.269 153.251C428.269 153.911 428.269 154.571 428.269 155.251C426.522 155.926 424.771 156.59 423.019 157.251C422.044 157.622 421.069 157.993 420.065 158.376C417.269 159.251 417.269 159.251 413.269 159.251C412.47 157.566 411.68 155.878 410.894 154.188C410.232 152.779 410.232 152.779 409.558 151.341C404.541 139.317 404.102 124.089 409.011 111.919C409.426 111.038 409.841 110.158 410.269 109.251C410.922 107.822 410.922 107.822 411.589 106.364C417.532 94.4616 427.017 86.482 439.624 82.079C452.489 79.1558 464.675 81.0183 475.894 87.9384Z" fill="#F8FDFC"/>
<path d="M633.269 252.251C635.9 254.883 635.9 256.742 636.522 260.395C636.844 262.247 636.844 262.247 637.173 264.136C637.499 266.08 637.499 266.08 637.831 268.063C638.27 270.612 638.708 273.16 639.147 275.708C639.339 276.842 639.53 277.976 639.728 279.145C640.067 281.095 640.432 283.041 640.833 284.979C641.357 287.713 641.365 290.282 641.331 293.063C641.322 294.039 641.313 295.015 641.304 296.02C641.292 296.757 641.281 297.493 641.269 298.251C640.628 298.47 639.987 298.689 639.327 298.915C629.081 302.671 624.002 307.436 619.269 317.251C618.67 316.467 618.072 315.683 617.456 314.876C614.491 311.318 613.051 310.327 608.394 309.876C604.253 309.967 602.185 311.246 599.269 314.251C596.269 320.25 598.186 327.495 600.157 333.547C600.643 334.96 601.145 336.367 601.666 337.767C603.426 342.714 603.426 342.714 602.612 345.485C588.985 363.391 568.694 375.961 546.269 379.251C543.959 379.251 541.649 379.251 539.269 379.251C538.939 364.071 538.609 348.891 538.269 333.251C540.283 336.272 540.576 337.257 540.858 340.712C540.932 341.598 541.005 342.485 541.081 343.398C541.398 348.222 541.634 353.046 541.831 357.876C541.896 359.382 541.896 359.382 541.962 360.919C542.067 363.363 542.169 365.807 542.269 368.251C545.418 365.13 548.563 362.003 551.706 358.876C552.604 357.986 553.502 357.097 554.427 356.181C555.708 354.904 555.708 354.904 557.015 353.602C557.805 352.817 558.596 352.031 559.411 351.222C561.322 349.383 561.322 349.383 562.269 347.251C562.929 347.251 563.589 347.251 564.269 347.251C564.484 346.716 564.699 346.181 564.921 345.63C566.761 342.381 569.267 339.867 571.831 337.188C577.254 331.414 582.345 325.46 587.269 319.251C588.104 318.208 588.94 317.165 589.776 316.122C600.535 302.629 610.965 288.791 620.269 274.251C621.001 273.112 621.001 273.112 621.748 271.95C623.406 269.366 625.057 266.778 626.706 264.188C627.239 263.354 627.772 262.519 628.322 261.659C628.819 260.873 629.315 260.088 629.827 259.278C630.497 258.222 630.497 258.222 631.18 257.145C632.416 255.139 632.416 255.139 633.269 252.251Z" fill="#FBC25A"/>
<path d="M427.269 229.251C429.659 230.437 432.035 231.647 434.405 232.872C458.248 245.069 480.108 243.207 505.988 238.618C508.269 238.251 508.269 238.251 510.269 238.251C516.064 251.812 521.558 265.333 525.894 279.438C526.224 280.505 526.554 281.571 526.894 282.67C528.549 288.213 529.758 293.486 530.269 299.251C529.609 298.921 528.949 298.591 528.269 298.251C527.644 296.188 527.644 296.188 527.269 294.251C525.985 294.116 524.701 293.98 523.378 293.841C498.157 290.891 475.678 281.703 456.269 265.251C455.76 264.826 455.251 264.401 454.727 263.963C443.59 254.58 433.977 243.242 427.269 230.251C427.269 229.921 427.269 229.591 427.269 229.251Z" fill="#2E937F"/>
<path d="M571.894 1.87592C581.415 6.65331 585.922 13.2103 589.269 23.2509C590.08 36.341 589.527 47.4117 581.269 58.2509C580.588 59.1791 579.907 60.1072 579.206 61.0634C577.269 63.2509 577.269 63.2509 574.269 64.2509C565.522 62.8893 557.008 61.3932 551.394 54.0634C550.739 53.1082 550.084 52.153 549.409 51.1689C543.992 43.7839 535.768 38.3642 528.269 33.2509C529.597 30.325 531.072 28.2098 533.269 25.8759C536.107 22.7362 538.544 19.4758 540.928 15.9914C548.547 4.86774 557.621 -4.014 571.894 1.87592Z" fill="#2F927F"/>
<path d="M469.46 99.5048C477.152 104.862 482.641 112.418 484.823 121.579C486.537 131.862 485.756 142.793 479.667 151.556C478.018 153.501 478.018 153.501 475.268 156.251C472.958 155.591 470.648 154.931 468.268 154.251C468.928 153.591 469.588 152.931 470.268 152.251C470.598 152.251 470.928 152.251 471.268 152.251C471.433 148.132 471.433 148.132 470.456 144.188C470.268 142.251 470.268 142.251 472.456 139.563C474.954 137.509 476.138 136.599 479.268 136.251C479.268 135.591 479.268 134.931 479.268 134.251C478.361 134.024 477.453 133.797 476.518 133.563C471.749 131.637 470.046 128.418 467.268 124.251C466.681 125.612 466.681 125.612 466.081 127.001C464.113 130.531 462.609 132.025 459.268 134.251C456.183 134.903 456.183 134.903 452.893 135.188C446.866 135.96 443.707 137.108 439.268 141.251C436.643 144.711 436.69 149.04 436.268 153.251C431.122 154.366 431.122 154.366 428.268 154.251C423.401 150.041 421.268 143.483 420.268 137.251C419.89 130.291 419.821 123.828 422.269 117.251C422.929 117.251 423.589 117.251 424.269 117.251C424.887 118.2 425.506 119.148 426.143 120.126C428.517 123.738 428.517 123.738 432.268 125.251C437.857 125.702 441.48 125.48 446.268 122.251C449.893 118.385 449.827 113.985 449.69 108.919C449.018 104.665 447.507 103.048 444.268 100.251C442.103 99.3066 442.103 99.3065 440.269 99.2509C440.269 98.5909 440.269 97.9309 440.269 97.2509C449.624 93.2054 460.716 94.5015 469.46 99.5048Z" fill="#23544E"/>
<path d="M333.257 51.9111C340.311 55.629 344.047 62.7763 348.269 69.2509C352.667 75.8337 357 79.7956 363.913 83.7431C366.269 85.2509 366.269 85.2509 368.269 88.2509C368.492 91.3678 368.107 94.2443 367.269 97.2509C363.492 101.459 358.77 102.975 353.226 103.587C340.83 103.741 331.049 99.8757 321.269 92.2509C315.101 86.2116 311.838 78.0545 310.831 69.5634C311.794 62.2697 313.819 57.9798 319.647 53.3799C323.872 50.4377 328.452 50.3159 333.257 51.9111Z" fill="#8CD2B5"/>
<path d="M64.2686 395.251C69.9107 396.555 73.8782 398.674 78.5811 402.001C79.8896 402.904 81.1995 403.805 82.5107 404.704C83.1459 405.14 83.7811 405.577 84.4355 406.026C87.7242 408.223 91.1584 410.165 94.6084 412.095C95.1562 412.476 95.7041 412.858 96.2686 413.251C96.2686 413.911 96.2686 414.571 96.2686 415.251C98.5786 415.911 100.889 416.571 103.269 417.251C103.269 417.911 103.269 418.571 103.269 419.251C103.963 419.507 104.658 419.764 105.374 420.028C108.612 421.396 111.542 423.046 114.581 424.813C115.813 425.525 117.044 426.236 118.276 426.946C118.921 427.319 119.566 427.692 120.23 428.076C123.796 430.131 127.374 432.162 130.956 434.188C131.639 434.578 132.322 434.967 133.026 435.368C135.751 436.908 138.291 438.258 141.269 439.251C141.269 439.911 141.269 440.571 141.269 441.251C141.895 441.444 142.522 441.638 143.167 441.837C143.984 442.097 144.802 442.358 145.644 442.626C146.456 442.881 147.268 443.136 148.104 443.399C150.269 444.251 150.269 444.251 152.269 446.251C153.444 446.746 154.62 447.241 155.831 447.751C159.269 449.251 159.269 449.251 160.269 451.251C162.076 452.058 162.076 452.058 164.269 452.688C165.473 453.067 165.473 453.067 166.702 453.454C167.549 453.717 168.396 453.98 169.269 454.251C170.957 454.81 172.645 455.372 174.331 455.938C175.462 456.315 175.462 456.315 176.616 456.7C177.161 456.882 177.707 457.064 178.269 457.251C178.269 457.911 178.269 458.571 178.269 459.251C178.956 459.358 179.643 459.465 180.351 459.575C183.775 460.368 186.742 461.642 189.956 463.063C196.558 465.954 203.206 468.682 209.929 471.278C214.314 472.99 218.237 474.811 222.269 477.251C226.524 479.085 230.387 480.339 234.956 481.063C244.246 482.581 253.257 485.583 262.269 488.251C262.304 487.54 262.339 486.829 262.376 486.097C263.186 471.722 268.329 458.743 278.269 448.251C278.929 448.251 279.589 448.251 280.269 448.251C280.269 447.591 280.269 446.931 280.269 446.251C281.963 444.848 283.726 443.527 285.519 442.251C286.493 441.55 287.468 440.848 288.472 440.126C290.705 438.629 292.831 437.365 295.269 436.251C294.996 437.142 294.996 437.142 294.718 438.052C294.18 439.823 293.654 441.599 293.136 443.376C292.604 445.14 292.033 446.895 291.401 448.626C286.208 464.058 289.274 481.656 292.269 497.251C294.579 497.911 296.889 498.571 299.269 499.251C295.929 500.351 293.686 500.132 290.28 499.352C289.28 499.125 288.28 498.898 287.25 498.664C286.163 498.404 285.076 498.144 283.956 497.876C282.237 497.469 282.237 497.469 280.484 497.054C247.148 488.993 214.649 478.103 183.269 464.251C182.251 463.802 181.232 463.352 180.184 462.89C154.737 451.571 129.965 438.9 106.269 424.251C105.361 423.69 104.453 423.13 103.517 422.553C93.1282 416.109 82.9228 409.429 72.8936 402.438C72.0246 401.833 71.1556 401.228 70.2603 400.605C69.0771 399.77 69.0771 399.77 67.8701 398.919C67.1723 398.427 66.4744 397.935 65.7554 397.427C65.2647 397.039 64.7741 396.651 64.2686 396.251C64.2686 395.921 64.2686 395.591 64.2686 395.251Z" fill="#2F937E"/>
<path d="M582.269 365.251C582.206 367.001 582.206 367.001 581.269 369.251C575.474 373.629 569.358 374.366 562.269 375.251C562.254 376.197 562.24 377.143 562.226 378.118C561.556 400.568 553.407 419.97 539.269 437.251C547.064 437.669 554.346 436.351 561.941 434.738C563.528 434.406 565.118 434.087 566.709 433.779C578.567 431.481 588.932 428.011 599.693 422.466C600.526 422.036 601.359 421.607 602.218 421.165C602.953 420.773 603.689 420.38 604.447 419.976C605.048 419.737 605.649 419.497 606.269 419.251C606.929 419.581 607.589 419.911 608.269 420.251C588.399 431.601 567.25 439.518 544.241 440.735C542.801 440.824 541.362 440.914 539.922 441.004C537.074 441.181 534.237 441.278 531.385 441.334C525.751 441.584 521.641 441.844 517.536 446.052C515.532 449.046 513.811 451.998 512.269 455.251C511.939 454.261 511.609 453.271 511.269 452.251C512.259 451.261 512.259 451.261 513.269 450.251C513.911 448.182 513.911 448.182 514.269 446.251C514.929 446.251 515.589 446.251 516.269 446.251C516.351 445.632 516.434 445.013 516.519 444.376C516.766 443.675 517.014 442.973 517.269 442.251C517.864 442.04 518.46 441.828 519.073 441.61C522.537 439.465 523.606 435.997 525.144 432.376C525.487 431.583 525.831 430.79 526.185 429.973C532.919 413.975 536.997 397.548 538.269 380.251C538.81 380.141 539.352 380.032 539.911 379.919C552.361 377.339 570.928 365.251 582.269 365.251Z" fill="#228574"/>
<path d="M615.268 89.2509C621.91 92.8997 627.35 97.0799 630.268 104.251C630.998 108.305 630.486 109.832 628.581 113.501C625.567 117.085 623.088 118.032 618.472 118.587C611.42 118.68 606.362 117.821 600.268 114.251C599.483 113.792 598.698 113.333 597.89 112.86C592.282 109.35 587.431 105.738 585.268 99.2509C584.579 92.1267 584.579 92.1267 587.581 88.3134C595.743 82.0492 606.681 85.4156 615.268 89.2509Z" fill="#72C6AB"/>
<path d="M447.269 47.2509C450.081 49.2509 450.081 49.2509 451.269 52.2509C451.515 55.1306 451.471 57.6023 450.269 60.2509C446.757 62.9404 443.797 63.6594 439.456 64.1259C431.984 65.2445 427.24 67.9405 422.269 73.5634C419.988 75.9688 418.47 76.7297 415.144 76.9384C411.269 76.2509 411.269 76.2509 408.706 74.1884C406.745 70.1811 406.898 68.506 408.269 64.2509C413.784 55.6271 422.85 50.2917 432.612 47.7275C437.54 46.8434 442.305 46.4723 447.269 47.2509Z" fill="#2C907D"/>
<path d="M467.269 123.251C467.856 124.086 467.856 124.086 468.456 124.938C471.535 128.867 474.574 132.338 479.268 134.251C479.268 134.911 479.268 135.571 479.268 136.251C478.134 136.808 477 137.365 475.831 137.938C472.74 139.678 472.74 139.678 471.269 142.938C471.269 143.702 471.269 144.465 471.269 145.251C471.599 145.581 471.929 145.911 472.269 146.251C472.309 148.25 472.311 150.251 472.269 152.251C468.918 154.307 466.817 154.356 462.956 153.876C453.077 152.86 443.092 152.647 433.269 154.251C434.259 153.921 435.248 153.591 436.268 153.251C436.186 152.055 436.104 150.858 436.019 149.626C436.035 145.108 437.275 142.717 440.269 139.251C445.028 134.857 449.933 134.524 456.147 133.938C459.83 133.127 461.578 131.856 464.269 129.251C466.078 126.134 466.078 126.134 467.269 123.251Z" fill="#326C61"/>
<path d="M365.269 471.251C370.559 476.542 369.38 487.309 369.405 494.317C369.388 498.962 369.345 503.606 369.269 508.251C374.709 508.301 380.149 508.337 385.589 508.361C387.434 508.371 389.278 508.384 391.123 508.402C407.313 508.681 407.313 508.681 423.269 506.251C424.259 505.261 424.259 505.261 425.269 504.251C427.789 503.493 430.278 502.812 432.831 502.188C437.415 501.395 437.415 501.395 441.269 499.251C442.788 499.179 444.31 499.167 445.831 499.188C446.657 499.197 447.484 499.206 448.335 499.216C449.292 499.233 449.292 499.233 450.269 499.251C446.913 502.607 442.299 503.325 437.831 504.688C436.902 504.988 435.974 505.288 435.017 505.597C419.426 510.385 403.881 511.722 387.648 511.532C384.912 511.5 382.178 511.491 379.442 511.485C377.68 511.476 375.918 511.466 374.155 511.454C373.349 511.45 372.543 511.446 371.712 511.441C367.461 511.387 363.455 511.085 359.269 510.251C359.415 509.496 359.561 508.741 359.712 507.963C360.383 504.477 361.045 500.989 361.706 497.501C361.936 496.314 362.166 495.126 362.403 493.903C363.826 486.359 364.804 478.915 365.269 471.251Z" fill="#278D76"/>
<path d="M467.269 123.251C467.66 123.808 468.052 124.365 468.456 124.938C471.535 128.867 474.574 132.338 479.268 134.251C479.268 134.911 479.268 135.571 479.268 136.251C478.196 136.767 477.124 137.282 476.019 137.813C471.799 140.184 470.337 142.948 468.269 147.251C467.877 146.694 467.485 146.137 467.081 145.563C464.002 141.635 460.963 138.163 456.269 136.251C456.269 135.591 456.269 134.931 456.269 134.251C457.341 133.735 458.414 133.22 459.519 132.688C463.739 130.317 465.2 127.553 467.269 123.251Z" fill="#F0F9F9"/>
</svg>
