<svg width="891" height="748" viewBox="0 0 891 748" fill="none" xmlns="http://www.w3.org/2000/svg">
<path d="M525.875 207.928C527.6 209.43 529.31 210.95 531 212.491C532.098 213.45 532.098 213.45 533.219 214.428C546.936 227.151 556.01 244.25 565.34 260.245C569.362 267.139 573.562 273.858 578 280.491C578.421 281.13 578.841 281.77 579.274 282.428C588.256 297.606 588.256 297.606 601.22 308.388C604.279 309.767 605.876 310.855 608 313.491C610.13 320.19 610.105 327.526 610.5 334.491C610.639 336.417 610.783 338.343 610.93 340.268C611.441 347.147 611.867 354.029 612.242 360.917C612.354 362.81 612.354 362.81 612.469 364.741C612.525 365.819 612.581 366.896 612.639 368.007C612.772 370.662 612.772 370.662 615 372.491C618.09 372.648 618.09 372.648 621.785 372.389C622.845 372.335 622.845 372.335 623.926 372.28C626.305 372.153 628.684 372.01 631.062 371.866C632.761 371.77 634.459 371.674 636.158 371.579C651.9 370.663 667.609 369.355 683.321 368.032C697.686 366.826 712.055 365.728 726.437 364.741C727.364 364.676 728.29 364.611 729.244 364.544C738.173 363.921 747.044 363.306 756 363.491C755.089 374.011 751.838 382.863 747.809 392.53C746.842 394.874 745.955 397.244 745.062 399.616C736.429 420.801 723.527 438.978 707.555 455.299C705.776 457.302 705.776 457.302 706.179 459.37C707.208 462.028 708.626 463.548 710.586 465.616C714.932 470.351 718.799 475.332 722.625 480.491C723.254 481.329 723.883 482.167 724.531 483.03C730.188 490.612 735.563 498.179 739.75 506.678C740.322 507.827 740.895 508.975 741.484 510.159C745.995 520.075 746.897 530.47 743.125 540.866C737.738 551.997 727.283 557.336 716.957 563.182C713.825 564.972 710.916 566.899 708.062 569.116C705 571.491 705 571.491 703 571.491C703.557 572.44 704.114 573.388 704.688 574.366C705.463 575.738 706.233 577.114 707 578.491C707.409 579.217 707.817 579.942 708.238 580.69C710.817 585.519 712.458 590.039 713.75 595.366C716.133 604.284 721.241 610.827 727.785 617.206C730 619.491 730 619.491 730 621.491C730.804 621.8 730.804 621.8 731.625 622.116C734.92 624.023 737.594 626.539 740 629.491C740 630.151 740 630.811 740 631.491C740.531 631.693 741.062 631.896 741.609 632.104C745.042 634.096 747.508 636.836 750.25 639.678C758.805 648.372 768.018 656.023 777.488 663.698C778.092 664.188 778.696 664.677 779.318 665.182C783.03 668.071 785.112 668.763 789.762 668.905C790.88 668.944 791.998 668.982 793.15 669.022C794.318 669.053 795.485 669.084 796.687 669.116C797.866 669.155 799.045 669.193 800.26 669.233C803.173 669.327 806.086 669.413 809 669.491C809 670.151 809 670.811 809 671.491C809.557 671.626 810.114 671.762 810.687 671.901C817.102 673.711 821.428 676.65 826 681.491C827.496 684.483 827.427 686.133 827 689.491C817.964 708.491 792.54 721.064 773.625 727.991C767.01 730.004 761.109 730.899 754.687 727.991C751.936 725.432 750.375 723.135 748.516 719.917C746.703 717.015 744.631 714.418 742.5 711.741C733.106 699.76 725.127 686.801 717.879 673.433C709.815 658.697 700.673 644.474 690 631.491C689.211 630.475 688.422 629.459 687.609 628.413C684.886 625.363 682.25 623.435 678.812 621.241C671.096 616.145 664.417 610.03 659 602.491C657.54 603.614 656.082 604.74 654.625 605.866C653.813 606.492 653.001 607.119 652.164 607.764C648.225 610.907 647.649 612.627 646.75 617.553C644.844 626.1 641.633 631.852 634.562 637.116C631.369 639.048 630.097 639.488 626.25 639.616C619.417 637.251 616.57 632.813 613.47 626.533C608.096 614.839 606.173 599.211 608 586.491C610.326 582.136 612.863 579.478 616.938 576.741C617.772 576.169 618.606 575.596 619.465 575.007C621.92 573.539 624.317 572.47 627 571.491C624.378 568.473 621.302 566.886 617.812 564.991C610.154 560.728 602.979 555.877 595.843 550.798C594.2 549.633 592.543 548.49 590.883 547.35C584.505 542.822 578.936 537.73 573.375 532.241C572.675 531.555 571.975 530.869 571.254 530.162C570.6 529.502 569.947 528.843 569.273 528.163C568.69 527.576 568.107 526.989 567.505 526.384C565.778 524.211 564.914 522.099 564 519.491C562.397 519.704 562.397 519.704 560.762 519.922C547.914 521.513 535.207 521.769 522.271 521.697C518.845 521.678 515.419 521.676 511.992 521.676C509.784 521.672 507.575 521.666 505.367 521.659C504.358 521.658 503.348 521.657 502.308 521.656C496.463 521.617 490.798 521.24 485 520.491C484.748 521.403 484.748 521.403 484.491 522.333C482.707 528.559 480.496 534.414 477.812 540.303C477.417 541.172 477.022 542.041 476.615 542.936C470.147 556.888 461.766 569.091 450.684 579.815C447.607 582.877 444.823 586.197 442 589.491C441.426 590.148 440.853 590.806 440.262 591.483C439.722 592.104 439.181 592.726 438.625 593.366C438.143 593.92 437.661 594.474 437.164 595.046C433.652 599.407 434.634 605.188 435 610.491C435.716 614.067 436.849 617.391 438.125 620.803C438.471 621.762 438.817 622.721 439.174 623.708C446.126 642.393 454.597 660.829 464.23 678.276C466 681.491 466 681.491 467.352 684.768C469.507 688.329 471.26 688.775 475.187 689.991C485.322 693.519 492.53 699.097 497.312 708.928C498.962 712.928 499.683 716.135 499 720.491C494.858 725.734 489.465 726.3 483.124 727.245C476.966 727.958 470.765 727.891 464.575 727.827C462.107 727.803 459.64 727.807 457.172 727.813C455.575 727.808 453.979 727.8 452.383 727.792C451.659 727.793 450.935 727.793 450.188 727.794C444.012 727.71 438.169 727.141 433.125 723.303C431 720.491 431 720.491 430.082 717.241C428.981 713.427 427.417 710.156 425.562 706.678C422.08 699.942 419.122 693.069 416.25 686.053C411.319 674.099 405.713 662.525 400 650.928C387.403 625.271 387.403 625.271 383.25 616.241C382.803 615.316 382.355 614.391 381.894 613.438C377.956 604.676 377.667 595.805 380.687 586.678C382.313 582.699 384.34 579.27 386.707 575.702C389.495 570.934 391.224 565.702 393 560.491C393.485 559.087 393.485 559.087 393.98 557.655C398.51 542.472 396.038 526.989 392.54 511.885C391.612 507.77 390.809 503.63 390 499.491C389.34 499.491 388.68 499.491 388 499.491C387.911 500.159 387.822 500.826 387.73 501.514C386.793 505.334 385.105 508.642 383.312 512.116C382.951 512.824 382.589 513.533 382.217 514.263C381.151 516.343 380.076 518.417 379 520.491C378.478 521.516 377.956 522.541 377.418 523.596C370.66 536.497 360.889 549.689 350 559.491C349.34 559.491 348.68 559.491 348 559.491C347.67 560.481 347.34 561.471 347 562.491C345.139 564.162 343.303 565.677 341.312 567.178C340.725 567.623 340.138 568.068 339.532 568.527C331.53 574.462 322.799 579.033 313.988 583.632C312.921 584.195 311.853 584.759 310.753 585.339C308.626 586.46 306.492 587.568 304.35 588.66C292.746 594.777 288.575 601.831 284.685 614.12C282.433 621.91 281.018 629.909 279.5 637.866C278.734 641.771 277.959 645.674 277.184 649.577C276.996 650.526 276.809 651.474 276.617 652.452C274.892 661.158 272.941 669.799 270.852 678.426C265.893 696.339 265.893 696.339 270.027 713.569C273.509 720.449 273.223 731.865 271.281 739.21C269.902 742.19 268.196 744.317 265.75 746.491C262.072 747.828 258.833 747.853 255 747.491C253.998 747.421 253.998 747.421 252.977 747.35C237.817 745.209 222.833 729.993 214 718.491C211.019 713.764 210.423 708.99 211 703.491C211.856 700.162 213.066 697.004 214.312 693.803C214.663 692.87 215.015 691.937 215.376 690.975C216.571 687.808 217.785 684.65 219 681.491C219.936 679.038 220.871 676.585 221.805 674.132C222.042 673.508 222.279 672.885 222.523 672.243C223.245 670.347 223.966 668.45 224.687 666.553C225.046 665.611 225.046 665.611 225.411 664.65C230.55 651.189 230.55 651.189 235 637.491C235.192 636.848 235.384 636.204 235.582 635.541C239.594 621.801 241.706 607.737 243.769 593.6C245.661 580.929 247.81 567.649 258.559 559.277C260.945 557.548 263.37 555.881 265.799 554.212C277.12 546.35 284.449 534.845 288 521.491C289.284 512.784 289.197 503.96 289.187 495.178C289.188 494.472 289.189 493.766 289.19 493.039C289.189 484.514 288.951 476.095 288 467.616C283.111 422.785 287.821 371.915 316.613 335.335C323.226 327.455 330.08 320.086 338 313.491C339.314 312.326 340.627 311.16 341.937 309.991C344.676 307.589 347.479 305.325 350.375 303.116C357.385 297.717 363.83 291.699 370.187 285.553C370.944 284.823 371.701 284.092 372.48 283.339C379.133 275.82 383.784 267.428 388.25 258.491C403.066 229.526 419.84 203.937 452.191 192.975C478.017 185.364 505.033 191.342 525.875 207.928Z" fill="#38AB8C"/>
<path d="M869.707 1.31125C878.121 5.00763 883.958 11.348 887.437 19.8034C891.752 31.8195 890.635 42.9259 885.5 54.4284C879.343 66.1789 868.318 73.1133 855.908 77.1755C851.643 78.4432 847.341 79.512 843 80.4909C843.272 81.5815 843.272 81.5815 843.551 82.6941C844.08 84.8123 844.609 86.9308 845.136 89.0495C845.694 91.2728 846.259 93.4943 846.832 95.7136C847.093 96.7332 847.355 97.7529 847.625 98.8034C847.865 99.7277 848.104 100.652 848.351 101.604C853.866 126.155 847.364 153.873 835.122 175.462C833.938 177.527 833.938 177.527 832.932 179.942C831.529 182.71 830.382 184.483 828 186.491C822.373 187.82 816.684 187.561 810.94 187.452C802.815 187.029 802.815 187.029 795.874 190.408C794.376 192.707 793.181 195.018 792 197.491C784.09 206.441 772.884 211.756 761.019 212.862C750.463 213.163 742.893 211.192 733.511 206.155C730.939 205.211 730.939 205.211 728.316 206.538C727.407 207.1 726.499 207.662 725.562 208.241C715.937 214.101 706.259 215.137 695.297 212.651C687.295 210.034 680.202 206.248 674 200.491C673.67 199.501 673.34 198.511 673 197.491C672.342 197.552 671.684 197.612 671.006 197.675C656.966 198.944 643.099 199.793 629 199.491C628.255 198.184 628.255 198.184 627.496 196.85C627.171 196.281 626.846 195.712 626.512 195.126C625.783 193.848 625.057 192.569 624.333 191.289C622.689 188.392 621.029 185.536 619.226 182.733C614.935 175.984 612.067 168.961 609.25 161.491C608.873 160.494 608.496 159.497 608.107 158.47C599.334 134.536 597.865 108.895 606 84.4909C604.277 84.0713 604.277 84.0713 602.519 83.6433C586.689 79.6275 571.572 73.6844 562.062 59.4909C556.069 48.6523 555.305 37.5887 558.625 25.6159C561.899 16.1397 567.493 9.62212 576.187 4.67843C581.885 2.90366 587.649 2.11339 593.308 4.44015C597.432 6.91151 600.73 9.96936 604 13.4909C605.185 14.66 606.373 15.8265 607.562 16.9909C609.528 18.9402 611.182 20.7417 612.812 22.9909C616.281 26.9555 620.607 29.6299 625 32.4909C625.67 32.9318 626.34 33.3727 627.031 33.8269C630.529 35.99 632.909 37.0841 637 36.4909C639.553 34.5772 639.553 34.5772 642 31.9909C667.534 7.43105 703.378 1.59115 737.292 2.2494C745.852 2.49834 753.819 4.06664 762 6.49093C762.653 6.67285 763.305 6.85477 763.978 7.0422C782.686 12.3114 798.276 22.0441 813 34.4909C824.884 30.3489 834.645 19.7575 842.5 10.3034C850.172 1.54229 858.097 -2.20678 869.707 1.31125Z" fill="#3AAC8E"/>
<path d="M871 183.491C874.389 186.88 874.029 191.618 874.563 196.241C874.694 197.349 874.826 198.457 874.961 199.599C876.044 209.438 876.36 219.238 876.589 229.128C876.847 238.73 877.708 248.155 878.84 257.69C880.111 268.687 880.772 279.692 881.354 290.742C881.39 291.422 881.427 292.102 881.465 292.802C881.564 294.647 881.658 296.493 881.751 298.338C881.929 301.39 881.929 301.39 882.494 303.942C883.156 307.277 883.343 310.608 883.535 313.995C883.578 314.714 883.621 315.433 883.666 316.174C883.756 317.694 883.844 319.215 883.93 320.735C884.061 323.022 884.199 325.308 884.338 327.595C885.518 347.482 885.518 347.482 885 352.491C882.405 355.086 881.008 354.908 877.384 355.253C876.192 355.368 874.999 355.484 873.771 355.603C872.458 355.72 871.146 355.836 869.793 355.956C868.405 356.084 867.017 356.212 865.628 356.341C849.045 357.844 832.425 358.864 815.807 359.898C808.367 360.361 800.928 360.831 793.489 361.307C792.31 361.382 792.31 361.382 791.109 361.459C781.415 362.08 771.738 362.763 762.089 363.904C758.523 364.313 755.057 364.521 751.465 364.48C744.379 364.419 737.329 365.005 730.266 365.514C728.741 365.622 727.216 365.729 725.691 365.836C722.501 366.061 719.31 366.288 716.12 366.517C712.1 366.806 708.079 367.089 704.058 367.371C689.495 368.393 674.94 369.443 660.405 370.818C652.037 371.603 643.662 372.189 635.27 372.661C633.597 372.758 631.925 372.862 630.253 372.973C627.78 373.136 625.307 373.279 622.832 373.417C622.086 373.47 621.339 373.523 620.57 373.577C615.461 373.828 615.461 373.828 613.327 372.267C611.67 370.049 611.509 368.637 611.292 365.887C611.213 364.955 611.133 364.024 611.05 363.064C610.978 362.057 610.906 361.051 610.832 360.014C610.705 358.455 610.705 358.455 610.576 356.863C610.399 354.66 610.229 352.456 610.065 350.251C609.815 346.899 609.547 343.549 609.276 340.198C609.106 338.054 608.937 335.909 608.77 333.764C608.692 332.77 608.614 331.776 608.533 330.752C608.106 324.98 607.927 319.279 608 313.491C607.34 313.161 606.68 312.831 606 312.491C605.565 309.476 605.25 306.523 605 303.491C604.824 301.667 604.645 299.842 604.465 298.018C604.289 296.155 604.113 294.292 603.938 292.429C603.847 291.468 603.756 290.507 603.662 289.516C603.441 287.175 603.22 284.833 603 282.491C603.66 282.491 604.32 282.491 605 282.491C604.719 278.532 604.423 274.574 604.125 270.616C604.047 269.507 603.968 268.399 603.887 267.257C603.434 261.336 602.71 255.658 601.471 249.854C599.698 240.955 599.754 231.843 599.705 222.802C599.693 221.29 599.673 219.779 599.644 218.267C599.601 216.062 599.585 213.857 599.574 211.651C599.56 210.348 599.545 209.045 599.53 207.702C600 204.491 600 204.491 601.724 202.587C604.225 201.383 606.081 201 608.844 200.796C609.761 200.72 610.677 200.644 611.621 200.565C612.571 200.5 613.521 200.434 614.5 200.366C616.386 200.22 618.271 200.072 620.156 199.921C620.99 199.861 621.823 199.802 622.682 199.741C624.974 199.549 624.974 199.549 627.05 198.968C629.135 198.458 630.911 198.392 633.055 198.429C634.214 198.441 634.214 198.441 635.397 198.454C636.624 198.472 636.624 198.472 637.875 198.491C643.781 198.541 649.608 198.461 655.5 197.991C657.667 197.824 659.834 197.657 662 197.491C663.033 197.411 664.065 197.331 665.129 197.249C672.3 196.924 672.3 196.924 675.625 199.616C676.801 201.039 676.801 201.039 678 202.491C687.55 210.286 698.062 213.279 710.305 212.952C717.013 212.115 723.021 209.608 728.524 205.698C731 204.491 731 204.491 733.485 205.139C734.315 205.585 735.145 206.031 736 206.491C747.527 212.398 758.962 213.671 771.438 209.866C781.665 205.851 791.244 200.107 796.273 189.909C798 187.491 798 187.491 800.417 186.738C801.375 186.678 802.333 186.618 803.319 186.556C804.953 186.437 804.953 186.437 806.62 186.315C807.801 186.253 808.983 186.191 810.199 186.128C811.422 186.046 812.645 185.964 813.905 185.88C817.832 185.624 821.759 185.402 825.688 185.179C828.285 185.011 830.882 184.841 833.479 184.669C863.265 182.752 863.265 182.752 871 183.491Z" fill="#E7BD64"/>
<path d="M401 430.491C403.915 433.865 405.23 437.495 406.562 441.678C406.784 442.345 407.006 443.012 407.235 443.699C408.417 447.331 409.278 450.841 409.812 454.616C410.306 457.002 410.638 458.18 412.508 459.787C417.939 462.977 423.487 465.813 429.187 468.491C430.119 468.929 431.05 469.367 432.009 469.818C458.314 482.076 486.091 487.71 515.062 487.616C516.846 487.622 516.846 487.622 518.666 487.628C525.843 487.62 532.862 487.25 540 486.491C542.31 480.551 544.62 474.611 547 468.491C547.66 468.491 548.32 468.491 549 468.491C549.109 469.651 549.219 470.811 549.332 472.007C550.948 488.298 554.052 504.457 563 518.491C561.501 518.807 560 519.119 558.5 519.428C557.665 519.602 556.829 519.777 555.969 519.956C548.379 521.324 541.077 521.639 533.379 521.624C532.279 521.625 531.18 521.626 530.047 521.627C527.732 521.627 525.417 521.626 523.101 521.621C519.577 521.616 516.053 521.621 512.529 521.628C510.271 521.627 508.012 521.626 505.754 521.624C504.71 521.626 503.666 521.628 502.59 521.63C496.645 521.611 490.896 521.261 485 520.491C484.832 521.099 484.664 521.707 484.491 522.333C482.707 528.559 480.496 534.414 477.812 540.303C477.417 541.172 477.022 542.041 476.615 542.936C470.147 556.888 461.766 569.091 450.684 579.815C447.607 582.877 444.823 586.197 442 589.491C441.426 590.148 440.853 590.806 440.262 591.483C439.722 592.104 439.181 592.726 438.625 593.366C438.143 593.92 437.661 594.474 437.164 595.046C433.652 599.407 434.634 605.188 435 610.491C435.716 614.067 436.849 617.391 438.125 620.803C438.471 621.762 438.817 622.721 439.174 623.708C446.126 642.393 454.597 660.829 464.23 678.276C466 681.491 466 681.491 467.352 684.768C469.507 688.329 471.26 688.775 475.187 689.991C485.322 693.519 492.53 699.097 497.312 708.928C498.962 712.928 499.683 716.135 499 720.491C494.858 725.734 489.465 726.3 483.124 727.245C476.966 727.958 470.765 727.891 464.575 727.827C462.107 727.803 459.64 727.807 457.172 727.813C455.575 727.808 453.979 727.8 452.383 727.792C451.659 727.793 450.935 727.793 450.188 727.794C444.012 727.71 438.169 727.141 433.125 723.303C431 720.491 431 720.491 430.082 717.241C428.981 713.427 427.417 710.156 425.562 706.678C422.08 699.942 419.122 693.069 416.25 686.053C411.319 674.099 405.713 662.525 400 650.928C387.403 625.271 387.403 625.271 383.25 616.241C382.803 615.316 382.355 614.391 381.894 613.438C377.956 604.676 377.667 595.805 380.687 586.678C382.313 582.699 384.34 579.27 386.707 575.702C389.495 570.934 391.224 565.702 393 560.491C393.323 559.555 393.647 558.619 393.98 557.655C399.058 540.634 395.74 522.359 390.89 505.675C388.755 498.04 390.212 492.324 392.851 484.995C395.152 477.977 396.524 470.719 398 463.491C398.218 462.474 398.436 461.457 398.66 460.409C400.561 450.564 400.654 440.487 401 430.491Z" fill="#3A8A7C"/>
<path d="M870 183.491C873 185.491 873 185.491 873.6 187.537C873.703 188.383 873.807 189.229 873.914 190.1C874.034 191.067 874.155 192.033 874.279 193.029C874.393 194.089 874.507 195.149 874.625 196.241C874.752 197.349 874.879 198.457 875.01 199.599C876.054 209.434 876.36 219.245 876.589 229.128C876.847 238.73 877.708 248.155 878.84 257.69C880.111 268.687 880.772 279.692 881.354 290.742C881.39 291.422 881.427 292.102 881.465 292.802C881.564 294.647 881.658 296.493 881.751 298.338C881.929 301.39 881.929 301.39 882.494 303.942C883.156 307.277 883.343 310.608 883.535 313.995C883.578 314.714 883.621 315.433 883.666 316.174C883.756 317.694 883.844 319.215 883.93 320.735C884.061 323.022 884.199 325.308 884.338 327.595C885.518 347.482 885.518 347.482 885 352.491C882.405 355.086 881.008 354.908 877.384 355.253C876.192 355.368 874.999 355.484 873.771 355.603C872.458 355.72 871.146 355.836 869.793 355.956C868.405 356.084 867.017 356.212 865.628 356.341C849.045 357.844 832.425 358.864 815.807 359.898C808.367 360.361 800.928 360.831 793.489 361.307C792.31 361.382 792.31 361.382 791.109 361.459C781.415 362.08 771.738 362.763 762.089 363.904C758.523 364.313 755.057 364.521 751.465 364.48C744.379 364.419 737.329 365.005 730.266 365.514C728.741 365.622 727.216 365.729 725.691 365.836C722.501 366.061 719.31 366.288 716.12 366.517C712.1 366.806 708.079 367.089 704.058 367.371C689.495 368.393 674.94 369.443 660.405 370.818C652.037 371.603 643.662 372.189 635.27 372.661C633.597 372.758 631.925 372.862 630.253 372.973C627.78 373.136 625.307 373.279 622.832 373.417C622.086 373.47 621.339 373.523 620.57 373.577C615.461 373.828 615.461 373.828 613.327 372.267C611.67 370.049 611.509 368.637 611.292 365.887C611.213 364.955 611.133 364.024 611.05 363.064C610.978 362.057 610.906 361.051 610.832 360.014C610.705 358.455 610.705 358.455 610.576 356.863C610.399 354.66 610.229 352.456 610.065 350.251C609.815 346.899 609.547 343.549 609.276 340.198C609.106 338.054 608.937 335.909 608.77 333.764C608.692 332.77 608.614 331.776 608.533 330.752C608.106 324.98 607.927 319.279 608 313.491C607.34 313.161 606.68 312.831 606 312.491C605.565 309.476 605.25 306.523 605 303.491C604.824 301.667 604.645 299.842 604.465 298.018C604.289 296.155 604.113 294.292 603.938 292.429C603.847 291.468 603.756 290.507 603.662 289.516C603.441 287.175 603.22 284.833 603 282.491C603.66 282.491 604.32 282.491 605 282.491C604.719 278.532 604.423 274.574 604.125 270.616C604.047 269.507 603.968 268.399 603.887 267.257C603.434 261.336 602.708 255.658 601.471 249.854C599.53 240.135 599.881 230.227 599.937 220.366C599.942 218.822 599.947 217.277 599.951 215.733C599.962 211.986 599.979 208.238 600 204.491C613.734 212.498 613.734 212.498 619.25 215.741C620.258 216.333 620.258 216.333 621.286 216.938C626.437 219.97 631.577 223.021 636.715 226.077C637.752 226.693 637.752 226.693 638.809 227.323C642.291 229.393 645.773 231.465 649.253 233.539C656.747 238 664.274 242.391 671.865 246.686C676.176 249.168 680.399 251.784 684.625 254.409C688.989 257.101 693.39 259.73 697.8 262.346C701.616 264.621 705.325 267 709 269.491C707.516 272.978 705.538 275.133 702.812 277.741C697.93 282.514 693.478 287.549 689.082 292.768C688.457 293.502 687.831 294.235 687.187 294.991C686.624 295.661 686.061 296.332 685.48 297.022C684 298.491 684 298.491 682 298.491C681.797 299.022 681.595 299.553 681.386 300.1C679.396 303.532 676.657 306.002 673.812 308.741C670.275 312.167 666.847 315.613 663.636 319.35C658.945 324.788 653.79 329.748 648.672 334.78C645.176 338.24 641.756 341.704 638.554 345.44C633.558 351.257 627.984 356.514 622.5 361.864C621.677 362.675 620.855 363.487 620.008 364.323C619.261 365.052 618.515 365.782 617.746 366.533C615.787 368.469 615.787 368.469 615 371.491C615.994 371.411 616.988 371.33 618.012 371.247C622.716 370.868 627.42 370.491 632.125 370.116C632.978 370.048 633.831 369.98 634.711 369.909C647.711 368.875 660.713 367.934 673.731 367.138C674.871 367.066 676.012 366.995 677.187 366.921C678.171 366.861 679.154 366.802 680.168 366.74C683.041 366.525 683.041 366.525 686.016 365.979C688.897 365.508 691.631 365.321 694.547 365.245C695.556 365.212 696.565 365.179 697.605 365.145C699.717 365.084 701.829 365.026 703.941 364.973C704.945 364.939 705.95 364.905 706.984 364.87C707.899 364.845 708.814 364.82 709.757 364.794C712.2 364.695 712.2 364.695 714 362.491C715.834 362.188 715.834 362.188 718.094 362.112C718.946 362.079 719.799 362.045 720.678 362.01C721.609 361.983 722.54 361.956 723.5 361.928C724.466 361.892 725.432 361.856 726.427 361.819C729.618 361.701 732.809 361.596 736 361.491C739.419 361.369 742.837 361.244 746.256 361.116C748.442 361.035 750.628 360.957 752.814 360.883C764.742 361.164 764.742 361.164 776 358.491C778.069 358.348 780.142 358.265 782.215 358.21C783.458 358.172 784.701 358.135 785.982 358.096C787.287 358.062 788.593 358.027 789.937 357.991C792.509 357.922 795.081 357.849 797.652 357.772C798.797 357.742 799.941 357.712 801.121 357.68C804.069 357.608 804.069 357.608 807 356.491C809.069 356.495 811.138 356.505 813.206 356.555C820.444 356.732 827.226 356.533 834.312 354.991C840.625 353.639 846.392 353.292 852.832 353.452C856.423 353.496 859.854 353.135 863.414 352.71C867.679 352.349 871.939 352.472 876.215 352.553C879.086 352.626 879.086 352.626 882 351.491C880.912 348.227 880.396 347.765 877.746 345.811C877.064 345.301 876.383 344.791 875.68 344.266C874.94 343.721 874.2 343.177 873.437 342.616C871.877 341.447 870.319 340.277 868.761 339.104C867.967 338.506 867.172 337.907 866.353 337.29C862.755 334.539 859.25 331.678 855.75 328.803C850.975 324.888 846.165 321.04 841.25 317.303C836.045 313.336 831.022 309.193 826.015 304.979C822.455 302.042 818.804 299.24 815.13 296.448C810.051 292.571 805.119 288.524 800.182 284.469C794.636 279.942 788.941 275.641 783.139 271.448C779.886 269.064 777.192 266.954 775 263.491C786.605 253.62 798.337 243.977 810.381 234.646C816.337 230.025 822.187 225.291 828 220.491C835.693 214.189 843.411 207.924 851.25 201.803C853.503 200.037 855.753 198.266 858 196.491C858.584 196.03 859.168 195.569 859.77 195.094C861.48 193.737 863.179 192.366 864.875 190.991C865.862 190.197 866.85 189.403 867.867 188.585C868.571 187.894 869.275 187.203 870 186.491C870 185.501 870 184.511 870 183.491Z" fill="#EFCC86"/>
<path d="M870 183.491C870.33 184.481 870.66 185.471 871 186.491C862.052 194.227 853.018 201.79 843.695 209.073C842.505 210.004 841.315 210.935 840.125 211.866C839.525 212.335 838.924 212.805 838.306 213.289C834.539 216.246 830.846 219.275 827.188 222.366C822.422 226.375 817.528 230.172 812.562 233.928C806.845 238.257 801.277 242.697 795.841 247.373C789.373 252.925 782.68 258.197 776 263.491C779.897 267.545 784.055 271.097 788.438 274.616C789.143 275.186 789.849 275.756 790.577 276.343C798.798 282.965 807.102 289.479 815.453 295.936C823.105 301.858 830.679 307.822 838.074 314.061C841.932 317.265 845.877 320.348 849.83 323.432C855.291 327.7 860.658 332.075 866 336.491C862.477 336.491 861.787 335.856 859.043 333.78C858.267 333.2 857.492 332.62 856.693 332.022C855.866 331.393 855.039 330.764 854.188 330.116C852.456 328.818 850.725 327.521 848.992 326.225C848.14 325.585 847.287 324.945 846.409 324.286C843.245 321.929 840.036 319.64 836.812 317.366C829.786 312.384 822.907 307.212 816.032 302.023C812.033 299.008 808.022 296.006 804.014 293.002C800.602 290.445 797.193 287.883 793.789 285.315C790.457 282.802 787.117 280.302 783.769 277.811C782.144 276.598 780.529 275.373 778.914 274.147C778.035 273.498 777.156 272.848 776.25 272.178C775.513 271.625 774.775 271.072 774.016 270.503C772.07 269.306 772.07 269.306 769.961 269.663C767.812 270.57 766.213 271.618 764.375 273.053C763.685 273.588 762.996 274.123 762.285 274.675C761.531 275.274 760.777 275.873 760 276.491C759.153 277.163 758.306 277.834 757.434 278.526C752.382 282.52 752.382 282.52 747.574 286.796C745 288.491 745 288.491 742.223 288.546C737.905 287.133 734.292 284.993 730.438 282.616C729.696 282.169 728.954 281.721 728.189 281.26C725.168 279.436 722.187 277.62 719.285 275.608C716.266 274.132 715.18 274.441 712 275.491C709.987 277.164 708.237 278.786 706.438 280.663C705.924 281.182 705.41 281.702 704.881 282.237C703.244 283.896 701.622 285.568 700 287.241C698.91 288.351 697.819 289.461 696.727 290.569C694.709 292.619 692.697 294.674 690.691 296.736C688.147 299.341 685.577 301.918 683 304.491C681.505 306 680.013 307.511 678.521 309.022C676.226 311.344 673.925 313.66 671.624 315.977C670.409 317.202 669.196 318.429 667.985 319.657C666.23 321.436 664.469 323.208 662.707 324.979C662.164 325.532 661.622 326.085 661.062 326.655C659.746 327.972 658.377 329.237 657 330.491C656.34 330.491 655.68 330.491 655 330.491C655 331.151 655 331.811 655 332.491C654.34 332.491 653.68 332.491 653 332.491C652.74 333.089 652.479 333.687 652.211 334.303C650.909 336.655 649.701 337.811 647.625 339.495C641.752 344.466 636.413 349.97 631 355.428C629.929 356.505 628.857 357.581 627.785 358.657C625.187 361.266 622.593 363.877 620 366.491C620 363.491 620 363.491 621.725 361.441C622.518 360.67 623.312 359.899 624.129 359.104C625 358.248 625.87 357.391 626.768 356.509C627.69 355.616 628.612 354.723 629.562 353.803C634.991 348.508 640.316 343.237 645.246 337.472C649.364 332.821 653.901 328.555 658.328 324.202C662.549 320.024 666.58 315.768 670.45 311.263C672.486 308.935 674.658 306.771 676.875 304.616C679.828 301.837 679.827 301.837 682 298.491C682.66 298.491 683.32 298.491 684 298.491C684.233 297.929 684.467 297.367 684.707 296.788C686.319 293.924 688.319 292.018 690.688 289.741C694.468 286.042 698.031 282.268 701.461 278.245C702.889 276.617 704.375 275.113 705.938 273.616C708.232 271.745 708.232 271.745 708 269.491C706.193 268.148 706.193 268.148 703.82 266.839C702.92 266.315 702.021 265.792 701.094 265.252C700.114 264.692 699.134 264.131 698.125 263.553C696.087 262.37 694.049 261.185 692.012 259.999C690.991 259.406 689.971 258.813 688.919 258.203C684.887 255.839 680.911 253.389 676.938 250.928C670.675 247.068 664.338 243.367 657.938 239.741C647.908 234.058 638.018 228.158 628.156 222.19C624.119 219.75 620.059 217.36 615.969 215.01C615.034 214.468 614.098 213.925 613.135 213.366C611.377 212.348 609.612 211.34 607.84 210.346C606.68 209.67 606.68 209.67 605.496 208.979C604.817 208.593 604.139 208.207 603.439 207.809C602.964 207.374 602.489 206.939 602 206.491C602 205.171 602 203.851 602 202.491C604.33 201.326 606.055 201.213 608.648 200.991C610.033 200.867 610.033 200.867 611.445 200.741C612.896 200.617 612.896 200.617 614.375 200.491C616.279 200.327 618.183 200.161 620.086 199.991C620.932 199.919 621.778 199.847 622.65 199.772C624.969 199.547 624.969 199.547 627.054 198.964C629.137 198.458 630.915 198.392 633.055 198.429C634.214 198.441 634.214 198.441 635.397 198.454C636.624 198.472 636.624 198.472 637.875 198.491C643.781 198.541 649.608 198.461 655.5 197.991C657.667 197.824 659.834 197.657 662 197.491C663.033 197.411 664.065 197.331 665.129 197.249C672.3 196.924 672.3 196.924 675.625 199.616C676.801 201.039 676.801 201.039 678 202.491C687.55 210.286 698.062 213.279 710.305 212.952C717.013 212.115 723.021 209.608 728.524 205.698C731 204.491 731 204.491 733.485 205.139C734.315 205.585 735.145 206.031 736 206.491C747.527 212.398 758.962 213.671 771.438 209.866C781.664 205.851 791.247 200.108 796.272 189.909C798 187.491 798 187.491 800.424 186.738C801.384 186.678 802.345 186.618 803.335 186.556C804.428 186.476 805.52 186.397 806.646 186.315C807.83 186.253 809.014 186.191 810.234 186.128C811.46 186.046 812.685 185.964 813.948 185.88C817.216 185.667 820.485 185.476 823.755 185.293C827.027 185.105 830.296 184.885 833.566 184.669C845.712 183.89 857.826 183.17 870 183.491Z" fill="#D5A94F"/>
<path d="M525.875 207.928C527.6 209.43 529.31 210.95 531 212.491C531.732 213.13 532.464 213.77 533.219 214.428C546.861 227.082 557.696 244.994 566 261.491C566 262.151 566 262.811 566 263.491C562.37 262.831 558.74 262.171 555 261.491C555.046 262.409 555.093 263.327 555.141 264.272C555.387 272.637 555.288 278.625 549.551 285.135C546.251 288.02 542.129 288.011 537.945 287.956C524.156 285.779 513.614 273.607 504.91 263.655C503.328 261.862 501.714 260.156 500 258.491C499.733 259.23 499.466 259.968 499.191 260.729C497.243 265.246 494.125 268.728 491 272.491C490.304 273.335 489.608 274.18 488.891 275.049C481.952 283.132 473.176 291.366 462.219 292.874C455.515 293.263 451.213 292.32 445.891 288.174C437.186 280.423 433.343 269.448 430 258.491C426.03 260.687 422.238 262.982 418.5 265.553C410.839 270.639 404.262 272.872 395 271.491C391.426 269.132 390.367 267.278 388.578 263.444C387.73 257.647 390.048 254.265 392.875 249.303C393.387 248.372 393.898 247.44 394.425 246.48C405.797 226.02 418.982 209.394 440 198.491C440.94 197.995 441.879 197.498 442.848 196.987C470.081 183.551 502.662 189.454 525.875 207.928Z" fill="#56A38A"/>
<path d="M629 442.491C637.409 445.515 644.062 451.964 650 458.491C650.501 459.014 651.003 459.538 651.52 460.077C657.198 466.699 663 478.646 663 487.491C678.358 481.689 690.697 470.006 703 459.491C711.537 463.12 717.265 473.263 722.625 480.491C723.254 481.329 723.883 482.167 724.531 483.03C730.188 490.612 735.563 498.179 739.75 506.678C740.322 507.827 740.895 508.975 741.484 510.159C745.995 520.075 746.897 530.47 743.125 540.866C737.737 551.999 727.277 557.339 716.949 563.186C713.228 565.312 709.83 567.676 706.543 570.432C704.606 571.761 703.358 572.323 701 572.491C698.781 571.198 698.781 571.198 696.5 569.303C695.747 568.691 694.994 568.079 694.219 567.448C688.784 562.654 685.642 557.75 682.188 551.428C681.673 550.518 681.158 549.607 680.627 548.669C679.905 547.357 679.905 547.357 679.168 546.018C678.727 545.222 678.287 544.425 677.833 543.604C677 541.491 677 541.491 678 538.491C680.238 536.597 682.592 534.925 684.969 533.21C687.262 531.571 687.262 531.571 688 528.491C687.178 528.067 686.355 527.643 685.508 527.206C672.005 520.111 661.769 513.769 655.812 499.241C655.432 498.339 655.052 497.436 654.66 496.506C652.033 490.201 649.604 483.83 647.206 477.434C642.449 464.759 637.709 453.022 629 442.491Z" fill="#3B8A7D"/>
<path d="M401 430.491C403.915 433.865 405.23 437.495 406.562 441.678C406.784 442.345 407.006 443.012 407.235 443.699C408.417 447.331 409.278 450.841 409.812 454.616C410.306 457.002 410.638 458.18 412.508 459.787C417.939 462.977 423.487 465.813 429.187 468.491C430.119 468.929 431.05 469.367 432.009 469.818C458.314 482.076 486.091 487.71 515.062 487.616C516.846 487.622 516.846 487.622 518.666 487.628C525.843 487.62 532.862 487.25 540 486.491C542.31 480.551 544.62 474.611 547 468.491C547.66 468.491 548.32 468.491 549 468.491C549.109 469.651 549.219 470.811 549.332 472.007C550.948 488.298 554.052 504.457 563 518.491C561.501 518.807 560 519.119 558.5 519.428C557.665 519.602 556.829 519.777 555.969 519.956C548.379 521.324 541.077 521.639 533.379 521.624C532.279 521.625 531.18 521.626 530.047 521.627C527.732 521.627 525.417 521.626 523.101 521.621C519.577 521.616 516.053 521.621 512.529 521.628C510.271 521.627 508.012 521.626 505.754 521.624C504.71 521.626 503.666 521.628 502.59 521.63C496.645 521.611 490.896 521.261 485 520.491C484.34 523.131 483.68 525.771 483 528.491C481.396 525.944 480.936 524.877 481.441 521.846C481.626 521.069 481.81 520.292 482 519.491C481.305 519.477 480.61 519.463 479.895 519.448C450.904 518.088 418.522 506.217 395 489.491C394.01 488.831 393.02 488.171 392 487.491C392.326 486.4 392.652 485.31 392.988 484.186C398.229 466.279 400.467 449.131 401 430.491Z" fill="#398D7D"/>
<path d="M497 234.491C501.436 235.981 504.815 238.446 508.5 241.241C515.744 246.552 524.109 252.608 533.375 253.053C538.706 252.226 543.462 250.815 547 246.491C548 244.001 548 244.001 548.687 241.303C548.939 240.402 549.19 239.501 549.449 238.573C549.631 237.886 549.813 237.199 550 236.491C553.327 240.432 555.961 244.561 558.562 248.991C559.141 249.967 559.141 249.967 559.732 250.964C560.482 252.228 561.229 253.493 561.973 254.76C562.886 256.299 563.829 257.818 564.777 259.335C566 261.491 566 261.491 566 263.491C562.37 262.831 558.74 262.171 555 261.491C555.046 262.409 555.093 263.327 555.141 264.272C555.387 272.637 555.288 278.625 549.551 285.135C546.251 288.02 542.129 288.011 537.945 287.956C524.156 285.779 513.614 273.607 504.91 263.655C503.328 261.862 501.714 260.156 500 258.491C499.733 259.23 499.466 259.968 499.191 260.729C497.243 265.246 494.125 268.728 491 272.491C489.956 273.757 489.956 273.757 488.891 275.049C481.952 283.132 473.176 291.366 462.219 292.874C455.515 293.263 451.213 292.32 445.891 288.174C437.186 280.423 433.343 269.448 430 258.491C426.03 260.687 422.238 262.982 418.5 265.553C410.839 270.639 404.262 272.872 395 271.491C391.446 269.145 390.343 267.114 388.312 263.428C387.821 257.242 390.951 252.736 394 247.491C394.33 247.491 394.66 247.491 395 247.491C395.289 248.46 395.577 249.43 395.875 250.428C396.642 253.598 396.642 253.598 399 254.491C412.645 255.709 423.115 246.989 433.152 238.811C435 237.491 435 237.491 437 237.491C437.352 238.53 437.704 239.569 438.066 240.639C442.149 252.323 447.249 264.616 459 270.491C466.911 271.339 472.508 268.757 478.875 264.128C487.247 256.628 492.86 244.751 497 234.491Z" fill="#91CDA5"/>
<path d="M162 566.491C169.814 570.497 175.484 577.799 181.105 584.382C184.161 587.784 187.47 590.928 190.766 594.096C194.086 597.655 196.426 600.836 196.562 605.803C196.199 614.611 188.328 620.294 182.445 626.053C179.758 628.733 177.268 631.524 174.797 634.401C172.619 636.934 170.409 639.435 168.188 641.928C167.439 642.773 166.69 643.617 165.918 644.487C163.314 647.208 161.548 647.735 157.875 647.991C152.895 647.896 150.634 646.223 147.152 642.803C140.808 635.987 140.808 635.987 138.295 633.193C134.15 628.587 129.773 624.262 125.312 619.964C121.889 616.303 120.173 613.662 119.438 608.678C119.742 600.936 127.563 594.604 132.625 589.303C133.853 588.004 135.081 586.705 136.309 585.405C136.922 584.757 137.535 584.109 138.167 583.441C139.952 581.542 141.716 579.627 143.473 577.702C144.015 577.108 144.558 576.514 145.117 575.902C146.14 574.779 147.161 573.654 148.18 572.527C152.688 567.597 155.207 565.905 162 566.491Z" fill="#FB98A5"/>
<path d="M701.711 127.589C708.95 130.442 713.894 137.195 718 143.491C723.913 149.374 723.913 149.374 731.562 151.991C737.436 151.864 741.028 148.538 745 144.491C747.375 141.465 749.624 138.368 751.875 135.249C755.53 130.505 758.624 127.808 764.75 126.991C768 127.491 768 127.491 769.938 128.553C771.645 131.667 771.42 134.01 771 137.491C768.06 142.313 764.552 143.772 759.375 145.428C753.497 147.455 748.331 149.747 743.113 153.194C740.821 154.601 738.517 155.557 736 156.491C736.238 158.23 736.238 158.23 736.48 160.005C736.99 164.096 737.2 168.149 737.316 172.272C737.337 172.971 737.358 173.67 737.379 174.39C737.444 176.59 737.503 178.791 737.562 180.991C737.606 182.496 737.649 184.001 737.693 185.507C737.8 189.168 737.901 192.829 738 196.491C739.559 197.311 741.122 198.122 742.688 198.928C743.558 199.381 744.428 199.833 745.324 200.3C752.519 203.503 761.417 203.498 768.938 201.3C778.879 197.402 786.782 190.607 791.438 180.928C793.082 176.737 793.922 173.002 794 168.491C792.604 166.845 792.604 166.845 791 165.491C790.75 162.366 790.75 162.366 791 159.491C792 158.491 792 158.491 794.188 158.053C797.807 158.616 798.811 160.391 801.176 163.022C804.56 165.747 808.787 166.008 813 166.491C813.33 168.141 813.66 169.791 814 171.491C809.895 174.476 807.023 174.786 802 174.491C801.979 175.543 801.959 176.595 801.938 177.678C800.788 186.668 795.02 195.641 788.438 201.71C776.442 210.476 762.732 214.315 748 212.491C742.835 210.982 738.237 208.692 733.511 206.155C730.939 205.211 730.939 205.211 728.316 206.538C727.407 207.1 726.499 207.662 725.562 208.241C715.937 214.101 706.259 215.137 695.297 212.651C681.929 208.279 672.176 200.64 665 188.491C663.345 184.556 662.049 180.627 661 176.491C657.7 175.831 654.4 175.171 651 174.491C650 169.491 650 169.491 651 167.741C653 166.491 653 166.491 656.25 166.178C660.159 165.462 660.891 164.963 663.625 162.366C665.355 160.725 665.355 160.725 667 159.491C669.938 159.616 669.938 159.616 672 160.491C672.625 162.803 672.625 162.803 673 165.491C672.34 166.481 671.68 167.471 671 168.491C670.34 168.491 669.68 168.491 669 168.491C670.407 178.363 673.744 187.396 681 194.491C691.152 201.685 700.626 203.575 713 202.491C717.849 201.191 721.836 199.267 726 196.491C726.725 193.232 726.725 193.232 727 189.491C727.121 188.312 727.243 187.132 727.367 185.917C729.241 170.082 729.241 170.082 725.667 155.105C721.611 150.915 716.481 149.132 711 147.491C709.59 147.014 708.181 146.534 706.773 146.05C704.252 145.192 701.797 144.481 699.207 143.819C694.975 142.066 693.562 140.262 691 136.491C690.93 132.946 691.342 131.307 693.562 128.553C696.402 127.316 698.648 127.078 701.711 127.589Z" fill="#2B806E"/>
<path d="M785 669.491C792.92 669.491 800.84 669.491 809 669.491C809 670.151 809 670.811 809 671.491C809.557 671.626 810.114 671.762 810.687 671.901C817.102 673.711 821.428 676.65 826 681.491C827.496 684.483 827.427 686.133 827 689.491C817.964 708.491 792.54 721.064 773.625 727.991C766.872 730.046 760.984 730.93 754.5 727.803C751.754 725.263 750.954 724.069 750 720.491C750.332 717.774 750.748 715.32 751.375 712.678C751.527 711.986 751.679 711.293 751.836 710.579C752.211 708.88 752.604 707.185 753 705.491C753.66 705.491 754.32 705.491 755 705.491C755.113 704.785 755.227 704.078 755.344 703.35C757.652 693.294 763.564 686.26 771 679.491C771.825 678.542 772.65 677.593 773.5 676.616C776.959 673.675 780.663 672.653 785 671.491C785 670.831 785 670.171 785 669.491Z" fill="#BF966B"/>
<path d="M257.809 700.093C259.936 701.493 261.988 702.931 264 704.491C264.66 703.831 265.32 703.171 266 702.491C266.717 704.643 267.432 706.795 268.133 708.952C268.66 710.496 269.229 712.028 269.867 713.53C273.021 721.309 273.457 731.071 271.274 739.194C269.909 742.19 268.201 744.312 265.75 746.491C262.072 747.828 258.833 747.853 255 747.491C254.332 747.444 253.664 747.398 252.977 747.35C237.817 745.209 222.833 729.993 214 718.491C210.91 713.591 210.551 709.142 211 703.491C212 699.991 212 699.991 213 697.491C213.66 697.821 214.32 698.151 215 698.491C216.748 697.898 218.474 697.24 220.188 696.553C232.732 692.247 246.258 693.506 257.809 700.093Z" fill="#BD9469"/>
<path d="M130 157.491C135.654 160.035 140.514 164.7 144.438 169.428C146.579 171.987 148.594 173.923 151.125 176.053C155.041 179.423 157.503 182.06 158.562 187.241C157.236 194.903 151.672 200.116 145.875 204.87C144.154 206.358 142.825 207.823 141.438 209.616C137.5 214.26 133.84 217.701 127.562 218.241C121.803 217.88 118.818 214.492 115 210.491C113.46 208.948 111.918 207.406 110.375 205.866C109.627 205.105 108.88 204.345 108.109 203.561C106.343 201.828 104.567 200.269 102.625 198.741C98.5167 195.22 97.1643 192.97 96.5625 187.553C96.8417 182.01 99.3236 179.051 103.246 175.401C104.978 173.859 106.719 172.326 108.469 170.803C110.787 168.686 112.798 166.519 114.812 164.116C119.382 158.769 122.748 156.714 130 157.491Z" fill="#FCCA2A"/>
<path d="M489 697.491C494.826 702.913 498.462 709.387 499.5 717.303C498.89 721.19 498.012 722.042 495 724.491C485.296 728.095 474.779 727.933 464.575 727.827C462.107 727.803 459.64 727.807 457.172 727.813C455.575 727.808 453.979 727.8 452.383 727.792C451.659 727.793 450.935 727.793 450.188 727.794C443.946 727.709 438.167 727.071 433 723.303C431 720.491 431 720.491 430.25 717.366C432.034 708.149 438.162 701.572 445.535 696.139C448.942 693.861 452.162 691.942 456 690.491C456.905 690.147 457.81 689.803 458.742 689.448C470.221 685.796 479.989 690.039 489 697.491Z" fill="#AE804C"/>
<path d="M617.164 578.741C628.28 582.129 638.114 588.948 644.375 598.928C648.549 608.08 648.35 614.904 645 624.491C641.802 631.324 636.991 636.465 630 639.491C624.535 639.673 621.944 638.105 618 634.491C608.968 621.183 605.723 602.341 608 586.491C612.577 578.211 612.577 578.211 617.164 578.741Z" fill="#B28553"/>
<path d="M809.312 81.241C817.153 85.5266 821.165 91.079 824 99.491C825.222 108.359 824.525 116.646 820 124.491C817.189 127.302 814.453 126.783 810.688 126.866C803.891 127.123 798.096 128.385 791.672 130.749C788.821 131.541 787.664 131.725 785 130.491C777.597 123.502 774.935 115.252 774.625 105.303C774.741 100.315 775.621 96.8532 778 92.491C779.244 94.3564 780.475 96.2301 781.688 98.116C783.886 100.764 783.886 100.764 787.438 101.491C791.371 101.491 792.954 100.91 796 98.491C797.725 95.0411 797.498 91.2634 797 87.491C794.913 84.6841 792.918 83.4365 790 81.491C796.04 78.2698 803.192 78.2968 809.312 81.241Z" fill="#316158"/>
<path d="M392 488.491C395.825 489.062 398.435 490.146 401.688 492.218C426.344 507.486 453.396 515.589 482 519.491C482 523.121 482 526.751 482 530.491C481.01 530.491 480.02 530.491 479 530.491C478.34 532.141 477.68 533.791 477 535.491C468.69 535.892 461.308 534.779 453.25 532.803C452.103 532.528 450.957 532.253 449.775 531.969C431.363 527.461 413.932 520.904 398 510.491C397.67 512.141 397.34 513.791 397 515.491C396.67 515.491 396.34 515.491 396 515.491C395.34 511.531 394.68 507.571 394 503.491C392.68 503.161 391.36 502.831 390 502.491C389.631 493.081 389.631 493.081 392 488.491Z" fill="#287D6F"/>
<path d="M629 442.491C637.409 445.515 644.062 451.964 650 458.491C650.501 459.014 651.003 459.538 651.52 460.077C657.198 466.699 663 478.646 663 487.491C678.358 481.689 690.697 470.006 703 459.491C706.302 460.919 708.399 462.646 710.812 465.303C711.75 466.303 711.75 466.303 712.707 467.323C714 469.491 714 469.491 713.855 472.116C712.693 475.343 710.732 476.51 708 478.491C707.505 479.481 707.505 479.481 707 480.491C706.34 480.491 705.68 480.491 705 480.491C705 481.151 705 481.811 705 482.491C704.34 482.491 703.68 482.491 703 482.491C703 483.151 703 483.811 703 484.491C692.243 494.875 675.812 506.754 661 509.491C656.199 500.414 652.286 491.336 648.857 481.67C643.85 467.621 638.641 454.09 629 442.491Z" fill="#2A7E6F"/>
<path d="M666.789 71.8229C675.309 78.251 679.677 86.5221 683 96.4909C683.959 108.715 683.533 122.017 675.324 131.917C674.557 132.766 673.79 133.616 673 134.491C671.68 133.831 670.36 133.171 669 132.491C669.482 131.755 669.964 131.019 670.461 130.26C671.092 129.285 671.724 128.309 672.375 127.303C673.001 126.34 673.628 125.378 674.273 124.385C679.181 116.158 679.274 106.734 677.383 97.4675C674.941 90.4458 670.297 85.7595 663.766 82.3112C660.062 81.2126 656.51 81.2771 652.687 81.3659C651.947 81.3749 651.206 81.384 650.443 81.3932C648.629 81.4167 646.814 81.4525 645 81.4909C645 82.1509 645 82.8109 645 83.4909C645.763 83.5734 646.526 83.6559 647.312 83.7409C650 84.4909 650 84.4909 651.812 85.9909C653.62 89.7968 653.685 93.3567 653 97.4909C651.206 100.361 650.017 101.982 647 103.491C642.662 103.991 639.981 103.882 636.562 101.178C634 98.4909 634 98.4909 634 95.4909C633.34 95.4909 632.68 95.4909 632 95.4909C630.145 107.314 630.017 116.829 636 127.491C628.264 130.069 628.264 130.069 624 128.491C618.118 119.777 617.73 108.606 619 98.4909C621.426 87.3508 627.846 78.1661 637 71.4909C645.614 66.0414 658.151 66.7007 666.789 71.8229Z" fill="#F5FCFA"/>
<path d="M817.688 70.8191C825.826 76.7026 831.928 83.8664 834.598 93.6902C836.408 106.291 836.355 117.721 829 128.491C821.25 127.616 821.25 127.616 819 126.491C821 120.491 821 120.491 822.039 117.725C824.486 109.49 824.092 100.759 820.563 92.9284C816.911 86.4767 811.978 82.8169 805 80.4909C803.356 80.3976 801.709 80.361 800.063 80.3659C799.208 80.3634 798.353 80.3608 797.473 80.3581C795.173 80.4816 793.204 80.8467 791 81.4909C792.454 82.4191 792.454 82.4191 793.938 83.3659C797 85.4909 797 85.4909 798 87.4909C798.658 92.2722 798.717 95.479 795.875 99.4909C792.672 101.719 790.896 102.491 787 102.491C782.861 100.717 780.625 98.0883 778 94.4909C774.445 102.267 775.199 111.106 777.871 119.096C779.573 122.707 781.907 125.643 784.477 128.678C786 130.491 786 130.491 787 132.491C785.02 133.481 785.02 133.481 783 134.491C773.801 124.27 771.328 113.774 771.613 100.284C771.955 94.0152 773.917 88.9237 777 83.4909C777.598 82.3978 778.196 81.3047 778.813 80.1784C788.668 68.0703 803.139 62.3007 817.688 70.8191Z" fill="#F5FBFA"/>
<path d="M583.25 21.6159C584.372 21.6817 584.372 21.6817 585.516 21.7487C590.027 23.0963 592.889 25.7258 595.347 29.6301C596.698 32.1443 597.981 34.6846 599.25 37.2409C603.533 45.4929 607.606 50.8009 615 56.4909C616.569 59.6296 616.352 62.0295 616 65.4909C613.303 68.7564 611.105 71.2644 606.785 71.7292C595.291 72.0425 585.588 68.1765 577 60.4909C569.959 51.9925 568.117 44.4368 569 33.4909C571.253 26.8507 575.86 21.0378 583.25 21.6159Z" fill="#87C9A9"/>
<path d="M869 18.4909C873.071 20.9787 875.865 23.7197 877.527 28.28C879.351 36.8092 878.753 45.1027 874 52.4909C867.654 61.3429 859.694 66.4101 849 68.4909C844.265 68.9941 840.402 69.1044 836 67.1784C833.25 64.8585 832.079 63.2196 831.688 59.6159C832.056 55.935 832.736 54.4123 835 51.4909C836.052 50.7278 837.104 49.9647 838.188 49.1784C843.744 44.679 846.127 37.6462 849.113 31.3303C853.51 22.2138 858.259 16.5018 869 18.4909Z" fill="#89C9A8"/>
<path d="M27.3672 259.139C30 259.491 30 259.491 31.6953 261.468C32.1671 262.342 32.6389 263.215 33.125 264.116C33.602 264.974 34.0789 265.833 34.5703 266.718C36 269.491 36 269.491 37.2031 272.581C39.9706 277.063 44.0099 278.313 48.7266 280.325C50.7266 281.268 50.7266 281.268 54 283.491C54.9609 287.245 54.9609 287.245 55 290.491C53.5324 291.079 53.5324 291.079 52.0352 291.678C40.5065 296.772 36.2069 303.271 31 314.491C30 315.491 30 315.491 27.6875 315.866C25 315.491 25 315.491 23 313.616C16 302.678 16 302.678 16 298.491C15.1956 298.285 14.3913 298.078 13.5625 297.866C8.9729 296.095 4.61978 293.867 1 290.491C0.238281 287.792 0.238281 287.792 0 285.491C2.35976 283.375 4.579 281.672 7.5 280.417C17.0748 276.201 19.8303 269.533 24 260.491C25 259.491 25 259.491 27.3672 259.139Z" fill="#48B9EC"/>
<path d="M746.941 98.2761C750.557 100.41 754.076 102.643 756 106.491C756.567 113.407 756.567 113.407 754.562 117.241C745.79 124.943 734.172 125.309 723.044 124.722C717.085 124.049 712.756 121.038 708.375 117.178C706.492 113.498 706.216 110.541 707 106.491C714.052 93.3064 734.877 92.5593 746.941 98.2761Z" fill="#6EB89D"/>
<path d="M665.375 81.9909C671.434 85.629 676.363 91.3875 678.578 98.1277C679.484 103.2 679.211 108.362 679 113.491C678.01 113.821 677.02 114.151 676 114.491C676 113.831 676 113.171 676 112.491C674.886 112.398 674.886 112.398 673.75 112.303C670.149 111.239 669.033 109.577 667 106.491C667 105.831 667 105.171 667 104.491C666.34 104.491 665.68 104.491 665 104.491C664.907 105.636 664.907 105.636 664.813 106.803C664 109.491 664 109.491 661.625 111.241C658.566 112.698 656.536 113.514 653.125 113.366C649.313 113.518 647.856 113.944 645 116.491C643.702 119.419 642.799 122.392 642 125.491C643.98 125.491 645.96 125.491 648 125.491C648 125.821 648 126.151 648 126.491C642.06 126.986 642.06 126.986 636 127.491C629.945 118.812 628.639 111.375 630.453 100.866C630.905 99.0572 631.442 97.2698 632 95.4909C632.66 95.4909 633.32 95.4909 634 95.4909C635.006 97.1537 636.006 98.8208 637 100.491C640.751 102.991 642.559 103.027 647 102.491C650.124 100.701 650.124 100.701 652 97.4909C652.78 93.3172 652.658 89.8059 650.75 85.9909C648.822 84.338 647.497 83.8353 645 83.4909C645 82.8309 645 82.1709 645 81.4909C651.254 79.406 659.283 79.274 665.375 81.9909Z" fill="#315E55"/>
<path d="M853.925 501.772C857.522 503.019 859.927 505.632 862.688 508.178C863.281 508.696 863.875 509.214 864.486 509.747C867.276 512.301 868.824 513.992 870.102 517.612C869.975 521.19 869.135 522.305 866.688 524.866C866.052 525.554 865.417 526.243 864.762 526.952C863 528.491 863 528.491 861 528.491C860.753 529.089 860.505 529.687 860.25 530.303C858.791 532.856 857.564 534.058 855 535.491C847.987 534.636 842.553 527.195 838.031 522.264C836.515 519.657 836.389 518.477 837 515.491C838.877 512.978 841.093 510.884 843.375 508.741C844.28 507.857 844.28 507.857 845.203 506.956C851.006 501.346 851.006 501.346 853.925 501.772Z" fill="#F9AB79"/>
<path d="M633.242 572.471C643.87 578.634 653.909 585.445 658 597.491C658.35 599.154 658.687 600.82 659 602.491C657.567 603.642 656.128 604.787 654.688 605.928C653.887 606.567 653.086 607.205 652.262 607.862C650 609.491 650 609.491 647 610.491C646.853 609.862 646.706 609.233 646.555 608.585C643.787 598.023 637.723 590.961 629 584.491C624.825 582.169 620.648 580.567 616 579.491C617.281 575.647 618.669 575.122 622.125 573.116C623.056 572.551 623.986 571.987 624.945 571.405C628.445 570.358 630.023 570.833 633.242 572.471Z" fill="#3E8A7C"/>
<path d="M665 104.491C665.66 104.491 666.32 104.491 667 104.491C667.578 105.419 668.155 106.347 668.75 107.303C671.234 110.822 673.04 111.941 677 113.491C677.66 113.491 678.32 113.491 679 113.491C678.639 120.356 674.805 126.409 670.262 131.401C666.821 133.059 664.082 131.827 660.625 130.741C653.028 128.575 645.919 127.738 638 127.491C638.976 127.098 638.976 127.098 639.973 126.698C640.642 126.3 641.311 125.901 642 125.491C642.144 124.398 642.289 123.305 642.438 122.178C643.125 117.673 644.554 116.349 648 113.491C650 112.491 650 112.491 653.25 112.616C657.417 112.477 659.558 111.812 663 109.491C664.426 106.934 664.426 106.934 665 104.491Z" fill="#406C60"/>
<path d="M664.063 40.1159C666 42.4909 666 42.4909 666.625 45.4284C665.741 49.7625 664.694 51.0048 661 53.4909C657.954 53.9169 654.955 54.0581 651.883 54.1901C647.178 54.681 644.575 56.6534 641.5 60.2409C640 61.4909 640 61.4909 637.063 61.8659C633.75 61.4603 632.417 60.7217 630 58.4909C629.919 54.6058 630.197 52.4999 632.649 49.4206C640.611 41.8604 653.273 34.3907 664.063 40.1159Z" fill="#3A9280"/>
<path d="M629 442.491C637.409 445.515 644.062 451.964 650 458.491C650.501 459.014 651.003 459.538 651.52 460.077C657.198 466.699 663 478.646 663 487.491C663.99 487.986 663.99 487.986 665 488.491C661.37 490.141 657.74 491.791 654 493.491C651.757 488.574 649.642 483.646 647.703 478.6C642.65 465.464 637.561 453.723 629 442.491Z" fill="#368F7E"/>
<path d="M808.469 39.3699C812.883 41.3248 816.432 44.2807 820 47.491C820.571 47.9847 821.142 48.4784 821.73 48.9871C823 50.491 823 50.491 823.375 54.0535C823.189 55.7551 823.189 55.7551 823 57.491C819.176 60.0404 817.546 60.0872 813 59.491C811.223 58.1824 811.223 58.1824 809.375 56.5535C804.855 52.7427 800.7 52.885 794.953 52.9871C792 52.491 792 52.491 789.609 50.1902C788 47.491 788 47.491 788 43.866C789 40.491 789 40.491 790.562 38.5535C796.427 35.9973 802.603 37.478 808.469 39.3699Z" fill="#3B9280"/>
<path d="M801 681.491C808.746 684.427 815.538 688.405 820 695.491C820.25 698.116 820.25 698.116 819 700.491C817.103 702.378 815.159 703.883 813 705.491C809.65 704.374 808.859 703.27 806.906 700.21C803.825 695.781 799.962 693.855 795.188 691.553C794.399 691.156 793.611 690.758 792.799 690.348C790.874 689.38 788.938 688.433 787 687.491C787 685.841 787 684.191 787 682.491C791.321 680.33 796.331 680.85 801 681.491Z" fill="#A57B4B"/>
<path d="M254 714.491C256.562 714.741 256.562 714.741 259 715.491C261.854 721.199 260.703 730.136 258.918 736.116C255.729 743.762 255.729 743.762 254 745.491C246.743 746.086 246.743 746.086 243.5 743.491C243.005 742.831 242.51 742.171 242 741.491C243.375 739.991 243.375 739.991 245 738.491C245.66 738.491 246.32 738.491 247 738.491C247.121 737.899 247.242 737.308 247.367 736.698C248.786 730.006 248.786 730.006 250.062 726.928C250.961 724.591 251.248 722.775 251.5 720.303C252 716.491 252 716.491 254 714.491Z" fill="#A67E4F"/>
<path d="M472 699.491C477.342 699.817 479.707 702.662 483.195 706.393C488.661 712.747 488.352 718.439 488 726.491C485.03 726.491 482.06 726.491 479 726.491C478.925 725.729 478.85 724.967 478.773 724.182C477.913 717.427 476.527 712.834 472.34 707.428C470.928 705.386 470.252 703.96 470 701.491C470.66 700.831 471.32 700.171 472 699.491Z" fill="#986C3A"/>
<path d="M636.211 610.792C636.801 611.022 637.392 611.253 638 611.491C637.156 618.935 634.581 623.497 629 628.491C624.561 631.45 621.289 631.808 616 631.491C614.539 628.844 614 627.596 614 624.491C615.031 624.078 616.062 623.666 617.125 623.241C623.377 620.529 627.825 616.866 632.289 611.784C634 610.491 634 610.491 636.211 610.792Z" fill="#9C7241"/>
<path d="M665 104.491C665.66 104.491 666.32 104.491 667 104.491C668.333 106.491 669.667 108.491 671 110.491C673.106 112.324 673.106 112.324 675 113.491C674.051 114.068 673.103 114.646 672.125 115.241C669.239 117.319 668.159 118.246 667 121.491C666.34 121.491 665.68 121.491 665 121.491C663.986 119.832 662.989 118.164 662 116.491C660.704 115.121 659.38 113.776 658 112.491C659.176 111.903 659.176 111.903 660.375 111.303C663.352 109.248 663.988 107.894 665 104.491Z" fill="#E9F6F3"/>
<path d="M811 102.491C811.433 103.089 811.866 103.687 812.312 104.303C814.326 106.913 816.035 109.009 819 110.491C819 111.151 819 111.811 819 112.491C817.342 113.835 815.674 115.167 814 116.491C812.237 118.617 812.237 118.617 811 120.491C810.423 119.542 809.845 118.593 809.25 117.616C807.172 114.73 806.245 113.65 803 112.491C803 111.831 803 111.171 803 110.491C803.763 110.285 804.526 110.078 805.312 109.866C808.822 108.07 809.526 106.06 811 102.491Z" fill="#E8F7F3"/>
<path d="M616 578.491C617.437 578.464 618.875 578.445 620.312 578.428C621.513 578.411 621.513 578.411 622.738 578.393C625 578.491 625 578.491 628 579.491C628 580.151 628 580.811 628 581.491C628.583 581.759 629.165 582.027 629.766 582.303C632.028 583.506 633.806 584.829 635.75 586.491C636.364 587.007 636.977 587.522 637.609 588.053C639 589.491 639 589.491 639 591.491C639.577 591.677 640.155 591.862 640.75 592.053C644.585 594.504 645.995 598.481 648 602.491C648.134 605.163 648.043 607.813 648 610.491C646.622 607.948 645.759 605.669 644.938 602.866C641.618 593.925 633.307 586.793 625 582.491C622.041 581.307 619.076 580.32 616 579.491C616 579.161 616 578.831 616 578.491Z" fill="#577E67"/>
<path d="M38 296.491C38.66 296.491 39.32 296.491 40 296.491C38.3133 300.989 36.1833 305.22 34 309.491C33.67 309.491 33.34 309.491 33 309.491C32.3683 304.311 33.7419 301.822 36.711 297.811C37.1364 297.376 37.5618 296.94 38 296.491Z" fill="#5FB7D5"/>
</svg>
