<svg width="428" height="778" viewBox="0 0 428 778" fill="none" xmlns="http://www.w3.org/2000/svg">
<path d="M266.493 6.68533C274.661 12.1196 281.456 19.5858 284.602 29.0252C284.602 30.0152 284.602 31.0052 284.602 32.0252C285.416 31.6642 286.229 31.3033 287.067 30.9314C298.258 26.3998 309.736 24.79 321.477 28.5252C332.986 33.5374 341.776 41.5808 346.981 53.0681C349.602 59.9816 349.602 59.9816 349.602 64.0252C350.489 63.9427 351.376 63.8602 352.29 63.7752C364.237 63.8236 374.416 69.9359 382.852 77.8377C391.353 86.7271 395.182 97.6678 395.04 109.838C395.037 110.706 395.033 111.573 395.03 112.468C394.877 119.583 393.57 125.507 390.602 132.025C391.315 132.426 392.028 132.827 392.763 133.24C404.045 139.937 411.537 149.507 414.915 162.338C417.206 175.314 415.202 187.632 407.833 198.678C406.165 200.775 406.165 200.775 404.606 202.447C403.405 203.985 403.405 203.985 403.763 205.939C404.75 208.393 406.028 210.437 407.477 212.65C414.596 224.492 415.868 238.442 412.688 251.892C407.782 265.345 399.342 276.097 386.618 282.814C383.293 284.149 380.199 284.666 376.665 285.213C373.376 285.755 373.376 285.755 370.602 287.025C368.991 289.652 368.36 292.056 367.606 295.037C365.353 301.745 359.519 306.99 353.602 310.65C350.38 313.201 350.149 313.535 349.665 317.338C349.644 318.555 349.624 319.771 349.602 321.025C350.489 321.066 351.376 321.108 352.29 321.15C356.857 322.357 357.888 324.225 360.602 328.025C362.123 331.065 361.744 334.226 361.735 337.56C361.737 338.689 361.737 338.689 361.738 339.841C361.739 341.439 361.737 343.037 361.733 344.635C361.727 347.054 361.733 349.472 361.739 351.89C361.738 353.447 361.737 355.004 361.735 356.56C361.737 357.273 361.739 357.986 361.741 358.721C361.725 362.407 361.492 365.9 360.942 369.548C360.382 374.266 361.357 377.732 363.032 382.119C363.298 382.86 363.563 383.601 363.837 384.364C364.7 386.758 365.588 389.141 366.477 391.525C367.083 393.191 367.687 394.857 368.289 396.524C369.489 399.838 370.699 403.149 371.919 406.456C373.751 411.42 375.544 416.398 377.331 421.378C378.406 424.376 379.488 427.37 380.571 430.365C382.899 436.828 385.152 443.315 387.4 449.806C390.186 457.849 393.015 465.876 395.852 473.9C399.811 485.094 403.752 496.294 407.681 507.498C407.903 508.131 408.125 508.765 408.354 509.418C410.383 515.203 412.411 520.989 414.438 526.775C415.711 530.41 416.985 534.044 418.259 537.677C418.637 538.76 419.016 539.842 419.406 540.957C421.473 546.849 423.583 552.72 425.782 558.565C428.711 567.351 428.194 575.546 424.602 584.025C420.185 591.574 413.551 598.029 405.376 601.322C395.566 603.809 386.005 603.031 377.223 597.908C371.016 593.449 367.004 588.709 364.345 581.506C363.919 580.359 363.493 579.213 363.055 578.032C362.57 576.697 362.086 575.361 361.602 574.025C361.329 573.275 361.055 572.524 360.773 571.751C358.879 566.555 357.007 561.352 355.146 556.144C354.174 553.425 353.196 550.707 352.218 547.99C348.069 536.416 344.215 524.777 340.602 513.025C337.962 513.355 335.322 513.685 332.602 514.025C332.541 515.789 332.541 515.789 332.477 517.588C331.29 528.172 326.044 538.687 319.602 547.025C319.189 547.613 318.775 548.201 318.348 548.806C312.788 556.11 304.018 561.659 295.602 565.025C295.272 620.465 294.942 675.905 294.602 733.025C298.232 733.025 301.862 733.025 305.602 733.025C313.732 735.088 318.858 739.664 324.102 746.088C326.875 751.533 326.303 758.129 325.602 764.025C322.983 769.652 318.393 773.726 312.602 776.025C309.366 776.293 309.366 776.293 305.482 776.316C304.418 776.326 304.418 776.326 303.332 776.336C300.99 776.355 298.648 776.359 296.306 776.361C294.671 776.368 293.037 776.374 291.403 776.381C287.977 776.393 284.55 776.397 281.124 776.396C276.748 776.396 272.373 776.423 267.997 776.457C264.621 776.48 261.244 776.484 257.867 776.483C256.255 776.485 254.643 776.494 253.03 776.509C243.49 776.592 235.977 776.651 228.36 770.095C227.821 769.454 227.283 768.812 226.727 768.15C226.173 767.513 225.619 766.877 225.048 766.22C221.73 761.181 221.314 756.091 221.362 750.204C221.36 749.436 221.358 748.667 221.357 747.875C221.353 745.309 221.364 742.744 221.375 740.178C221.376 738.335 221.376 736.492 221.374 734.648C221.374 729.651 221.386 724.654 221.4 719.656C221.412 714.431 221.413 709.206 221.416 703.981C221.422 694.089 221.438 684.198 221.458 674.306C221.481 663.044 221.492 651.782 221.502 640.52C221.523 617.355 221.558 594.19 221.602 571.025C216.322 571.025 211.042 571.025 205.602 571.025C205.611 573.348 205.62 575.671 205.629 578.064C205.711 599.944 205.771 621.824 205.81 643.704C205.83 654.953 205.858 666.202 205.904 677.451C205.944 687.257 205.97 697.063 205.979 706.869C205.984 712.06 205.996 717.251 206.025 722.442C206.053 727.331 206.061 732.221 206.055 737.11C206.056 738.901 206.064 740.692 206.079 742.483C206.235 761.509 206.235 761.509 199.638 769.365C198.661 770.156 198.661 770.156 197.665 770.963C196.692 771.781 196.692 771.781 195.7 772.615C190.979 775.789 186.981 776.28 181.337 776.3C180.624 776.305 179.911 776.31 179.177 776.315C176.83 776.329 174.484 776.328 172.138 776.326C170.5 776.33 168.862 776.334 167.225 776.339C163.796 776.346 160.367 776.346 156.939 776.341C152.553 776.335 148.167 776.352 143.781 776.375C140.4 776.39 137.019 776.391 133.638 776.388C132.022 776.388 130.405 776.393 128.788 776.403C126.524 776.416 124.261 776.409 121.997 776.397C120.068 776.398 120.068 776.398 118.1 776.399C112.648 775.816 108.74 773.765 105.29 769.525C104.799 768.937 104.308 768.35 103.802 767.744C100.419 762.895 101.02 756.65 101.602 751.025C104.003 742.785 110.533 738.315 117.602 734.025C120.602 733.025 120.602 733.025 132.602 733.025C132.272 677.585 131.942 622.145 131.602 565.025C128.302 563.375 125.002 561.725 121.602 560.025C107.381 549.064 98.7104 535.536 94.6024 518.025C94.4969 515.138 94.4969 515.138 94.6024 513.025C91.9624 512.695 89.3224 512.365 86.6024 512.025C86.467 512.587 86.3317 513.149 86.1922 513.728C84.5879 519.992 82.5878 526.063 80.4266 532.15C78.2295 538.379 76.0494 544.613 73.9147 550.864C72.7386 554.306 71.5533 557.745 70.3675 561.184C69.7671 562.932 69.1702 564.681 68.5765 566.43C67.6961 569.023 66.8028 571.61 65.9071 574.197C65.6486 574.968 65.3901 575.739 65.1238 576.533C61.68 586.379 56.4346 593.933 47.3915 599.349C39.5128 603.079 30.3457 603.44 21.9227 601.365C13.906 598.161 6.70015 591.633 2.60239 584.025C-3.62568 568.141 2.59416 553.79 8.38346 538.824C10.8743 532.377 13.1655 525.865 15.4432 519.339C16.6917 515.768 17.9525 512.202 19.2118 508.635C19.4774 507.881 19.7431 507.128 20.0168 506.352C28.7773 481.515 37.5681 456.689 46.4213 431.885C47.3434 429.3 48.2636 426.715 49.1837 424.13C51.9131 416.471 54.665 408.823 57.5004 401.203C58.7456 397.856 59.9818 394.506 61.2182 391.156C62.0791 388.838 62.9552 386.526 63.8319 384.214C64.3499 382.813 64.8672 381.411 65.3836 380.01C66.0652 378.195 66.0652 378.195 66.7606 376.345C67.6911 372.675 67.3797 370.692 66.6024 367.025C66.2127 361.607 66.2476 356.152 66.1974 350.722C66.1757 348.967 66.1416 347.213 66.0948 345.459C66.0276 342.909 66.0003 340.361 65.9813 337.81C65.9535 337.034 65.9256 336.258 65.897 335.458C65.9167 330.179 67.2939 327.327 70.7258 323.345C72.6024 322.025 72.6024 322.025 78.6024 321.025C78.6024 312.775 78.6024 304.525 78.6024 296.025C75.6943 296.108 72.7861 296.19 69.7899 296.275C56.6605 296.378 47.5655 292.78 37.6024 284.025C32.8802 279.005 29.2078 273.409 26.6024 267.025C26.2415 266.194 25.8805 265.362 25.5086 264.506C24.2051 259.5 24.353 254.675 24.4149 249.525C24.4155 248.506 24.4162 247.486 24.4168 246.435C24.4409 242.325 24.478 238.59 25.3641 234.564C25.9017 231.918 25.9017 231.918 23.9774 229.892C23.1936 229.235 22.4099 228.578 21.6024 227.9C12.0769 219.042 7.18966 208.175 6.36021 195.252C6.09545 180.514 9.53664 167.721 19.868 156.584C24.879 152.081 30.2618 148.342 36.6024 146.025C36.2415 145.319 35.8805 144.612 35.5086 143.885C30.2745 132.311 28.9538 117.382 33.4891 105.26C36.8877 98.4386 40.8314 92.0748 46.6024 87.0252C47.1477 86.5237 47.6929 86.0223 48.2547 85.5056C56.5724 78.0252 56.5724 78.0252 61.6024 78.0252C61.5444 77.4541 61.4864 76.8831 61.4266 76.2947C60.7686 64.4699 66.084 53.8982 73.6024 45.0252C81.8838 35.9481 92.6595 30.4713 104.97 29.8572C111.569 29.8205 117.301 30.0413 123.602 32.0252C124.934 32.3662 126.267 32.7015 127.602 33.0252C128.13 31.865 128.13 31.865 128.669 30.6814C135.011 17.3025 143.002 9.5692 156.665 3.58767C168.114 -0.201219 181.822 0.788206 192.602 6.02517C198.063 9.11514 202.883 12.9111 207.602 17.0252C208.052 16.5173 208.502 16.0094 208.966 15.4861C223.975 -0.575969 247.297 -4.33952 266.493 6.68533Z" fill="#478347"/>
<path d="M266.735 6.68536C274.904 12.1197 281.698 19.5858 284.845 29.0252C284.845 30.0152 284.845 31.0052 284.845 32.0252C285.658 31.6643 286.472 31.3033 287.31 30.9315C298.5 26.3999 309.978 24.7901 321.72 28.5252C333.229 33.5375 342.018 41.5808 347.224 53.0682C349.845 59.9816 349.845 59.9817 349.845 64.0252C350.732 63.9427 351.618 63.8602 352.532 63.7752C364.479 63.8237 374.659 69.9359 383.095 77.8377C391.595 86.7271 395.424 97.6679 395.282 109.838C395.279 110.706 395.276 111.573 395.272 112.468C395.119 119.583 393.812 125.507 390.845 132.025C391.558 132.426 392.27 132.827 393.005 133.24C404.288 139.937 411.779 149.507 415.157 162.338C417.448 175.314 415.444 187.632 408.075 198.678C406.407 200.775 406.407 200.775 404.849 202.447C403.647 203.985 403.647 203.985 404.005 205.939C404.993 208.393 406.271 210.437 407.72 212.65C414.839 224.492 416.11 238.442 412.931 251.892C408.024 265.345 399.584 276.097 386.86 282.814C383.536 284.149 380.442 284.666 376.907 285.213C373.619 285.755 373.619 285.755 370.845 287.025C369.234 289.652 368.603 292.056 367.849 295.037C365.595 301.745 359.762 306.99 353.845 310.65C350.103 313.525 349.87 313.226 349.845 321.025C260.415 321.025 169.743 321.025 77.6025 321.025C77.6025 312.775 77.6025 304.525 77.6025 296.025C74.6944 296.108 73.0285 296.19 70.0322 296.275C56.9028 296.378 47.8078 292.78 37.8447 284.025C33.1225 279.005 29.4501 273.409 26.8447 267.025C26.4838 266.194 26.1229 265.362 25.751 264.506C24.4475 259.5 24.5954 254.675 24.6572 249.525C24.6579 248.506 24.6585 247.486 24.6592 246.435C24.6832 242.325 24.7203 238.59 25.6064 234.564C26.1441 231.918 26.1441 231.918 24.2197 229.892C23.436 229.235 22.6522 228.578 21.8447 227.9C12.3193 219.042 7.43199 208.175 6.60254 195.252C6.33778 180.514 9.77897 167.721 20.1104 156.584C25.1214 152.081 30.5041 148.342 36.8447 146.025C36.4838 145.319 36.1229 144.612 35.751 143.885C30.5169 132.311 29.1961 117.382 33.7314 105.26C37.13 98.4386 41.0737 92.0748 46.8447 87.0252C47.39 86.5238 47.9353 86.0223 48.4971 85.5057C56.8148 78.0252 56.8148 78.0252 61.8447 78.0252C61.7867 77.4541 61.7287 76.8831 61.6689 76.2947C61.011 64.4699 66.3263 53.8982 73.8447 45.0252C82.1261 35.9482 92.9018 30.4713 105.212 29.8572C111.812 29.8205 117.543 30.0413 123.845 32.0252C125.176 32.3663 126.509 32.7015 127.845 33.0252C128.373 31.865 128.373 31.865 128.911 30.6815C135.253 17.3026 143.244 9.56923 156.907 3.5877C168.356 -0.201188 182.065 0.788236 192.845 6.0252C198.305 9.11517 203.126 12.9111 207.845 17.0252C208.295 16.5173 208.744 16.0094 209.208 15.4861C224.217 -0.575938 247.539 -4.33949 266.735 6.68536Z" fill="#B46C51"/>
<path d="M266.603 6.52527C275.28 12.0271 283.103 19.5252 285.103 29.0253C285.103 30.0153 285.603 30.5253 285.103 31.5253C285.916 31.1643 286.229 31.3033 287.067 30.9314C298.258 26.3998 309.736 24.79 321.477 28.5252C333.603 33.0251 342.397 41.5379 347.603 53.0253C350.224 59.9387 350.103 59.9817 350.103 64.0253C350.989 63.9428 351.376 63.8602 352.29 63.7752C364.237 63.8236 375.353 68.7125 383.103 77.5252C391.103 86.0252 395.647 98.1687 395.603 110.025C395.599 110.893 395.675 111.583 395.603 112.525C395.603 119.525 394.07 125.507 391.103 132.025C391.815 132.426 392.028 132.827 392.763 133.24C404.603 139.525 411.725 149.194 415.103 162.025C417.394 175.001 415.972 187.48 408.603 198.525C407.103 200.525 406.603 200.525 405.103 202.525C404.099 204.103 403.745 204.071 404.103 206.025C405.603 208.525 406.603 210.525 407.603 212.525C415.603 224.525 417.282 239.075 414.103 252.525C409.196 265.978 401.087 277.236 386.603 283.025C383.276 284.355 380.637 284.978 377.103 285.525C374.04 286.338 373.603 286.525 370.603 287.525C369.603 290.525 368.85 292.543 368.103 295.525C365.103 303.025 358.603 307.525 352.602 312.025C351.703 312.7 350.603 313.525 350.603 313.525C350.603 291.745 349.602 268.465 349.602 246.025C352.242 246.685 354.882 247.345 357.602 248.025C366.661 248.756 374.697 246.556 381.786 240.756C389.48 233.426 392.711 226.212 393.04 215.65C392.784 205.315 389.918 198.527 382.841 191.01C379.438 187.993 375.718 185.921 371.602 184.025C371.355 184.747 371.107 185.469 370.852 186.213C367.57 193.599 361.889 196.98 354.852 200.338C345.681 202.278 338.539 201.445 330.306 196.865C323.875 192.489 320.195 187.348 317.602 180.025C317.256 177.258 317.269 174.56 317.352 171.775C317.358 171.069 317.363 170.363 317.368 169.635C317.415 166.516 317.61 164.002 318.602 161.025C317.841 160.685 317.079 160.345 316.294 159.994C302.978 153.744 296.129 146.605 290.602 133.025C289.094 128.49 288.347 124.614 288.415 119.838C288.421 118.834 288.428 117.83 288.434 116.795C288.581 114.385 288.915 112.33 289.602 110.025C288.964 110.345 288.326 110.665 287.669 110.994C278.937 113.931 267.283 113.457 258.977 109.588C253.131 106.143 246.697 101.215 243.602 95.0254C242.942 95.0254 242.282 95.0254 241.602 95.0254C239.968 96.6799 239.968 96.6799 238.29 98.7754C231.205 107.056 222.478 112.288 211.474 113.318C198.583 113.842 189.092 109.578 179.602 101.025C178.259 99.7026 176.922 98.3719 175.602 97.0254C175.319 97.6171 175.035 98.2087 174.743 98.8184C169.996 108.003 161.136 112.419 151.649 115.701C141.885 117.248 132.39 116.757 123.602 112.025C123.178 112.883 122.754 113.74 122.317 114.623C117.371 124.265 112.509 131.169 102.602 136.025C101.942 136.025 101.282 136.025 100.602 136.025C101.126 137.147 101.126 137.147 101.661 138.291C102.116 139.276 102.571 140.261 103.04 141.275C103.492 142.25 103.945 143.224 104.411 144.229C107.983 152.613 107.579 162.094 104.641 170.646C100.781 179.485 94.8807 186.21 86.1649 190.4C78.8509 193.051 69.0993 193.884 61.786 190.861C60.3119 189.968 58.8527 189.05 57.4149 188.1C55.503 186.787 55.503 186.787 52.4774 186.775C45.1065 189.98 40.7904 196.899 37.6024 204.025C35.1744 211.045 35.3971 221.12 37.579 228.189C38.7732 230.615 40.0663 232.804 41.6024 235.025C42.1593 235.933 42.7162 236.84 43.2899 237.775C53.3033 247.518 63.6886 248.025 77.6024 248.025C77.6024 263.865 77.6025 279.705 77.6025 296.025C59.6027 297.025 50.1025 295.525 37.6024 284.025C32.8802 279.005 29.2078 273.409 26.6024 267.025C26.2415 266.194 25.8805 265.362 25.5086 264.506C24.2051 259.5 24.353 254.675 24.4149 249.525C24.4155 248.506 24.4162 247.486 24.4168 246.435C24.4409 242.325 24.478 238.59 25.3641 234.564C25.9017 231.918 25.9017 231.918 23.9774 229.892C23.1936 229.235 22.4099 228.578 21.6024 227.9C12.0769 219.042 7.18966 208.175 6.36021 195.252C6.09545 180.514 9.53664 167.721 19.868 156.584C24.879 152.081 30.2618 148.342 36.6024 146.025C36.2415 145.319 35.8805 144.612 35.5086 143.885C30.2745 132.311 28.9538 117.382 33.4891 105.26C36.8877 98.4386 40.8314 92.0748 46.6024 87.0252C47.1477 86.5237 47.6929 86.0223 48.2547 85.5056C56.5724 78.0252 56.5724 78.0252 61.6024 78.0252C61.5444 77.4541 61.4864 76.8831 61.4266 76.2947C60.7686 64.4699 66.084 53.8982 73.6024 45.0252C81.8838 35.9481 92.6595 30.4713 104.97 29.8572C111.569 29.8205 117.301 30.0413 123.602 32.0252C124.934 32.3662 126.267 32.7015 127.602 33.0252C128.13 31.865 128.13 31.865 128.669 30.6814C135.011 17.3025 143.002 9.5692 156.665 3.58767C168.114 -0.201219 181.822 0.288467 192.603 5.52543C198.063 8.6154 202.883 12.4113 207.603 16.5254C208.052 16.0175 208.502 16.0094 208.966 15.4861C223.975 -0.575969 248.212 -5.13492 266.603 6.52527Z" fill="#54241F"/>
<path d="M94.6025 514.025C173.143 514.025 251.682 514.025 332.602 514.025C331.218 526.456 327.239 537.156 319.548 547.088C318.924 547.971 318.924 547.971 318.289 548.872C312.704 556.19 303.898 561.749 295.446 565.122C294.949 648.44 294.949 648.44 294.442 733.441C298.088 733.441 301.733 733.441 305.489 733.441C313.652 735.507 318.801 740.092 324.067 746.528C326.851 751.984 326.277 758.593 325.573 764.5C322.943 770.137 318.333 774.219 312.518 776.522C309.268 776.79 309.268 776.79 305.368 776.813C304.656 776.82 303.943 776.827 303.209 776.834C300.857 776.853 298.505 776.857 296.153 776.859C294.511 776.865 292.87 776.872 291.229 776.879C287.788 776.891 284.348 776.895 280.907 776.894C276.513 776.894 272.119 776.921 267.725 776.955C264.334 776.978 260.943 776.982 257.552 776.981C255.933 776.983 254.314 776.992 252.695 777.007C243.114 777.091 235.569 777.149 227.921 770.581C227.379 769.938 226.838 769.295 226.281 768.632C225.724 767.994 225.168 767.356 224.594 766.699C221.262 761.65 220.844 756.55 220.893 750.653C220.891 749.882 220.889 749.112 220.887 748.319C220.884 745.748 220.895 743.178 220.906 740.607C220.907 738.761 220.906 736.914 220.905 735.067C220.905 730.06 220.917 725.053 220.931 720.046C220.943 714.811 220.944 709.576 220.947 704.341C220.953 694.431 220.969 684.521 220.99 674.611C221.012 663.327 221.023 652.043 221.033 640.76C221.054 617.551 221.09 594.342 221.134 571.133C215.832 571.133 211.065 571.133 205.603 571.133C205.611 573.461 205.593 575.628 205.603 578.025C206.103 600.025 206.603 622.025 206.103 644.025C206.103 655.525 206.057 666.755 206.103 678.025C206.103 688.025 206.094 697.201 206.103 707.025C206.108 712.226 206.103 717.976 206.103 723.025C206.103 728.074 206.603 732.525 205.521 737.534C205.522 739.328 205.53 741.122 205.546 742.917C205.701 761.979 205.701 761.979 199.077 769.85C198.423 770.378 197.769 770.906 197.096 771.45C196.445 771.997 195.793 772.543 195.123 773.106C190.382 776.285 186.367 776.777 180.699 776.798C179.983 776.803 179.267 776.808 178.53 776.813C176.173 776.827 173.817 776.826 171.461 776.824C169.816 776.828 168.172 776.832 166.527 776.837C163.084 776.844 159.641 776.844 156.198 776.839C151.793 776.833 147.389 776.85 142.985 776.873C139.59 776.888 136.194 776.889 132.799 776.886C131.176 776.886 129.552 776.891 127.929 776.901C125.655 776.914 123.382 776.907 121.109 776.895C119.171 776.896 119.171 776.896 117.195 776.897C111.72 776.313 107.795 774.258 104.331 770.01C103.838 769.421 103.345 768.832 102.836 768.225C99.4391 763.368 100.043 757.11 100.628 751.475C103.038 743.219 109.596 738.74 116.695 734.443C119.708 733.441 119.708 733.441 131.759 733.441C131.427 677.896 131.096 622.35 130.754 565.122C125.784 562.642 125.784 562.642 120.712 560.112C107.895 550.257 97.6947 537.216 94.6025 521.039C94.6025 518.724 94.6025 516.41 94.6025 514.025Z" fill="#2A5733"/>
<path d="M79.1762 320.894C80.1455 320.89 81.1148 320.886 82.1134 320.882C83.7221 320.883 83.7221 320.883 85.3633 320.885C87.0634 320.88 87.0634 320.88 88.7978 320.876C92.6218 320.867 96.4457 320.865 100.27 320.864C103.001 320.86 105.732 320.854 108.463 320.849C115.901 320.835 123.339 320.829 130.777 320.825C135.419 320.822 140.062 320.818 144.704 320.813C157.552 320.801 170.4 320.791 183.248 320.787C184.07 320.787 184.893 320.787 185.741 320.787C186.978 320.786 186.978 320.786 188.24 320.786C189.911 320.786 191.582 320.785 193.253 320.785C194.082 320.785 194.911 320.784 195.765 320.784C209.199 320.78 222.633 320.763 236.067 320.739C249.852 320.716 263.637 320.703 277.422 320.702C285.165 320.701 292.908 320.695 300.65 320.677C307.243 320.662 313.836 320.657 320.429 320.665C323.794 320.669 327.158 320.666 330.523 320.654C334.169 320.641 337.815 320.647 341.461 320.658C342.526 320.649 343.592 320.641 344.69 320.633C353.661 320.694 353.661 320.694 357.602 324.025C361.438 328.543 362.189 332.257 362.099 338.021C362.1 338.773 362.101 339.525 362.103 340.299C362.101 341.882 362.09 343.464 362.069 345.047C362.04 347.452 362.048 349.856 362.061 352.261C362.055 353.806 362.047 355.351 362.036 356.896C362.039 357.607 362.042 358.317 362.045 359.05C361.952 364.022 361.196 367.763 358.602 372.025C352.701 376.509 346.421 376.594 339.285 376.533C338.165 376.539 337.044 376.545 335.889 376.552C332.143 376.568 328.399 376.555 324.653 376.543C321.964 376.548 319.274 376.555 316.585 376.564C310.045 376.582 303.506 376.578 296.966 376.566C291.65 376.557 286.334 376.556 281.018 376.56C280.261 376.561 279.503 376.562 278.723 376.562C277.184 376.563 275.646 376.565 274.107 376.566C259.689 376.577 245.272 376.564 230.854 376.543C218.488 376.525 206.122 376.528 193.756 376.547C179.388 376.568 165.019 376.576 150.651 376.564C149.118 376.563 147.586 376.562 146.053 376.56C145.299 376.56 144.545 376.559 143.768 376.558C138.459 376.555 133.15 376.561 127.842 376.57C121.371 376.581 114.901 376.578 108.43 376.557C105.13 376.547 101.83 376.545 98.5301 376.556C94.9505 376.567 91.3719 376.553 87.7925 376.533C86.2321 376.546 86.2321 376.546 84.6401 376.56C78.4164 376.493 74.6845 375.692 69.6024 372.025C66.0829 367.934 66.1206 363.65 66.0985 358.47C66.0885 357.651 66.0786 356.831 66.0683 355.986C66.0531 354.257 66.046 352.527 66.0465 350.797C66.04 348.164 65.9855 345.536 65.9286 342.904C65.9198 341.218 65.9138 339.532 65.911 337.845C65.8895 337.066 65.8679 336.287 65.8457 335.484C65.9132 330.04 67.3914 327.291 71.1189 323.344C73.8 320.96 75.6869 320.899 79.1762 320.894Z" fill="#2D6132"/>
<path d="M358.602 370.025C360.619 373.731 361.95 377.656 363.325 381.631C363.586 382.379 363.848 383.126 364.117 383.897C364.677 385.501 365.237 387.106 365.795 388.711C367.262 392.928 368.737 397.143 370.212 401.357C370.504 402.194 370.797 403.031 371.099 403.893C373.497 410.744 375.942 417.576 378.415 424.4C381.472 432.848 384.46 441.317 387.4 449.806C390.186 457.849 393.015 465.876 395.852 473.9C399.811 485.094 403.752 496.294 407.681 507.498C408.014 508.448 408.014 508.448 408.354 509.418C410.383 515.203 412.411 520.989 414.438 526.775C415.711 530.41 416.985 534.044 418.259 537.677C418.637 538.76 419.016 539.842 419.406 540.957C421.473 546.849 423.583 552.72 425.782 558.565C428.711 567.351 428.194 575.546 424.602 584.025C420.185 591.574 413.551 598.029 405.376 601.322C395.566 603.809 386.005 603.031 377.223 597.908C371.016 593.449 367.004 588.709 364.345 581.506C363.919 580.359 363.493 579.213 363.055 578.032C362.57 576.697 362.086 575.361 361.602 574.025C361.329 573.275 361.055 572.524 360.773 571.751C358.879 566.555 357.007 561.352 355.146 556.144C354.174 553.425 353.196 550.707 352.218 547.99C350.313 542.68 348.446 537.357 346.602 532.025C346.29 531.127 345.978 530.229 345.656 529.303C344.754 526.687 343.876 524.065 343.005 521.439C342.731 520.649 342.457 519.859 342.175 519.045C340.414 513.613 340.414 513.613 341.374 510.622C341.779 510.095 342.185 509.568 342.602 509.025C343.016 508.377 343.43 507.728 343.856 507.06C344.728 505.746 345.603 504.433 346.481 503.123C348.559 499.236 348.727 495.236 348.714 490.895C348.713 489.884 348.713 488.874 348.713 487.832C348.707 486.734 348.702 485.637 348.697 484.505C348.694 482.092 348.691 479.679 348.689 477.265C348.684 475.35 348.684 475.35 348.679 473.395C348.673 469.399 348.676 465.403 348.685 461.406C348.687 460.731 348.688 460.056 348.69 459.36C348.693 457.98 348.696 456.6 348.699 455.219C348.72 445.92 348.734 436.621 348.702 427.322C348.681 421.042 348.684 414.762 348.716 408.482C348.731 405.161 348.731 401.84 348.708 398.519C348.684 394.817 348.703 391.117 348.732 387.416C348.714 386.316 348.697 385.216 348.679 384.083C348.798 376.851 348.798 376.851 351.149 374.437C353.567 372.994 355.754 372.025 358.602 372.025C358.602 371.365 358.602 370.705 358.602 370.025Z" fill="#40743F"/>
<path d="M68.6027 370.025C69.3452 370.644 70.0877 371.263 70.8527 371.9C73.1079 373.643 75.0593 374.819 77.6027 376.025C77.6051 376.641 77.6075 377.258 77.61 377.893C77.6692 392.909 77.7448 407.924 77.8384 422.94C77.8834 430.202 77.9228 437.463 77.9492 444.725C77.9722 451.057 78.0056 457.388 78.0514 463.72C78.0753 467.07 78.0925 470.42 78.1003 473.771C78.11 477.517 78.138 481.263 78.1704 485.01C78.1689 486.112 78.1675 487.215 78.166 488.351C78.2581 495.909 78.8488 502.374 84.4152 507.963C86.6027 511.025 86.6027 511.025 86.4743 512.998C86.2878 513.722 86.1013 514.447 85.9091 515.193C85.7056 515.99 85.5021 516.788 85.2924 517.61C84.2542 521.246 83.1169 524.832 81.8879 528.408C81.6273 529.177 81.3668 529.947 81.0984 530.739C80.2726 533.17 79.4389 535.598 78.6027 538.025C78.3335 538.808 78.0644 539.592 77.787 540.399C76.1633 545.115 74.5227 549.825 72.8706 554.532C72.0336 556.919 71.2019 559.308 70.3703 561.697C59.2758 593.431 59.2758 593.431 45.6027 600.025C37.6673 603.182 27.6778 603.715 19.6652 600.463C11.7792 596.245 4.81076 589.656 1.5168 581.256C-2.77778 566.078 2.94132 552.893 8.38346 538.824C10.8743 532.377 13.1655 525.865 15.4432 519.339C16.6917 515.768 17.9525 512.202 19.2118 508.635C19.4774 507.881 19.7431 507.128 20.0168 506.352C36.064 460.857 52.2865 415.425 68.6027 370.025Z" fill="#3F743F"/>
<path d="M264.981 237.814C268.411 240.376 270.262 243.004 271.603 247.025C272.935 259.908 269.378 271.454 261.528 281.724C250.008 295.488 236.428 302.898 218.665 305.775C217.313 305.887 215.958 305.966 214.603 306.025C213.529 306.088 212.455 306.152 211.349 306.217C193.657 306.789 176.448 301.77 163.165 289.65C153.627 280.528 145.44 269.908 144.29 256.338C144.384 250.745 146.296 245.502 150.134 241.381C156.562 235.914 162.435 236.545 170.603 237.025C172.923 237.485 175.236 237.987 177.54 238.525C197.461 242.901 219.832 240.695 239.548 236.381C248.159 234.505 257.057 233.169 264.981 237.814Z" fill="#6C1F24"/>
<path d="M179.802 126.275C187.773 131.62 192.934 139.905 195.603 149.025C195.998 151.791 196.048 154.503 196.036 157.295C196.042 158.056 196.047 158.818 196.052 159.603C196.059 161.204 196.057 162.805 196.049 164.405C196.04 166.822 196.069 169.236 196.101 171.652C196.159 184.409 194.12 194.112 185.603 204.025C184.984 204.871 184.365 205.717 183.728 206.588C180.462 208.797 177.288 207.725 173.603 207.025C170.72 206.304 167.884 205.449 165.04 204.588C153.274 201.184 141.689 199.872 129.431 199.564C126.603 199.025 126.603 199.025 125.03 197.259C120.063 189.485 120.128 180.515 120.212 171.576C120.228 169.528 120.212 167.483 120.193 165.435C120.171 152.518 122.799 140.889 131.915 131.275C145.312 118.723 163.982 117.284 179.802 126.275Z" fill="#FDFBF9"/>
<path d="M268.841 126.381C277.469 132.442 283.542 140.549 285.602 151.025C285.733 153.745 285.814 156.438 285.841 159.158C285.849 159.95 285.857 160.742 285.865 161.558C285.879 163.234 285.89 164.91 285.898 166.586C285.909 168.285 285.929 169.984 285.959 171.683C286.281 190.137 286.281 190.137 281.602 198.025C279.925 199.702 277.834 199.192 275.588 199.265C260.542 199.77 245.33 202.217 231.161 207.389C228.169 208.133 226.512 208.024 223.602 207.025C217.354 202.075 212.386 193.859 211.324 185.952C210.959 181.12 210.977 176.297 211.06 171.455C211.102 168.898 211.101 166.344 211.095 163.787C211.144 150.637 212.848 141.345 221.602 131.025C234.426 118.601 253.736 117.233 268.841 126.381Z" fill="#FDFCFA"/>
<path d="M220.654 732.238C230.005 732.191 239.483 732.155 248.834 732.134C253.178 732.123 257.522 732.109 261.865 732.086C266.07 732.064 270.274 732.052 274.478 732.047C276.069 732.043 277.661 732.036 279.252 732.025C309.861 731.822 309.861 731.822 318.747 740.289C326.604 746.525 326.88 751.525 326.101 760.991C325.636 766.646 323.331 769.088 319.252 772.746C314.454 776.093 311.532 776.858 305.503 776.893C304.786 776.899 304.063 776.826 303.325 776.833C300.959 776.852 298.594 776.856 296.228 776.858C294.578 776.864 292.927 776.871 291.277 776.878C287.816 776.89 284.356 776.894 280.895 776.893C276.476 776.892 272.057 776.92 267.638 776.955C264.227 776.977 260.817 776.981 257.407 776.98C255.778 776.982 254.15 776.991 252.522 777.007C242.886 777.091 234.649 777.507 227.606 770.552C227.004 769.958 226.517 769.26 225.957 768.594C225.117 767.633 225.117 767.633 224.26 766.652C220.58 761.525 220.58 758.025 220.682 752.525C220.688 751.364 220.596 749.769 220.603 748.572C220.62 747.375 220.637 746.177 220.654 744.944C220.663 743.723 220.672 742.502 220.682 741.245C220.78 738.276 220.654 735.373 220.654 732.238Z" fill="#585957"/>
<path d="M148.641 732.525C150.292 732.527 151.942 732.529 153.593 732.53C157.895 732.533 162.197 732.543 166.5 732.554C170.907 732.565 175.314 732.569 179.721 732.574C188.337 732.585 197.486 732.504 206.102 732.525C206.102 736.527 206.079 741.126 206.079 745.128C206.114 746.293 206.044 747.429 206.079 748.629C206.175 756.96 206.589 764.135 199.491 769.977C198.827 770.505 198.164 771.032 197.48 771.576C196.819 772.121 196.159 772.667 195.478 773.229C190.667 776.404 186.592 776.895 180.84 776.915C180.113 776.92 179.387 776.925 178.638 776.93C176.247 776.944 173.856 776.943 171.464 776.941C169.795 776.945 168.126 776.949 166.457 776.954C162.963 776.961 159.469 776.961 155.974 776.956C151.504 776.95 147.035 776.967 142.565 776.99C139.12 777.005 135.674 777.006 132.228 777.003C130.581 777.003 128.933 777.009 127.285 777.019C124.978 777.031 122.671 777.024 120.364 777.013C118.398 777.014 118.398 777.014 116.392 777.015C110.836 776.431 106.853 774.38 103.337 770.138C102.836 769.55 102.336 768.962 101.82 768.356C98.3724 763.505 98.9856 757.257 99.5789 751.63C102.025 743.387 108.25 738.43 115.891 734.526C124.557 730.525 137.811 732.525 148.641 732.525Z" fill="#595957"/>
<path d="M416.603 535.025C418.461 537.812 419.423 540.038 420.513 543.174C420.863 544.179 421.213 545.185 421.573 546.221C421.934 547.27 422.294 548.319 422.665 549.4C423.029 550.442 423.393 551.483 423.769 552.556C427.598 563.626 429.308 572.916 424.602 584.025C420.185 591.574 413.551 598.029 405.376 601.322C395.566 603.809 386.005 603.031 377.223 597.908C368.384 591.558 364.969 584.142 361.602 574.025C361.163 572.708 360.723 571.39 360.283 570.073C359.841 568.747 359.4 567.421 358.958 566.096C358.73 565.411 358.502 564.727 358.267 564.022C357.712 562.356 357.157 560.691 356.603 559.025C371.461 553.523 386.33 548.057 401.29 542.838C402.387 542.452 403.484 542.066 404.614 541.668C405.625 541.318 406.635 540.968 407.677 540.607C408.559 540.3 409.442 539.993 410.351 539.677C412.603 539.025 412.603 539.025 415.603 539.025C415.933 537.705 416.263 536.385 416.603 535.025Z" fill="#B46E52"/>
<path d="M9.67033 536.025C10.3893 536.478 11.1083 536.931 11.8491 537.397C14.5864 538.957 17.158 540.038 20.1292 541.078C21.1877 541.452 22.2461 541.826 23.3367 542.211C24.4688 542.604 25.6008 542.998 26.7672 543.404C27.9376 543.817 29.108 544.23 30.314 544.655C34.0473 545.971 37.7831 547.28 41.5194 548.588C45.2629 549.899 49.0055 551.213 52.7464 552.531C55.0729 553.351 57.4008 554.167 59.7302 554.979C60.7823 555.349 61.8345 555.72 62.9185 556.102C63.8448 556.426 64.7711 556.75 65.7255 557.084C68.0813 558.025 68.0813 558.025 71.1025 560.025C69.8817 563.698 68.6373 567.362 67.3889 571.025C67.0468 572.055 66.7048 573.085 66.3523 574.146C63.5496 585.525 59.5213 594.525 47.7271 599.349C39.7926 603.079 30.5606 603.44 22.0779 601.365C14.0045 598.161 6.74753 591.633 2.62073 584.025C-4.01327 567.356 3.28998 551.555 9.67033 536.025Z" fill="#B46E51"/>
<path d="M260.603 282.025C249.593 295.656 236.112 303.006 218.665 305.775C217.313 305.887 215.958 305.966 214.603 306.025C213.529 306.088 212.455 306.152 211.349 306.217C201.474 306.536 193.02 304.797 183.603 302.025C187.228 291.338 191.509 284.624 201.603 279.025C221.842 269.928 241.307 271.172 260.603 282.025Z" fill="#A73033"/>
<path d="M166.603 147.025C171.864 146.71 175.157 147.126 179.603 150.025C186.027 156.519 185.817 161.406 185.843 170.237C185.852 172.254 185.883 174.27 185.915 176.287C185.923 178.207 185.923 178.207 185.931 180.166C185.94 181.337 185.949 182.508 185.959 183.714C185.49 188.071 184.072 191.451 181.067 194.67C175.645 198.816 172.379 199.814 165.603 199.025C160.28 197.213 157.291 193.886 154.603 189.025C153.563 185.907 153.488 183.751 153.505 180.482C153.508 179.409 153.511 178.336 153.515 177.231C153.523 176.111 153.531 174.991 153.54 173.838C153.545 172.707 153.549 171.576 153.554 170.41C153.566 167.615 153.582 164.82 153.603 162.025C154.229 161.899 154.856 161.773 155.501 161.643C156.727 161.386 156.727 161.386 157.978 161.123C159.196 160.872 159.196 160.872 160.438 160.616C162.716 160.144 162.716 160.144 164.603 158.463C166.122 154.758 166.356 150.998 166.603 147.025Z" fill="#3C3C39"/>
<path d="M237.602 147.025C242.876 146.655 246.321 146.932 250.962 149.467C255.76 154.025 256.855 158.088 257.134 164.552C257.144 167.023 257.133 169.493 257.102 171.963C257.118 173.199 257.133 174.436 257.149 175.711C257.118 182.931 256.612 187.948 252.602 194.025C247.404 198.162 243.244 199.678 236.602 199.025C231.06 196.813 227.905 193.863 225.376 188.486C223.839 183.6 224.195 178.594 224.352 173.525C224.37 172.417 224.388 171.308 224.407 170.166C224.454 167.451 224.519 164.739 224.602 162.025C225.872 161.727 227.142 161.43 228.45 161.123C232.277 160.225 234.395 159.468 236.602 156.025C237.208 153.03 237.472 150.075 237.602 147.025Z" fill="#3D3D3B"/>
<path d="M260.603 321.025C270.503 321.025 280.403 321.025 290.603 321.025C290.603 334.555 290.603 348.085 290.603 362.025C280.703 362.025 270.803 362.025 260.603 362.025C260.603 348.495 260.603 334.965 260.603 321.025Z" fill="#488246"/>
<path d="M302.603 321.025C312.173 321.025 321.743 321.025 331.603 321.025C331.603 334.555 331.603 348.085 331.603 362.025C322.033 362.025 312.463 362.025 302.603 362.025C302.603 348.495 302.603 334.965 302.603 321.025Z" fill="#488347"/>
<path d="M219.603 321.025C229.173 321.025 238.743 321.025 248.603 321.025C248.603 334.555 248.603 348.085 248.603 362.025C239.033 362.025 229.463 362.025 219.603 362.025C219.603 348.495 219.603 334.965 219.603 321.025Z" fill="#498448"/>
<path d="M93.6025 321.025C103.173 321.025 112.743 321.025 122.603 321.025C122.603 334.555 122.603 348.085 122.603 362.025C113.033 362.025 103.463 362.025 93.6025 362.025C93.6025 348.495 93.6025 334.965 93.6025 321.025Z" fill="#488348"/>
<path d="M177.603 321.025C187.173 321.025 196.743 321.025 206.603 321.025C206.603 334.555 206.603 348.085 206.603 362.025C197.033 362.025 187.463 362.025 177.603 362.025C177.603 348.495 177.603 334.965 177.603 321.025Z" fill="#488347"/>
<path d="M135.603 321.025C145.173 321.025 154.743 321.025 164.603 321.025C164.603 334.555 164.603 348.085 164.603 362.025C155.033 362.025 145.463 362.025 135.603 362.025C135.603 348.495 135.603 334.965 135.603 321.025Z" fill="#498346"/>
<path d="M201.603 195.025C203.915 195.15 203.915 195.15 206.603 196.025C207.015 196.891 207.428 197.758 207.853 198.65C210.031 202.851 212.748 204.7 216.544 207.412C218.603 209.025 218.603 209.025 220.603 212.025C221.175 219.894 221.175 219.894 218.603 223.025C213.278 225.786 209.054 226.496 203.103 226.4C202.022 226.418 202.022 226.418 200.919 226.435C195.027 226.403 189.92 225.343 185.603 221.025C185.075 217.129 184.728 214.524 186.736 211.084C189.172 208.131 191.487 206.099 194.728 204.025C198.43 201.45 199.603 199.025 201.603 195.025Z" fill="#9F5839"/>
<path d="M344.603 321.025C354.003 321.025 354.002 321.025 357.602 324.025C361.421 328.72 362.159 332.379 361.993 338.267C361.988 339.036 361.982 339.804 361.976 340.596C361.954 343.031 361.904 345.465 361.853 347.9C361.832 349.559 361.814 351.218 361.798 352.877C361.754 356.927 361.685 360.976 361.603 365.025C361.273 364.035 360.943 363.045 360.603 362.025C355.323 362.025 350.043 362.025 344.603 362.025C344.603 348.495 344.603 334.965 344.603 321.025Z" fill="#4D854C"/>
<path d="M81.6027 321.025C81.6027 334.555 81.6027 348.085 81.6027 362.025C76.6527 362.025 71.7027 362.025 66.6027 362.025C66.4643 357.451 66.3451 352.885 66.2731 348.31C66.2431 346.757 66.2022 345.205 66.1501 343.652C65.673 329.082 65.673 329.082 69.5012 324.529C74.524 320.474 74.2337 321.025 81.6027 321.025Z" fill="#498247"/>
<path d="M153.603 162.025C156.243 162.025 158.883 162.025 161.603 162.025C160.943 162.685 160.283 163.345 159.603 164.025C158.283 164.025 156.963 164.025 155.603 164.025C155.603 171.615 155.603 179.205 155.603 187.025C154.943 186.695 154.283 186.365 153.603 186.025C153.603 178.105 153.603 170.185 153.603 162.025Z" fill="#444443"/>
</svg>
