<svg width="183" height="457" viewBox="0 0 183 457" fill="none" xmlns="http://www.w3.org/2000/svg">
<path d="M26.398 410.259C24.118 407.509 24.118 407.509 35.178 287.509C43.348 198.829 45.968 166.999 45.188 165.559C42.608 160.789 41.258 166.139 34.118 209.559C30.188 233.389 26.388 253.709 25.658 254.699C22.978 258.369 1.87804 255.779 0.0980405 251.559C-1.18196 248.549 10.408 166.269 15.238 144.009C21.008 117.429 27.908 108.869 50.378 100.439C64.528 95.129 66.778 95.089 77.318 99.949C86.818 104.329 96.778 104.319 106.128 99.929C116.238 95.179 117.658 95.189 131.378 100.019C161.928 110.779 164.698 116.759 176.638 197.909C183.868 246.999 184.298 252.339 181.118 254.039C177.388 256.039 159.488 256.739 157.698 254.959C156.638 253.899 153.998 240.229 149.098 210.469C145.208 186.839 141.418 166.609 140.668 165.509C136.248 159.009 136.528 163.799 147.558 284.109C159.818 417.679 159.168 408.469 156.488 411.149C153.328 414.299 138.738 417.899 122.478 419.519C114.338 420.339 99.918 421.009 90.428 421.009C79.298 421.009 67.598 420.309 57.428 419.049C38.728 416.719 29.618 414.139 26.398 410.259Z" fill="#3EBBFF"/>
<path d="M61.4279 42.759C80.6779 24.649 124.988 31.239 125.138 52.219C125.248 66.179 116.508 81.269 105.068 86.879C101.428 88.669 96.4179 90.239 93.4279 90.519C89.9579 90.839 86.4579 90.429 83.0979 89.309C64.4279 83.049 50.4679 53.059 61.4279 42.759Z" fill="#3EBBFF"/>
<path d="M124.907 26.949L125.447 32.889C98.9273 20.049 82.5373 20.219 65.5473 29.019C61.2973 31.209 57.6773 33.009 57.4973 33.009C57.3273 33.009 57.4273 30.869 57.7373 28.259C62.0673 -8.61098 121.577 -9.77098 124.907 26.949Z" fill="#3EBBFF"/>
<path d="M44.1777 435.539C44.1777 426.919 44.1777 426.919 47.4777 427.539C49.2877 427.879 56.1077 428.689 62.6277 429.329C74.4777 430.509 74.4777 430.509 74.2677 439.069C74.0477 448.469 72.6777 451.719 67.5377 455.109C65.6577 456.349 62.8877 456.999 59.4277 456.999C55.4177 457.009 53.3577 456.419 50.7077 454.519C45.9377 451.089 44.1777 445.989 44.1777 435.539Z" fill="#3EBBFF"/>
<path d="M109.178 438.309C109.178 430.509 109.178 430.509 123.928 428.869C132.038 427.969 138.788 427.189 138.928 427.119C139.068 427.059 139.178 431.449 139.178 436.869C139.178 447.939 137.308 452.339 131.298 455.449C129.638 456.309 126.228 457.009 123.728 457.009C120.478 457.009 118.188 456.299 115.708 454.519C110.588 450.839 109.178 447.339 109.178 438.309Z" fill="#3EBBFF"/>
<path d="M4.17773 269.779C4.17773 264.459 4.17773 264.459 14.1777 265.339C24.1777 266.219 24.1777 266.219 24.1677 273.869C24.1677 278.549 23.6077 282.579 22.7277 284.259C21.5777 286.479 20.6077 287.009 17.7377 287.009C15.1577 287.009 13.1977 286.139 10.6077 283.829C5.74773 279.499 4.17773 276.069 4.17773 269.779Z" fill="#3EBBFF"/>
<path d="M159.178 274.399C159.178 265.679 160.318 265.009 175.328 265.009C182.478 265.009 179.768 278.899 171.448 284.819C169.758 286.019 166.978 287.009 165.278 287.009C163.178 287.009 161.698 286.289 160.678 284.759C159.668 283.229 159.188 279.919 159.178 274.399Z" fill="#3EBBFF"/>
</svg>
