<svg width="396" height="370" viewBox="0 0 396 370" fill="none" xmlns="http://www.w3.org/2000/svg">
<path d="M83.6102 321.717C47.9702 325.317 37.9802 318.797 36.2902 290.797C35.5602 278.737 35.4402 278.277 31.3902 271.157C27.2402 263.857 27.2402 263.857 27.2302 252.657C27.2202 237.687 26.8302 237.047 15.0602 232.467C-4.62982 224.817 -4.74982 222.067 13.1602 190.427C29.6002 161.387 28.8702 163.787 26.5802 146.447C24.7402 132.447 24.7402 132.447 27.4102 118.257C38.9902 56.8074 78.4402 19.9574 140.81 12.3674C165.87 9.31744 205.42 13.2874 214.13 19.7174C217.6 22.2874 213.12 26.0674 194.74 36.0974C158.69 55.7674 148.24 63.9074 140.96 77.9474C131.7 95.8474 134.67 107.407 155.42 134.137C172.88 156.627 173.35 157.517 185.75 191.477C201.59 234.817 209.54 247.647 223.06 251.677C233.27 254.717 238.01 253.087 254.24 240.997C273.59 226.567 274.4 227.037 264.62 246.977C254.08 268.487 252.77 288.677 259.89 320.157C262.81 333.087 263.2 336.047 262.09 336.827C261.35 337.357 229.53 345.017 191.38 353.867C153.23 362.707 121.39 369.947 120.63 369.947C119.6 369.947 118.49 365.207 116.34 351.697C111.26 319.727 110.46 318.997 83.6102 321.717Z" fill="#3EBBFF"/>
<path d="M270.25 215.997C240.59 206.177 238.98 205.127 224.47 185.877C218.84 178.417 214.24 171.337 214.24 170.157C214.24 165.267 223.31 164.357 228.46 168.737C245.03 182.827 251.64 186.347 257.37 184.157C266.15 180.807 262.12 171.677 235.94 135.547C224.37 119.587 214.45 105.057 213.88 103.247C211.37 95.2475 217.52 89.2775 223.94 93.4875C225.45 94.4775 235.59 105.897 246.47 118.867C261.09 136.297 266.91 142.537 268.75 142.797C274.08 143.537 271.16 138.747 248.59 109.707C236.13 93.6775 225.49 79.1275 224.95 77.3675C222.58 69.6375 230.74 63.9775 237.28 68.8175C238.88 70.0075 248.6 82.6675 258.87 96.9675C277.46 122.837 280.8 126.417 282.64 122.387C283.38 120.777 280.82 116.177 268.74 97.4275C250.17 68.5975 250.45 69.1475 253.11 65.8575C254.77 63.8075 255.4 63.6575 258.86 64.4975C262.57 65.4075 263.51 66.6075 280.57 92.4475C294.73 113.907 298.89 119.527 300.82 119.817C305.24 120.477 303.66 115.647 293.17 96.4375C283.13 78.0475 282.05 74.7775 285.38 72.7875C288.91 70.6675 292.96 75.2875 314.56 106.027C340.8 143.377 341.99 145.727 347.07 170.027C351.78 192.577 353.14 195.367 371.35 219.617C378.44 229.067 384.24 237.337 384.24 237.987C384.24 239.227 377.79 243.937 351.74 261.767C343.49 267.417 336.4 272.017 335.99 271.987C335.58 271.967 328.93 263.117 321.22 252.337C302.99 226.847 302.95 226.817 270.25 215.997Z" fill="#3EBBFF"/>
<path d="M195.91 185.427C185.28 155.447 182.29 149.817 165.59 128.397C136.86 91.5674 141.56 78.0274 192.55 50.5974C208.44 42.0574 215.73 37.3474 231.9 25.1774C260.12 3.9274 270.93 0.067399 284.68 6.3474C291.55 9.4774 294.6 14.0574 301.65 31.8074C309.58 51.7474 317.74 64.5074 341.55 94.1474C369.84 129.377 372.65 137.267 361.15 149.137C356.97 153.447 356.97 153.447 352.43 143.447C349.02 135.957 342.13 125.207 324.92 100.577C296.73 60.2174 294.32 58.0174 281.6 60.9874C276.21 62.2474 276.21 62.2474 272.32 58.5874C264.78 51.4974 255.65 49.9574 247.3 54.3874C242.95 56.6874 242.34 56.7574 236.11 55.6474C223.44 53.3974 214.1 60.8274 212.61 74.3774C212.01 79.7174 211.45 80.9274 207.92 84.4474C202.39 89.9674 200.33 96.7074 201.89 104.187C202.87 108.917 205.49 113.117 220.3 133.817C229.8 147.087 237.33 158.187 237.04 158.487C236.74 158.777 234.16 157.877 231.3 156.487C220.51 151.217 208.56 154.327 203.62 163.687C199.59 171.327 200.43 173.677 213.2 190.427C226.89 208.377 233.8 214.637 246.24 220.327L255.74 224.667C246.44 232.887 241.33 236.557 238.39 238.117C235.15 239.827 231.49 240.947 229.14 240.947C225.76 240.947 224.52 240.227 219.79 235.537C212.6 228.377 206.9 216.417 195.91 185.427Z" fill="#3EBBFF"/>
<path d="M389.26 114.658C384.97 65.9075 358.7 27.1175 317.3 8.42752C309.5 4.90752 307.24 3.43752 307.24 1.91752C307.24 -1.44248 312.2 -0.452481 324.79 5.40752C367.96 25.5075 396.37 71.6275 395.02 119.438C394.78 128.078 394.5 129.478 392.99 129.698C392.03 129.838 391.05 129.388 390.81 128.698C390.58 128.008 389.88 121.698 389.26 114.658Z" fill="#3EBBFF"/>
<path d="M326.25 37.4576C317.83 31.4276 317.4 30.8876 319.62 29.0476C321.77 27.2576 332.87 33.5776 342.35 41.9876C357.36 55.2976 370 78.7376 371.87 96.6976C372.49 102.618 372.41 102.948 370.38 102.948C368.84 102.948 367.96 102.038 367.24 99.6976C357.82 68.9976 346.67 52.0676 326.25 37.4576Z" fill="#3EBBFF"/>
</svg>
