<svg width="156" height="243" viewBox="0 0 156 243" fill="none" xmlns="http://www.w3.org/2000/svg">
<path d="M103.112 130.846C107.46 126.137 107.64 108.507 103.405 102.207C98.5926 95.0163 90.7011 95.2626 82.1937 102.87C75.0032 109.284 34.5695 108.441 27.5211 101.724C21.5621 96.0489 18.2558 95.7174 13.8032 100.369C10.0421 104.301 6.46107 105.371 2.98423 103.599C0.378966 102.283 0.378966 102.283 0.0947556 78.7689C-0.22735 52.1858 -0.00945377 50.9921 5.3716 50.0826C8.56423 49.5426 9.3316 49.8647 13.3484 53.4553C21.079 60.3805 25.1716 58.4479 27.8148 46.6153C30.0505 36.63 32.059 34.6974 40.2158 34.6974C46.3263 34.6974 46.3263 34.6974 46.3263 28.89C46.3263 17.5974 43.1526 16.3468 24.0063 20.0984C11.4916 22.5521 11.4916 22.5521 8.00528 20.5911C0.265281 16.2521 0.322124 6.28579 8.10002 2.07947C11.4916 0.241579 11.4916 0.241578 26.1095 3.01737C40.7274 5.79316 40.7274 5.79316 48.3063 2.48684C55.8758 -0.828947 55.8758 -0.828947 63.0853 2.48684C70.2948 5.80263 70.2948 5.80263 85.0737 3.02684C99.8526 0.251052 99.8526 0.251053 103.301 2.20263C110.558 6.30474 110.52 15.9489 103.225 20.43C99.4548 22.7321 99.4548 22.7321 86.22 19.9563C70.7779 16.7163 67.4242 17.2847 65.179 23.5184C62.7537 30.2542 65.0084 34.0153 71.8863 34.6974C79.7211 35.4837 81.4737 37.2458 84.0884 47.0321C86.6179 56.4963 87.5748 57.4342 94.6137 57.4342C122.4 57.4342 143.024 81.27 142.901 113.244C142.854 127.066 142.854 127.066 145.847 130.192C151.02 135.573 151.304 141.077 146.558 144.128C144.805 145.255 140.4 145.53 124.247 145.539C104.116 145.539 104.116 145.539 101.615 142.205C98.5737 138.159 98.9432 135.355 103.112 130.846Z" fill="#3EBBFF"/>
<path d="M52.4843 233.522C34.9674 227.904 34.1432 227.733 21.6948 227.259C5.18216 226.625 5.58952 226.985 5.58952 212.964C5.58952 198.952 5.58005 198.971 19.3548 198.412C29.2074 198.014 30.4106 197.73 40.3769 193.552C54.6822 187.555 57.2306 187.584 73.3264 193.988C85.0643 198.658 86.1822 198.914 97.1811 199.511C110.416 200.231 113.59 201.728 113.59 207.232C113.59 213.39 109.743 214.641 92.7095 214.034C76.7748 213.466 73.3074 214.148 75.3537 217.483C76.2348 218.923 78.5179 219.254 91.44 219.832C110.795 220.704 114.878 219.519 118.866 211.836C121.453 206.872 137.918 197.304 147.354 195.286C151.683 194.357 155.492 197.503 155.094 201.69C154.743 205.337 110.861 235.435 99.4737 239.831C95.1537 241.498 91.5632 242.171 86.9211 242.171C83.3495 242.171 78.1958 241.527 75.4579 240.731C72.7201 239.945 62.3843 236.695 52.4843 233.522Z" fill="#3EBBFF"/>
<path d="M118.952 163.701C124.532 155.278 124.882 155.288 130.585 164.023C137.586 174.737 137.586 180.962 130.595 185.357C128.965 186.381 126.18 187.224 124.399 187.224C122.618 187.224 120.183 186.475 118.98 185.566C112.036 180.308 112.026 174.159 118.952 163.701Z" fill="#3EBBFF"/>
</svg>
