<svg width="392" height="618" viewBox="0 0 392 618" fill="none" xmlns="http://www.w3.org/2000/svg">
<path d="M58.5586 259.817C148.979 259.817 239.399 259.817 332.559 259.817C332.559 362.117 332.559 464.417 332.559 569.817C341.469 569.817 350.379 569.817 359.559 569.817C364.559 573.817 364.559 573.817 366.559 577.817C366.559 591.017 366.559 604.217 366.559 617.817C254.029 617.817 141.499 617.817 25.5586 617.817C25.5586 575.817 25.5586 575.817 31.5586 569.817C40.4686 569.817 49.3786 569.817 58.5586 569.817C58.5586 467.517 58.5586 365.217 58.5586 259.817Z" fill="#3EBBFF"/>
<path d="M12.0945 187.188C13.0632 187.177 13.0632 187.177 14.0516 187.166C16.2192 187.147 18.3849 187.165 20.5525 187.182C22.1207 187.176 23.6889 187.168 25.257 187.158C29.5689 187.137 33.8801 187.148 38.192 187.163C42.841 187.174 47.4899 187.157 52.1389 187.143C61.2474 187.121 70.3556 187.126 79.464 187.14C86.8652 187.152 94.2663 187.153 101.667 187.148C103.246 187.147 103.246 187.147 104.857 187.145C106.995 187.144 109.133 187.142 111.271 187.141C131.329 187.126 151.388 187.143 171.446 187.17C188.665 187.192 205.884 187.188 223.103 187.165C243.088 187.138 263.073 187.128 283.059 187.143C285.189 187.145 287.32 187.146 289.45 187.148C290.498 187.148 291.546 187.149 292.626 187.15C300.02 187.154 307.414 187.147 314.808 187.135C323.817 187.121 332.825 187.125 341.833 187.152C346.431 187.165 351.029 187.17 355.627 187.153C359.834 187.139 364.04 187.147 368.247 187.173C369.771 187.179 371.296 187.176 372.82 187.164C374.888 187.149 376.954 187.164 379.023 187.188C380.172 187.188 381.322 187.189 382.507 187.19C386.498 188.01 388.007 189.718 390.559 192.817C392.657 199.683 389.03 207.81 386.902 214.286C386.522 215.479 386.141 216.672 385.749 217.901C384.736 221.071 383.711 224.236 382.681 227.401C381.665 230.53 380.663 233.664 379.66 236.797C378.473 240.503 377.282 244.208 376.076 247.908C374.107 253.95 372.191 259.999 370.391 266.094C370.044 267.243 369.698 268.393 369.341 269.577C368.692 271.738 368.059 273.905 367.447 276.077C366.143 280.37 365.131 283.214 362.01 286.498C358.559 287.817 358.559 287.817 347.559 287.817C347.559 273.627 347.559 259.437 347.559 244.817C247.569 244.817 147.579 244.817 44.5586 244.817C44.5586 259.007 44.5586 273.197 44.5586 287.817C32.5586 287.817 32.5586 287.817 27.5586 284.817C25.254 280.325 23.7579 275.603 22.2302 270.799C22.0184 270.136 21.8066 269.474 21.5884 268.791C20.8967 266.623 20.21 264.455 19.5234 262.286C19.0395 260.765 18.5554 259.245 18.0709 257.725C17.0594 254.548 16.0502 251.371 15.0427 248.193C13.7558 244.134 12.465 240.076 11.1728 236.018C9.9341 232.129 8.69746 228.238 7.46094 224.348C7.22721 223.613 6.99348 222.878 6.75267 222.121C6.08654 220.026 5.42183 217.93 4.75757 215.834C4.38023 214.645 4.00289 213.456 3.61412 212.231C0.24956 201.348 0.24956 201.348 0.121094 197.192C0.0811328 196.478 0.0411719 195.764 0 195.028C1.56081 188.85 6.30754 187.192 12.0945 187.188Z" fill="#3EBBFF"/>
<path d="M247.621 115.379C248.945 116.512 250.258 117.658 251.559 118.817C252.217 119.335 252.876 119.853 253.555 120.387C263.517 128.427 269.905 139.033 274.559 150.817C274.899 151.67 275.239 152.524 275.59 153.403C278.135 160.685 277.559 165.447 277.559 173.817C223.439 173.817 169.319 173.817 113.559 173.817C113.559 154.049 120.236 137.434 134.067 123.273C163.527 94.5077 214.461 90.0818 247.621 115.379Z" fill="#3EBBFF"/>
<path d="M220.871 8.0668C230.215 15.1534 237.496 24.9761 239.558 36.8168C240.393 51.3059 237.911 62.8246 228.371 74.0668C220.835 82.0272 211.032 87.5602 199.945 88.2856C198.379 88.3196 196.812 88.3295 195.246 88.3168C194.419 88.3111 193.591 88.3054 192.739 88.2995C180.535 87.9461 170.96 82.5287 162.625 73.7895C153.914 63.4297 150.575 51.1706 151.558 37.8168C153.594 26.4119 160.537 14.9607 169.91 8.09415C172.406 6.52141 174.919 5.13432 177.558 3.8168C178.57 3.3044 178.57 3.3044 179.601 2.78165C192.878 -2.73948 209.252 0.442813 220.871 8.0668Z" fill="#3EBBFF"/>
<path d="M292.594 69.1059C300.962 71.1125 308.579 79.056 313.559 85.8168C313.837 86.8094 314.116 87.802 314.402 88.8246C316.112 93.2486 319.247 95.0461 323.059 97.6918C324.509 98.7375 325.958 99.7844 327.406 100.832C328.114 101.338 328.822 101.844 329.551 102.366C332.259 104.323 334.881 106.362 337.496 108.442C338.654 109.358 338.654 109.358 339.836 110.293C341.559 111.817 341.559 111.817 342.559 113.817C342.65 115.727 342.676 117.64 342.672 119.552C342.672 121.353 342.672 121.353 342.672 123.191C342.667 124.493 342.662 125.796 342.656 127.137C342.654 128.479 342.653 129.822 342.652 131.164C342.648 134.699 342.638 138.233 342.627 141.768C342.617 145.374 342.613 148.98 342.607 152.586C342.597 159.663 342.579 166.74 342.559 173.817C337.939 173.817 333.319 173.817 328.559 173.817C328.559 155.667 328.559 137.517 328.559 118.817C327.239 118.157 325.919 117.497 324.559 116.817C323.125 115.773 321.717 114.696 320.328 113.594C319.524 112.973 318.721 112.353 317.893 111.713C316.222 110.415 314.56 109.105 312.908 107.784C308.028 104.052 304.838 102.368 298.713 102.122C294.671 101.55 291.817 99.0358 288.684 96.5668C288.034 96.0886 287.384 95.6103 286.715 95.1176C283.139 92.4027 280.452 89.9935 278.559 85.8168C278.011 80.8877 278.016 78.8276 280.371 74.4418C284.078 69.9931 287.007 69.0238 292.594 69.1059Z" fill="#3EBBFF"/>
</svg>
