<svg width="376" height="190" viewBox="0 0 376 190" fill="none" xmlns="http://www.w3.org/2000/svg">
<path d="M64.2567 173.994L40.7867 172.794C39.4067 113.824 39.4967 110.234 40.8967 109.114C42.1867 108.084 47.0667 108.884 68.2667 113.604C96.5767 119.904 99.1067 120.234 98.2567 117.544C97.9567 116.584 94.4967 106.114 90.5867 94.2837C78.2367 56.9637 77.6567 42.0737 87.8767 24.3137C106.917 -8.75635 149.647 -8.09635 217.567 26.3237C285.187 60.5937 311.047 97.2537 283.757 120.174C271.887 130.144 255.337 133.174 233.087 129.454C214.017 126.264 213.627 127.654 228.007 147.674C233.867 155.834 238.497 163.124 238.287 163.874C237.737 165.804 218.147 180.294 216.077 180.294C211.967 180.294 177.297 127.524 175.447 118.434C172.557 104.254 177.057 101.314 210.077 95.8537C232.487 92.1537 234.567 91.4837 234.567 88.0637C234.567 83.8237 230.557 83.8337 205.567 88.1237C182.507 92.0837 181.937 92.2337 175.117 96.4737L168.167 100.794C159.557 75.9537 158.117 73.7637 154.677 74.5737C151.557 75.3137 151.927 78.0637 157.617 96.4637C173.137 146.694 171.437 169.784 151.567 178.614C147.137 180.574 142.917 181.624 138.317 181.894C133.697 182.164 124.657 181.174 109.657 178.744C93.2467 176.084 81.8267 174.884 64.2567 173.994Z" fill="#3EBBFF"/>
<path d="M293.447 122.314C296.537 118.494 300.527 113.324 302.307 110.824C305.737 106.004 310.357 104.044 321.677 102.624C326.297 102.044 326.297 102.044 332.017 137.784C335.167 157.444 337.517 174.374 337.247 175.404C336.867 176.864 335.827 177.294 332.657 177.294C330.407 177.294 324.857 176.584 320.317 175.704C284.317 168.774 273.397 147.084 293.447 122.314Z" fill="#3EBBFF"/>
<path d="M335.146 100.384C335.456 100.064 338.636 99.8937 342.216 99.9937C379.276 101.024 388.736 158.884 354.106 172.744C350.596 174.144 347.466 175.294 347.146 175.294C346.826 175.294 346.326 174.054 346.026 172.544C343.776 161.034 334.696 100.834 335.146 100.384Z" fill="#3EBBFF"/>
<path d="M1.56653 148.794C2.65653 144.394 4.01653 135.844 4.59653 129.794C6.40653 110.764 10.3365 106.974 23.7265 111.374C31.0665 113.794 31.0665 113.794 31.3465 127.094C31.6265 140.384 31.6265 140.384 26.7065 146.094C16.1765 158.284 13.9365 164.144 16.7865 172.014C17.7365 174.654 17.7365 175.794 16.7765 177.334C16.0865 178.424 14.4465 179.294 13.0565 179.294C11.6865 179.294 9.16653 178.334 7.45653 177.164C0.266528 172.224 -1.78347 162.354 1.56653 148.794Z" fill="#3EBBFF"/>
<path d="M237.056 176.304C247.546 168.734 250.646 168.644 269.316 175.384C283.146 180.374 285.717 182.844 281.257 186.804C278.477 189.274 278.287 189.294 259.507 189.294C249.087 189.294 239.166 188.844 237.466 188.284C227.756 185.134 227.676 183.074 237.056 176.304Z" fill="#3EBBFF"/>
</svg>
