<svg width="232" height="434" viewBox="0 0 232 434" fill="none" xmlns="http://www.w3.org/2000/svg">
<path d="M3.45507 380.981C-0.944933 377.911 -0.974932 376.731 2.41507 341.451C4.19507 322.871 6.54507 287.641 8.00507 257.451C11.9351 176.221 15.7151 159.471 38.3851 122.631C64.2351 80.6312 91.0051 58.9712 123.335 53.8912C136.885 51.7612 136.385 51.3912 144.195 69.6312C154.425 93.5412 154.305 95.9212 140.415 142.451C129.975 177.451 129.975 177.451 129.465 204.591C129.065 226.621 128.695 231.891 127.545 232.551C125.435 233.761 99.8951 229.131 97.5251 227.121C95.8051 225.661 95.1351 221.621 92.2651 195.551C88.9651 165.651 88.9651 165.651 93.9551 138.051C96.6951 122.871 99.0451 110.221 99.1751 109.941C99.6551 108.901 97.5151 105.191 96.0651 104.551C91.3351 102.461 88.9351 110.091 82.3851 148.041C79.3251 165.751 79.3251 165.751 82.9351 198.101C84.9151 215.891 87.1951 232.201 87.9951 234.341C89.0651 237.161 89.4651 242.601 89.4651 254.161C89.4651 276.651 92.6151 282.081 104.835 280.641C111.305 279.881 110.075 274.911 118.505 335.951C126.045 390.461 126.235 393.751 121.995 396.521C120.095 397.761 116.705 398.351 109.915 398.601C104.715 398.791 93.3751 398.471 84.7151 397.891C54.2051 395.831 12.2051 387.101 3.45507 380.981Z" fill="#3EBBFF"/>
<path d="M167.145 84.3711C165.225 82.0511 163.455 80.9412 161.645 80.9312C157.155 80.8912 144.515 49.5911 147.635 46.2611C148.815 45.0111 151.615 39.1711 153.875 33.2911C156.125 27.4011 158.465 22.4211 159.075 22.2311C160.775 21.6911 223.465 60.6711 223.465 62.2711C223.465 67.4411 203.955 85.4211 194.035 89.3811C190.095 90.9611 185.665 91.9511 182.545 91.9511C179.275 91.9511 176.125 91.2111 173.715 89.8711C171.655 88.7311 168.695 86.2611 167.145 84.3711Z" fill="#3EBBFF"/>
<path d="M164.535 13.4511C195.435 -15.9889 237.115 7.09113 231.485 42.3211C230.905 45.9711 229.755 49.8611 228.945 50.9611C227.515 52.8811 226.395 52.2811 195.995 33.2011L164.535 13.4511Z" fill="#3EBBFF"/>
<path d="M72.0953 415.221C72.9653 407.451 72.9653 407.451 87.4653 407.811C110.165 408.371 142.465 420.741 142.465 428.861C142.465 430.341 141.925 432.091 141.265 432.751C140.385 433.631 131.775 433.951 108.765 433.951C77.4653 433.951 77.4653 433.951 74.9053 431.201C71.5653 427.611 71.0353 424.641 72.0953 415.221Z" fill="#3EBBFF"/>
<path d="M99.4848 254.341L99.4648 238.221C118.465 242.081 118.465 242.081 118.445 247.771C118.415 255.221 115.815 260.761 109.435 266.981C106.625 269.711 103.465 271.951 102.395 271.951C101.335 271.951 100.245 271.611 99.9848 271.201C99.7148 270.791 99.4848 263.201 99.4848 254.341Z" fill="#3EBBFF"/>
</svg>
