<svg width="291" height="448" viewBox="0 0 291 448" fill="none" xmlns="http://www.w3.org/2000/svg">
<path d="M82.1201 422.887C87.8801 403.227 81.9901 405.147 136.56 405.147C184.82 405.147 186.14 405.017 186.14 400.197C186.14 395.207 185.53 395.147 135.34 395.147C79.2501 395.147 75.0301 394.637 61.8901 386.317C44.6901 375.437 38.4801 360.267 36.9101 325.247C31.8701 212.867 45.7601 147.217 78.8501 127.037C96.1901 116.457 128.62 134.267 141.62 161.517C149.84 178.737 159.83 225.607 160.19 248.647L160.32 256.647C153.85 243.477 147.52 227.207 142.07 212.007C136.62 196.807 131.41 183.777 130.5 183.057C127.79 180.937 123.71 182.987 123.34 186.657C122.57 194.507 148.99 262.997 155.17 269.177C156.96 270.967 173.5 281.187 191.92 291.877C232.62 315.517 230.28 312.107 218.85 331.147C208.74 348.007 211.4 348.107 167.19 329.287C122.18 310.137 118.27 307.537 109.27 290.807C102.27 277.817 91.7301 248.187 85.6901 224.587C82.0601 210.347 80.6301 208.107 76.2401 209.697C70.8701 211.657 75.7101 235.127 88.8001 270.647C104.57 313.437 109.15 317.377 174.14 343.967C205.49 356.787 206.22 356.977 213.51 354.257C221.79 351.167 221.89 351.187 248.61 363.137C271.58 373.407 273.57 374.507 278.92 379.887C299.31 400.407 291.17 435.327 263.82 444.667C256.64 447.117 256.64 447.117 168.89 447.137C81.1401 447.147 81.1401 447.147 79.3901 444.397C77.1201 440.837 77.3201 439.307 82.1201 422.887Z" fill="#3EBBFF"/>
<path d="M86.5802 86.5771C81.2402 70.6471 80.0902 71.7171 114.12 60.7671C143.87 51.1971 164.3 46.1571 173.35 46.1471C179.01 46.1471 180.5 49.1771 182.4 64.5671C185.69 91.1971 175.98 114.587 158.35 122.457C155.21 123.867 149.83 125.267 146.39 125.577C142.59 125.927 137.42 125.587 133.22 124.707C110.13 119.917 93.1002 105.997 86.5802 86.5771Z" fill="#3EBBFF"/>
<path d="M102.481 7.6571C132.751 -7.0329 161.281 -0.152899 172.701 24.5771C176.921 33.7171 177.021 35.1471 173.391 35.1471C164.791 35.1671 141.971 40.7671 112.701 50.0671C95.2413 55.6071 80.5513 60.1471 80.0513 60.1471C79.5513 60.1471 78.6313 57.3971 78.0213 54.0471C74.1013 32.7971 82.1613 17.5171 102.481 7.6571Z" fill="#3EBBFF"/>
<path d="M12.0203 429.727C18.6903 425.767 26.9203 419.587 34.1403 413.127C50.7503 398.277 54.9503 396.887 68.9603 401.647C74.8903 403.657 76.1903 404.467 75.7803 405.887C75.5103 406.857 73.3903 414.397 71.0703 422.647C65.3603 442.977 68.1303 441.227 36.5303 444.497C22.2903 445.967 9.40026 447.167 7.89026 447.167C6.34027 447.157 4.05026 446.077 2.64026 444.707C-2.35974 439.847 -0.799736 437.357 12.0203 429.727Z" fill="#3EBBFF"/>
<path d="M226.32 340.947C225.83 339.857 235.97 323.147 237.12 323.147C239.47 323.147 252.26 333.277 257.01 338.907C262.32 345.187 264.13 349.977 262.55 353.577C262.05 354.717 260.85 355.757 259.89 355.897C258.93 356.037 251.05 352.887 242.39 348.897C233.73 344.907 226.5 341.327 226.32 340.947Z" fill="#3EBBFF"/>
</svg>
