<svg width="177" height="452" viewBox="0 0 177 452" fill="none" xmlns="http://www.w3.org/2000/svg">
<path d="M21.1264 401.141C19.6264 393.611 36.6864 218.781 39.1664 216.281C40.1864 215.241 51.5864 210.441 64.5164 205.601L88.0164 196.811C124.426 210.431 135.886 215.211 136.976 216.211C139.906 218.931 157.106 398.171 154.916 403.241C152.596 408.611 148.326 410.131 128.206 412.741C113.926 414.591 105.226 415.101 87.7664 415.121C69.3864 415.141 62.3464 414.701 47.2664 412.621C25.4864 409.611 22.5464 408.311 21.1264 401.141Z" fill="#3EBBFF"/>
<path d="M2.9864 201.741C-1.7336 193.571 -1.6136 192.611 8.8864 156.571C21.9364 111.811 24.5464 108.201 50.9664 98.461C63.8764 93.701 63.8764 93.701 71.8164 98.671C84.2364 106.441 83.5164 105.261 83.5164 117.941C83.5164 130.221 84.3764 133.141 87.9864 133.141C92.3464 133.141 93.5164 129.861 93.5164 117.681C93.5164 105.171 92.4464 106.941 105.016 98.571C112.016 93.911 112.016 93.911 124.516 98.211C151.346 107.421 154.256 111.431 167.676 157.511C178.496 194.711 178.656 197.111 170.696 205.081C162.386 213.401 160.286 213.191 127.156 200.811C91.8064 187.591 95.5864 190.441 96.2564 177.541C96.9864 163.311 95.5964 163.681 121.186 170.821C145.976 177.741 144.666 178.611 138.026 159.641C133.466 146.641 133.466 146.641 132.726 153.801C131.726 163.361 131.796 163.341 114.786 158.661C100.316 154.681 100.316 154.681 94.0064 156.441C87.9764 158.121 87.4264 158.121 81.7164 156.421C75.7364 154.641 75.7364 154.641 60.5364 158.991C43.3764 163.911 43.5164 163.941 43.5164 155.631C43.5164 146.581 42.2464 147.951 37.5164 162.131C32.0164 178.631 30.5064 177.951 56.1664 170.561C75.6564 164.951 76.0864 164.871 79.7464 166.421C84.6264 168.481 87.0264 173.291 86.2764 179.511C85.3864 186.911 83.4864 188.021 51.0364 200.161C33.6664 206.671 20.2464 211.141 18.1164 211.141C16.0464 211.141 12.5764 210.021 9.9364 208.491C7.1664 206.901 4.4164 204.221 2.9864 201.741Z" fill="#3EBBFF"/>
<path d="M56.7663 50.011C56.2463 42.311 56.2463 42.311 64.4463 39.111C81.2263 32.551 99.1863 32.901 114.276 40.091C120.546 43.071 120.546 43.071 119.946 48.851C118.216 65.811 110.746 79.981 100.566 85.641C96.4263 87.941 93.6963 88.701 88.8463 88.891C84.0863 89.081 81.3963 88.611 78.0063 87.021C66.9363 81.811 57.8663 66.001 56.7663 50.011Z" fill="#3EBBFF"/>
<path d="M118.976 23.011C121.296 31.381 121.106 31.571 113.006 28.761C97.0262 23.201 82.1962 23.031 65.5262 28.201C60.3162 29.821 55.9262 31.141 55.7762 31.141C55.6362 31.141 55.7962 29.681 56.1362 27.891C62.7162 -6.51905 109.786 -10.179 118.976 23.011Z" fill="#3EBBFF"/>
<path d="M40.5166 430.041C40.5166 421.871 40.5166 421.871 45.0166 422.481C47.4866 422.821 54.6866 423.611 61.0166 424.221C72.5166 425.351 72.5166 425.351 72.4966 431.491C72.4666 439.341 69.8266 445.311 64.9266 448.641C62.2466 450.461 59.9166 451.141 56.3766 451.141C52.5266 451.141 50.6766 450.511 47.4566 448.111C42.0766 444.101 40.5166 440.041 40.5166 430.041Z" fill="#3EBBFF"/>
<path d="M104.517 432.921C104.517 425.431 104.517 425.431 116.267 424.251C122.727 423.601 129.707 422.801 131.767 422.481C135.517 421.881 135.517 421.881 135.517 431.141C135.517 441.891 133.757 445.941 127.657 449.201C125.677 450.271 122.127 451.141 119.777 451.141C117.307 451.141 114.077 450.291 112.087 449.121C106.497 445.831 104.517 441.601 104.517 432.921Z" fill="#3EBBFF"/>
</svg>
