<svg width="262" height="354" viewBox="0 0 262 354" fill="none" xmlns="http://www.w3.org/2000/svg">
<path d="M98.329 266.31C98.489 224.61 98.439 190.05 98.229 189.5C98.009 188.95 94.819 200.27 91.129 214.67C87.449 229.06 83.839 242.27 83.109 244.02C80.079 251.35 69.879 251.18 66.539 243.75C65.059 240.45 65.299 239.25 74.129 204.42C88.749 146.76 88.919 146.6 133.079 147.18C172.319 147.7 172.439 147.82 185.829 199.69C197.339 244.24 197.459 246.9 188.119 249.34C180.799 251.25 179.179 248.62 172.829 224.5C162.309 184.56 163.309 180.14 163.239 266.79C163.179 338.28 163.079 342.3 161.289 346.43C157.379 355.47 145.569 356.36 140.499 348C138.539 344.77 138.169 340.92 135.659 298.12C134.169 272.61 132.479 251.01 131.909 250.12C128.969 245.5 128.219 251 125.609 296.5C122.739 346.42 122.369 348.72 116.529 352.01C114.589 353.11 111.679 354 110.059 354C108.439 354 105.779 353.04 104.139 351.87C97.849 347.38 98.019 349.83 98.329 266.31Z" fill="#3EBBFF"/>
<path d="M84.889 34C87.279 34 88.319 33.37 89.319 31.34C90.479 28.96 92.149 28.27 104.619 25.03C118.619 21.38 118.619 21.38 118.909 12C119.279 -0.0299988 119.249 7.3884e-07 130.709 7.3884e-07C142.019 7.3884e-07 142.119 0.110002 142.119 12.53C142.119 20.68 142.249 21.22 144.369 21.74C164.569 26.73 171.189 29.05 172.109 31.48C172.869 33.49 173.759 34 176.439 34C182.249 34 185.239 39.77 181.289 43.35C179.639 44.84 174.639 45 130.289 45C88.429 45 80.899 44.78 79.619 43.53C75.929 39.92 79.199 34 84.889 34Z" fill="#3EBBFF"/>
<path d="M104.859 115.72C104.901 109.046 107.582 102.659 112.316 97.9549C117.05 93.2503 123.453 90.6099 130.128 90.6099C136.802 90.6099 143.205 93.2503 147.939 97.9549C152.673 102.659 155.354 109.046 155.396 115.72C155.354 122.394 152.673 128.78 147.939 133.485C143.205 138.189 136.802 140.83 130.128 140.83C123.453 140.83 117.05 138.189 112.316 133.485C107.582 128.78 104.901 122.394 104.859 115.72Z" fill="#3EBBFF"/>
<path d="M74.869 91.5499C79.619 87.8199 79.619 87.8199 80.869 91.4899C83.539 99.3099 83.579 105.36 80.989 108.31C79.679 109.79 77.379 111.23 75.869 111.5C74.359 111.78 72.029 111.35 70.699 110.55C63.899 106.46 65.579 98.8299 74.869 91.5499Z" fill="#3EBBFF"/>
<path d="M180.469 90.57C181.709 87.65 181.709 87.65 187.349 92.59C195.939 100.13 196.929 108.22 189.599 111.01C188.169 111.55 186.569 112 186.049 112C185.539 112 184.019 111.34 182.669 110.53C177.809 107.61 176.869 99.1 180.469 90.57Z" fill="#3EBBFF"/>
<path d="M7.619 280.56C13.129 276.03 13.459 276.08 14.909 281.51C17.049 289.5 16.519 295.54 13.489 297.93C12.039 299.07 9.559 300 7.989 300C6.299 300 4.089 299 2.619 297.56C-2.121 292.95 -0.411003 287.13 7.619 280.56Z" fill="#3EBBFF"/>
<path d="M17.129 250.75C24.169 243.91 24.499 243.97 26.159 252.35C27.909 261.13 27.069 265.46 23.239 267.44C21.579 268.3 19.519 269 18.669 269C17.819 269 15.769 268.07 14.119 266.94C8.73904 263.25 9.71904 257.96 17.129 250.75Z" fill="#3EBBFF"/>
<path d="M140.449 62.92C144.929 54.35 145.209 54.36 150.199 63.14C154.749 71.14 154.809 73.92 150.529 77.75C149.119 79 146.699 80 145.059 80C143.329 80 141.269 79.1 140.059 77.81C136.379 73.91 136.469 70.55 140.449 62.92Z" fill="#3EBBFF"/>
<path d="M235.019 252.77C236.649 243.95 237.029 243.87 244.109 250.75C251.819 258.25 252.499 264.2 246.049 267.54C244.489 268.34 242.519 269 241.669 269C240.819 269 238.969 268.25 237.559 267.33C234.199 265.13 233.489 261.06 235.019 252.77Z" fill="#3EBBFF"/>
<path d="M213.519 187.66C215.279 181.81 215.709 181.84 222.529 188.29C229.149 194.54 230.089 199.12 225.669 203.55C224.129 205.08 222.069 206 220.169 206C218.289 206 216.159 205.06 214.619 203.56C211.669 200.69 211.289 195.09 213.519 187.66Z" fill="#3EBBFF"/>
<path d="M38.669 188.24C45.169 181.95 46.089 181.98 47.799 188.57C49.829 196.37 49.499 200.71 46.669 203.55C45.129 205.08 43.069 206 41.169 206C39.489 206 36.999 205.04 35.619 203.88C30.999 199.96 32.029 194.67 38.669 188.24Z" fill="#3EBBFF"/>
<path d="M190.059 129.37C191.759 119.3 192.279 118.81 197.129 122.81C206.519 130.58 208.269 135.99 202.969 140.92C201.649 142.16 199.399 143 197.429 143C194.859 143 193.539 142.25 191.509 139.65C188.949 136.36 188.919 136.14 190.059 129.37Z" fill="#3EBBFF"/>
<path d="M168.519 61.6599C170.289 55.7799 170.829 55.8199 177.579 62.4099C184.119 68.7999 185.019 73.1899 180.669 77.5499C179.129 79.0799 177.069 79.9999 175.169 79.9999C173.489 79.9999 170.999 79.0399 169.619 77.8799C166.659 75.3599 166.239 69.2399 168.519 61.6599Z" fill="#3EBBFF"/>
<path d="M109.999 64.85C115.929 53.84 115.799 53.84 121.249 64.41C124.689 71.05 124.619 74.53 120.969 77.92C119.749 79.07 117.479 80 115.929 80C114.329 80 111.829 78.87 110.119 77.38C106.369 74.1 106.339 71.65 109.999 64.85Z" fill="#3EBBFF"/>
<path d="M246.239 281.44C247.679 275.72 248.839 275.84 255.579 282.41C262.649 289.32 262.969 295.42 256.439 298.85C255.229 299.48 253.319 300 252.189 300C251.049 300 248.999 299.04 247.619 297.88C244.759 295.45 244.249 289.34 246.239 281.44Z" fill="#3EBBFF"/>
<path d="M224.659 219.18C226.549 212.81 226.479 212.81 233.439 219.29C240.109 225.49 241.229 230.67 236.809 234.83C235.289 236.25 233.209 237 230.809 237C227.969 237 226.659 236.38 225.119 234.32C222.709 231.09 222.559 226.23 224.659 219.18Z" fill="#3EBBFF"/>
<path d="M27.829 219.42C34.529 213.04 35.109 213.05 36.799 219.57C38.669 226.78 38.439 231.32 36.049 234.37C34.439 236.41 33.099 237 30.049 237C27.129 237 25.599 236.38 24.119 234.61C20.279 230.02 21.359 225.6 27.829 219.42Z" fill="#3EBBFF"/>
<path d="M83.719 62.3599C90.169 56.0599 91.189 56.0299 92.789 62.0699C94.809 69.7299 94.449 74.7699 91.669 77.5499C90.129 79.0799 88.069 79.9999 86.169 79.9999C84.289 79.9999 82.159 79.0599 80.619 77.5599C76.189 73.2499 77.089 68.8299 83.719 62.3599Z" fill="#3EBBFF"/>
<path d="M63.859 123.03C68.849 118.92 68.809 118.89 70.569 127.43C72.219 135.38 71.969 137.22 68.799 140.75C67.469 142.23 65.629 143 63.449 143C61.319 143 59.379 142.21 58.059 140.81C53.139 135.59 54.809 130.49 63.859 123.03Z" fill="#3EBBFF"/>
<path d="M202.489 155.82C203.969 150.76 203.969 150.76 206.889 152.84C216.009 159.33 219.119 166.18 215.209 171.16C214.159 172.5 212.129 173.91 210.709 174.3C208.829 174.81 207.229 174.39 204.869 172.75C200.939 170.03 200.089 163.99 202.489 155.82Z" fill="#3EBBFF"/>
<path d="M54.339 152.85C57.249 150.77 57.249 150.77 58.679 155.55C60.919 162.97 60.579 169.22 57.809 171.83C56.289 173.25 54.209 174 51.809 174C49.139 174 47.559 173.34 46.119 171.61C41.949 166.63 45.099 159.42 54.339 152.85Z" fill="#3EBBFF"/>
</svg>
