<svg width="751" height="679" viewBox="0 0 751 679" fill="none" xmlns="http://www.w3.org/2000/svg">
<path d="M9.50267 109C87.3827 109 165.263 109 245.503 109C247.153 131.77 248.803 154.54 250.503 178C259.475 298.527 259.475 298.527 325.503 395.312C337.035 404.512 349.093 413.059 361.162 421.535C380.883 435.387 400.294 449.681 419.392 464.378C422.282 466.599 425.179 468.812 428.076 471.025C447.639 485.968 447.639 485.968 455.639 492.238C465.684 500.103 475.847 507.777 486.159 515.289C488.457 516.967 490.746 518.656 493.034 520.348C518.61 539.167 546.697 556.262 576.753 566.875C577.458 567.125 578.164 567.374 578.891 567.632C593.579 572.565 608.699 575.846 623.94 578.5C624.764 578.646 625.587 578.792 626.436 578.943C640.308 581.403 654.218 583.493 668.188 585.314C675.388 586.256 682.561 587.289 689.718 588.52C690.772 588.697 690.772 588.697 691.849 588.878C697.19 589.822 701.806 591.306 706.503 594C707.534 594.577 708.565 595.155 709.628 595.75C716.865 601.414 722.686 608.83 724.503 618C725.503 628.885 723.53 638.401 716.94 647.25C705.395 660.539 689.298 667.277 672.503 671C671.714 671.175 670.926 671.35 670.113 671.531C651.011 674.966 630.115 670.956 611.417 666.898C590.381 662.675 568.736 667.932 548.269 672.763C529.586 677.055 510.765 678.622 491.628 678.562C490.111 678.561 490.111 678.561 488.564 678.56C459.9 678.455 434.437 672.923 407.503 663C405.374 662.232 403.246 661.467 401.116 660.703C397.977 659.575 394.838 658.446 391.702 657.312C373.203 650.626 354.946 644.779 335.686 640.679C332.612 640.023 329.543 639.344 326.475 638.66C315.829 636.323 305.157 634.372 294.378 632.75C292.761 632.505 292.761 632.505 291.112 632.255C277.091 630.234 263.084 629.732 248.94 629.688C248.084 629.684 247.227 629.681 246.345 629.678C224.601 629.651 203.051 631.8 181.631 635.5C175.76 636.438 169.854 637.116 163.95 637.805C161.769 638.061 159.589 638.324 157.409 638.588C127.425 642.16 92.5659 645.643 63.5027 636C62.7768 635.765 62.0509 635.529 61.303 635.287C39.2683 627.907 21.7545 612.713 11.1902 592.125C7.69052 584.973 5.25664 577.778 3.50267 570C3.2049 568.755 2.90712 567.51 2.60033 566.227C-4.53538 533.778 4.19766 501.704 14.5027 471C14.998 469.518 15.4931 468.037 15.988 466.555C17.0287 463.44 18.0706 460.326 19.1133 457.213C21.3814 450.437 23.6426 443.659 25.8836 436.874C26.4287 435.224 26.976 433.574 27.5237 431.925C35.1451 408.614 39.6392 382.597 39.6706 358.07C39.675 357.051 39.6793 356.032 39.6837 354.982C39.6938 351.696 39.6939 348.411 39.6902 345.125C39.6889 343.995 39.6876 342.866 39.6863 341.702C39.6499 324.704 39.3682 307.91 37.5027 291C37.4221 290.248 37.3415 289.496 37.2585 288.722C33.2385 251.252 27.0537 214.112 20.8307 176.959C20.5116 175.054 20.1931 173.148 19.8746 171.243C15.2046 143.118 15.2046 143.118 10.0359 115.081C9.50267 112 9.50267 112 9.50267 109Z" fill="#3EBBFF"/>
<path d="M535.52 33.8798C536.214 33.879 536.909 33.8781 537.624 33.8773C539.944 33.8756 542.264 33.8811 544.584 33.8866C546.25 33.8868 547.916 33.8867 549.581 33.8861C554.1 33.8858 558.618 33.8917 563.136 33.8987C567.859 33.9049 572.582 33.9055 577.306 33.9067C586.248 33.9098 595.19 33.918 604.133 33.9281C616.218 33.9413 628.303 33.9467 640.388 33.9526C659.426 33.962 678.465 33.9819 697.503 34.0001C697.503 60.7301 697.503 87.4601 697.503 115C687.417 115.014 677.332 115.028 666.94 115.043C660.551 115.063 654.162 115.084 647.772 115.111C637.631 115.154 627.49 115.192 617.348 115.196C609.962 115.199 602.576 115.219 595.189 115.261C591.28 115.282 587.371 115.295 583.461 115.286C579.777 115.279 576.094 115.295 572.41 115.328C570.422 115.34 568.434 115.328 566.446 115.315C557.787 115.425 552.838 117.05 546.479 122.844C546.033 123.39 545.587 123.937 545.128 124.5C544.666 125.047 544.205 125.593 543.729 126.156C536.328 137.282 539.925 150.901 539.503 164C508.483 164 477.463 164 445.503 164C445.503 92.9362 445.503 92.9362 468.503 66.0001C469.137 65.1725 469.771 64.3449 470.425 63.4923C483.661 47.6189 503.848 39.2398 523.503 35.0001C524.256 34.8219 525.009 34.6436 525.785 34.46C529.07 33.9042 532.188 33.8774 535.52 33.8798Z" fill="#3EBBFF"/>
<path d="M444.091 178.612C445.215 178.606 446.34 178.601 447.499 178.596C451.196 178.583 454.892 178.591 458.589 178.601C461.173 178.599 463.757 178.597 466.341 178.593C471.749 178.588 477.157 178.594 482.566 178.609C488.792 178.625 495.018 178.62 501.244 178.603C507.265 178.588 513.285 178.59 519.305 178.598C521.852 178.6 524.4 178.598 526.947 178.591C530.517 178.583 534.087 178.595 537.657 178.612C539.218 178.603 539.218 178.603 540.81 178.593C552.891 178.697 564.077 181.866 573.191 190.062C579.789 197.03 583.625 206.393 583.816 215.875C583.872 217.696 583.872 217.696 583.929 219.555C583.431 223.585 582.333 225.154 579.503 228C576.596 229.453 574.053 229.139 570.805 229.154C570.108 229.158 569.412 229.163 568.694 229.167C566.349 229.18 564.003 229.187 561.658 229.193C559.981 229.201 558.304 229.209 556.628 229.218C551.111 229.244 545.594 229.259 540.077 229.273C538.18 229.279 536.282 229.284 534.385 229.289C526.494 229.311 518.602 229.33 510.711 229.341C499.393 229.357 488.075 229.391 476.757 229.448C468.804 229.486 460.85 229.506 452.897 229.511C448.144 229.515 443.392 229.527 438.639 229.559C434.168 229.589 429.698 229.596 425.227 229.584C423.586 229.584 421.945 229.592 420.303 229.609C418.063 229.632 415.824 229.624 413.583 229.608C412.329 229.611 411.075 229.615 409.783 229.618C405.588 228.827 404.107 227.319 401.503 224C399.88 215.268 401.109 205.748 405.503 198C415.482 184.269 427.404 178.515 444.091 178.612Z" fill="#3EBBFF"/>
<path d="M561.503 248C566.099 250.9 567.453 253.56 569.01 258.695C569.214 259.351 569.417 260.007 569.627 260.684C570.271 262.784 570.889 264.89 571.503 267C571.908 268.367 572.314 269.734 572.72 271.1C573.971 275.35 575.176 279.612 576.378 283.875C576.821 285.438 577.265 287.001 577.709 288.564C580.343 297.847 582.946 307.138 585.535 316.434C590.547 334.375 595.713 352.274 600.838 370.183C602.376 375.558 603.912 380.933 605.448 386.308C607.393 393.119 609.34 399.928 611.288 406.737C618.139 430.68 624.985 454.622 631.706 478.601C633.021 483.291 634.347 487.978 635.689 492.66C636.142 494.24 636.593 495.821 637.043 497.402C638.525 502.613 640.033 507.816 641.558 513.014C642.583 516.519 643.597 520.027 644.609 523.535C645.116 525.285 645.628 527.034 646.145 528.781C651.891 548.213 651.891 548.213 650.503 555C648.617 557.576 647.309 558.597 644.503 560C640.708 560.506 639.086 560.444 635.999 558.094C632.699 554.004 631.695 550.154 630.378 545.125C630.092 544.092 629.806 543.06 629.511 541.996C628.862 539.649 628.219 537.301 627.582 534.951C626.416 530.663 625.208 526.388 623.995 522.113C623.545 520.526 623.095 518.939 622.645 517.351C622.416 516.546 622.188 515.74 621.953 514.91C620.766 510.72 619.588 506.528 618.409 502.336C618.17 501.487 617.932 500.639 617.686 499.765C616.715 496.312 615.744 492.859 614.774 489.407C613.101 483.458 611.428 477.51 609.753 471.562C609.522 470.742 609.291 469.922 609.053 469.077C606.02 458.311 602.939 447.562 599.787 436.83C597.476 428.949 595.272 421.042 593.101 413.121C590.164 402.411 587.183 391.728 583.878 381.125C581.373 373.071 579.135 364.973 577.003 356.812C571.718 336.613 565.803 316.589 559.979 296.54C558.061 289.934 556.163 283.323 554.281 276.706C553.619 274.403 552.938 272.108 552.237 269.816C551.75 268.206 551.75 268.206 551.253 266.562C550.917 265.471 550.582 264.379 550.237 263.254C549.433 259.693 549.238 256.639 549.503 253C552.923 248.128 555.647 247.059 561.503 248Z" fill="#3EBBFF"/>
<path d="M750.503 0C750.503 48.84 750.503 97.68 750.503 148C723.606 148 723.606 148 717.639 142.184C717.161 141.607 716.683 141.031 716.19 140.438C715.699 139.859 715.208 139.28 714.702 138.684C712.501 135.593 712.371 132.81 712.342 129.144C712.327 127.643 712.327 127.643 712.312 126.111C712.306 125.014 712.3 123.917 712.294 122.787C712.284 121.63 712.274 120.474 712.264 119.282C712.234 115.446 712.213 111.61 712.194 107.773C712.188 106.464 712.181 105.154 712.174 103.804C712.148 98.2966 712.125 92.7892 712.11 87.2817C712.088 79.4037 712.046 71.5264 711.976 63.6487C711.929 58.102 711.905 52.5556 711.898 47.0087C711.893 43.6999 711.875 40.392 711.838 37.0834C711.799 33.385 711.798 29.6883 711.806 25.9897C711.786 24.9047 711.766 23.8197 711.745 22.7018C711.814 15.4771 713.245 10.1719 718.503 5C726.503 0 726.503 0 750.503 0Z" fill="#3EBBFF"/>
<path d="M527.503 248C531.069 250.026 532.273 251.308 533.573 255.22C534.451 258.787 535.107 262.28 535.641 265.913C535.74 266.573 535.838 267.232 535.939 267.912C536.265 270.102 536.583 272.293 536.902 274.484C537.134 276.062 537.368 277.64 537.601 279.218C538.234 283.499 538.86 287.781 539.485 292.062C540.013 295.674 540.545 299.285 541.076 302.896C546.153 337.385 551.136 371.888 556.107 406.392C558.017 419.649 559.943 432.904 561.879 446.157C563.281 455.757 564.674 465.358 566.063 474.96C566.514 478.074 566.966 481.186 567.418 484.299C568.153 489.361 568.879 494.424 569.6 499.488C569.863 501.335 570.13 503.181 570.398 505.027C573.865 528.872 573.865 528.872 570.503 534.125C566.339 536.728 564.364 536.694 559.503 536C556.876 534.41 555.84 533.142 554.969 530.188C553.629 523.966 552.647 517.722 551.753 511.422C551.583 510.245 551.413 509.068 551.238 507.855C550.86 505.231 550.483 502.607 550.108 499.982C549.484 495.614 548.855 491.246 548.226 486.879C547.235 480.003 546.248 473.126 545.261 466.249C542.274 445.428 539.277 424.609 536.281 403.79C535.293 396.926 534.305 390.061 533.319 383.197C527.779 344.627 527.779 344.627 522.12 306.074C521.936 304.829 521.936 304.829 521.747 303.558C520.653 296.175 519.556 288.793 518.441 281.413C517.977 278.331 517.518 275.247 517.058 272.164C516.896 271.11 516.735 270.056 516.568 268.97C514.561 255.445 514.561 255.445 517.378 251.125C520.703 247.8 522.849 247.544 527.503 248Z" fill="#3EBBFF"/>
<path d="M492.003 247.438C496.008 248.081 497.662 249.159 500.503 252C502.189 255.371 501.647 259.192 501.643 262.901C501.646 263.834 501.649 264.767 501.652 265.729C501.661 268.876 501.663 272.022 501.664 275.169C501.669 277.418 501.674 279.666 501.679 281.914C501.692 288.036 501.699 294.158 501.703 300.28C501.706 304.102 501.71 307.923 501.715 311.745C501.727 322.323 501.737 332.901 501.74 343.479C501.741 344.156 501.741 344.833 501.741 345.531C501.741 346.21 501.742 346.889 501.742 347.588C501.742 348.964 501.743 350.34 501.743 351.716C501.743 352.398 501.744 353.08 501.744 353.783C501.748 364.841 501.765 375.898 501.789 386.956C501.812 398.305 501.824 409.654 501.826 421.002C501.827 427.376 501.833 433.749 501.851 440.123C501.867 446.117 501.869 452.111 501.861 458.105C501.86 460.307 501.864 462.51 501.874 464.712C501.887 467.714 501.881 470.716 501.87 473.718C501.878 474.594 501.887 475.469 501.895 476.37C501.856 481.082 501.541 484.159 498.503 488C495.829 490.101 494.46 489.998 491.003 489.875C486.996 488.873 485.891 488.324 483.503 485C482.905 481.918 482.959 478.876 482.988 475.745C482.981 474.798 482.974 473.85 482.967 472.874C482.949 469.692 482.959 466.511 482.969 463.328C482.962 461.05 482.954 458.772 482.943 456.494C482.921 450.3 482.924 444.106 482.933 437.912C482.938 432.745 482.931 427.578 482.923 422.411C482.905 409.528 482.912 396.644 482.929 383.76C482.944 372.57 482.929 361.38 482.901 350.19C482.871 338.701 482.861 327.212 482.87 315.723C482.875 309.273 482.872 302.822 482.852 296.372C482.834 290.307 482.84 284.242 482.864 278.177C482.869 275.949 482.866 273.721 482.853 271.493C482.837 268.456 482.852 265.42 482.875 262.382C482.863 261.497 482.851 260.611 482.839 259.699C482.905 255.329 483.098 253.532 485.823 249.949C488.503 248 488.503 248 492.003 247.438Z" fill="#3EBBFF"/>
<path d="M462.503 248C467.136 250.265 467.136 250.265 468.503 253C469.084 262.896 467.293 272.549 465.828 282.305C465.543 284.237 465.259 286.169 464.975 288.101C464.213 293.286 463.443 298.47 462.67 303.654C461.868 309.043 461.074 314.433 460.28 319.824C459.958 322.007 459.636 324.191 459.314 326.374C459.154 327.459 458.994 328.543 458.83 329.661C458.342 332.968 457.853 336.275 457.363 339.583C455.273 353.721 453.218 367.864 451.195 382.012C450.939 383.796 450.684 385.579 450.428 387.363C448.988 397.415 448.988 397.415 447.557 407.467C447.014 411.296 446.467 415.125 445.916 418.952C445.717 420.337 445.521 421.722 445.326 423.107C442.878 440.511 442.878 440.511 439.253 444.437C435.932 446.324 434.266 446.627 430.503 446C427.804 444.2 425.962 442.916 424.503 440C424.288 434.248 424.801 428.818 425.648 423.137C425.773 422.266 425.898 421.395 426.027 420.497C426.451 417.56 426.884 414.624 427.316 411.687C427.626 409.556 427.935 407.424 428.244 405.292C429.125 399.223 430.014 393.155 430.905 387.087C431.534 382.794 432.16 378.501 432.786 374.207C434.639 361.493 436.492 348.778 438.368 336.066C438.486 335.271 438.603 334.476 438.724 333.656C439.194 330.469 439.665 327.282 440.136 324.095C441.543 314.576 442.931 305.054 444.289 295.528C444.999 290.56 445.72 285.594 446.444 280.628C446.772 278.357 447.095 276.085 447.412 273.813C447.844 270.721 448.294 267.632 448.75 264.543C448.869 263.653 448.988 262.763 449.111 261.846C449.912 256.574 451.108 253.155 454.503 249C457.323 247.59 459.373 247.754 462.503 248Z" fill="#3EBBFF"/>
<path d="M428.503 248C431.845 249.207 432.45 249.921 434.503 253C435.156 259.362 433.36 264.9 431.565 270.965C431.253 272.046 430.942 273.127 430.62 274.241C429.59 277.809 428.546 281.373 427.503 284.937C426.777 287.44 426.053 289.942 425.33 292.445C424.013 297.004 422.692 301.562 421.368 306.119C417.902 318.046 414.491 329.99 411.083 341.934C410.071 345.478 409.055 349.021 408.038 352.563C405.186 362.509 402.354 372.456 399.674 382.449C399.262 383.971 398.85 385.493 398.438 387.016C397.715 389.685 397.015 392.356 396.327 395.035C393.492 405.539 393.492 405.539 388.503 409C385.689 409.954 383.354 409.805 380.503 409C377.503 406.437 377.503 406.437 375.503 403C375.144 398 375.861 393.904 377.268 389.117C377.457 388.464 377.647 387.81 377.841 387.137C378.47 384.976 379.111 382.818 379.753 380.66C380.203 379.118 380.653 377.576 381.102 376.034C382.06 372.748 383.024 369.465 383.993 366.183C385.51 361.042 387.015 355.897 388.518 350.752C389.024 349.02 389.53 347.288 390.035 345.555C390.286 344.697 390.537 343.838 390.795 342.954C391.559 340.341 392.324 337.73 393.089 335.118C396.227 324.401 399.33 313.675 402.385 302.934C402.57 302.283 402.756 301.633 402.946 300.962C404.507 295.477 406.064 289.99 407.617 284.503C416.485 253.178 416.485 253.178 419.878 249.25C423.054 247.738 425.022 247.556 428.503 248Z" fill="#3EBBFF"/>
<path d="M118.503 357C121.624 359.135 122.367 360.435 123.253 364.117C123.553 368.78 122.599 372.126 121.128 376.5C115.082 395.07 114.239 419.004 122.894 436.871C124.305 439.371 125.817 441.679 127.503 444C128.18 444.967 128.18 444.967 128.87 445.953C135.228 454.215 144.95 457.795 154.402 461.41C157.836 463.171 159.422 464.778 161.503 468C162.128 471.747 161.792 473.459 160.003 476.813C157.36 479.126 155.485 480.036 151.96 480.258C137.279 478.717 123.288 468.53 113.844 457.662C101.77 442.7 98.2434 424.702 98.1281 405.938C98.1236 405.226 98.119 404.515 98.1143 403.782C98.0814 389.417 98.7797 368.796 108.753 357.438C112.497 355.481 114.489 355.832 118.503 357Z" fill="white"/>
</svg>
