<svg width="520" height="836" viewBox="0 0 520 836" fill="none" xmlns="http://www.w3.org/2000/svg">
<path d="M312.166 19.2082C368.655 64.1963 372.665 146.212 383.742 212.074C386.079 225.965 388.589 239.755 391.777 253.481C392.404 256.268 392.973 259.063 393.533 261.865C400.911 298.413 416.23 326.697 445.752 349.974C449.539 353.029 453.068 356.347 456.643 359.646C459.145 361.886 461.713 363.953 464.361 366.017C477.462 376.629 489.907 389.081 499.361 403.079C499.744 403.645 500.127 404.211 500.522 404.794C517.193 429.817 522.579 459.786 517.236 489.392C516.67 491.637 516.043 493.867 515.361 496.079C515.163 496.746 514.964 497.414 514.759 498.101C510.447 512.325 503.951 524.642 494.361 536.079C493.729 536.928 493.729 536.928 493.084 537.794C479.786 554.972 457.382 565.036 436.361 568.079C415.688 569.328 395.02 569.014 376.361 559.079C380.641 547.237 390.743 538.916 401.65 533.298C408.93 530.025 416.22 529.793 424.127 529.521C428.625 528.907 431.292 527.37 434.174 523.892C435.746 520.169 436.087 517.061 435.361 513.079C433.619 510.111 432.149 508.566 429.236 506.767C412.921 502.865 395.016 509.677 381.271 518.079C369.209 526.369 361.2 537.264 353.814 549.653C336.584 578.421 311.573 595.54 279.229 603.888C251.252 609.538 221.839 601.504 198.361 586.079C194.869 583.573 191.597 580.906 188.361 578.079C187.321 577.236 187.321 577.236 186.26 576.376C177.278 568.955 171.43 559.717 165.503 549.836C152.633 528.508 136.592 513.701 111.986 507.267C104.57 505.714 94.4545 503.617 87.6113 507.829C84.2941 511.147 83.5067 512.772 82.9863 517.454C83.433 521.772 84.5929 523.773 87.3613 527.079C90.9396 529.532 94.6194 529.317 98.7988 529.392C112.627 529.995 123.91 535.677 133.717 545.419C142.361 554.883 142.361 554.883 142.361 560.079C139.615 561.05 136.865 562.006 134.111 562.954C133.353 563.224 132.595 563.493 131.814 563.771C120.788 567.538 110.021 568.406 98.4238 568.329C97.2514 568.337 96.079 568.345 94.8711 568.353C68.7876 568.295 47.7376 558.806 28.8613 540.954C15.6636 527.314 6.99322 510.423 2.36134 492.079C2.18546 491.471 2.00959 490.863 1.82838 490.236C0.0638683 483.531 0.0231532 476.884 0.0456665 469.98C0.0488016 467.979 0.024577 465.978 1.21594e-05 463.978C-0.0161448 431.147 16.0709 404.026 38.3613 381.079C39.2186 380.182 40.0758 379.285 40.959 378.361C45.9077 373.279 51.1034 368.721 56.6426 364.294C59.2964 362.132 61.8338 359.887 64.3613 357.579C67.8119 354.43 71.3438 351.442 74.9863 348.517C79.7692 344.646 84.0993 340.509 88.3613 336.079C89.1657 335.296 89.9701 334.512 90.7988 333.704C91.6445 332.838 92.4901 331.972 93.3613 331.079C94.0291 330.396 94.6968 329.713 95.3848 329.009C132.485 289.63 134.61 217.068 142.957 166.437C144.412 157.614 145.89 148.818 147.799 140.079C148.226 138.086 148.654 136.092 149.08 134.099C149.293 133.11 149.505 132.12 149.725 131.101C150.37 128.04 150.98 124.974 151.58 121.904C154.06 109.326 157.057 97.163 161.361 85.0793C161.594 84.4218 161.827 83.7642 162.067 83.0867C167.395 68.3338 174.596 54.3803 184.361 42.0793C185.047 41.1796 185.733 40.2798 186.439 39.3528C199.045 23.2553 215.071 11.0045 234.361 4.07933C235.715 3.5708 235.715 3.5708 237.096 3.05199C262.592 -4.94318 291.576 3.5791 312.166 19.2082Z" fill="#3EBBFF"/>
<path d="M464.361 680.079C467.51 681.431 469.181 682.77 471.174 685.544C471.942 686.606 471.942 686.606 472.725 687.689C473.265 688.457 473.805 689.225 474.361 690.017C474.93 690.817 475.499 691.618 476.085 692.443C516.594 750.02 516.594 750.02 513.361 782.079C510.465 794.985 502.481 806.016 491.361 813.079C479.689 819.887 467.827 821.774 454.49 819.615C442.113 816.268 431.697 808.97 424.51 798.341C422.957 795.637 421.615 792.934 420.361 790.079C419.853 788.931 419.853 788.931 419.334 787.759C414.483 774.569 416.996 760.611 422.361 748.079C422.645 747.409 422.929 746.739 423.222 746.049C432.859 723.726 447.056 697.385 464.361 680.079Z" fill="#3EBBFF"/>
<path d="M122.361 623.079C123.021 623.079 123.681 623.079 124.361 623.079C125.591 624.538 125.591 624.538 126.979 626.603C127.497 627.367 128.015 628.132 128.55 628.92C129.106 629.756 129.663 630.593 130.236 631.454C131.103 632.742 131.103 632.742 131.988 634.055C133.193 635.847 134.394 637.641 135.593 639.437C137.23 641.883 138.881 644.319 140.537 646.751C149.435 659.864 157.736 673.065 164.299 687.517C164.847 688.723 164.847 688.723 165.407 689.954C169.064 698.258 171.937 706.298 171.799 715.454C171.791 716.185 171.782 716.915 171.774 717.668C171.379 730.468 165.69 741.511 157.111 750.892C147.218 760.162 133.675 764.457 120.361 764.294C106.326 763.289 95.9657 757.049 86.3614 747.079C76.4114 735.325 74.0708 723.551 75.0953 708.505C76.4068 696.55 82.7557 685.533 88.3614 675.079C88.6963 674.444 89.0311 673.81 89.3761 673.156C97.7433 657.361 107.781 642.407 118.69 628.259C119.978 626.58 121.187 624.84 122.361 623.079Z" fill="#3EBBFF"/>
<path d="M36.3613 757.079C39.7975 758.494 41.3101 760.019 43.3144 763.122C43.8476 763.942 44.3808 764.761 44.9301 765.605C45.4849 766.484 46.0397 767.362 46.6113 768.267C47.1854 769.165 47.7595 770.063 48.351 770.989C66.2699 799.328 66.2699 799.328 64.3613 813.079C62.3033 820.454 57.7474 827.29 51.2363 831.431C44.0582 835.099 36.7892 836.633 28.8495 834.361C20.2782 830.752 15.1481 825.513 11.3613 817.079C7.79751 805.52 12.1367 795.136 17.4819 784.942C22.7145 775.344 28.5703 764.87 36.3613 757.079Z" fill="#3EBBFF"/>
<path d="M383.361 627.079C387.44 628.912 389.477 631.473 391.986 635.079C392.415 635.689 392.844 636.298 393.286 636.926C398.584 644.629 403.079 652.778 407.361 661.079C407.861 662.04 408.362 663 408.877 663.99C412.233 671.258 412.81 679.14 410.549 686.849C407.362 694.053 401.865 700.191 394.529 703.267C386.75 705.262 378.056 705.611 370.861 701.704C365.479 697.931 360.85 692.432 358.701 686.15C357.032 675.983 358.756 668.143 363.361 659.079C363.919 657.928 364.478 656.777 365.053 655.591C370.146 645.382 376.621 636.258 383.361 627.079Z" fill="#3EBBFF"/>
</svg>
