<svg width="641" height="726" viewBox="0 0 641 726" fill="none" xmlns="http://www.w3.org/2000/svg">
<path d="M191.27 0.0438208C192.126 0.0339363 192.983 0.0240519 193.865 0.0138678C237.424 -0.384764 277.561 7.73415 313.376 34.2821C313.915 34.6704 314.455 35.0588 315.01 35.4589C345.97 57.7607 369.418 88.8414 383.376 124.282C383.823 125.414 384.27 126.546 384.731 127.712C397.093 160.652 401.012 196.504 395.376 231.282C395.084 233.102 395.084 233.102 394.786 234.958C390.395 259.147 382.005 282.656 370.376 304.282C370.034 304.93 369.693 305.577 369.342 306.244C358.734 326.313 344.846 344.704 329.376 361.282C325.77 360.08 325.313 359.113 323.258 356.005C322.658 355.107 322.057 354.209 321.438 353.285C320.799 352.314 320.159 351.344 319.501 350.345C318.149 348.332 316.797 346.32 315.442 344.309C314.762 343.297 314.081 342.285 313.38 341.243C296.375 316.047 296.375 316.047 269.376 303.282C259.602 302.355 251.409 303.543 242.376 307.282C240.972 307.843 240.972 307.843 239.54 308.415C238.826 308.701 238.111 308.987 237.376 309.282C237.337 307.573 237.337 307.573 237.297 305.829C236.393 277.597 228.995 249.434 209.376 228.282C208.606 227.433 207.836 226.583 207.044 225.708C192.892 210.779 171.211 198.304 150.286 197.105C132.783 196.778 116.949 196.531 100.977 204.548C99.3756 205.282 99.3756 205.282 97.3756 205.282C96.2387 172.299 105.993 146.706 127.641 121.661C143.762 104.525 168.448 90.3005 192.361 89.1368C195.762 89.1121 199.162 89.0964 202.563 89.0946C203.732 89.0824 204.9 89.0701 206.104 89.0575C230.439 89.0168 251.728 98.006 270.376 113.282C271.652 114.311 271.652 114.311 272.954 115.36C293.346 132.675 307.707 159.961 310.186 186.55C310.51 191.212 310.52 195.862 310.501 200.532C310.504 201.486 310.508 202.44 310.512 203.423C310.506 208.171 310.282 212.606 309.376 217.282C308.908 222.316 308.804 226.118 311.063 230.72C314.476 234.501 316.695 236.099 321.813 236.657C326.402 236.174 329.771 235.03 332.942 231.575C342.599 216.129 338.76 187.29 335.212 170.482C326.813 134.538 304.753 101.14 273.376 81.2821C244.343 63.6638 210.233 56.01 176.699 63.7001C145.885 71.4198 118.701 87.9156 99.3756 113.282C98.722 114.108 98.0685 114.935 97.3951 115.786C78.1968 140.886 65.7456 174.916 69.6803 206.747C72.6971 226.726 80.7132 249.655 95.3756 264.282C99.7541 267.054 104.355 267.058 109.376 266.282C112.755 264.613 114.785 262.206 116.813 259.032C118.028 253.091 117.547 249.148 114.262 243.915C113.026 242.147 111.759 240.418 110.439 238.712C109.35 237.284 108.355 235.787 107.376 234.282C108.376 231.282 108.376 231.282 110.563 229.966C111.491 229.554 112.419 229.143 113.376 228.72C114.283 228.306 115.191 227.892 116.126 227.466C132.293 221.578 149.645 222.875 165.376 229.282C166.271 229.62 167.167 229.958 168.09 230.306C183.448 236.927 194.17 250.769 201.688 265.157C202.014 265.768 202.34 266.38 202.676 267.01C207.834 277.4 208.938 288.582 208.876 300.032C208.87 301.254 208.864 302.476 208.858 303.735C208.363 328.95 195.848 346.186 179.376 364.282C176.125 367.936 172.924 371.63 169.766 375.364C163.77 382.44 157.623 389.328 151.254 396.073C148.205 399.305 145.236 402.567 142.376 405.97C137.531 411.566 132.035 414.848 124.61 415.54C115.697 415.876 110.239 414.072 103.626 408.157C96.7929 400.746 95.6955 392.686 95.9928 382.837C97.2486 371.176 105.43 362.993 113.61 355.279C125.441 344.09 135.2 332.419 136.712 315.528C136.724 314.271 136.737 313.015 136.751 311.72C136.779 310.46 136.807 309.201 136.837 307.903C136.294 303.642 135.117 301.557 132.376 298.282C128.162 295.363 123.299 295.552 118.376 296.282C115.353 297.553 114.572 298.591 112.376 301.282C111.32 304.223 110.867 307.203 110.376 310.282C107.899 323.641 99.89 330.976 90.1998 339.716C78.5388 350.312 69.9487 365.559 69.1021 381.536C68.5652 398.332 72.5928 413.69 83.6256 426.72C93.124 436.507 104.684 442.237 118.332 442.753C134.62 442.945 148.669 438.022 160.485 426.555C165.03 421.99 169.41 417.272 173.579 412.36C175.905 409.67 178.331 407.076 180.751 404.47C184.336 400.597 187.757 396.649 191.063 392.532C193.651 389.312 196.264 386.323 199.251 383.47C205.585 377.339 211.02 370.065 216.075 362.86C216.504 362.339 216.933 361.819 217.376 361.282C218.036 361.282 218.696 361.282 219.376 361.282C219.569 361.989 219.763 362.696 219.963 363.424C222.579 372.13 226.741 379.414 231.563 387.032C233.105 389.508 234.638 391.989 236.172 394.47C236.731 395.368 236.731 395.368 237.3 396.284C240.469 401.392 243.439 406.587 246.311 411.866C248.15 415.213 250.099 418.435 252.204 421.622C252.679 422.349 253.155 423.075 253.645 423.824C254.566 425.217 255.502 426.6 256.455 427.971C257.7 429.856 257.7 429.856 259.376 433.282C258.307 437.029 256.408 439.844 254.11 442.954C250.535 447.956 247.524 453.115 244.626 458.532C244.115 459.477 243.605 460.423 243.079 461.397C236.329 473.986 229.918 486.749 223.918 499.714C214.088 520.896 201.735 540.535 185.376 557.282C184.578 558.142 183.78 559.002 182.958 559.888C163.743 580.106 135.947 593.524 108.024 594.497C78.7872 595.158 54.2897 586.863 32.3756 567.282C31.7555 566.745 31.1355 566.207 30.4967 565.653C17.197 553.341 8.25012 535.507 3.37558 518.282C2.97351 516.974 2.97351 516.974 2.56332 515.639C-0.52583 503.886 -0.00470064 491.926 0.0943263 479.862C0.125389 476.055 0.135303 472.249 0.141201 468.442C0.150379 465.967 0.160757 463.492 0.172451 461.016C0.176701 459.906 0.180951 458.797 0.18533 457.653C0.232939 452.229 0.384678 446.834 0.742932 441.42C1.49471 429.794 1.48228 418.199 1.42563 406.554C1.41878 404.329 1.41245 402.104 1.4066 399.879C1.39337 395.123 1.37726 390.366 1.35905 385.609C1.33094 378.06 1.31412 370.511 1.29957 362.962C1.29443 360.364 1.28927 357.767 1.2841 355.169C1.28151 353.869 1.27894 352.569 1.27627 351.229C1.26258 344.533 1.24745 337.837 1.23129 331.141C1.22967 330.47 1.22805 329.8 1.22639 329.109C1.19991 318.264 1.16215 307.42 1.12111 296.576C1.07908 285.373 1.05313 274.171 1.0399 262.968C1.03189 256.706 1.01669 250.444 0.983227 244.182C0.725078 194.451 0.725073 194.451 5.37558 172.282C5.69267 170.615 6.00678 168.947 6.31755 167.279C13.9118 126.612 35.0516 89.9394 63.3756 60.2821C64.2483 59.3566 65.121 58.431 66.0201 57.4774C72.938 50.3265 80.3882 44.1921 88.3756 38.2821C88.9144 37.8825 89.4532 37.4829 90.0084 37.0712C98.6995 30.692 107.841 25.2878 117.376 20.2821C118.04 19.9326 118.705 19.5831 119.39 19.223C137.355 9.93522 156.508 4.66939 176.376 1.2821C177.715 1.0195 177.715 1.0195 179.081 0.751585C183.162 0.17007 187.154 0.0824633 191.27 0.0438208Z" fill="#3EBBFF"/>
<path d="M269.665 326.895C281.796 332.381 289.044 345.806 296.375 356.282C297.263 357.547 297.263 357.547 298.169 358.837C301.152 363.086 304.128 367.341 307.098 371.599C310.265 376.133 313.471 380.638 316.693 385.133C319.898 389.607 323.078 394.098 326.25 398.595C326.754 399.308 327.258 400.022 327.777 400.758C330.303 404.34 332.827 407.923 335.348 411.509C340.695 419.106 346.073 426.679 351.5 434.22C352.057 434.996 352.614 435.772 353.188 436.571C353.706 437.289 354.224 438.007 354.758 438.747C355.216 439.382 355.674 440.018 356.146 440.673C357.423 442.418 357.423 442.418 359.375 444.282C359.045 443.622 358.715 442.962 358.375 442.282C357.186 425.241 357.186 425.241 362.375 418.282C363.118 417.23 363.86 416.178 364.625 415.095C370.961 408.615 378.085 405.347 387.188 404.907C395.145 405.101 401.962 408.175 407.77 413.556C410.59 416.588 413.02 419.882 415.375 423.282C415.288 422.049 415.288 422.049 415.2 420.79C414.828 411.594 416.246 405.494 421.985 398.251C428.414 391.291 435.737 388.419 445.063 387.97C452.822 388.074 459.859 390.962 465.571 396.224C469.65 400.876 472.993 406.113 476.375 411.282C476.317 410.532 476.259 409.782 476.2 409.009C475.803 400.013 477.32 393.732 483.465 386.989C491.558 379.395 497.604 377.635 508.641 377.864C517.187 378.821 524.519 383.633 529.972 390.207C531.687 392.477 533.351 394.777 535 397.095C536.239 398.807 537.479 400.52 538.719 402.231C539.334 403.084 539.949 403.936 540.583 404.815C543.175 408.382 545.837 411.893 548.5 415.407C554.141 422.892 559.571 430.516 564.927 438.206C566.318 440.199 567.717 442.186 569.118 444.173C580.087 459.82 590.36 475.91 598.375 493.282C598.917 494.426 599.458 495.569 600.016 496.747C607.423 513.076 611.168 530.049 611.813 547.907C612.865 576.177 621.026 599.306 636.274 622.954C637.802 625.374 639.184 627.69 640.375 630.282C630.437 638.153 620.126 645.417 609.717 652.648C606.523 654.877 603.352 657.137 600.188 659.407C595.161 663.011 590.118 666.592 585.063 670.157C584.349 670.661 583.635 671.164 582.9 671.683C579.318 674.21 575.734 676.733 572.149 679.255C564.92 684.343 557.72 689.467 550.563 694.657C543.295 699.927 535.966 705.106 528.593 710.229C524.73 712.917 520.888 715.622 517.106 718.423C516.46 718.898 515.814 719.374 515.148 719.863C513.958 720.743 512.775 721.63 511.599 722.527C510.028 723.684 510.028 723.684 507.375 725.282C503.472 723.981 502.078 721.541 499.75 718.345C482.231 695 460.496 679.35 432.074 671.887C403.503 664.181 376.89 649.112 352.255 633.135C347.391 630.005 342.475 626.96 337.563 623.907C325.1 616.137 312.712 608.252 300.375 600.282C299.474 599.702 298.572 599.123 297.643 598.525C295.172 596.933 292.71 595.329 290.25 593.72C289.547 593.268 288.843 592.815 288.118 592.35C282.994 588.965 277.18 584.891 274.375 579.282C273.755 574.143 273.923 571.329 277 567.095C283.377 559.46 291.301 554.258 301.321 552.876C312.472 552.547 321.936 555.678 332.375 559.282C333.041 559.512 333.707 559.741 334.393 559.978C342.759 562.866 351.11 565.796 359.446 568.77C360.116 569.009 360.786 569.247 361.476 569.493C366.137 571.163 366.137 571.163 368.375 572.282C362.818 562.723 357.148 553.239 351.39 543.799C343.845 531.426 336.462 518.967 329.154 506.453C324.622 498.692 320.026 490.973 315.375 483.282C308.044 471.117 300.804 458.898 293.569 446.675C291.128 442.552 288.686 438.431 286.243 434.309C285.571 433.177 284.899 432.044 284.208 430.876C283.541 429.752 282.875 428.628 282.188 427.47C278.456 421.175 274.725 414.879 271.008 408.575C270.476 407.673 269.944 406.771 269.396 405.841C268.349 404.066 267.302 402.29 266.256 400.514C263.333 395.564 260.384 390.631 257.411 385.712C256.739 384.599 256.068 383.487 255.376 382.341C254.083 380.202 252.787 378.065 251.487 375.93C238.916 355.129 238.916 355.129 240.375 343.282C242.723 335.8 246.712 331.269 253.375 327.282C258.022 324.959 264.751 325.579 269.665 326.895Z" fill="#3EBBFF"/>
</svg>
