<svg width="779" height="677" viewBox="0 0 779 677" fill="none" xmlns="http://www.w3.org/2000/svg">
<path d="M449.664 268.06C463.619 275.831 469.75 291.288 475.55 305.365C479.104 314.135 479.104 314.135 485.188 321.236C489.134 322.815 492.859 323.517 497 322.361C502.446 318.744 505.952 313.975 509.438 308.549C517.122 297.042 526.067 285.376 540 281.361C549.355 280.517 555.39 281.288 563.188 286.486C567.483 290.355 569.58 295.254 570.348 300.932C570.596 308.352 568.835 315.22 567 322.361C564.091 333.892 563.006 345.664 569 356.361C573.98 364.058 582.201 368.868 590.938 371.299C601.268 373.434 610.47 373.214 620 368.361C629.071 361.262 632.607 350.383 634 339.361C634.106 337.114 634.176 334.865 634.211 332.615C634.239 331.365 634.268 330.116 634.297 328.828C634.349 326.229 634.393 323.63 634.43 321.031C634.637 312.641 635.17 306.357 640.125 299.361C644.176 296.543 647.214 296.537 652 297.361C670.15 302.265 682.316 325.571 691.639 340.231C696.965 348.565 702.341 356.869 708.559 364.572C709.742 366.041 710.851 367.569 711.938 369.111C715.969 373.51 720.04 376.019 725.938 377.049C733.436 376.548 739.549 370.015 745 365.361C749.23 363.246 754.408 363.87 759 364.361C766.841 367.006 771.817 372.522 775.812 379.549C782.417 395.19 776.744 415.933 773.465 431.83C768.515 456.033 767.684 477.199 772.864 501.443C776.94 520.887 776.028 541.064 765.133 558.318C754.978 572.509 741.986 583.143 728 593.361C726.586 594.409 725.172 595.457 723.758 596.506C711.465 605.557 698.757 613.983 686 622.361C685.228 622.869 684.456 623.377 683.661 623.9C678.798 627.092 673.908 630.24 669 633.361C667.655 634.217 667.655 634.217 666.283 635.091C596.452 679.429 596.452 679.429 555.594 673.9C543.92 671.233 533.467 665.694 523.125 659.861C503.53 648.923 482.808 644.38 460.75 640.799C443.513 637.946 427.01 631.192 414 619.361C413.145 618.588 412.291 617.814 411.41 617.018C402.041 608.113 394.218 597.655 393.562 584.361C393.913 574.935 398.834 568.993 405 562.361C415.871 550.193 427.024 536.943 426.281 519.611C424.583 506.023 416.987 498.763 406.614 490.605C404.023 488.608 401.385 486.674 398.75 484.736C389.565 477.865 380.564 470.282 378.67 458.271C376.876 439.547 385.34 423.861 396.93 409.689C399.4 406.765 401.933 403.899 404.489 401.049C420.546 383.386 420.546 383.386 425.422 360.639C424.116 350.497 418.142 341.743 412.938 333.174C405.316 320.613 400.321 311.375 402 296.361C402.872 292.984 404.153 290.307 406 287.361C406.671 286.226 406.671 286.226 407.355 285.068C416.79 269.968 432.013 259.959 449.664 268.06Z" fill="#3EBBFF"/>
<path d="M597.727 52.4395C600.844 55.0502 603.926 57.6992 607 60.3613C607.699 60.9595 608.397 61.5576 609.117 62.1738C614.399 66.7327 619.505 71.4854 624.617 76.2324C626.692 78.1578 628.78 80.0639 630.883 81.959C638.605 88.95 646.003 96.2557 653.375 103.611C653.897 104.131 654.42 104.651 654.958 105.186C660.319 110.526 665.583 115.896 670.506 121.649C672.719 124.186 675.092 126.51 677.5 128.861C681.287 132.591 684.874 136.424 688.324 140.467C690.765 143.227 693.403 145.773 696.027 148.357C698.573 150.944 700.92 153.677 703.285 156.428C705.475 158.897 707.814 161.189 710.169 163.498C711.88 165.24 713.463 167.032 715.042 168.893C719.732 174.283 724.783 179.309 729.832 184.361C730.874 185.407 731.917 186.452 732.959 187.498C735.133 189.678 737.309 191.856 739.487 194.033C742.252 196.798 745.01 199.57 747.766 202.344C749.914 204.502 752.066 206.656 754.219 208.809C755.237 209.828 756.253 210.848 757.267 211.871C762.965 217.608 768.772 222.984 775.207 227.9C775.799 228.383 776.39 228.865 777 229.361C777 229.691 777 230.021 777 230.361C746.04 231.991 716.139 211.747 691.688 195.181C688.874 193.276 686.048 191.391 683.219 189.51C679.44 186.994 675.669 184.466 671.908 181.924C648.616 166.185 624.913 151.434 600 138.361C599.048 137.86 598.096 137.359 597.115 136.842C562.444 118.707 523.766 102.916 484.075 103.046C482.066 103.049 480.058 103.025 478.049 103C462.682 102.92 448.826 106.406 434.375 111.361C419.146 116.554 404.852 119.947 388.688 119.799C387.961 119.795 387.234 119.791 386.485 119.788C375.474 119.708 365.484 118.948 355 115.361C353.038 114.714 351.076 114.067 349.113 113.42C345.943 112.367 342.776 111.308 339.615 110.23C291.645 93.9139 243.443 107.88 199 128.361C198.181 128.732 197.363 129.103 196.519 129.485C187.186 133.716 178.072 138.292 169.062 143.174C168.254 143.611 167.446 144.048 166.613 144.498C150.01 153.628 134.081 163.78 118.375 174.361C116.74 175.458 115.104 176.555 113.469 177.65C110.238 179.816 107.009 181.983 103.78 184.151C102.993 184.68 102.205 185.209 101.394 185.754C99.7837 186.835 98.1739 187.916 96.5641 188.998C79.2094 200.65 79.2094 200.65 70.9375 205.549C70.1115 206.039 69.2856 206.53 68.4346 207.036C55.3566 214.743 42.4265 221.547 28 226.361C27.0255 226.69 26.0509 227.019 25.0469 227.357C17.7959 229.573 10.5491 230.042 3 230.361C6.29969 226.28 9.67648 222.672 13.6204 219.205C18.8199 214.566 23.7789 209.727 28.6992 204.795C29.5785 203.917 30.4578 203.038 31.3637 202.133C33.206 200.292 35.0471 198.449 36.887 196.605C39.6872 193.799 42.4927 190.999 45.2988 188.199C47.0993 186.398 48.8994 184.597 50.6992 182.795C51.9432 181.554 51.9432 181.554 53.2123 180.288C57.4568 176.027 61.5541 171.702 65.4539 167.121C67.0655 165.287 68.7565 163.571 70.5 161.861C72.9545 159.451 75.2544 156.968 77.5 154.361C79.7456 151.755 82.0455 149.272 84.5 146.861C86.9339 144.471 89.2136 142.011 91.4375 139.424C94.4061 135.977 97.5408 132.77 100.812 129.611C102.644 127.727 104.344 125.809 106.051 123.815C110.29 118.958 114.809 114.409 119.371 109.857C120.252 108.975 121.133 108.093 122.041 107.184C124.366 104.859 126.693 102.536 129.02 100.214C130.436 98.7999 131.851 97.3839 133.264 95.9671C136.005 93.2195 138.75 90.4754 141.496 87.7324C142.33 86.8968 143.163 86.0612 144.022 85.2003C148.327 80.9126 152.698 76.769 157.311 72.8126C159.698 70.7616 162.001 68.6219 164.312 66.4863C168.751 62.4426 173.288 58.5748 177.969 54.8145C180.141 53.0568 182.28 51.2814 184.406 49.4707C214.438 24.1311 251.836 -0.057397 292.312 0.0488407C293.529 0.0327274 294.745 0.0166141 295.998 1.2567e-05C308.137 -0.00643427 319.499 2.46796 330.938 6.42384C331.861 6.74039 332.784 7.05693 333.735 7.38307C346.018 11.8119 357.764 17.5988 369.508 23.2776C370.33 23.6695 371.153 24.0615 372.001 24.4653C373.547 25.2016 375.087 25.9485 376.622 26.7081C382.873 29.669 388.819 31.2211 395.613 29.3848C396.856 28.857 398.089 28.3058 399.312 27.7363C400.016 27.4308 400.719 27.1252 401.443 26.8103C406.168 24.7287 410.823 22.4994 415.484 20.2793C486.638 -13.5303 538.292 3.11765 597.727 52.4395Z" fill="#3EBBFF"/>
<path d="M0 256.361C1.66728 256.478 3.33382 256.605 5 256.736C5.92813 256.806 6.85625 256.876 7.8125 256.947C41.2625 261.292 71.7065 286.514 98.7461 304.908C108.922 311.805 119.402 318.135 130 324.361C130.796 324.833 131.591 325.304 132.411 325.79C201.584 366.685 276.202 396.013 357.25 397.924C358.978 397.967 360.706 398.011 362.434 398.055C366.622 398.161 370.811 398.262 375 398.361C375 399.021 375 399.681 375 400.361C374.34 400.361 373.68 400.361 373 400.361C372.747 401.064 372.495 401.766 372.234 402.49C370.862 405.681 369.144 408.388 367.25 411.299C359.659 423.303 354.591 435.789 354.688 450.111C354.693 450.992 354.699 451.873 354.705 452.781C355.014 469.445 361.446 483.36 373 495.361C375.869 497.874 378.788 500.261 381.812 502.584C384 504.361 384 504.361 385 506.361C292.017 507.695 206.758 479.92 136 418.361C135.264 417.726 134.528 417.09 133.77 416.436C129.357 412.604 125.019 408.69 120.688 404.768C119.266 403.495 117.84 402.226 116.383 400.994C110.015 395.57 104.146 389.659 98.2454 383.737C96.4414 381.928 94.6321 380.124 92.8223 378.32C87.0022 372.504 81.2965 366.666 76 360.361C75.0037 359.208 74.0064 358.056 73.0078 356.904C53.2856 333.984 34.6347 310.155 17.792 285.032C16.1217 282.543 14.4437 280.059 12.7636 277.577C10.9002 274.821 9.04418 272.06 7.1875 269.299C6.47473 268.245 5.76196 267.191 5.02759 266.104C4.37266 265.126 3.71774 264.147 3.04297 263.139C2.4554 262.265 1.86783 261.391 1.26245 260.49C0 258.361 0 258.361 0 256.361Z" fill="#3EBBFF"/>
<path d="M482.062 129.049C483.545 129.053 483.545 129.053 485.058 129.057C496.354 129.215 507.289 130.698 518 134.361C518.07 142.455 518.123 150.548 518.155 158.641C518.171 162.4 518.192 166.158 518.226 169.917C518.259 173.548 518.277 177.179 518.285 180.81C518.29 182.191 518.301 183.573 518.317 184.954C518.438 195.69 517.538 202.464 510 210.361C504.445 214.291 499.625 214.515 492.962 214.538C491.751 214.548 491.751 214.548 490.516 214.558C487.849 214.578 485.183 214.59 482.516 214.6C481.146 214.606 481.146 214.606 479.749 214.612C474.915 214.633 470.082 214.647 465.249 214.657C460.268 214.668 455.287 214.702 450.306 214.742C446.466 214.768 442.627 214.776 438.786 214.78C436.951 214.785 435.115 214.796 433.28 214.815C430.705 214.839 428.131 214.838 425.556 214.831C424.805 214.844 424.055 214.857 423.282 214.87C416.933 214.808 411.8 212.778 406.977 208.615C406.53 208.057 406.084 207.499 405.625 206.924C405.163 206.368 404.702 205.813 404.227 205.24C401.652 201.297 400.75 197.793 400.773 193.112C400.773 192.091 400.773 191.071 400.773 190.019C400.784 188.929 400.794 187.84 400.805 186.717C400.807 185.592 400.81 184.467 400.813 183.308C400.824 179.722 400.849 176.135 400.875 172.549C400.885 170.115 400.894 167.68 400.902 165.246C400.924 159.284 400.958 153.323 401 147.361C401.782 147.209 402.563 147.056 403.368 146.899C419.125 143.813 434.239 139.995 449.428 134.79C460.415 131.06 470.451 128.983 482.062 129.049Z" fill="#3EBBFF"/>
<path d="M341.762 138.924C353.57 142.931 365.765 145.072 378 147.361C378.153 154.441 378.258 161.521 378.33 168.602C378.36 171.007 378.401 173.412 378.453 175.817C378.526 179.288 378.56 182.757 378.586 186.229C378.617 187.293 378.648 188.356 378.68 189.453C378.683 197.119 376.806 202.346 372 208.361C366.049 213.937 360.813 214.511 352.962 214.538C351.751 214.548 351.751 214.548 350.516 214.558C347.849 214.578 345.183 214.59 342.516 214.6C341.146 214.606 341.146 214.606 339.749 214.612C334.916 214.633 330.082 214.647 325.249 214.657C320.268 214.668 315.287 214.702 310.307 214.742C306.467 214.768 302.627 214.776 298.787 214.78C296.951 214.785 295.116 214.796 293.28 214.815C290.705 214.839 288.131 214.838 285.556 214.831C284.805 214.844 284.055 214.857 283.282 214.87C276.931 214.808 271.837 212.76 266.977 208.65C266.531 208.101 266.085 207.552 265.625 206.986C265.164 206.442 264.702 205.898 264.227 205.338C261.371 200.737 260.752 196.228 260.773 190.897C260.773 189.006 260.773 189.006 260.773 187.076C260.784 185.716 260.794 184.355 260.805 182.994C260.808 181.59 260.811 180.186 260.813 178.783C260.821 175.103 260.841 171.424 260.863 167.745C260.883 163.984 260.892 160.224 260.902 156.463C260.924 149.096 260.958 141.729 261 134.361C264.965 133.218 268.889 132.101 272.938 131.299C273.71 131.143 274.482 130.987 275.277 130.826C299.032 126.771 319.339 131.041 341.762 138.924Z" fill="#3EBBFF"/>
<path d="M289.661 294.055C290.416 294.047 291.171 294.038 291.949 294.03C294.439 294.006 296.928 293.997 299.418 293.99C301.158 293.981 302.898 293.972 304.638 293.963C308.286 293.946 311.933 293.939 315.58 293.936C320.233 293.93 324.885 293.893 329.537 293.847C333.132 293.817 336.728 293.81 340.324 293.809C342.037 293.805 343.751 293.793 345.465 293.772C354.784 293.667 363.149 293.585 371 299.361C373.254 301.713 373.254 301.713 374.563 303.986C375.018 304.742 375.473 305.497 375.941 306.275C377.867 310.069 378.122 313.011 378.114 317.21C378.113 319.011 378.113 319.011 378.113 320.849C378.108 322.146 378.103 323.443 378.098 324.779C378.096 326.12 378.094 327.461 378.093 328.802C378.09 332.328 378.08 335.855 378.069 339.381C378.058 342.981 378.054 346.58 378.049 350.18C378.038 357.24 378.021 364.301 378 371.361C346.819 371.995 316.38 369.854 286 362.361C284.601 362.018 284.601 362.018 283.173 361.668C267.385 357.747 267.385 357.747 266 356.361C265.886 354.962 265.841 353.556 265.823 352.152C265.81 351.257 265.797 350.362 265.784 349.44C265.773 347.976 265.773 347.976 265.762 346.482C265.754 345.482 265.746 344.481 265.737 343.45C265.723 341.324 265.713 339.198 265.705 337.072C265.688 333.837 265.644 330.602 265.6 327.367C265.59 325.301 265.581 323.236 265.574 321.17C265.557 320.208 265.539 319.246 265.521 318.256C265.544 311.129 267.04 305.792 271.746 300.338C272.304 299.892 272.862 299.446 273.438 298.986C273.993 298.525 274.549 298.063 275.121 297.588C279.817 294.522 284.162 294.06 289.661 294.055Z" fill="#3EBBFF"/>
<path d="M180.211 287.928C181.493 287.922 182.775 287.917 184.096 287.912C186.804 287.903 189.512 287.905 192.221 287.915C195.673 287.927 199.124 287.906 202.576 287.877C205.892 287.854 209.207 287.861 212.523 287.865C214.369 287.848 214.369 287.848 216.252 287.831C224.211 287.895 229.739 288.77 235.988 294.037C236.425 294.577 236.862 295.117 237.312 295.674C237.762 296.206 238.212 296.738 238.676 297.287C242.754 303.675 243.423 308.798 243.293 316.232C243.289 317.155 243.284 318.077 243.28 319.027C243.263 321.951 243.226 324.875 243.188 327.799C243.172 329.79 243.159 331.782 243.146 333.773C243.114 338.636 243.062 343.499 243 348.361C238.969 347.797 235.496 346.923 231.746 345.349C230.742 344.929 229.738 344.508 228.703 344.075C227.625 343.612 226.548 343.15 225.438 342.674C224.3 342.188 223.162 341.703 221.99 341.203C198.268 330.955 174.074 319.806 152 306.361C152 300.532 155.028 297.539 158.699 293.412C165.288 287.539 171.788 287.908 180.211 287.928Z" fill="#3EBBFF"/>
<path d="M238 141.361C238.099 147.481 238.172 153.6 238.22 159.721C238.24 161.8 238.267 163.88 238.302 165.959C238.351 168.958 238.373 171.956 238.391 174.955C238.411 175.876 238.432 176.797 238.453 177.746C238.456 184.752 236.876 190.029 232.254 195.385C231.696 195.831 231.138 196.277 230.562 196.736C230.007 197.198 229.451 197.659 228.879 198.135C224.659 200.889 220.957 201.616 215.96 201.652C214.167 201.671 214.167 201.671 212.338 201.691C211.055 201.693 209.772 201.695 208.449 201.697C207.108 201.704 205.767 201.71 204.425 201.717C201.617 201.729 198.809 201.733 196 201.732C192.419 201.732 188.839 201.759 185.258 201.793C182.488 201.816 179.718 201.82 176.947 201.819C174.991 201.822 173.035 201.844 171.079 201.866C162.943 201.824 157.109 201.133 150.906 195.439C150.442 194.836 149.978 194.233 149.5 193.611C149.015 192.998 148.531 192.384 148.031 191.752C147.691 191.293 147.351 190.834 147 190.361C148.329 187.238 149.484 185.721 152.395 183.986C153.44 183.354 153.44 183.354 154.506 182.709C155.267 182.265 156.028 181.82 156.812 181.361C157.614 180.884 158.415 180.407 159.24 179.916C161.82 178.386 164.41 176.873 167 175.361C167.82 174.876 168.641 174.39 169.486 173.89C224.444 141.361 224.444 141.361 238 141.361Z" fill="#3EBBFF"/>
<path d="M541 141.361C550.347 144.785 559.585 148.304 568.625 152.486C569.637 152.953 570.649 153.42 571.692 153.9C592.492 163.63 612.402 175.421 632 187.361C631.118 191.623 629.224 194.471 626 197.361C618.855 201.976 611.546 201.947 603.277 201.893C601.977 201.896 600.677 201.9 599.338 201.904C596.6 201.91 593.863 201.902 591.126 201.883C587.637 201.86 584.149 201.873 580.66 201.897C577.303 201.915 573.947 201.902 570.59 201.893C569.347 201.901 568.104 201.909 566.823 201.917C559.305 201.836 553.274 201.343 547.523 195.985C541.62 189.36 540.565 183.671 540.707 175.15C540.713 173.698 540.713 173.698 540.72 172.217C540.737 169.14 540.774 166.063 540.812 162.986C540.827 160.894 540.841 158.801 540.853 156.709C540.886 151.593 540.938 146.477 541 141.361Z" fill="#3EBBFF"/>
<path d="M779 256.361C777.499 260.633 775.282 264.207 772.75 267.924C772.316 268.567 771.882 269.211 771.435 269.874C765.4 278.78 759.218 287.583 753 296.361C752.174 297.529 752.174 297.529 751.331 298.719C743.196 310.176 734.755 321.372 726 332.361C725.285 333.275 725.285 333.275 724.555 334.207C723.416 335.63 722.214 337.002 721 338.361C720.34 338.361 719.68 338.361 719 338.361C717.586 336.412 717.586 336.412 715.945 333.674C715.031 332.171 715.031 332.171 714.098 330.637C713.447 329.556 712.796 328.475 712.125 327.361C705.933 317.243 699.349 307.667 692 298.361C694.7 295.52 697.409 293.261 700.684 291.111C702.059 290.207 702.059 290.207 703.463 289.285C704.444 288.65 705.426 288.016 706.438 287.361C707.457 286.701 708.477 286.04 709.528 285.359C756.072 255.469 756.072 255.469 779 256.361Z" fill="#3EBBFF"/>
<path d="M613.125 279.049C614.177 279.071 615.229 279.094 616.312 279.117C618.877 279.175 621.437 279.257 624 279.361C622.583 282.269 621.018 284.8 619.125 287.424C612.544 297.347 611.443 306.557 611.438 318.299C611.354 342.007 611.354 342.007 606 347.361C603.539 347.627 603.539 347.627 600.625 347.611C599.19 347.619 599.19 347.619 597.727 347.627C594.926 347.354 593.334 346.904 591 345.361C588.09 340.996 588.453 337.503 589 332.361C589.464 330.487 589.931 328.613 590.437 326.75C592.578 318.86 593.385 311.486 593.375 303.299C593.376 302.336 593.378 301.372 593.379 300.38C593.292 294.727 592.597 289.785 591 284.361C598.503 279.748 604.403 278.688 613.125 279.049Z" fill="#3EBBFF"/>
</svg>
