<svg width="462" height="606" viewBox="0 0 462 606" fill="none" xmlns="http://www.w3.org/2000/svg">
<path d="M43.4984 106.877C44.3898 106.878 45.2812 106.879 46.1995 106.88C47.7288 106.878 47.7288 106.878 49.2889 106.876C50.4167 106.879 51.5446 106.883 52.7066 106.886C53.8869 106.886 55.0673 106.886 56.2834 106.886C59.5291 106.887 62.7748 106.892 66.0205 106.899C69.4091 106.905 72.7977 106.905 76.1863 106.907C82.6072 106.91 89.0281 106.918 95.449 106.928C102.757 106.939 110.065 106.945 117.374 106.95C132.411 106.96 147.448 106.978 162.486 107C162.545 107.754 162.604 108.507 162.665 109.284C162.747 110.273 162.83 111.263 162.915 112.282C162.995 113.262 163.075 114.243 163.157 115.253C164.004 122.33 167.757 129.085 173.298 133.562C180.417 138.607 189.093 139.546 197.548 140.188C198.509 140.269 199.47 140.351 200.46 140.436C202.801 140.634 205.143 140.822 207.486 141C206.28 144.618 205.326 145.048 202.193 147.09C201.267 147.699 200.341 148.309 199.387 148.937C198.368 149.597 197.348 150.257 196.298 150.938C194.679 152.001 193.059 153.065 191.441 154.13C189.691 155.279 187.94 156.425 186.189 157.57C180.349 161.395 174.543 165.272 168.736 169.146C166.852 170.402 164.967 171.655 163.081 172.908C160.127 174.872 157.18 176.845 154.237 178.825C153.047 179.623 151.855 180.419 150.661 181.212C148.877 182.398 147.101 183.594 145.326 184.793C144.292 185.485 143.258 186.178 142.192 186.891C137.38 190.64 134.401 195.255 132.486 201C131.755 210.482 132.457 217.637 138.673 225C139.6 226.01 140.533 227.014 141.486 228C140.071 231.339 138.422 233.115 135.611 235.375C130.461 239.73 126.847 244.025 126.212 251.004C125.952 260.128 126.915 266.887 133.13 273.84C139.385 279.615 146.173 281.453 154.486 282C154.765 282.785 155.045 283.57 155.333 284.379C158.566 292.85 161.873 298.082 169.548 302.938C177.198 305.648 186.012 305.152 193.298 301.75C199.454 298.314 205.161 294.113 210.788 289.876C211.483 289.361 212.179 288.847 212.896 288.316C213.826 287.612 213.826 287.612 214.775 286.893C215.339 286.598 215.904 286.304 216.486 286C220.251 287.255 220.352 288.246 222.111 291.688C225.627 297.854 230.251 300.883 236.486 304C249.188 304.807 256.826 303.607 266.701 295.426C268.486 294 268.486 294 269.486 294C269.626 307.866 269.215 321.706 268.736 335.562C268.672 337.4 268.672 337.4 268.608 339.274C266.701 393.271 262.511 447.172 257.607 500.972C256.812 509.714 256.113 518.442 255.864 527.218C255.711 531.703 255.216 536.07 254.599 540.515C252.95 553.12 252.246 565.824 251.361 578.5C251.177 581.077 250.994 583.654 250.81 586.23C250.364 592.487 249.923 598.743 249.486 605C233.596 605.023 217.707 605.041 201.817 605.052C194.44 605.057 187.062 605.064 179.685 605.075C173.257 605.085 166.83 605.092 160.402 605.094C156.996 605.095 153.591 605.098 150.185 605.106C146.39 605.113 142.594 605.114 138.798 605.114C137.661 605.117 136.524 605.121 135.352 605.124C134.324 605.123 133.297 605.122 132.238 605.12C131.339 605.121 130.44 605.122 129.514 605.123C127.486 605 127.486 605 126.486 604C126.318 602.214 126.218 600.421 126.144 598.628C126.094 597.464 126.044 596.301 125.992 595.102C125.941 593.817 125.89 592.531 125.837 591.207C125.78 589.855 125.722 588.503 125.664 587.151C125.54 584.238 125.419 581.325 125.3 578.412C125.012 571.399 124.712 564.386 124.412 557.373C124.344 555.768 124.275 554.163 124.207 552.558C123.744 541.669 123.243 530.783 122.693 519.898C122.628 518.628 122.564 517.357 122.498 516.049C122.37 513.516 122.242 510.984 122.113 508.452C120.812 482.712 119.855 456.974 119.132 431.212C119.095 429.938 119.058 428.664 119.021 427.352C118.953 424.991 118.888 422.63 118.827 420.269C118.685 415.31 118.462 410.399 117.97 405.462C117.397 399.616 117.343 393.807 117.302 387.938C117.242 384.477 117.174 381.018 117.105 377.558C117.067 375.186 117.045 372.814 117.04 370.442C117.57 354.674 117.57 354.674 110.673 341.262C108.975 339.805 107.249 338.378 105.486 337C83.397 311.284 74.0475 275.738 73.9857 242.562C73.983 241.71 73.9803 240.858 73.9775 239.98C73.9886 223.691 76.0466 208.727 80.4857 193C80.7153 192.175 80.9449 191.35 81.1815 190.5C85.5557 175.402 92.6385 159.651 101.583 146.744C102.783 144.754 102.783 144.754 102.486 141.125C101.758 137.731 101.758 137.731 98.4857 136C94.6614 136.07 92.3499 136.112 89.6185 138.918C74.929 160.145 66.3989 185.851 61.4857 211C61.2407 212.228 60.9958 213.457 60.7435 214.723C53.8918 256.349 64.1365 303.39 88.6732 337.688C90.8417 340.616 92.9443 343.424 95.441 346.079C101.375 352.68 102.701 357.512 102.818 366.258C102.865 367.469 102.912 368.681 102.96 369.929C103.083 373.286 103.172 376.641 103.246 379.999C103.335 383.623 103.469 387.245 103.597 390.867C103.819 397.318 104.012 403.77 104.187 410.223C104.505 421.919 104.877 433.614 105.251 445.309C105.648 457.727 106.04 470.145 106.397 482.565C107.071 505.78 107.984 528.968 109.156 552.163C109.545 559.981 109.84 567.802 110.111 575.625C110.17 577.317 110.17 577.317 110.231 579.044C110.427 585.17 110.506 591.287 110.495 597.416C110.494 598.149 110.494 598.882 110.493 599.637C110.491 601.425 110.489 603.212 110.486 605C100.594 605.023 90.7019 605.041 80.81 605.052C76.2172 605.057 71.6245 605.064 67.0318 605.075C62.6033 605.086 58.1749 605.092 53.7464 605.095C52.053 605.097 50.3596 605.1 48.6663 605.106C46.3027 605.113 43.9393 605.114 41.5757 605.114C40.8687 605.117 40.1616 605.121 39.4331 605.124C34.5997 605.114 34.5997 605.114 33.4857 604C33.1334 601.858 32.8432 599.705 32.5755 597.551C32.4878 596.856 32.4 596.161 32.3096 595.445C32.1148 593.897 31.9219 592.35 31.7307 590.802C31.3052 587.358 30.8704 583.915 30.4362 580.472C30.1933 578.545 29.951 576.617 29.709 574.69C28.2415 563.013 26.7256 551.343 25.2139 539.671C16.4123 471.709 16.4123 471.709 15.1678 457.705C14.7732 453.368 14.2177 449.078 13.5794 444.77C12.1789 435.145 11.1515 425.481 10.1107 415.812C10.003 414.816 9.89544 413.82 9.78457 412.793C-2.18752 301.622 -2.18752 301.622 4.48565 246C4.61956 244.84 4.75346 243.681 4.89142 242.486C6.62908 227.785 9.30991 213.338 12.4232 198.875C12.5863 198.114 12.7495 197.352 12.9176 196.568C16.4792 180.074 21.0331 163.924 26.2357 147.875C26.4458 147.224 26.6559 146.574 26.8723 145.903C39.4205 107.126 39.4205 107.126 43.4984 106.877Z" fill="#3EBBFF"/>
<path d="M399.486 0C403.911 1.37233 405.825 3.2209 408.611 6.875C411.965 11.1409 415.417 15.2122 419.111 19.1875C424.262 24.7512 429.279 30.405 434.193 36.1797C439.163 42.0149 444.162 47.8036 449.361 53.4375C450.697 54.8935 450.697 54.8935 452.06 56.3789C453.526 57.9635 455.005 59.5373 456.505 61.0898C458.8 63.5459 460.354 65.4144 461.099 68.7305C460.143 73.8284 456.786 76.1149 452.986 79.4375C451.415 80.8604 449.845 82.2836 448.275 83.707C447.473 84.4233 446.672 85.1395 445.846 85.8774C442.297 89.0693 438.831 92.3478 435.361 95.625C434.04 96.864 432.718 98.1022 431.396 99.3398C430.749 99.9455 430.102 100.551 429.435 101.175C421.574 108.532 413.708 115.883 405.798 123.188C405.27 123.676 404.741 124.165 404.197 124.668C401.588 127.076 398.969 129.47 396.326 131.84C381.434 145.22 372.43 159.474 363.048 176.938C347.991 204.957 329.304 232.664 304.486 253C302.996 254.278 301.506 255.556 300.016 256.834C293.311 262.567 286.432 268.054 279.463 273.461C277.275 275.164 275.095 276.879 272.915 278.594C271.335 279.833 269.754 281.073 268.173 282.312C267.445 282.887 266.716 283.462 265.965 284.054C250.703 295.98 250.703 295.98 242.001 295.457C237.073 294.562 234.433 292.05 231.173 288.438C227.87 283.666 227.63 278.622 228.486 273C231.725 266.3 238.195 261.079 243.486 256C237 259.997 230.716 264.206 224.537 268.662C218.602 272.936 212.611 277.13 206.611 281.312C205.636 281.994 204.661 282.676 203.657 283.379C185.31 296.152 185.31 296.152 176.486 295C172.546 293.61 169.948 291.475 167.048 288.5C164.782 283.425 164.378 278.455 165.486 273C168.527 266.889 173.649 263.27 179.111 259.438C180.798 258.224 182.486 257.011 184.173 255.797C185.042 255.177 185.911 254.558 186.806 253.92C191.273 250.719 195.69 247.451 200.111 244.188C200.934 243.583 201.757 242.978 202.605 242.355C203.362 241.798 204.12 241.242 204.9 240.668C205.904 239.93 205.904 239.93 206.93 239.177C208.444 238.088 208.444 238.088 209.486 237C208.386 237.713 207.287 238.426 206.154 239.16C204.66 240.128 203.167 241.095 201.673 242.062C200.595 242.761 200.595 242.761 199.495 243.475C195.397 246.128 191.288 248.764 187.165 251.379C180.166 255.826 173.235 260.376 166.3 264.922C164.828 265.885 164.828 265.885 163.326 266.867C162.001 267.735 162.001 267.735 160.649 268.621C155.757 271.74 151.187 271.556 145.486 271C140.606 268.871 138.287 265.967 136.181 261.215C135.004 257.465 134.587 253.844 135.486 250C138.03 245.476 140.801 242.651 144.986 239.625C145.514 239.241 146.043 238.856 146.587 238.46C150.983 235.289 155.484 232.278 160.013 229.301C167.58 224.315 175.02 219.136 182.486 214C183.078 213.592 183.671 213.185 184.282 212.765C189.632 209.186 189.632 209.186 194.486 205C193.633 205.505 192.781 206.009 191.903 206.529C188.727 208.407 185.549 210.281 182.37 212.153C180.997 212.963 179.625 213.774 178.253 214.586C176.276 215.756 174.297 216.921 172.318 218.086C171.405 218.628 171.405 218.628 170.474 219.181C164.545 222.658 159.5 225.077 152.486 224C147.036 221.435 143.824 217.463 141.486 212C140.554 207.748 141.293 204.478 142.923 200.438C147.75 192.951 157.074 188.15 164.392 183.395C165.315 182.789 166.239 182.184 167.191 181.56C170.12 179.641 173.052 177.726 175.986 175.812C188.734 167.49 201.385 159.088 213.766 150.226C216.094 148.566 218.443 146.935 220.794 145.309C221.497 144.819 222.201 144.33 222.925 143.826C224.313 142.861 225.704 141.901 227.097 140.943C227.781 140.466 228.465 139.988 229.169 139.496C229.763 139.085 230.356 138.675 230.968 138.252C232.767 136.89 232.767 136.89 234.486 134C233.783 133.955 233.08 133.91 232.356 133.864C219.957 133.055 207.567 132.182 195.236 130.625C193.909 130.473 193.909 130.473 192.555 130.317C185.785 129.403 180.82 127.58 176.111 122.375C172.746 117.457 172.654 112.85 173.486 107C175.972 101.889 179.654 99.4787 184.979 97.6025C190.264 96.3323 195.701 96.4594 201.111 96.375C203.639 96.3073 206.168 96.2383 208.697 96.168C209.889 96.1388 211.081 96.1096 212.309 96.0796C223.204 95.8066 233.671 94.3605 244.403 92.519C255.508 90.6243 266.494 89.1066 277.767 88.8008C278.868 88.7694 279.969 88.7381 281.103 88.7058C283.25 88.6535 285.398 88.6187 287.546 88.6047C306.572 88.1923 320.949 76.1842 334.486 64C335.606 63.0112 335.606 63.0112 336.749 62.0024C347.536 52.3233 357.656 41.943 367.878 31.6758C370.462 29.0815 373.049 26.4901 375.636 23.8984C380.22 19.3049 384.801 14.7085 389.381 10.1111C391.747 7.73804 394.115 5.36794 396.486 3C397.084 2.40188 397.682 1.80375 398.298 1.1875C398.69 0.795625 399.082 0.40375 399.486 0Z" fill="#3EBBFF"/>
<path d="M423.486 527C426.545 528.316 428.137 529.481 429.931 532.281C430.58 533.284 430.58 533.284 431.242 534.307C431.693 535.031 432.145 535.754 432.611 536.5C433.323 537.623 433.323 537.623 434.05 538.769C437.508 544.284 440.799 549.888 443.986 555.562C444.394 556.287 444.803 557.011 445.224 557.758C450.427 567.21 453.038 575.308 451.087 586.23C449.028 592.93 444.074 598.47 438.419 602.457C431.525 606.05 423.633 606.03 416.122 604.527C408.476 602.048 403.853 597.192 400.048 590.25C396.274 582.001 396.459 576.284 399.486 567.812C405.178 554.239 412.972 537.514 423.486 527Z" fill="#3EBBFF"/>
<path d="M335.486 453C339.117 454.21 339.541 455.185 341.56 458.348C342.141 459.256 342.723 460.163 343.322 461.099C343.933 462.077 344.544 463.055 345.173 464.062C345.799 465.057 346.424 466.051 347.069 467.075C365.922 497.417 365.922 497.417 363.486 510C360.418 518.421 356.492 524.532 348.72 529.02C342.085 532.072 333.805 532.407 326.896 530.156C320.141 526.738 315.895 521.341 311.548 515.312C307.932 504.038 311.403 494.047 316.543 483.917C322.151 473.141 328.57 462.976 335.486 453Z" fill="#3EBBFF"/>
<path d="M323.486 336C324.146 336 324.806 336 325.486 336C327.275 338.444 328.927 340.884 330.548 343.438C331.033 344.194 331.518 344.951 332.018 345.731C347.739 370.624 347.739 370.624 346.486 384C344.769 390.648 341.278 395.327 335.486 399C329.425 401.974 323.08 401.82 316.486 401C309.772 398.395 305.426 393.484 302.486 387C299.283 376.171 303.484 367.474 308.486 358C312.844 350.249 317.47 342.583 323.486 336Z" fill="#3EBBFF"/>
<path d="M404.486 389C405.146 389 405.806 389 406.486 389C408.294 391.487 409.968 393.969 411.611 396.562C412.098 397.324 412.586 398.086 413.089 398.872C427.728 422.036 427.728 422.036 426.486 436C424.504 443.2 419.42 447.661 413.173 451.375C406.496 452.928 400.333 452.777 394.306 449.336C389.528 445.829 386.344 441.626 384.486 436C382.302 419.468 394.054 403.593 403.076 390.625C403.774 389.821 403.774 389.821 404.486 389Z" fill="#3EBBFF"/>
<path d="M351.486 244C355.974 245.483 357.645 248.991 359.861 252.875C360.25 253.545 360.639 254.216 361.04 254.906C362.204 256.93 363.347 258.963 364.486 261C365.119 262.115 365.752 263.23 366.404 264.379C369.534 270.201 371.589 274.382 370.486 281C368.376 287.073 365.348 291.069 359.486 294C353.653 294.491 348.307 294.831 342.923 292.375C338.489 288.055 336.228 284.885 335.736 278.625C336.021 270.104 340.341 263.221 344.486 256C344.837 255.379 345.189 254.757 345.552 254.117C347.482 250.715 349.458 247.345 351.486 244Z" fill="#3EBBFF"/>
</svg>
