<svg width="607" height="555" viewBox="0 0 607 555" fill="none" xmlns="http://www.w3.org/2000/svg">
<path d="M522.123 1.12116C526.731 3.90178 529.638 6.88238 531.123 12.1212C531.351 15.231 531.312 18.3177 531.248 21.4337C531.239 22.2696 531.23 23.1056 531.221 23.9669C531.197 26.0184 531.162 28.0698 531.123 30.1212C531.726 29.4225 532.33 28.7238 532.951 28.004C533.751 27.0939 534.55 26.1838 535.373 25.2462C536.162 24.3412 536.951 23.4363 537.764 22.504C540.974 19.2617 542.926 18.2567 547.436 17.7462C552.943 18.3062 556.479 20.1684 560.123 24.4962C561.406 27.8641 561.146 29.6866 560.123 33.1212C558.561 35.4962 558.561 35.4962 557.123 37.1212C558.794 37.7708 558.794 37.7708 560.498 38.4337C564.123 40.1212 564.123 40.1212 566.123 43.1212C565.762 49.0269 563.918 54.5102 562.123 60.1212C562.958 59.4715 562.958 59.4715 563.811 58.8087C570.83 53.6868 570.83 53.6868 575.248 53.4962C580.73 54.3803 584.236 56.0511 588.061 60.2462C590.577 67.0559 589.577 72.7341 586.623 79.2462C585.808 80.8805 584.981 82.5091 584.123 84.1212C585.239 83.3922 585.239 83.3922 586.377 82.6485C589.98 80.6444 593.133 80.417 597.123 81.1212C601.483 83.342 604.291 85.5419 606.123 90.1212C606.93 96.8914 605.402 102.204 602.748 108.371C602.392 109.225 602.037 110.079 601.67 110.959C593.537 130.211 584.854 148.189 571.123 164.121C570.263 165.183 570.263 165.183 569.385 166.266C565.058 171.501 560.08 175.648 554.752 179.838C552.983 181.231 551.224 182.636 549.467 184.043C548.837 184.548 548.206 185.052 547.557 185.572C546.267 186.606 544.977 187.64 543.687 188.674C540.808 190.983 537.922 193.277 535.002 195.535C518.801 208.253 510.387 226.52 501.147 244.479C495.44 255.535 489.324 266.336 483.123 277.121C481.962 279.152 480.8 281.184 479.639 283.215C472 296.544 464.204 309.774 456.343 322.972C450.057 333.529 443.831 344.12 437.641 354.734C434.221 360.588 430.757 366.397 427.123 372.121C418.197 371.434 410.775 365.338 403.506 360.574C397.834 357.115 391.561 357.469 385.123 358.121C380.096 359.822 376.389 362.808 372.596 366.438C367.713 370.754 362.244 373.268 356.373 375.996C339.34 384.219 327.91 392.548 320.123 410.121C319.649 411.491 319.188 412.865 318.748 414.246C317.183 418.772 314.085 421.981 311.053 425.613C307.285 430.51 305.466 435.977 303.623 441.809C302.376 445.736 300.526 448.757 298.123 452.121C297.173 454.973 296.897 457.02 296.811 459.996C296.773 460.839 296.736 461.682 296.697 462.551C296.927 465.286 296.927 465.286 299.065 467.445C301.682 470.847 302.016 473.913 302.373 478.059C302.484 479.175 302.484 479.175 302.597 480.314C304.407 500.048 304.407 500.048 300.123 507.121C298.369 508.984 298.369 508.984 296.561 510.434C295.961 510.925 295.362 511.416 294.744 511.922C289.719 515.639 283.071 514.956 277.123 514.121C265.299 511.248 254.03 505.392 242.966 500.465C214.038 486.927 214.038 486.927 183.278 479.18C163.403 476.628 146.314 465.86 129.123 456.121C128.078 455.53 127.033 454.939 125.956 454.33C112.085 446.46 98.4147 438.317 84.9 429.852C80.7879 427.289 76.6548 424.761 72.5233 422.23C53.5514 410.599 34.8281 398.649 16.3107 386.309C15.5623 385.81 14.8139 385.312 14.0428 384.798C11.9161 383.38 9.7908 381.96 7.66613 380.539C7.01932 380.108 6.37252 379.676 5.70611 379.231C1.23996 376.238 1.23996 376.238 0.123162 375.121C0.0251728 372.15 -0.006738 369.203 0.00292271 366.231C0.00206829 365.287 0.00117851 364.343 0.000298199 363.37C-0.00135949 360.181 0.00418956 356.992 0.00963658 353.803C0.00991841 351.527 0.00977605 349.251 0.00920933 346.975C0.00892122 340.774 0.0148195 334.574 0.0217826 328.374C0.0280138 321.903 0.0285899 315.431 0.0297782 308.959C0.0325379 298.09 0.0388087 287.221 0.0477225 276.352C0.0568959 265.155 0.0639771 253.957 0.0682303 242.76C0.0684931 242.07 0.0687531 241.381 0.0690238 240.67C0.0703288 237.21 0.0715648 233.75 0.072808 230.29C0.0831815 201.567 0.100905 172.844 0.123162 144.121C20.8968 152.198 40.418 167.459 56.5177 182.668C58.7305 184.751 60.9856 186.729 63.3107 188.684C72.8441 197.05 80.0713 207.246 87.588 217.379C91.3125 222.395 95.1426 227.305 99.1232 232.121C99.8543 233.047 100.585 233.973 101.339 234.927C104.024 238.139 107.073 240.752 110.385 243.297C111.292 244.001 111.292 244.001 112.218 244.719C119.527 250.308 127.218 255.309 134.936 260.309C136.482 261.317 138.027 262.326 139.572 263.336C148.554 269.194 157.578 274.985 166.623 280.746C186.663 293.516 206.902 306.625 224.123 323.121C225.013 323.947 225.902 324.774 226.818 325.625C233.984 332.481 239.631 339.91 245.123 348.121C245.69 348.967 246.258 349.813 246.842 350.684C249.308 354.367 251.77 358.052 254.214 361.75C257.428 366.611 260.702 371.404 264.123 376.121C267.88 372.751 270.194 368.968 272.748 364.684C277.043 357.649 281.738 351.143 286.873 344.707C288.146 343.092 289.388 341.457 290.623 339.813C295.341 333.541 300.242 327.597 305.604 321.852C307.598 319.69 309.542 317.505 311.471 315.285C315.021 311.212 318.673 307.246 322.373 303.309C323.023 302.616 323.673 301.923 324.342 301.209C328.982 296.281 333.713 291.47 338.561 286.746C340.497 284.763 342.282 282.779 344.072 280.672C348.459 275.644 353.175 270.956 357.909 266.26C359.536 264.647 361.159 263.03 362.781 261.412C366.808 257.399 370.84 253.391 374.872 249.382C378.291 245.983 381.708 242.582 385.122 239.178C386.708 237.598 388.297 236.022 389.886 234.446C394.658 229.698 399.331 224.917 403.692 219.786C405.144 218.097 406.651 216.481 408.193 214.875C424.677 197.695 441.632 178.903 441.404 153.879C440.683 144.246 437.923 134.99 434.498 125.996C430.317 114.61 429.955 103.369 429.873 91.3712C429.864 90.3298 429.854 89.2885 429.845 88.2156C429.913 72.0238 435.136 48.1086 447.123 36.1212C450.132 35.7758 452.216 35.5587 455.123 36.1212C457.814 38.2969 459.578 40.0318 461.123 43.1212C461.173 45.6284 461.166 48.1079 461.115 50.6133C461.098 52.1381 461.081 53.6628 461.065 55.1876C461.034 57.5929 460.998 59.9978 460.952 62.4029C460.909 64.7231 460.886 67.0429 460.865 69.3633C460.847 70.0801 460.828 70.7969 460.809 71.5354C460.793 74.661 460.948 76.8027 462.467 79.567C464.097 81.359 464.097 81.359 466.873 81.7462C471.864 80.7864 475.419 77.5966 478.293 73.4214C479.294 71.5613 480.162 69.6857 480.998 67.7462C481.325 67.0192 481.652 66.2923 481.988 65.5433C488.791 50.0852 494.345 34.0702 499.385 17.9627C503.497 5.1429 503.497 5.1429 509.311 1.68366C513.641 -0.513877 517.563 -0.407059 522.123 1.12116Z" fill="#3EBBFF"/>
<path d="M255.123 18.1211C255.783 18.1211 256.443 18.1211 257.123 18.1211C258.457 19.9717 258.457 19.9717 260.002 22.6055C260.584 23.5892 261.167 24.5729 261.768 25.5864C262.4 26.6704 263.033 27.7543 263.685 28.8711C264.697 30.5832 265.709 32.2953 266.722 34.0065C267.432 35.2052 268.14 36.4044 268.848 37.6041C271.344 41.8269 273.878 46.0242 276.439 50.207C276.795 50.7879 277.15 51.3688 277.517 51.9672C278.05 52.8382 278.05 52.8382 278.594 53.7268C315.993 114.805 315.993 114.805 326.123 146.121C326.604 147.475 326.604 147.475 327.095 148.855C332.72 166.96 329.739 186.318 321.373 202.934C310.772 220.86 294.549 232.729 274.623 238.559C255.514 243.174 235.518 240.734 218.552 230.73C214.554 228.082 210.817 225.174 207.123 222.121C205.91 221.21 205.91 221.21 204.673 220.281C190.832 208.559 183.656 190.266 181.74 172.59C180.629 140.29 201.496 107.884 217.123 81.1211C218.113 79.4134 219.104 77.7057 220.094 75.9978C227.744 62.8146 235.529 49.7145 243.435 36.6836C243.796 36.0888 244.156 35.4941 244.528 34.8813C246.71 31.2846 248.893 27.6885 251.123 24.1211C252.159 22.46 252.159 22.46 253.217 20.7654C253.846 19.8928 254.475 19.0202 255.123 18.1211Z" fill="#3EBBFF"/>
<path d="M183.123 497.121C189.254 497.566 194.582 498.665 200.311 500.871C201.1 501.168 201.889 501.464 202.702 501.77C211.914 505.307 220.935 509.315 229.973 513.27C261.786 529.129 261.786 529.129 295.936 529.934C303.663 526.891 309.103 522.72 314.123 516.121C315.113 516.451 316.103 516.781 317.123 517.121C320.637 524.698 320.474 532.954 320.123 541.121C316.84 542.907 313.545 544.672 310.248 546.434C309.331 546.933 308.413 547.433 307.467 547.947C295.604 554.255 286.095 556.999 272.998 553.309C256.026 547.872 240.306 538.949 225.104 529.805C214.741 523.581 208.045 521.747 196.041 522.326C188.815 522.528 188.815 522.528 185.057 520.316C180.8 515.483 179.626 510.484 179.819 504.211C180.236 501.352 181.37 499.386 183.123 497.121Z" fill="#3EBBFF"/>
<path d="M362.123 398.121C366.662 400.264 370.738 402.938 374.916 405.705C377.321 407.248 379.771 408.684 382.248 410.109C383.129 410.62 384.009 411.13 384.916 411.655C386.63 412.646 388.348 413.63 390.07 414.607C398.406 419.506 404.547 425.765 409.936 433.746C410.664 434.811 411.392 435.876 412.143 436.973C416.928 444.58 418.151 450.155 417.123 459.121C415.023 463.554 412.302 466.534 408.123 469.121C405.248 469.871 405.248 469.871 402.123 469.121C399.411 466.762 397.308 463.964 395.123 461.121C389.029 453.262 382.434 446.259 375.327 439.311C371.898 435.949 368.62 432.578 365.537 428.895C362.431 425.285 359.204 422.84 355.123 420.434C353.901 419.675 352.68 418.916 351.459 418.156C350.358 417.485 349.257 416.813 348.123 416.121C345.553 414.55 343.421 413.09 341.123 411.121C340.717 408.715 340.717 408.715 341.123 406.121C342.803 404.137 342.803 404.137 344.998 402.371C346.077 401.482 346.077 401.482 347.178 400.574C351.837 397.094 356.507 397.123 362.123 398.121Z" fill="#3EBBFF"/>
<path d="M339.123 428.121C348.592 433.935 356.513 442.09 364.255 449.972C366.01 451.759 367.777 453.534 369.545 455.308C374.769 460.57 379.935 465.827 384.669 471.542C386.319 473.333 388.111 474.729 390.061 476.183C392.607 478.343 393.072 478.934 393.998 482.308C392.058 490.761 386.393 498.386 379.123 503.121C377.135 504.145 375.137 505.149 373.123 506.121C372.757 505.296 372.391 504.471 372.014 503.621C367.617 494.241 362.183 486.301 355.751 478.202C354.085 476.072 352.481 473.905 350.881 471.726C345.229 464.19 340.94 458.95 331.662 455.988C327.312 454.503 325.352 451.935 322.811 448.183C321.839 445.27 321.756 443.181 322.123 440.121C326.192 432.887 330.213 425.858 339.123 428.121Z" fill="#3EBBFF"/>
<path d="M396.123 374.121C398.693 375.793 398.693 375.793 401.248 377.871C408.304 383.223 415.746 386.244 424.248 388.559C431.035 390.507 436.862 393.753 441.748 398.871C444.385 405.105 443.803 410.921 441.623 417.246C439.282 422.54 435.754 426.657 431.123 430.121C428.873 430.836 428.873 430.836 427.123 431.121C426.578 430.371 426.033 429.621 425.471 428.848C423.059 425.575 420.604 422.341 418.123 419.121C417.462 418.251 416.8 417.381 416.119 416.484C409.953 408.991 402.274 404.379 394.107 399.358C391.432 397.69 388.833 395.925 386.248 394.121C385.508 393.606 384.768 393.09 384.006 392.559C379.253 388.93 379.253 388.93 378.732 385.695C379.214 382.523 380.214 381.278 382.373 378.934C382.976 378.259 383.58 377.585 384.201 376.891C388.237 373.174 390.758 372.62 396.123 374.121Z" fill="#3EBBFF"/>
<path d="M216.123 151.121C217.719 152.42 217.719 152.42 219.123 154.121C219.402 157.004 219.534 159.737 219.561 162.621C219.976 174.837 223.124 184.025 231.819 192.84C238.271 198.743 245.041 200.483 253.452 202.18C256.587 203.285 257.534 204.239 259.123 207.121C259.631 211.11 259.49 213.388 257.686 216.996C253.924 220.115 250.943 220.465 246.123 220.121C236.979 218.352 229.602 214.561 222.123 209.121C221.172 208.481 221.172 208.481 220.202 207.828C209.467 199.827 203.752 185.821 201.123 173.121C200.328 165.894 200.28 159.436 204.123 153.121C207.408 149.229 211.557 149.64 216.123 151.121Z" fill="white"/>
<path d="M319.123 470.121C325.516 470.449 332.035 473.388 336.819 477.621C339.026 480.13 340.909 482.81 342.807 485.559C347.748 492.626 353.283 498.503 359.463 504.469C362.603 507.6 362.986 508.339 363.748 512.684C363.687 516.876 362.109 518.769 359.248 521.746C352.154 528.195 345.412 532.008 336.123 534.121C335.892 533.033 335.662 531.945 335.424 530.824C333.447 521.798 330.992 513.545 327.123 505.121C326.201 503.045 325.286 500.966 324.374 498.885C323.765 497.497 323.152 496.111 322.534 494.726C319.823 488.607 317.843 483.556 317.936 476.809C317.942 475.761 317.949 474.713 317.955 473.633C318.123 471.121 318.123 471.121 319.123 470.121Z" fill="#3EBBFF"/>
</svg>
