<svg width="201" height="389" viewBox="0 0 201 389" fill="none" xmlns="http://www.w3.org/2000/svg">
<path d="M27.6356 387.43C23.9056 386.91 23.9956 385.16 28.8856 361.76C35.4956 330.17 34.8056 325.98 17.8156 294C-2.54441 255.68 -5.06441 231.84 8.26559 203.58C34.2156 148.57 124.276 136.43 163.426 182.66C175.436 196.85 185.366 226.28 182.886 240.3C181.296 249.25 181.576 250.09 191.996 267C203.796 286.17 203.866 291.3 192.406 295.36C186.626 297.41 185.386 299.58 186.906 304.98C187.946 308.66 187.826 309.57 185.906 313.06C184.576 315.49 183.996 317.77 184.396 319.03C184.796 320.29 184.196 322.7 182.826 325.29C181.056 328.65 180.576 331.32 180.466 338.5C180.216 354.89 174.446 359.65 153.166 361.02C139.986 361.87 135.846 363.3 133.376 367.82C132.546 369.34 131.196 374.73 130.376 379.8L128.886 389C52.5456 388.08 29.1456 387.65 27.6356 387.43Z" fill="#3EBBFF"/>
<path d="M63.8856 26.42C73.3856 24.13 73.3856 24.13 73.6156 17.32C74.1456 1.7 75.8456 0 90.8856 0C105.806 0 107.656 1.81 108.146 16.82C108.386 24.13 108.386 24.13 117.886 26.42C135.726 30.71 154.886 43.15 154.886 50.45C154.886 50.75 126.086 51 90.8856 51C33.4756 51 26.8856 50.84 26.8856 49.43C26.8856 43.21 47.5756 30.34 63.8856 26.42Z" fill="#3EBBFF"/>
<path d="M19.3356 58.4501C23.2156 54.5801 158.556 54.5801 162.436 58.4501C165.226 61.2501 165.386 62.4701 163.436 66.0001C162.046 68.5001 162.046 68.5001 91.4656 68.7501C20.8856 69.0001 20.8856 69.0001 18.8856 66.3201C16.2856 62.8301 16.3656 61.4301 19.3356 58.4501Z" fill="#3EBBFF"/>
<path d="M159.256 126C162.546 121.5 162.546 121.5 167.216 129.27C173.806 140.24 173.286 147.27 165.666 149.93C163.976 150.52 161.976 151 161.236 151C160.496 151 158.516 150.1 156.836 149C150.186 144.64 150.956 137.32 159.256 126Z" fill="#3EBBFF"/>
<path d="M14.5556 129.18C19.9256 120.56 19.8657 120.54 26.6257 132.78C30.5557 139.88 30.5556 144.1 26.6156 147.76C25.3956 148.91 22.9256 150.1 21.1356 150.42C19.0056 150.8 16.9356 150.43 15.1356 149.35C8.16565 145.16 8.00565 139.69 14.5556 129.18Z" fill="#3EBBFF"/>
<path d="M141.376 87.6799C146.856 78.3099 146.746 78.3199 152.346 87.1599C158.616 97.0399 158.476 103.09 151.906 106.49C150.296 107.32 147.836 108 146.436 108C145.036 108 142.886 107.32 141.666 106.49C135.676 102.41 135.606 97.5399 141.376 87.6799Z" fill="#3EBBFF"/>
<path d="M29.3256 87.2001C34.8256 78.2901 34.9056 78.2901 40.3956 87.6801C46.2756 97.7301 46.0856 103.29 39.7356 106.57C38.2256 107.36 35.8356 108 34.4356 108C33.0356 108 31.0956 107.45 30.1356 106.78C23.4556 102.13 23.2456 97.0701 29.3256 87.2001Z" fill="#3EBBFF"/>
<path d="M88.2856 118.09C91.2556 114.12 91.8156 114.53 97.7456 125.08C101.766 132.22 101.816 136.22 97.9656 140.08C95.6856 142.35 94.1356 143 90.9656 143C87.8256 143 86.1956 142.33 83.8856 140.11C79.1056 135.5 80.5056 128.47 88.2856 118.09Z" fill="#3EBBFF"/>
<path d="M85.9556 86.39C91.1456 78.43 90.9656 78.41 96.3956 87.68C102.276 97.73 102.086 103.29 95.7356 106.57C94.2256 107.36 91.8356 108 90.4356 108C89.0356 108 86.8256 107.31 85.5356 106.46C79.4556 102.49 79.5956 96.16 85.9556 86.39Z" fill="#3EBBFF"/>
</svg>
