<svg width="749" height="781" viewBox="0 0 749 781" fill="none" xmlns="http://www.w3.org/2000/svg">
<path d="M340.123 338.123C346.496 341.65 349.998 347.327 352.123 354.123C355.437 367.935 352.009 380.832 345.123 392.912C335.895 407.728 323.785 420.797 311.324 432.937C307.832 436.347 304.601 439.86 301.461 443.596C299.829 445.458 298.053 447.013 296.123 448.561C291.353 452.652 286.553 456.926 285.686 463.373C286.052 465.678 286.437 467.892 287.123 470.123C295.579 472.942 304.765 470.255 313.189 468.596C314.574 468.328 315.958 468.062 317.342 467.795C321.03 467.083 324.716 466.361 328.401 465.635C330.693 465.184 332.986 464.736 335.28 464.289C355.004 460.439 374.651 456.369 394.198 451.696C394.925 451.522 395.652 451.349 396.4 451.17C397.47 450.914 397.47 450.914 398.562 450.653C407.169 448.61 415.835 446.847 424.498 445.061C440.619 441.73 456.597 437.932 472.578 433.99C480.116 432.147 487.683 430.438 495.262 428.769C498.499 428.038 501.724 427.262 504.951 426.486C539.922 418.266 539.922 418.266 553.186 424.311C557.916 427.296 560.921 431.005 563.123 436.123C563.872 442.014 563.615 447.166 560.123 452.123C547.253 466.761 519.341 469.425 501.321 473.48C494.392 475.051 487.484 476.704 480.58 478.381C478.673 478.843 476.767 479.304 474.86 479.766C473.555 480.082 472.25 480.398 470.945 480.714C464.208 482.346 457.468 483.967 450.729 485.588C419.184 493.168 419.184 493.168 387.686 500.936C386.409 501.254 385.132 501.573 383.817 501.902C377.928 503.366 377.928 503.366 372.123 505.123C371.186 507.935 370.988 509.71 370.998 512.623C370.994 513.783 370.994 513.783 370.99 514.967C371.042 517.307 371.042 517.307 372.123 520.123C379.831 522.692 387.493 520.591 395.123 518.623C397.337 518.072 399.55 517.521 401.764 516.971C402.945 516.673 404.127 516.375 405.344 516.069C411.464 514.537 417.598 513.06 423.731 511.578C425.881 511.059 428.03 510.537 430.18 510.016C438.456 508.007 446.736 506.018 455.023 504.054C463.872 501.953 472.709 499.804 481.547 497.658C491.359 495.275 501.175 492.908 510.995 490.562C517.813 488.929 524.623 487.269 531.432 485.6C532.344 485.376 533.257 485.153 534.197 484.922C538.778 483.8 543.358 482.677 547.938 481.549C584.251 472.631 584.251 472.631 597.104 478.783C601.704 481.835 605.002 486.041 607.123 491.123C608.113 497.894 607.169 503.575 603.123 509.123C593.878 520.272 576.886 522.389 563.436 525.56C561.792 525.954 560.149 526.348 558.506 526.742C546.923 529.509 535.31 532.126 523.678 534.674C512.18 537.2 500.726 539.918 489.268 542.618C487.005 543.151 484.741 543.683 482.478 544.215C458.171 549.922 458.171 549.922 433.942 555.951C428.311 557.377 422.663 558.677 416.986 559.904C415.932 560.134 415.932 560.134 414.856 560.369C411.39 561.124 407.923 561.868 404.449 562.588C403.194 562.86 401.939 563.132 400.646 563.412C398.975 563.763 398.975 563.763 397.269 564.122C393.686 565.262 391.108 566.854 388.123 569.123C386.733 571.903 386.938 574.042 387.123 577.123C388.33 580.466 389.044 581.07 392.123 583.123C399.871 583.763 406.609 581.994 414.061 579.998C416.573 579.348 419.086 578.699 421.6 578.053C422.862 577.726 424.124 577.4 425.425 577.063C430.91 575.669 436.418 574.384 441.936 573.123C442.991 572.881 444.047 572.639 445.134 572.39C450.914 571.07 456.697 569.769 462.482 568.475C476.099 565.425 489.69 562.301 503.248 558.998C503.946 558.828 504.644 558.658 505.364 558.483C508.734 557.661 512.103 556.838 515.473 556.015C522.896 554.202 530.321 552.401 537.764 550.674C539.371 550.299 540.976 549.917 542.58 549.529C571.481 542.561 571.481 542.561 583.123 549.123C587.711 552.749 591.038 556.214 592.123 562.123C592.739 568.488 591.811 572.844 588.123 578.123C579.291 588.323 564.6 590.887 552.123 594.06C550.416 594.501 548.71 594.943 547.003 595.384C533.112 598.955 519.159 602.172 505.123 605.123C503.812 605.4 502.502 605.677 501.191 605.954C500.513 606.097 499.835 606.24 499.136 606.388C497.738 606.684 496.339 606.979 494.941 607.275C493.892 607.496 493.892 607.496 492.823 607.723C492.119 607.871 491.416 608.02 490.692 608.173C488.573 608.62 486.454 609.066 484.336 609.512C475.656 611.342 467.008 613.28 458.373 615.31C449.773 617.333 441.162 619.128 432.473 620.723C426.325 621.862 420.249 623.199 414.178 624.696C410.768 625.531 407.375 626.279 403.912 626.865C403.233 626.984 402.553 627.102 401.853 627.224C400.003 627.538 398.149 627.83 396.295 628.119C392.406 629.35 390.666 630.969 388.123 634.123C387.46 638.251 387.688 640.322 389.686 643.998C392.895 646.796 394.895 646.82 399.123 647.123C401.953 646.746 404.614 646.293 407.389 645.682C408.562 645.438 408.562 645.438 409.758 645.189C412.299 644.658 414.836 644.109 417.373 643.56C419.149 643.185 420.925 642.811 422.701 642.437C433.409 640.176 444.101 637.836 454.776 635.425C466.73 632.731 478.727 630.244 490.723 627.75C491.923 627.499 491.923 627.499 493.148 627.244C494.658 626.929 496.168 626.615 497.679 626.303C500.56 625.701 503.327 625.055 506.123 624.123C508.887 623.974 511.609 623.892 514.373 623.873C515.481 623.842 515.481 623.842 516.611 623.81C523.223 623.764 527.874 625.124 532.936 629.623C537.316 634.629 537.56 637.705 537.436 644.178C536.869 649.515 534.216 652.03 530.561 655.685C516.911 666.287 497.133 668.907 480.68 672.534C473.537 674.111 466.43 675.752 459.373 677.685C451.003 679.968 442.56 681.832 434.084 683.68C424.812 685.714 415.591 687.924 406.373 690.185C396.276 692.66 386.171 695.038 376 697.192C368.203 698.855 360.451 700.688 352.697 702.537C340.931 705.339 329.154 708.04 317.311 710.498C315.597 710.856 315.597 710.856 313.849 711.22C310.612 711.882 307.369 712.507 304.123 713.123C303.172 713.32 302.221 713.517 301.241 713.721C291.147 715.591 281.004 715.425 270.776 715.384C267.63 715.373 264.484 715.384 261.338 715.396C251.072 715.405 241.223 715.142 231.123 713.123C228.703 712.701 226.283 712.283 223.861 711.869C220.132 711.214 216.403 710.555 212.676 709.891C175.523 703.38 142.097 710.504 106.111 719.388C101.001 720.645 95.8882 721.887 90.7754 723.131C75.0095 726.97 59.2481 730.828 43.5098 734.779C42.6851 734.986 41.8604 735.193 41.0107 735.406C37.2263 736.357 33.4427 737.31 29.6606 738.27C6.51293 744.123 6.51293 744.123 0.123047 744.123C0.123047 686.043 0.123047 627.963 0.123047 568.123C8.70305 566.143 17.283 564.163 26.123 562.123C31.4234 560.684 36.7072 559.237 41.9849 557.725C45.7373 556.668 49.508 555.681 53.2793 554.693C54.0395 554.494 54.7997 554.295 55.5829 554.089C57.1343 553.683 58.6859 553.277 60.2375 552.872C64.3672 551.792 68.4949 550.705 72.623 549.619C77.138 548.432 81.6531 547.245 86.1699 546.065C125.429 535.789 144.674 521.43 165.77 487.238C173.915 474.042 182.447 461.42 193.123 450.123C194.316 448.732 195.503 447.336 196.686 445.936C207.968 433.063 223.021 423.259 237.248 413.936C238.528 413.09 239.808 412.245 241.088 411.398C243.583 409.749 246.08 408.102 248.578 406.457C249.171 406.067 249.763 405.677 250.374 405.274C252.062 404.163 253.75 403.052 255.438 401.941C261.164 398.151 266.783 394.28 272.248 390.123C272.929 389.608 273.61 389.093 274.312 388.563C290.18 376.524 305.969 363.808 319.748 349.373C332.006 336.993 332.006 336.993 340.123 338.123Z" fill="#3EBBFF"/>
<path d="M0.123143 232.123C4.74149 233.624 9.11144 235.41 13.502 237.475C14.9772 238.161 16.4525 238.846 17.9278 239.532C18.7022 239.893 19.4766 240.254 20.2745 240.626C80.8078 272.261 80.8078 272.261 145.978 269.313C154.009 266.274 161.944 263.014 169.854 259.674C180.129 255.418 190.249 252.447 201.186 250.436C202.279 250.223 203.373 250.011 204.5 249.793C215.642 247.692 226.566 246.982 237.893 246.877C240.354 246.844 242.816 246.811 245.277 246.777C249.09 246.73 252.902 246.686 256.715 246.646C272.616 246.473 288.317 245.909 304.123 244.123C305.407 243.983 306.691 243.843 308.014 243.698C311.287 243.317 314.548 242.893 317.811 242.436C318.966 242.275 320.122 242.114 321.313 241.948C331.016 240.496 340.402 238.203 349.804 235.409C357.164 233.302 364.46 232.01 372.123 233.123C375.197 235.187 376.482 237.84 378.123 241.123C379.438 251.439 376.283 261.111 370.248 269.498C369.227 270.724 368.186 271.933 367.123 273.123C366.646 273.703 366.169 274.283 365.678 274.881C347.577 295.164 313.186 299.36 288.123 304.123C285.39 304.65 282.663 305.193 279.936 305.748C278.931 305.947 277.927 306.145 276.893 306.35C271.018 307.99 267.527 310.308 263.811 315.123C263.041 316.1 262.271 317.077 261.479 318.084C260.701 319.087 259.924 320.09 259.123 321.123C237.074 348.922 205.5 370.632 169.612 375.461C166.409 375.807 163.213 376.13 159.996 376.316C155.192 376.668 152.426 377.553 149.123 381.123C148.383 383.092 148.383 383.092 148.561 385.123C148.559 386.113 148.559 386.113 148.557 387.123C149.418 390.164 150.549 391.281 153.123 393.123C156.048 393.505 158.522 393.646 161.436 393.561C162.24 393.545 163.044 393.53 163.872 393.514C200.399 392.355 233.143 372.305 259.123 348.123C259.813 347.488 260.502 346.852 261.213 346.197C266.944 340.716 271.501 334.542 276.123 328.123C281.023 329.113 284.716 331.771 288.873 334.436C290.062 335.165 290.062 335.165 291.275 335.91C292.024 336.389 292.773 336.868 293.545 337.361C294.232 337.795 294.919 338.228 295.626 338.675C296.12 339.153 296.614 339.631 297.123 340.123C297.123 344.123 297.123 344.123 294.447 347.041C293.246 348.143 292.033 349.232 290.811 350.311C290.169 350.889 289.528 351.468 288.867 352.064C283.43 356.935 277.857 361.608 272.123 366.123C271.558 366.57 270.992 367.018 270.409 367.478C258.704 376.699 246.521 385.024 234.061 393.186C210.356 408.491 210.356 408.491 188.811 426.623C188.151 427.255 187.491 427.887 186.812 428.538C184.9 430.384 183.007 432.248 181.123 434.123C180.604 434.638 180.084 435.154 179.549 435.685C167.949 447.351 159.235 461.201 150.56 475.088C143.105 486.998 135.282 498.449 126.123 509.123C121.13 508.559 117.419 506.273 113.186 503.748C112.436 503.303 111.687 502.857 110.915 502.398C91.7019 490.723 75.9452 474.632 61.3106 457.748C45.259 439.359 25.6701 428.899 3.23349 420.028C1.12314 419.123 1.12314 419.123 0.123143 418.123C0.0254772 415.72 -0.00682569 413.345 0.00288807 410.941C0.00203365 410.181 0.00117921 409.421 0.000298905 408.637C-0.0013582 406.07 0.0041692 403.503 0.0096172 400.935C0.00989905 399.103 0.00974137 397.27 0.00917468 395.437C0.00888662 390.446 0.0147848 385.454 0.0217486 380.463C0.0279807 375.252 0.0285859 370.042 0.0297741 364.832C0.0328878 354.958 0.0411018 345.084 0.0511235 335.21C0.0622833 323.972 0.0677948 312.734 0.072819 301.496C0.0832844 278.372 0.100885 255.247 0.123143 232.123Z" fill="#3EBBFF"/>
<path d="M521.026 0.00288406C522.174 0.00160242 522.174 0.00160242 523.346 0.00029489C525.895 -0.00134382 528.443 0.00413498 530.992 0.00961319C532.825 0.00989543 534.659 0.00973659 536.492 0.00917068C541.459 0.00888416 546.425 0.0147574 551.392 0.0217446C556.586 0.0280024 561.78 0.0285839 566.975 0.0297701C576.806 0.0328762 586.637 0.04108 596.468 0.0511195C609.757 0.0643945 623.045 0.0697863 636.334 0.0756217C657.264 0.0850204 678.193 0.104944 699.123 0.123139C699.123 28.1731 699.123 56.2231 699.123 85.1231C688.243 85.1489 677.364 85.1747 666.154 85.2013C659.264 85.2264 652.373 85.2526 645.482 85.2833C634.544 85.3318 623.606 85.3763 612.668 85.3941C604.701 85.4072 596.735 85.4341 588.769 85.4778C584.552 85.5004 580.335 85.516 576.119 85.515C572.146 85.5143 568.174 85.5323 564.201 85.5643C562.747 85.5728 561.292 85.5746 559.838 85.5689C550.847 85.5388 544.143 85.7914 537.1 91.8692C536.431 92.7065 536.431 92.7065 535.748 93.5606C535.287 94.1162 534.825 94.6718 534.35 95.2442C529.83 102.168 530.76 107.208 530.123 116.123C498.773 116.123 467.423 116.123 435.123 116.123C435.123 70.8432 435.123 70.8432 440.123 59.1231C440.423 58.4162 440.723 57.7094 441.032 56.981C450.821 34.6852 467.431 15.4666 490.396 6.20663C500.614 2.40921 510.021 -0.0426926 521.026 0.00288406Z" fill="#3EBBFF"/>
<path d="M515.123 190.123C520.733 190.123 526.343 190.123 532.123 190.123C532.73 193.393 533.334 196.664 533.936 199.936C534.101 200.826 534.267 201.716 534.438 202.633C535.559 208.751 536.566 214.88 537.521 221.025C539.181 231.667 541.042 242.271 542.936 252.873C543.109 253.847 543.283 254.822 543.462 255.826C547.503 278.49 551.682 301.136 556.583 323.633C556.969 325.412 557.351 327.192 557.73 328.973C568.764 380.747 582.696 420.039 619.686 459.186C636.74 477.251 651.291 496.84 664.123 518.123C664.577 518.875 665.032 519.627 665.5 520.401C708.392 591.836 744.031 687.512 748.123 775.123C746.123 778.123 744.724 779.736 741.15 780.6C739.061 780.748 739.061 780.748 735.123 780.123C730.545 775.955 729.986 771.124 729.01 765.295C728.835 764.326 728.66 763.358 728.48 762.36C728.106 760.281 727.738 758.201 727.376 756.12C726.612 751.736 725.813 747.358 725.014 742.98C724.613 740.781 724.213 738.582 723.815 736.382C716.803 697.703 706.791 660.122 693.789 623.026C693.179 621.282 692.576 619.536 691.973 617.789C678.084 577.743 657.483 526.483 627.123 496.123C626.786 494.112 626.526 492.088 626.311 490.061C624.818 479.635 619.541 471.246 611.283 464.654C607.553 462.152 603.976 460.734 599.686 459.436C591.966 456.834 587.516 450.712 583.123 444.123C582.815 441.797 582.574 439.461 582.373 437.123C581.328 427.594 577.674 419.332 570.123 413.123C569.283 412.649 568.442 412.174 567.576 411.686C557.587 405.638 555.849 397.76 553.123 387.123C552.506 384.856 551.888 382.589 551.268 380.322C538.898 334.383 530.268 287.462 522.525 240.551C522.082 237.878 521.637 235.205 521.191 232.532C520.366 227.58 519.546 222.626 518.73 217.672C518.411 215.738 518.091 213.805 517.77 211.871C517.324 209.177 516.883 206.482 516.443 203.787C516.309 202.984 516.175 202.18 516.037 201.352C515.417 197.514 515.123 194.034 515.123 190.123Z" fill="#3EBBFF"/>
<path d="M432.123 190.123C437.733 190.123 443.343 190.123 449.123 190.123C448.532 200.744 447.169 210.99 445.393 221.463C445.116 223.117 444.841 224.772 444.566 226.426C443.989 229.885 443.408 233.344 442.823 236.802C442.091 241.132 441.368 245.464 440.648 249.796C436.226 276.388 431.664 302.98 425.561 329.248C425.267 330.53 424.973 331.811 424.67 333.132C423.827 336.797 422.976 340.46 422.123 344.123C421.898 345.099 421.672 346.075 421.44 347.081C420.047 353.107 418.606 359.119 417.123 365.123C416.86 366.19 416.597 367.258 416.327 368.357C411.604 387.409 406.788 406.018 397.137 423.249C396.077 425.134 396.077 425.134 395.234 427.253C393.506 430.867 392.159 432.703 388.378 434.236C384.847 435.103 381.338 435.738 377.748 436.311C375.788 436.666 373.829 437.021 371.87 437.38C369.891 437.74 367.911 438.085 365.93 438.431C359.506 439.599 353.156 441.085 346.797 442.563C340.593 443.952 334.464 444.682 328.123 445.123C331.1 440.938 334.083 437.048 337.811 433.498C347.262 424.3 354.837 413.052 362.123 402.123C367.222 403.651 371.78 405.833 376.498 408.248C377.234 408.621 377.97 408.993 378.729 409.377C380.529 410.289 382.326 411.205 384.123 412.123C384.302 411.583 384.481 411.043 384.665 410.486C385.987 406.504 387.324 402.528 388.701 398.564C411.735 331.744 421.098 259.634 432.123 190.123Z" fill="#3EBBFF"/>
<path d="M431.499 134.969C432.419 134.96 433.338 134.952 434.286 134.943C435.804 134.937 435.804 134.937 437.353 134.93C438.416 134.922 439.48 134.914 440.575 134.905C444.107 134.88 447.638 134.864 451.17 134.85C452.374 134.844 453.578 134.839 454.819 134.833C461.193 134.807 467.567 134.787 473.941 134.773C480.53 134.756 487.119 134.711 493.707 134.66C498.769 134.627 503.83 134.615 508.892 134.61C511.321 134.603 513.749 134.588 516.178 134.564C519.578 134.532 522.976 134.532 526.376 134.539C527.38 134.523 528.384 134.507 529.418 134.49C533.946 134.53 537.123 134.624 540.732 137.534C545.146 142.313 544.341 146.685 544.373 152.935C544.394 153.934 544.414 154.932 544.436 155.961C544.486 165.402 544.486 165.402 541.123 169.123C536.381 172.979 531.579 172.567 525.752 172.559C524.71 172.569 523.667 172.579 522.592 172.589C519.147 172.618 515.702 172.624 512.256 172.627C509.858 172.637 507.461 172.647 505.063 172.657C500.038 172.675 495.013 172.681 489.988 172.679C483.553 172.679 477.118 172.72 470.683 172.771C465.732 172.805 460.78 172.811 455.828 172.809C453.456 172.813 451.084 172.826 448.711 172.849C445.391 172.878 442.073 172.87 438.752 172.852C437.287 172.877 437.287 172.877 435.792 172.903C429.887 172.821 426.678 171.791 422.364 167.693C420.428 165.244 420.264 163.323 420.299 160.244C420.303 159.158 420.308 158.072 420.312 156.953C420.353 155.833 420.394 154.714 420.436 153.56C420.434 152.437 420.432 151.314 420.43 150.156C420.569 142.051 420.569 142.051 423.041 137.908C426.029 135.346 427.65 134.996 431.499 134.969Z" fill="#3EBBFF"/>
<path d="M616.123 524.123C619.148 526.734 620.656 529.756 622.459 533.291C622.775 533.91 623.09 534.528 623.415 535.166C624.452 537.21 625.477 539.259 626.498 541.311C626.852 542.018 627.205 542.726 627.57 543.456C635.308 559.004 641.937 574.903 648.123 591.123C648.568 592.282 649.014 593.44 649.473 594.634C661.169 625.327 669.643 656.956 676.123 689.123C676.525 691.079 676.927 693.035 677.33 694.99C678.148 698.994 678.941 703.002 679.714 707.015C680.109 709.05 680.515 711.083 680.924 713.115C682.799 722.673 684.167 732.26 685.428 741.916C685.83 744.989 686.256 748.053 686.756 751.111C687.729 757.162 688.36 763.125 688.498 769.248C688.526 770.467 688.555 771.687 688.584 772.943C688.123 776.123 688.123 776.123 686.35 778.521C683.361 780.671 681.597 780.694 678.025 780.521C675.125 779.914 673.84 778.458 672.123 776.123C670.993 773.863 670.852 772.266 670.615 769.752C662.275 687.435 640.573 607.993 603.123 534.123C604.405 533.166 604.405 533.166 605.713 532.189C606.829 531.355 607.945 530.52 609.061 529.686C609.906 529.054 609.906 529.054 610.77 528.41C613.552 526.392 613.552 526.392 616.123 524.123Z" fill="#3EBBFF"/>
<path d="M474.123 190.123C479.733 190.123 485.343 190.123 491.123 190.123C491.123 262.723 491.123 335.323 491.123 410.123C478.123 413.123 478.123 413.123 474.123 413.123C474.123 339.533 474.123 265.943 474.123 190.123Z" fill="#3EBBFF"/>
<path d="M563.123 612.123C565.145 630.182 567.154 648.235 568.311 666.373C568.382 667.484 568.453 668.596 568.527 669.74C568.752 673.534 568.944 677.328 569.123 681.123C569.165 681.99 569.207 682.856 569.25 683.749C570.09 701.502 570.341 719.238 570.363 737.008C570.369 740.753 570.393 744.498 570.421 748.244C570.44 751.168 570.445 754.092 570.447 757.017C570.45 758.4 570.458 759.783 570.471 761.166C570.488 763.08 570.484 764.995 570.479 766.909C570.483 767.992 570.487 769.075 570.491 770.191C570.067 773.567 569.145 775.407 567.123 778.123C563.402 780.603 561.525 780.586 557.123 780.123C554.124 777.932 553.223 776.729 552.611 773.032C552.605 771.817 552.599 770.601 552.593 769.349C552.584 768.675 552.576 768.001 552.567 767.306C552.542 765.073 552.546 762.841 552.549 760.607C552.536 759.034 552.522 757.46 552.506 755.887C552.468 751.727 552.453 747.567 552.443 743.407C552.423 736.838 552.367 730.268 552.317 723.699C552.299 721.302 552.284 718.906 552.269 716.51C552.186 704.836 551.829 693.192 551.238 681.533C550.299 661.785 550.299 661.785 555.123 654.123C558.694 644.84 557.956 635.626 554.275 626.537C552.814 623.476 551.112 620.867 549.123 618.123C548.793 617.133 548.463 616.143 548.123 615.123C550.247 614.62 552.373 614.121 554.498 613.623C555.681 613.345 556.865 613.066 558.084 612.779C561.123 612.123 561.123 612.123 563.123 612.123Z" fill="#3EBBFF"/>
<path d="M607.123 640.123C612.197 643.696 613.039 647.47 614.138 653.432C614.319 654.547 614.5 655.662 614.686 656.811C614.889 657.993 615.093 659.174 615.302 660.392C620.582 692.169 623.143 724.257 623.529 756.455C623.55 758.053 623.579 759.652 623.616 761.25C623.664 763.474 623.677 765.696 623.682 767.92C623.695 769.192 623.709 770.464 623.723 771.775C622.965 776.006 621.423 777.465 618.123 780.123C615.048 781.097 613.447 780.651 610.123 780.123C607.088 777.309 606.195 775.613 605.593 771.492C605.559 770.088 605.545 768.684 605.549 767.279C605.529 766.144 605.529 766.144 605.508 764.986C605.481 763.37 605.463 761.754 605.452 760.138C605.436 757.594 605.395 755.051 605.347 752.508C605.286 749.174 605.232 745.84 605.187 742.506C604.802 714.929 601.908 687.238 596.611 660.17C594.127 647.118 594.127 647.118 597.748 641.686C601.126 639.464 603.159 639.497 607.123 640.123Z" fill="#3EBBFF"/>
<path d="M452.623 294.436C456.214 295.141 458.169 295.894 460.314 298.939C461.999 303.489 460.944 308.175 460.377 312.884C460.03 315.947 459.765 319.015 459.495 322.085C458.372 334.703 456.694 347.214 454.873 359.748C454.722 360.799 454.571 361.851 454.415 362.934C451.664 382.059 448.556 401.109 445.123 420.123C433.2 424.123 433.2 424.123 427.123 424.123C427.726 417.3 428.623 410.579 429.76 403.826C430.091 401.817 430.421 399.808 430.751 397.799C430.924 396.752 431.097 395.704 431.275 394.625C434.314 376.161 437.108 357.683 439.498 339.123C439.619 338.187 439.74 337.252 439.864 336.288C440.212 333.587 440.555 330.887 440.896 328.186C441.06 326.914 441.06 326.914 441.226 325.618C441.756 321.413 442.214 317.218 442.554 312.994C442.661 311.763 442.661 311.763 442.771 310.508C442.902 308.971 443.015 307.432 443.106 305.893C443.443 302.072 444.063 300.199 446.476 297.166C449.123 295.123 449.123 295.123 452.623 294.436Z" fill="#3EBBFF"/>
<path d="M516.123 295.123C521.556 300.058 522.117 304.706 522.783 311.811C522.898 312.854 523.014 313.897 523.132 314.971C523.502 318.354 523.844 321.738 524.185 325.123C524.436 327.449 524.69 329.775 524.946 332.101C525.451 336.688 525.947 341.275 526.438 345.864C527.285 353.695 528.259 361.505 529.31 369.311C529.467 370.482 529.624 371.654 529.786 372.861C530.821 380.388 532.063 387.847 533.607 395.287C534.123 398.123 534.123 398.123 534.123 402.123C525.708 402.618 525.708 402.618 517.123 403.123C513.247 381.529 510.045 359.884 507.248 338.123C507.013 336.322 507.013 336.322 506.773 334.485C506.321 331.012 505.88 327.536 505.443 324.061C505.309 323.034 505.175 322.007 505.037 320.948C502.746 302.293 502.746 302.293 506.185 296.873C509.938 294.638 511.828 294.28 516.123 295.123Z" fill="#3EBBFF"/>
<path d="M496.123 689.123C495.801 713.773 491.145 738.274 485.123 762.123C484.944 762.854 484.765 763.585 484.58 764.338C481.531 776.669 481.531 776.669 477.123 780.123C474.357 780.907 471.917 780.77 469.123 780.123C466.623 778.123 466.623 778.123 465.123 775.123C464.608 768.34 466.091 762.574 467.873 756.061C473.271 735.378 476.086 714.258 479.123 693.123C493.022 689.123 493.022 689.123 496.123 689.123Z" fill="#3EBBFF"/>
<path d="M392.123 713.123C393.446 717.093 392.231 719.676 390.947 723.482C390.706 724.216 390.465 724.949 390.217 725.705C389.426 728.098 388.62 730.486 387.81 732.873C387.538 733.683 387.267 734.492 386.987 735.326C383.543 745.555 379.924 755.656 375.623 765.561C375.029 766.932 375.029 766.932 374.422 768.331C372.459 772.69 370.575 776.726 367.123 780.123C364.371 780.988 361.927 780.733 359.123 780.123C355.833 778.014 355.246 776.67 354.385 772.862C354.094 768.719 354.709 766.639 356.369 762.869C356.873 761.695 357.376 760.52 357.895 759.31C358.45 758.06 359.005 756.81 359.56 755.561C360.688 752.972 361.803 750.378 362.916 747.783C363.194 747.137 363.472 746.491 363.759 745.825C365.496 741.745 367.029 737.644 368.424 733.432C368.759 732.424 369.094 731.416 369.439 730.377C370.046 728.506 370.629 726.626 371.183 724.738C373.143 718.769 373.143 718.769 375.943 716.924C377.999 716.117 379.963 715.571 382.123 715.123C383.102 714.882 384.082 714.641 385.091 714.393C385.927 714.242 386.762 714.091 387.623 713.936C388.479 713.777 389.335 713.618 390.216 713.455C390.846 713.346 391.475 713.236 392.123 713.123Z" fill="#3EBBFF"/>
<path d="M474.123 190.123C479.733 190.123 485.343 190.123 491.123 190.123C491.123 262.723 491.123 335.323 491.123 410.123C478.123 413.123 478.123 413.123 474.123 413.123C474.123 339.533 474.123 265.943 474.123 190.123ZM476.123 194.123C473.97 204.061 474.99 215.161 475.01 225.282C475.01 227.313 475.01 229.344 475.009 231.375C475.009 236.862 475.015 242.349 475.022 247.836C475.028 253.58 475.029 259.324 475.03 265.068C475.033 275.934 475.041 286.799 475.051 297.664C475.062 310.039 475.068 322.414 475.073 334.789C475.083 360.233 475.101 385.678 475.123 411.123C482.676 410.36 482.676 410.36 489.123 407.123C489.221 404.354 489.253 401.61 489.243 398.841C489.244 397.962 489.245 397.083 489.246 396.177C489.248 393.209 489.242 390.241 489.237 387.273C489.236 385.155 489.236 383.036 489.237 380.918C489.237 375.148 489.231 369.377 489.224 363.607C489.218 357.584 489.218 351.561 489.216 345.537C489.213 334.123 489.205 322.708 489.195 311.294C489.184 298.302 489.178 285.311 489.173 272.32C489.163 245.588 489.145 218.855 489.123 192.123C487.332 192.069 485.54 192.03 483.748 191.998C482.75 191.975 481.753 191.952 480.725 191.928C477.96 191.851 477.96 191.851 476.123 194.123Z" fill="#3EBBFF"/>
</svg>
