<svg width="270" height="291" viewBox="0 0 270 291" fill="none" xmlns="http://www.w3.org/2000/svg">
<path d="M112.525 259.38C112.215 258.5 118.075 242.86 125.535 224.62C140.835 187.22 141.085 186.12 136.035 177.89C133.535 173.8 133.045 172.07 133.365 168.39C133.895 162.27 132.805 158.92 128.165 152.42C125.995 149.38 122.875 144.76 121.245 142.15C117.035 135.46 111.175 133.84 103.095 137.14C98.0747 139.19 97.1147 139.28 92.0447 138.17C83.4647 136.29 78.6447 139.32 72.7047 150.32C70.2547 154.85 67.6547 158.83 66.9247 159.18C63.4347 160.81 56.0947 141.16 56.0947 130.17C56.0947 122.79 58.2347 119.99 63.3547 120.66C67.4647 121.2 67.4647 121.2 71.2347 113.81C79.9747 96.7103 90.3547 91.6703 120.565 89.8503C146.395 88.3003 159.095 85.3503 174.075 77.4203L183.595 72.3903C195.065 87.5803 201.595 94.4103 208.665 100.53C216.625 107.44 220.515 111.6 222.525 115.37C226.335 122.53 226.595 122.71 230.835 121.19C238.355 118.5 240.675 125.96 237.045 141.19C232.305 161.09 229.035 163.49 222.695 151.68C216.225 139.6 209.855 135.81 201.075 138.81C196.835 140.26 196.285 140.23 190.935 138.12C182.175 134.67 176.025 136.92 171.845 145.09C170.215 148.28 167.395 152.48 165.595 154.42C161.655 158.65 160.045 163.61 160.805 169.15C161.265 172.52 160.805 174.2 158.225 178.68C153.625 186.69 153.785 187.39 168.595 223.61C176.025 241.77 182.095 257.51 182.095 258.59C182.095 261.71 171.205 269.07 163.125 271.4C158.375 272.77 153.225 273.39 146.655 273.39C138.885 273.39 135.835 272.92 130.385 270.87C123.035 268.12 113.385 261.91 112.525 259.38Z" fill="#3EBBFF"/>
<path d="M216.005 93.8102C203.255 82.8302 197.185 75.6102 192.135 65.4002C187.245 55.5002 186.115 55.3002 177.905 62.9102C166.435 73.5202 147.975 78.7202 116.095 80.3102C90.265 81.6002 80.545 85.6802 68.065 100.5C60.455 109.55 59.975 108.88 59.305 88.2902C58.455 62.0402 65.035 43.1202 80.895 26.2602C124.955 -20.5698 215.055 -1.61975 232.695 58.1902C236.995 72.7602 237.055 103.05 232.795 107.98C232.125 108.75 231.245 109.39 230.835 109.39C230.425 109.39 229.215 107.86 228.145 105.99C227.075 104.12 221.615 98.6402 216.005 93.8102Z" fill="#3EBBFF"/>
<path d="M205.794 267.34C193.494 256.94 191.075 252.81 177.085 218.38C166.285 191.82 164.975 187.96 165.965 185.77C168.125 181.05 170.285 183.33 179.365 199.89C186.635 213.14 188.525 215.89 190.365 215.89C194.685 215.89 193.414 211.9 182.154 190.12C171.134 168.8 169.725 164.67 172.625 162.39C175.435 160.18 177.314 162.62 189.134 183.81C199.254 201.96 201.244 204.93 203.484 205.25C208.194 205.92 206.564 201.43 193.634 178.04C180.054 153.52 179.334 151.8 181.384 149.01C185.424 143.49 187.774 146.14 202.594 172.95C216.484 198.09 219.584 202.17 221.484 197.89C222.184 196.32 220.174 191.51 212.184 175.54C200.954 153.13 199.964 149.19 205.404 148.57C209.664 148.08 209.994 148.58 225.264 178.23C233.094 193.45 240.284 206.56 241.244 207.39C244.504 210.19 245.535 205.88 244.165 195.11C243.155 187.15 243.204 185.3 244.554 181.93C247.334 174.97 253.115 172.73 253.075 178.64C253.055 180.43 254.505 192.02 256.295 204.39C259.545 226.89 259.545 226.89 257.165 239.53C254.135 255.63 254.455 257.46 263.285 274.39C268.335 284.06 270.045 288.24 269.315 289.14C268.565 290.08 262.374 290.39 244.704 290.39H221.094C214.844 275.37 213.924 274.22 205.794 267.34Z" fill="#3EBBFF"/>
<path d="M31.6752 273.85C40.1852 257.03 40.2652 256.45 36.9352 235.41C35.6752 227.46 35.7852 225.45 38.5952 202.91C41.8952 176.47 42.0452 175.92 45.6252 176.62C50.2752 177.53 51.6952 183.17 50.3152 195.25C49.3552 203.72 49.3752 205.91 50.4552 207.25C52.6652 209.97 54.1352 207.69 69.5252 177.67C85.7752 145.99 87.5952 143.83 92.0952 150.78C93.5152 152.98 93.0352 154.2 82.6852 174.54C73.9052 191.79 71.9752 196.35 72.7952 197.81C75.2252 202.17 77.5452 199.1 91.5152 172.96C106.845 144.28 108.715 142.06 112.595 147.9C114.595 150.92 114.595 150.92 100.705 177.06C88.6352 199.76 86.9552 203.49 87.8952 205.41C90.0552 209.83 92.4252 206.76 104.715 183.66C116.225 162.03 116.975 160.89 119.715 160.89C125.485 160.89 124.425 164.74 111.655 190.27C99.8252 213.91 98.5452 217.94 102.855 217.84C104.695 217.8 106.235 215.67 111.195 206.34C122.285 185.47 123.335 183.89 126.095 183.89C130.815 183.89 129.795 187.87 117.095 219.1C103.225 253.21 101.155 256.8 89.9652 266.06C83.0452 271.78 81.0852 274.12 77.1752 281.35L72.5552 289.89C34.9952 290.28 24.0852 290.05 24.0752 289.64C24.0752 289.23 27.4852 282.12 31.6752 273.85Z" fill="#3EBBFF"/>
<path d="M11.0947 130.59C11.0947 121.91 19.2247 119.7 26.4947 126.4C30.2047 129.82 39.0947 143.41 39.0947 145.66C39.0947 146.06 37.9747 146.39 36.5947 146.39C35.2247 146.39 30.8447 145.2 26.8847 143.75C16.3547 139.9 11.0947 135.52 11.0947 130.59Z" fill="#3EBBFF"/>
<path d="M4.59471 165.52C8.47471 163.22 26.7247 162.69 28.8447 164.81C29.8847 165.85 23.8547 171.46 17.3547 175.51C13.1947 178.1 9.94471 179.39 7.60471 179.39C5.39471 179.39 3.33471 178.63 2.03471 177.33C-1.48529 173.81 -0.315287 168.43 4.59471 165.52Z" fill="#3EBBFF"/>
</svg>
