<svg width="350" height="821" viewBox="0 0 350 821" fill="none" xmlns="http://www.w3.org/2000/svg">
<path d="M101.407 3.19158C102.164 3.18661 102.921 3.18165 103.702 3.17653C106.189 3.16202 108.676 3.15512 111.163 3.14958C112.449 3.14534 112.449 3.14534 113.761 3.14102C118.304 3.12606 122.847 3.11681 127.39 3.11248C132.042 3.10701 136.694 3.08303 141.345 3.0545C144.957 3.03571 148.569 3.03066 152.181 3.02914C153.894 3.02615 155.606 3.01824 157.319 3.00495C168.126 2.92716 177.988 3.75334 188.507 6.35271C189.266 6.53945 190.025 6.7262 190.807 6.9186C214.129 13.1656 234.691 29.1182 246.894 49.8844C249.596 54.6271 252.073 59.4684 254.507 64.3527C255.744 64.3589 255.744 64.3589 257.007 64.3652C283.48 64.596 304.997 67.6321 324.507 87.3527C325.423 88.219 325.423 88.219 326.358 89.1027C336.37 99.3435 341.66 113.594 344.507 127.353C344.682 128.141 344.858 128.929 345.039 129.741C345.502 132.326 345.635 134.688 345.641 137.312C345.645 138.291 345.65 139.27 345.654 140.278C345.654 141.88 345.654 141.88 345.654 143.514C345.657 144.655 345.661 145.795 345.665 146.97C345.676 150.801 345.68 154.631 345.684 158.461C345.689 161.205 345.696 163.948 345.703 166.691C345.723 174.931 345.733 183.171 345.742 191.41C345.747 195.296 345.752 199.182 345.757 203.067C345.774 215.994 345.789 228.921 345.796 241.848C345.798 245.201 345.8 248.554 345.802 251.907C345.802 252.74 345.803 253.574 345.803 254.432C345.812 267.914 345.837 281.395 345.869 294.876C345.902 308.735 345.92 322.594 345.924 336.452C345.926 344.226 345.934 352 345.96 359.774C345.982 366.399 345.99 373.023 345.98 379.648C345.976 383.022 345.98 386.396 345.997 389.77C346.129 416.913 341.837 438.412 322.909 458.958C317.651 464.199 311.924 468.632 305.507 472.353C307.324 479.174 309.267 485.947 311.311 492.704C314.419 502.993 317.375 513.305 320.007 523.728C320.389 525.224 320.389 525.224 320.779 526.75C321.009 527.678 321.239 528.607 321.475 529.564C321.676 530.371 321.876 531.179 322.083 532.01C322.534 534.504 322.581 536.824 322.507 539.353C321.433 539.585 320.359 539.816 319.253 540.055C315.233 540.924 311.213 541.792 307.193 542.661C305.46 543.035 303.727 543.41 301.994 543.784C299.489 544.325 296.984 544.866 294.479 545.407C293.716 545.572 292.953 545.737 292.167 545.906C291.427 546.066 290.687 546.226 289.925 546.391C289.202 546.547 288.48 546.703 287.735 546.864C286.173 547.207 284.613 547.557 283.054 547.914C281.858 548.188 281.858 548.188 280.637 548.466C279.918 548.633 279.2 548.8 278.459 548.971C276.113 549.43 273.89 549.506 271.507 549.353C269.823 543.766 268.483 538.117 267.146 532.437C264.04 519.26 260.608 506.257 256.507 493.353C256.485 494.44 256.485 494.44 256.462 495.549C256.387 498.901 256.291 502.252 256.194 505.603C256.16 507.312 256.16 507.312 256.126 509.056C255.796 519.611 254.02 529.224 249.194 538.665C248.641 539.775 248.088 540.885 247.518 542.029C245.872 544.749 244.611 546.282 242.428 548.45C238.68 552.794 238.663 556.551 238.747 562.116C238.738 563.082 238.729 564.047 238.719 565.042C238.696 568.269 238.715 571.493 238.734 574.72C238.725 577.036 238.715 579.352 238.701 581.668C238.673 587.951 238.681 594.233 238.696 600.516C238.706 607.084 238.681 613.651 238.66 620.219C238.629 631.24 238.62 642.262 238.627 653.284C238.633 664.634 238.627 675.984 238.604 687.334C238.602 688.385 238.602 688.385 238.6 689.456C238.593 692.968 238.585 696.481 238.578 699.993C238.516 729.113 238.497 758.233 238.507 787.353C239.664 787.318 240.822 787.283 242.014 787.247C243.553 787.219 245.093 787.192 246.632 787.165C247.772 787.128 247.772 787.128 248.936 787.089C254.74 787.014 258.991 787.985 263.37 792.107C263.848 792.703 264.326 793.3 264.819 793.915C265.31 794.515 265.801 795.114 266.307 795.732C269.229 799.681 268.948 803.602 268.507 808.353C266.786 813.06 264.265 816.064 260.507 819.353C257.169 820.465 254.613 820.507 251.095 820.546C250.449 820.554 249.803 820.562 249.138 820.57C247.003 820.595 244.868 820.612 242.733 820.626C241.638 820.634 241.638 820.634 240.52 820.642C236.657 820.669 232.793 820.688 228.929 820.703C225.734 820.716 222.54 820.744 219.344 820.785C215.483 820.834 211.622 820.859 207.76 820.866C206.291 820.873 204.821 820.888 203.352 820.912C201.293 820.944 199.236 820.944 197.177 820.936C196.007 820.944 194.837 820.952 193.631 820.961C189.575 820.171 188.104 818.486 185.507 815.353C184.372 813.083 184.382 811.862 184.384 809.343C184.382 808.499 184.38 807.656 184.378 806.787C184.38 805.855 184.383 804.923 184.386 803.963C184.385 802.484 184.385 802.484 184.384 800.976C184.382 797.651 184.388 794.327 184.393 791.003C184.393 788.628 184.393 786.253 184.393 783.879C184.392 778.086 184.397 772.294 184.403 766.502C184.41 759.763 184.412 753.025 184.413 746.287C184.415 734.27 184.422 722.253 184.431 710.236C184.44 698.56 184.447 686.885 184.452 675.209C184.452 674.49 184.452 673.77 184.452 673.029C184.454 669.421 184.455 665.812 184.456 662.203C184.467 632.253 184.484 602.303 184.507 572.353C178.897 572.683 173.287 573.013 167.507 573.353C167.514 575.2 167.514 575.2 167.521 577.084C167.629 606.313 167.711 635.541 167.762 664.77C167.768 668.367 167.775 671.965 167.781 675.562C167.783 676.636 167.783 676.636 167.785 677.732C167.807 689.329 167.846 700.926 167.892 712.523C167.939 724.422 167.967 736.321 167.977 748.22C167.983 754.904 167.999 761.588 168.035 768.271C168.069 774.56 168.08 780.849 168.072 787.138C168.074 789.448 168.083 791.758 168.103 794.067C168.127 797.219 168.122 800.369 168.108 803.52C168.13 804.894 168.13 804.894 168.152 806.297C168.101 810.623 167.865 813.469 165.094 816.905C161.271 820.521 159.403 820.486 154.224 820.53C153.258 820.54 153.258 820.54 152.272 820.55C150.137 820.569 148.002 820.581 145.866 820.591C145.136 820.595 144.406 820.599 143.654 820.603C139.789 820.624 135.925 820.639 132.06 820.648C128.074 820.659 124.089 820.693 120.103 820.733C117.033 820.759 113.964 820.768 110.894 820.771C109.425 820.776 107.957 820.788 106.488 820.806C104.427 820.831 102.367 820.83 100.306 820.823C99.1355 820.829 97.9646 820.834 96.7582 820.84C91.4144 820.039 88.3836 817.484 85.1316 813.29C82.6968 808.543 82.7303 803.544 83.5066 798.353C85.6919 793.901 88.446 791.164 92.5066 788.353C95.2722 787.431 96.8894 787.235 99.7371 787.255C100.54 787.258 101.342 787.262 102.169 787.265C103.002 787.273 103.835 787.282 104.694 787.29C105.962 787.297 105.962 787.297 107.255 787.304C109.339 787.316 111.423 787.334 113.507 787.353C113.562 757.585 113.576 727.818 113.533 698.051C113.528 694.533 113.523 691.016 113.519 687.499C113.518 686.799 113.517 686.099 113.516 685.378C113.502 674.052 113.517 662.726 113.542 651.4C113.567 639.772 113.561 628.144 113.528 616.516C113.511 609.988 113.507 603.46 113.538 596.931C113.566 590.783 113.556 584.636 113.518 578.488C113.51 576.235 113.517 573.981 113.538 571.728C114.099 558.111 114.099 558.111 108.571 546.152C107.234 544.867 105.881 543.597 104.507 542.353C96.8834 530.748 96.1889 518.747 96.5066 505.353C94.8566 505.353 93.2066 505.353 91.5066 505.353C91.3364 506.25 91.1663 507.147 90.991 508.071C89.5225 515.633 87.8561 523.09 85.9243 530.546C84.6055 535.726 83.6626 540.905 82.9011 546.193C82.5066 548.353 82.5066 548.353 81.5066 549.353C71.6937 548.879 62.1917 546.473 52.6316 544.353C50.9286 543.98 49.2254 543.607 47.5222 543.236C35.0947 540.515 35.0947 540.515 30.5066 539.353C30.1649 532.502 31.4061 526.591 33.1316 519.978C33.4016 518.921 33.6715 517.863 33.9497 516.774C35.9933 508.935 38.4004 501.276 41.0574 493.626C42.8468 488.446 44.3626 483.191 45.8584 477.919C46.6745 475.067 47.512 472.34 48.7097 469.622C49.6443 466.961 49.685 465.905 48.5066 463.353C46.7788 461.664 46.7788 461.664 44.5691 460.165C21.4824 442.933 6.98283 418.882 2.50659 390.353C1.69516 381.37 1.82865 372.337 1.88228 363.326C1.89794 359.752 1.88425 356.179 1.87454 352.606C1.86013 345.636 1.87213 338.665 1.89365 331.695C1.91785 323.556 1.91594 315.417 1.91335 307.279C1.90967 292.747 1.93037 278.216 1.9646 263.685C1.9977 249.623 2.01185 235.561 2.00561 221.499C1.99883 206.136 2.00135 190.773 2.02097 175.409C2.02201 174.595 2.02305 173.781 2.02412 172.943C2.02621 171.308 2.02832 169.674 2.03045 168.039C2.03732 162.382 2.03803 156.724 2.03657 151.066C2.03513 144.163 2.04496 137.261 2.06852 130.358C2.08029 126.844 2.08756 123.331 2.08168 119.817C2.04807 85.5272 8.96733 57.0943 33.6316 31.7277C51.4134 14.1 76.2788 3.23174 101.407 3.19158Z" fill="#F8B199"/>
<path d="M101.044 0.194296C101.815 0.18926 102.586 0.184225 103.38 0.179037C105.911 0.164316 108.442 0.157325 110.974 0.151708C112.283 0.147406 112.283 0.147406 113.619 0.143018C118.243 0.127852 122.867 0.118469 127.491 0.114072C132.226 0.108533 136.96 0.0842041 141.695 0.0552768C145.371 0.0362174 149.048 0.0310976 152.724 0.0295529C154.467 0.0265178 156.21 0.0184944 157.953 0.00502449C168.953 -0.073876 178.992 0.764032 189.697 3.40029C190.47 3.58969 191.243 3.77908 192.039 3.97421C215.777 10.3099 236.706 26.4889 249.126 47.5499C251.877 52.3598 254.398 57.2699 256.875 62.2235C258.134 62.2297 258.134 62.2297 259.419 62.2361C286.365 62.4702 308.266 65.5495 328.123 85.5499C329.056 86.4285 329.056 86.4285 330.008 87.3248C340.199 97.7109 345.583 112.163 348.48 126.118C348.659 126.917 348.838 127.716 349.022 128.54C349.493 131.162 349.629 133.557 349.635 136.218C349.639 137.211 349.644 138.204 349.648 139.227C349.648 140.851 349.648 140.851 349.648 142.508C349.652 143.665 349.655 144.822 349.659 146.013C349.67 149.898 349.674 153.783 349.678 157.668C349.684 160.45 349.691 163.232 349.698 166.014C349.718 174.371 349.729 182.728 349.738 191.085C349.742 195.025 349.748 198.966 349.753 202.907C349.77 216.017 349.785 229.127 349.793 242.238C349.794 245.639 349.796 249.039 349.798 252.44C349.799 253.285 349.799 254.13 349.8 255.001C349.808 268.674 349.834 282.346 349.867 296.019C349.901 310.074 349.919 324.13 349.922 338.185C349.925 346.069 349.933 353.953 349.96 361.837C349.982 368.556 349.99 375.275 349.98 381.994C349.975 385.416 349.979 388.837 349.997 392.26C350.131 419.762 345.786 441.628 326.493 462.426C320.83 468.068 315.55 472.755 307.767 475C304.688 469.122 302.225 463.219 299.942 456.998C294.021 441.216 286.982 425.954 279.233 410.984C278.264 409.106 277.312 407.22 276.361 405.334C269.087 391.121 260.195 377.57 249.75 365.467C249.032 364.606 248.314 363.744 247.575 362.856C236.977 350.528 226.219 344.945 210.054 343.155C210.054 335.123 210.054 327.09 210.054 318.814C212.851 318.788 215.649 318.762 218.531 318.735C221.28 318.696 224.029 318.65 226.778 318.604C228.669 318.575 230.56 318.554 232.452 318.539C250.556 318.394 264.89 315.579 278.567 302.777C289.845 290.758 293.135 276.23 293.026 260.126C293.033 258.799 293.04 257.473 293.047 256.107C293.066 252.515 293.059 248.924 293.046 245.332C293.036 241.546 293.045 237.759 293.052 233.973C293.059 227.619 293.049 221.266 293.03 214.913C293.008 207.601 293.015 200.289 293.037 192.977C293.056 186.661 293.058 180.346 293.048 174.03C293.041 170.275 293.04 166.519 293.054 162.764C293.068 158.573 293.048 154.383 293.026 150.193C293.038 148.363 293.038 148.363 293.051 146.495C292.933 134.621 289.67 125.552 284.356 114.962C207.774 114.459 207.774 114.459 129.645 113.947C129.645 118.633 129.645 123.318 129.645 128.146C127.589 139.525 123.686 148.645 114.532 156.068C105.783 162.017 96.3483 163.892 85.8779 162.629C81.3812 160.951 76.1067 158.978 72.646 155.529C72.5984 170.579 72.5625 185.628 72.5405 200.677C72.5301 207.666 72.5158 214.654 72.4924 221.642C72.4699 228.389 72.4581 235.136 72.4529 241.883C72.4491 244.454 72.4418 247.025 72.4308 249.597C72.416 253.204 72.414 256.811 72.4149 260.419C72.4039 262.005 72.4039 262.005 72.3927 263.624C72.4335 278.09 76.6704 291.962 86.8957 302.587C96.3956 311.384 107.452 317.883 120.635 318.22C121.305 318.24 121.974 318.259 122.663 318.28C124.778 318.34 126.893 318.387 129.009 318.434C130.452 318.473 131.895 318.512 133.339 318.553C136.857 318.651 140.376 318.732 143.895 318.814C143.895 326.512 143.895 334.21 143.895 342.141C140.462 342.957 140.462 342.957 136.961 343.789C111.096 350.432 96.8054 373.297 83.9058 395.006C82.1642 397.993 80.4524 400.995 78.753 404.007C78.3425 404.73 77.932 405.453 77.5091 406.199C66.4971 425.787 57.7675 446.753 50.2536 467.901C45.3836 466.362 42.1344 463.649 38.3576 460.358C37.7316 459.814 37.1056 459.271 36.4606 458.711C16.5627 441.175 4.99378 418.779 0.3795 392.85C0.289681 391.102 0.248198 389.35 0.245724 387.599C0.241814 386.557 0.23791 385.515 0.233882 384.441C0.234764 383.303 0.235644 382.164 0.236553 380.991C0.233529 379.777 0.230506 378.562 0.22739 377.311C0.220089 373.942 0.217355 370.574 0.216604 367.206C0.214717 363.571 0.207033 359.936 0.20018 356.302C0.186362 348.353 0.180223 340.405 0.175742 332.456C0.172927 327.488 0.168613 322.52 0.164031 317.552C0.151619 303.783 0.141134 290.015 0.137691 276.247C0.137467 275.366 0.137245 274.485 0.137015 273.577C0.136793 272.694 0.136576 271.811 0.136347 270.901C0.135896 269.112 0.135438 267.322 0.13498 265.533C0.134755 264.645 0.134529 263.758 0.134297 262.843C0.130284 248.482 0.112541 234.121 0.0888147 219.759C0.0646257 204.998 0.051987 190.237 0.0508026 175.475C0.0498721 167.194 0.0440858 158.913 0.0255415 150.632C0.00979444 143.576 0.00469696 136.519 0.0130623 129.463C0.0170142 125.868 0.0162155 122.274 0.00181012 118.679C-0.129899 83.8184 6.89244 54.9267 32.0597 29.1354C50.1588 11.2576 75.4677 0.235033 101.044 0.194296Z" fill="#2D2D2C"/>
<path d="M96.5069 498.353C148.977 498.353 202.447 498.5 256.507 498.5C256.507 535.295 255.507 535.148 244.025 546.865C243.235 547.65 243.234 547.65 242.428 548.45C238.68 552.794 238.663 556.551 238.747 562.116C238.738 563.082 238.729 564.047 238.719 565.042C238.696 568.269 238.715 571.493 238.734 574.72C238.725 577.036 238.715 579.352 238.701 581.668C238.673 587.951 238.681 594.233 238.696 600.516C238.706 607.084 238.681 613.651 238.66 620.219C238.629 631.24 238.62 642.262 238.627 653.284C238.633 664.634 238.627 675.984 238.604 687.334C238.602 688.385 238.602 688.385 238.6 689.456C238.593 692.968 238.585 696.481 238.578 699.993C238.516 729.113 238.497 758.233 238.507 787.353C239.664 787.318 240.822 787.283 242.014 787.247C243.553 787.219 245.093 787.192 246.632 787.165C247.772 787.128 247.772 787.128 248.936 787.089C254.74 787.014 258.991 787.985 263.37 792.107C263.848 792.703 264.326 793.3 264.819 793.915C265.31 794.515 265.801 795.114 266.307 795.732C269.229 799.681 268.948 803.602 268.507 808.353C266.786 813.06 264.265 816.064 260.507 819.353C257.169 820.465 254.613 820.507 251.095 820.546C250.449 820.554 249.803 820.562 249.138 820.57C247.003 820.595 244.868 820.612 242.733 820.626C242.003 820.631 241.273 820.637 240.52 820.642C236.657 820.669 232.793 820.688 228.929 820.703C225.734 820.716 222.54 820.744 219.344 820.785C215.483 820.834 211.622 820.859 207.76 820.866C206.291 820.873 204.821 820.888 203.352 820.912C201.293 820.944 199.236 820.944 197.177 820.936C196.007 820.944 194.837 820.952 193.631 820.961C189.575 820.171 188.104 818.486 185.507 815.353C184.372 813.083 184.382 811.862 184.384 809.343C184.382 808.499 184.38 807.656 184.378 806.787C184.38 805.855 184.383 804.923 184.386 803.963C184.385 802.977 184.385 801.991 184.384 800.976C184.382 797.651 184.388 794.327 184.393 791.003C184.393 788.628 184.393 786.253 184.393 783.879C184.392 778.086 184.397 772.294 184.403 766.502C184.41 759.763 184.412 753.025 184.413 746.287C184.415 734.27 184.422 722.253 184.431 710.236C184.44 698.56 184.447 686.885 184.452 675.209C184.452 674.49 184.452 673.77 184.452 673.029C184.454 669.421 184.455 665.812 184.456 662.203C184.467 632.253 184.484 602.303 184.507 572.353C176.092 572.848 176.092 572.848 167.507 573.353C167.511 574.584 167.516 575.815 167.521 577.084C167.629 606.313 167.711 635.541 167.762 664.77C167.768 668.367 167.775 671.965 167.781 675.562C167.783 676.278 167.784 676.995 167.785 677.732C167.807 689.329 167.846 700.926 167.892 712.523C167.939 724.422 167.967 736.321 167.977 748.22C167.983 754.904 167.999 761.588 168.035 768.271C168.069 774.56 168.08 780.849 168.072 787.138C168.074 789.448 168.083 791.758 168.103 794.067C168.127 797.219 168.122 800.369 168.108 803.52C168.122 804.436 168.137 805.353 168.152 806.297C168.101 810.623 167.865 813.469 165.094 816.905C161.271 820.521 159.403 820.486 154.224 820.53C153.58 820.536 152.936 820.543 152.272 820.55C150.137 820.569 148.002 820.581 145.866 820.591C145.136 820.595 144.406 820.599 143.654 820.603C139.789 820.624 135.925 820.639 132.06 820.648C128.074 820.659 124.089 820.693 120.103 820.733C117.033 820.759 113.964 820.768 110.894 820.771C109.425 820.776 107.957 820.788 106.488 820.806C104.427 820.831 102.367 820.83 100.306 820.823C99.1355 820.829 97.9646 820.834 96.7582 820.84C91.4144 820.039 88.3836 817.484 85.1316 813.29C82.6968 808.543 82.7303 803.544 83.5066 798.353C85.6919 793.901 88.446 791.164 92.5066 788.353C95.2722 787.431 96.8894 787.235 99.7371 787.255C100.941 787.26 100.941 787.26 102.169 787.265C103.002 787.273 103.835 787.282 104.694 787.29C105.962 787.297 105.962 787.297 107.255 787.304C109.339 787.316 111.423 787.334 113.507 787.353C113.562 757.585 113.576 727.818 113.533 698.051C113.528 694.533 113.523 691.016 113.519 687.499C113.518 686.799 113.517 686.099 113.516 685.378C113.502 674.052 113.517 662.726 113.542 651.4C113.567 639.772 113.561 628.144 113.528 616.516C113.511 609.988 113.507 603.46 113.538 596.931C113.566 590.783 113.556 584.636 113.518 578.488C113.51 576.235 113.517 573.981 113.538 571.728C114.099 558.111 114.099 558.111 108.571 546.152C107.234 544.867 105.881 543.597 104.507 542.353C103.101 540.213 102.174 538.149 101.132 535.79C100.67 534.778 100.209 533.766 99.7334 532.724C95.3423 520.655 96.5069 512.046 96.5069 498.353Z" fill="#41B0AA"/>
<path d="M143.507 340.352C143.671 341.855 143.671 341.855 143.839 343.387C145.168 354.85 147.265 361.934 155.507 370.352C156.005 370.863 156.502 371.373 157.015 371.899C163.854 378.253 172.916 377.908 181.718 377.669C186.527 377.267 189.67 376.211 193.507 373.352C194.538 372.63 195.569 371.909 196.632 371.165C205.384 363.393 207.426 353.356 209.507 342.352C218.138 340.195 224.467 343.536 231.995 347.743C270.186 371.752 294.789 435.504 306.507 477.352C307.208 479.376 307.917 481.396 308.632 483.415C313.002 496.15 316.134 509.327 319.507 522.352C319.807 523.481 320.107 524.61 320.416 525.773C320.829 527.353 320.829 527.353 321.249 528.966C321.493 529.888 321.736 530.81 321.987 531.76C322.509 534.363 322.603 536.706 322.507 539.353C321.433 539.585 320.359 539.816 319.253 540.055C315.233 540.924 311.213 541.792 307.193 542.661C305.46 543.035 303.727 543.41 301.994 543.784C299.489 544.325 296.984 544.866 294.479 545.407C293.716 545.572 292.953 545.737 292.167 545.906C291.427 546.066 290.687 546.226 289.925 546.391C288.841 546.625 288.841 546.625 287.735 546.864C286.173 547.207 284.613 547.557 283.054 547.914C282.256 548.097 281.459 548.279 280.637 548.466C279.918 548.633 279.2 548.8 278.459 548.971C276.113 549.43 273.89 549.506 271.507 549.353C269.823 543.766 268.483 538.117 267.146 532.437C264.04 519.26 260.608 506.257 256.507 493.353C256.177 495.003 256.847 496.8 256.507 498.5C204.037 498.5 150.567 498.353 96.5069 498.353C96.5069 500.663 96.5066 502.973 96.5066 505.353C94.8566 505.353 93.2066 505.353 91.5066 505.353C91.3364 506.25 91.1663 507.147 90.991 508.071C89.5225 515.633 87.8561 523.09 85.9243 530.546C84.6055 535.726 83.6626 540.905 82.9011 546.193C82.5066 548.353 82.5066 548.353 81.5066 549.353C71.6937 548.879 62.1917 546.473 52.6316 544.353C50.9286 543.98 49.2254 543.607 47.5222 543.236C35.0947 540.515 35.0947 540.515 30.5066 539.353C30.1649 532.502 31.4061 526.591 33.1316 519.978C33.4016 518.921 33.6715 517.863 33.9497 516.774C36.0019 508.902 38.4213 501.212 41.0929 493.532C42.235 490.227 43.2189 486.906 44.1435 483.535C56.0502 440.429 76.4385 397.183 104.507 362.352C105.185 361.507 105.863 360.661 106.562 359.79C115.476 349.193 129.172 339.954 143.507 340.352Z" fill="#F7B71E"/>
<path d="M103.507 363.353C104.002 364.343 104.002 364.343 104.507 365.353C103.427 367.591 102.127 369.651 100.831 371.771C97.3837 378.493 97.2042 384.78 97.1881 392.197C97.1781 393.266 97.168 394.335 97.1577 395.437C97.1269 398.956 97.1098 402.474 97.0929 405.993C97.0742 408.442 97.0546 410.891 97.0342 413.34C96.983 419.777 96.9433 426.213 96.9061 432.65C96.8661 439.21 96.8149 445.769 96.7648 452.329C96.693 461.894 96.626 471.46 96.567 481.025C96.5608 482.032 96.5546 483.039 96.5482 484.076C96.5173 489.214 96.5173 489.214 96.507 494.353C96.507 495.343 96.507 496.333 96.507 497.353C148.977 497.353 201.447 497.353 255.507 497.353C255.507 497.683 255.507 498.013 255.507 498.353C203.037 498.353 150.567 498.353 96.5069 498.353C96.5069 500.663 96.5066 502.973 96.5066 505.353C94.8566 505.353 93.2066 505.353 91.5066 505.353C91.3364 506.25 91.1663 507.147 90.991 508.071C89.5225 515.633 87.8561 523.09 85.9243 530.546C84.6055 535.726 83.6626 540.905 82.9011 546.193C82.5066 548.353 82.5066 548.353 81.5066 549.353C71.6937 548.879 62.1917 546.473 52.6316 544.353C50.9286 543.98 49.2254 543.607 47.5222 543.236C35.0947 540.515 35.0947 540.515 30.5066 539.353C30.1649 532.502 31.4061 526.591 33.1316 519.978C33.4016 518.921 33.6715 517.863 33.9497 516.774C36.0019 508.902 38.4213 501.212 41.0929 493.532C42.235 490.227 43.2189 486.906 44.1435 483.535C55.9898 440.647 76.3805 398.538 103.507 363.353Z" fill="#DEA41B"/>
<path d="M251.007 363C261.427 374.5 268.845 387.61 276.508 401C277.149 402.118 277.846 403.348 278.508 404.5C283.555 413.383 287.338 423.209 291.508 432.5C291.819 433.188 291.687 433.791 292.008 434.5C298.259 448.331 303.596 462.415 307.832 476.956C308.561 478.979 309.298 480.999 310.042 483.016C314.587 495.746 317.845 508.918 321.353 521.939C321.665 523.067 321.977 524.195 322.298 525.358C322.584 526.411 322.87 527.464 323.165 528.549C323.418 529.471 323.671 530.393 323.932 531.342C324.475 533.944 324.573 536.286 324.473 538.932C322.798 539.28 322.798 539.28 321.089 539.634C316.908 540.502 312.727 541.37 308.546 542.239C306.743 542.613 304.941 542.987 303.138 543.361C300.533 543.902 297.928 544.443 295.323 544.984C294.132 545.231 294.132 545.231 292.918 545.483C291.764 545.723 291.763 545.723 290.586 545.968C289.458 546.202 289.458 546.202 288.308 546.44C286.684 546.783 285.061 547.133 283.439 547.49C282.61 547.672 281.78 547.854 280.926 548.042C280.178 548.209 279.431 548.375 278.66 548.547C276.221 549.005 273.908 549.082 271.429 548.928C270.058 544.555 268.894 540.161 267.809 535.714C267.376 533.942 267.376 533.942 266.934 532.134C266.349 529.732 265.769 527.33 265.195 524.926C263.782 519.178 262.337 513.56 260.286 507.991C254.959 493.258 253.799 480.053 253.996 464.547C253.997 462.19 253.994 459.834 253.987 457.477C253.977 451.346 254.007 445.216 254.049 439.085C254.113 429.242 254.133 419.399 254.122 409.556C254.126 406.149 254.157 402.742 254.191 399.335C254.241 388.508 254.06 379.1 249.588 368.998C249.199 368.064 248.811 367.13 248.411 366.167C247.964 365.095 252.427 364 251.007 363Z" fill="#DEA51B"/>
<path d="M324.507 539C326.491 542.495 326.058 547.65 326.761 551.579C327.083 553.375 327.083 553.375 327.411 555.208C327.737 557.074 327.737 557.074 328.069 558.977C328.29 560.198 328.512 561.419 328.739 562.677C329.894 569.199 330.825 575.645 331.276 582.256C332.007 584.5 332.007 584.5 332.507 586.352C332.507 605 333.007 604 331.632 612.352C329.507 614.352 330.507 613.5 327.507 616.5C326.221 617.785 327.007 617 325.507 618.352C323.01 619.244 323.01 619.244 319.714 619.958C318.526 620.219 317.338 620.48 316.114 620.749C314.862 621.01 313.61 621.271 312.319 621.54C311.086 621.812 309.853 622.085 308.583 622.366C293.507 622.352 295.507 622 287.507 622.352C286.007 622 286.007 621.5 285.507 621C284.507 619.5 285.007 620 284.507 619.352C282.457 616.697 283.211 612.77 282.569 609.477C282.387 608.559 282.205 607.642 282.017 606.696C280.835 600.596 280.011 594.545 279.507 588.352C278.847 588.352 278.187 588.352 277.507 588.352C277.074 589.28 277.074 589.28 276.632 590.227C275.507 592.352 275.507 592.352 273.507 594.352C271.448 594.583 271.448 594.583 269.069 594.54C268.287 594.533 267.504 594.527 266.698 594.52C264.507 594.352 264.507 594.352 261.507 593.352C260.032 589.865 260.804 586.219 261.007 582.5C261.507 581.5 262.327 580.52 263.007 579.5C263.413 578.891 263.795 578.423 264.007 578C265.007 576 267.507 571 268.507 568.5C269.335 567.073 267.26 571.732 268.007 570C267.504 571.056 267.754 570.785 267.882 569.977C269.007 567.5 269.007 567.5 270.507 565.352C271.961 560.912 272.645 557.823 272.024 553.198C271.853 551.929 271.682 550.66 271.507 549.353C278.106 547.896 284.708 546.455 291.313 545.025C293.559 544.537 295.804 544.045 298.049 543.549C301.277 542.838 304.507 542.139 307.737 541.442C308.74 541.218 309.742 540.994 310.775 540.764C311.715 540.563 312.656 540.363 313.625 540.157C314.449 539.977 315.273 539.797 316.121 539.612C318.847 539.315 321.885 538.208 324.507 539Z" fill="#F8B39A"/>
<path d="M30.5068 539.35C32.8905 539.545 34.9352 539.727 30.5068 539.35C31.6631 539.444 32.8194 539.538 34.0107 539.635C41.259 540.441 48.3394 542.186 55.4443 543.787C58.2447 544.413 61.0457 545.035 63.8467 545.658C64.5132 545.807 65.1796 545.956 65.8663 546.109C71.0656 547.264 76.2768 548.343 81.5068 549.35C81.1768 550.34 80.8468 551.33 80.5068 552.35C79.6883 559.153 81.0871 563.555 84.5068 569.35C92.8594 583.587 92.8594 583.587 91.5068 590.35C90.0693 592.85 90.0693 592.85 87.5068 594.35C84.5068 594.5 81.5068 594.5 78.5068 594.35C77.8468 593.69 76.5068 593 76.5068 592C76.5068 591.01 76.5068 590.37 76.5068 589.35C75.5168 589.35 74.5268 589.35 73.5068 589.35C71.6349 598.313 69.0764 604.977 67.5068 613.997C67.5068 614.497 66.6207 617.272 67.0068 615.997C66.9656 616.595 66.5068 617.497 66.3818 618.162C65.5068 620.35 65.5068 620.35 62.9443 622.1C57.1834 624.195 52.4468 622.946 46.5068 621.497C45.5068 620.997 46.0068 620.997 44.5068 620.35C42.3936 619.442 42.3936 619.442 39.9443 618.725C38.7049 618.334 38.7049 618.334 37.4404 617.936C36.8023 617.742 36.1643 617.196 35.5068 616.997C35.5068 616.317 35.5068 617.657 35.5068 616.997C33.0068 615.645 35.2268 616.337 32.5068 615.997C32.5068 615.007 29.0068 615.617 27.5068 615.35C26.9293 615.246 26.3518 615.143 25.7568 615.037C23.1011 614.226 21.5381 613.241 19.5068 611.35C18.4882 608.333 18.3722 605.518 18.3818 602.35C18.3793 601.504 18.3767 600.658 18.374 599.787C18.501 597.456 18.925 595.603 19.5068 593.35C20.5415 588.732 21.5236 584.103 22.5068 579.475C22.7801 578.227 23.0534 576.979 23.335 575.693C24.9182 568.196 25.9251 560.915 26.2959 553.259C26.5557 549.675 27.4152 546.761 28.5068 543.35C29.5068 541 29.148 541.5 30.5068 539.35Z" fill="#F7B299"/>
<path d="M216.222 144.962C224.659 150.097 229.502 157.765 232.092 167.138C233.016 172.073 232.876 177.098 232.882 182.103C232.919 183.777 232.919 183.777 232.956 185.485C232.992 195.748 230.709 205.668 223.507 213.353C217.293 219.184 209.51 221.384 201.132 221.915C192.691 221.64 185.172 217.58 179.444 211.478C176.438 207.659 174.899 203.994 173.507 199.353C173.323 198.747 173.14 198.141 172.951 197.517C171.862 192.214 172.234 186.62 172.194 181.228C172.165 179.946 172.136 178.665 172.106 177.345C172.029 165.735 174.315 157.764 182.347 149.267C191.624 141.046 205.109 139.83 216.222 144.962Z" fill="#FDFCFA"/>
<path d="M127.706 141.876C136.105 141.421 144.109 143.785 150.678 149.114C158.916 157.792 160.167 167.689 160.028 179.229C160.007 181.35 160.028 183.467 160.053 185.587C160.077 196.62 158.264 205.375 150.577 213.595C144.445 218.801 137.032 221.693 129.038 221.563C119.593 220.776 112.764 216.729 106.257 210.04C100.168 200.69 99.9822 192.325 100.194 181.477C100.206 179.954 100.215 178.431 100.223 176.907C100.325 165.897 100.325 165.897 101.507 162.352C103.704 161.189 105.862 160.163 108.132 159.165C115.294 155.812 120.622 151.875 123.757 144.352C125.507 142.352 125.507 142.352 127.706 141.876Z" fill="#FCFBF9"/>
<path d="M130.008 92.5042C145.349 92.3903 163.197 92.1496 178.538 92.0954C185.662 92.0695 192.786 92.0343 199.91 91.9765C206.125 91.9261 212.34 91.8939 218.555 91.8827C221.841 91.8762 225.126 91.8584 228.412 91.8242C247.323 91.6352 261.149 92.4257 275.978 105.434C285.007 114.554 285.007 114.554 285.007 116.5C234.685 116.5 181.354 116.145 129.507 116.145C129.507 108.178 130.008 100.713 130.008 92.5042Z" fill="#DE4541"/>
<path d="M184.507 787.352C193.66 787.283 202.814 787.23 211.968 787.197C216.218 787.181 220.469 787.16 224.72 787.126C228.824 787.093 232.928 787.076 237.033 787.068C238.596 787.062 240.16 787.052 241.723 787.035C243.918 787.013 246.113 787.011 248.308 787.012C249.556 787.005 250.804 786.999 252.09 786.992C256.666 787.475 260.015 788.949 263.37 792.107C263.848 792.703 264.326 793.3 264.819 793.915C265.556 794.814 265.556 794.814 266.307 795.732C269.229 799.681 268.948 803.602 268.507 808.353C266.786 813.06 264.265 816.064 260.507 819.353C257.169 820.465 254.613 820.507 251.095 820.546C250.449 820.554 249.803 820.562 249.138 820.57C247.003 820.595 244.868 820.612 242.733 820.626C241.638 820.634 241.638 820.634 240.52 820.642C236.657 820.669 232.793 820.688 228.929 820.703C225.734 820.716 222.54 820.744 219.344 820.785C215.483 820.834 211.622 820.859 207.76 820.866C206.291 820.873 204.821 820.888 203.352 820.912C201.293 820.944 199.236 820.944 197.177 820.936C195.422 820.948 195.422 820.948 193.631 820.961C189.575 820.171 188.104 818.486 185.507 815.353C184.15 812.639 184.394 810.504 184.409 807.47C184.412 806.303 184.416 805.136 184.419 803.935C184.427 802.711 184.436 801.488 184.444 800.227C184.449 798.996 184.453 797.765 184.458 796.497C184.47 793.449 184.486 790.401 184.507 787.352Z" fill="#28908B"/>
<path d="M102.815 787.002C103.524 787.002 104.233 787.001 104.963 787.001C107.305 787.002 109.647 787.01 111.989 787.018C113.614 787.02 115.238 787.021 116.863 787.022C121.137 787.026 125.411 787.036 129.686 787.047C134.048 787.057 138.41 787.062 142.773 787.067C151.331 787.077 159.89 787.095 168.448 787.116C168.627 791.69 168.736 796.263 168.832 800.84C168.883 802.137 168.935 803.434 168.988 804.77C169.135 814.106 169.135 814.106 166.316 818.555C160.729 821.814 153.228 820.897 146.928 820.834C145.414 820.835 143.9 820.838 142.387 820.842C139.221 820.845 136.057 820.83 132.891 820.802C128.845 820.768 124.8 820.774 120.753 820.793C117.63 820.804 114.506 820.795 111.383 820.78C109.891 820.774 108.4 820.775 106.909 820.781C104.819 820.787 102.732 820.766 100.643 820.739C99.4576 820.732 98.2718 820.726 97.0501 820.72C91.6126 819.869 88.4968 817.313 85.1806 813.122C82.6892 808.363 82.7234 803.35 83.5178 798.145C85.7539 793.682 88.5721 790.937 92.7271 788.118C96.2891 786.955 99.0556 786.995 102.815 787.002Z" fill="#27918C"/>
<path d="M199.507 246.353C201.427 250.163 203.342 253.976 205.257 257.79C205.796 258.859 206.335 259.929 206.89 261.03C215.507 278.212 215.507 277.36 215.507 281.5C194.507 292 194.507 292 184.507 293.353C182.117 280.156 179.984 267.446 180.507 254C181.507 253.5 182.215 254.194 184.007 253C185.507 252 187.632 251.585 188.507 250.5C189.206 250.222 189.507 250 190.507 249.5C198.578 246.279 198.07 246.353 199.507 246.353Z" fill="#FEFCFB"/>
<path d="M151.507 253C154.985 253.262 158.468 253.897 161.944 254.182C162.937 254.257 163.929 254.331 164.952 254.408C166.367 254.527 166.367 254.527 167.812 254.649C168.686 254.719 169.56 254.788 170.46 254.86C171.133 254.988 171.806 255.117 172.5 255.249C173.952 258.004 174.067 260.715 174.471 263.769C174.559 264.426 174.646 265.084 174.736 265.761C174.92 267.154 175.102 268.548 175.283 269.941C175.558 272.061 175.841 274.179 176.125 276.297C176.303 277.653 176.481 279.009 176.658 280.364C176.819 281.594 176.98 282.823 177.146 284.09C177.462 287.15 177.564 290.109 177.497 293.181C174.187 293.237 170.876 293.27 167.566 293.3C166.64 293.316 165.714 293.332 164.761 293.348C158.203 293.392 151.492 293.171 145.517 290.336C146.513 281.653 147.648 273.006 149.077 264.377C149.204 263.605 149.33 262.833 149.461 262.038C149.966 259.048 150.496 255.878 151.507 253Z" fill="#FDFCFB"/>
<path d="M137.507 160.353C145.275 159.683 145.275 159.683 148.882 162.603C154.508 168.497 153.842 173.904 153.82 181.728C153.836 182.852 153.852 183.976 153.868 185.134C153.874 195.522 153.874 195.522 150.507 200.353C146.485 203.992 143.068 205.105 137.761 204.88C133.785 203.95 131.052 201.466 128.507 198.353C127.507 195.353 127.391 193.378 127.409 190.247C127.413 189.264 127.416 188.281 127.419 187.269C127.428 186.245 127.436 185.22 127.445 184.165C127.449 183.129 127.454 182.094 127.458 181.027C127.47 178.469 127.486 175.911 127.507 173.353C128.621 172.92 129.735 172.486 130.882 172.04C134.682 170.654 134.682 170.654 136.507 167.353C136.901 165.029 137.242 162.695 137.507 160.353Z" fill="#333333"/>
<path d="M196.507 160.353C201.334 160.468 204.56 160.607 208.444 163.665C212.995 169.594 212.873 174.302 212.882 181.603C212.906 182.614 212.931 183.626 212.956 184.669C212.982 191.371 212.065 195.643 208.507 201.353C204.897 204.653 201.365 204.818 196.655 204.638C192.641 204.105 190.457 202.469 187.886 199.446C185.777 194.716 186.192 190.152 186.319 185.04C186.333 184.013 186.346 182.987 186.36 181.929C186.396 179.403 186.445 176.878 186.507 174.353C187.471 173.894 188.435 173.435 189.429 172.962C192.743 171.229 193.366 170.775 194.507 167.353C195.204 165.028 195.876 162.696 196.507 160.353Z" fill="#333333"/>
<path d="M164.507 207.353C166.854 207.583 166.854 207.583 169.507 208.353C170.878 210.278 170.878 210.278 171.944 212.665C174.12 216.995 176.229 218.935 180.507 221.353C182.68 223.062 183.418 223.916 183.976 226.657C184.06 233.639 184.06 233.639 181.132 237.415C176.234 241.03 172.196 240.64 166.257 240.728C164.843 240.784 164.843 240.784 163.401 240.841C158.832 240.899 155.541 240.917 151.897 237.954C149.127 234.939 148.598 234.143 148.132 230.103C148.609 225.326 150.073 223.634 153.507 220.353C154.394 220.002 155.281 219.651 156.194 219.29C158.714 218.573 158.714 218.573 159.569 216.103C159.879 215.195 160.188 214.288 160.507 213.353C161.805 211.329 163.131 209.324 164.507 207.353Z" fill="#D47C5F"/>
<path d="M224.694 239.853C229.152 242.376 231.762 245.536 233.507 250.353C234.524 256.54 233.994 262.022 230.862 267.493C228.441 270.814 225.556 273.612 222.507 276.353C219.577 273.828 218.259 271.075 216.659 267.583C216.136 266.447 215.614 265.31 215.075 264.14C214.268 262.358 214.268 262.358 213.444 260.54C212.902 259.364 212.36 258.188 211.802 256.976C209.444 251.819 207.225 246.91 205.507 241.5C212.077 238.215 217.764 236.921 224.694 239.853Z" fill="#FEFCFB"/>
<path d="M144.507 252.5C143.115 265.287 140.907 276.72 138.507 289.353C134.395 288.162 131.504 286.907 128.319 284.04C127.666 283.466 127.012 282.893 126.339 282.302C121.521 277.176 120.97 273.079 121.155 266.231C121.785 261.072 124.253 258.51 127.944 255.103C133.507 251.303 137.939 252.242 144.507 252.5Z" fill="#FEFCFA"/>
<path d="M180.507 254.353C181.081 258.853 181.651 263.355 182.216 267.857C182.409 269.387 182.603 270.916 182.798 272.446C183.079 274.651 183.356 276.856 183.632 279.062C183.719 279.74 183.807 280.418 183.897 281.116C184.365 284.901 184.507 288.591 184.507 292.401C184.507 292.867 184.507 292.867 184.507 293.353C181.537 293.353 180.567 293.353 177.507 293.353C176.854 289.311 176.211 285.268 175.569 281.224C175.387 280.095 175.205 278.966 175.017 277.802C173.883 270.625 173.06 263.495 172.507 256.255C168.547 256.255 164.587 256.255 160.507 256.255C160.507 255.941 160.507 255.627 160.507 255.304C163.653 255.145 166.798 254.986 169.944 254.828C170.842 254.783 171.74 254.737 172.665 254.691C173.519 254.648 174.373 254.605 175.253 254.561C176.044 254.521 176.834 254.481 177.649 254.44C178.601 254.395 179.554 254.353 180.507 254.353Z" fill="#FDFCFB"/>
<path d="M144.507 252.5C146.53 252.5 149.422 253 151.507 253C152.814 257.173 151.208 260.101 150.423 264.312C150.285 265.085 150.148 265.859 150.006 266.656C149.566 269.121 149.114 271.583 148.662 274.046C148.361 275.719 148.061 277.393 147.762 279.066C147.027 283.163 146.757 286.406 146.007 290.5C143.507 290 140.507 290 137.507 289C138.358 284.193 139.062 279.789 139.92 274.983C140.211 273.348 140.502 271.713 140.791 270.078C141.207 267.728 141.627 265.378 142.047 263.028C142.176 262.297 142.305 261.565 142.437 260.812C142.961 257.899 143.526 255.308 144.507 252.5Z" fill="#FDFCFB"/>
<path d="M205.507 241.5C208.507 242.5 206.507 243.353 208.009 245.941C208.525 247.071 209.041 248.2 209.573 249.364C209.853 249.97 210.132 250.576 210.42 251.2C211.011 252.485 211.597 253.772 212.177 255.061C213.06 257.019 213.957 258.971 214.856 260.921C217.334 266.33 220.71 270.818 222.507 276.5C220.527 277.82 217.547 279.993 215.507 281.353C209.897 269.803 204.287 258.253 198.507 246.353C200.157 245.033 203.807 242.86 205.507 241.5Z" fill="#FDFCFB"/>
<path d="M313.507 584.353C316.132 584.728 316.132 584.728 318.507 585.353C320.721 591.151 322.103 596.886 323.194 602.978C323.326 603.694 323.457 604.41 323.592 605.147C324.359 609.614 324.632 613.821 324.507 618.353C322.181 618.733 319.846 619.065 317.507 619.353C315.427 617.273 315.545 613.276 315.069 610.415C314.102 604.726 313.086 599.067 311.839 593.431C311.451 591.005 311.324 588.804 311.507 586.353C312.167 585.693 312.827 585.033 313.507 584.353Z" fill="#D4886D"/>
<path d="M34.5048 584.353C37.4613 584.805 37.4613 584.805 40.4775 585.267C40.8427 592.043 39.4549 598.301 37.9889 604.924C37.7515 606.025 37.5141 607.126 37.2695 608.26C36.6865 610.959 36.0965 613.656 35.5002 616.353C31.5583 615.9 31.5583 615.9 27.5366 615.438C28.2191 609.17 29.2423 603.008 30.4608 596.81C30.7139 595.461 30.7139 595.461 30.9721 594.085C31.1408 593.223 31.3096 592.362 31.4834 591.474C31.6335 590.698 31.7835 589.922 31.9381 589.123C32.5139 587.095 32.5139 587.095 34.5048 584.353Z" fill="#D3886C"/>
<path d="M295.507 588.353C297.944 588.478 297.944 588.478 300.507 589.353C303.032 594.038 303.661 599.549 304.632 604.728C304.814 605.648 304.995 606.568 305.183 607.517C306.14 612.554 306.719 617.226 306.507 622.353C303.867 622.353 301.227 622.353 298.507 622.353C297.765 618.459 297.035 614.563 296.316 610.664C295.949 608.69 295.573 606.718 295.196 604.745C294.967 603.498 294.739 602.251 294.503 600.966C294.288 599.819 294.074 598.672 293.852 597.49C293.516 594.438 293.654 592.285 294.507 589.353C294.837 589.023 295.167 588.693 295.507 588.353Z" fill="#D38669"/>
<path d="M58.5068 589.353C59.7473 592.956 59.2806 595.625 58.5459 599.325C58.2095 601.045 58.2095 601.045 57.8662 602.8C57.6239 603.993 57.3815 605.186 57.1318 606.415C56.7799 608.211 56.7799 608.211 56.4209 610.042C54.6788 618.837 54.6788 618.837 53.5068 622.353C51.1968 622.023 48.8868 621.693 46.5068 621.353C46.7687 613.21 47.7038 605.487 49.4443 597.54C49.6142 596.746 49.784 595.951 49.959 595.132C50.4046 593.188 50.9475 591.267 51.5068 589.353C54.1735 588.019 55.6736 588.682 58.5068 589.353Z" fill="#D28467"/>
<path d="M205.507 359.353C206.206 361.106 206.206 361.106 206.507 363.353C205.214 365.317 205.214 365.317 203.319 367.29C201.197 369.543 199.306 371.635 197.507 374.165C193.441 378.613 188.728 379.525 182.925 379.821C180.848 379.848 178.771 379.858 176.694 379.853C175.15 379.895 175.15 379.895 173.575 379.938C166.085 379.957 160.883 378.254 154.507 374.353C154.507 373.693 154.507 373.033 154.507 372.353C153.517 372.023 152.527 371.693 151.507 371.353C149.757 368.915 149.757 368.915 148.507 366.353C148.837 365.693 149.167 365.033 149.507 364.353C150.122 364.979 150.737 365.606 151.37 366.251C152.582 367.477 152.582 367.477 153.819 368.728C155.02 369.946 155.02 369.946 156.245 371.188C162.922 377.577 170.843 377.736 179.638 377.725C185.192 377.576 189.071 376.657 193.507 373.352C194.538 372.63 195.569 371.909 196.632 371.165C200.399 367.874 202.91 363.58 205.507 359.353Z" fill="#F6B240"/>
<path d="M196.507 372.353C197.167 372.683 197.827 373.013 198.507 373.353C195.332 376.074 192.564 378.208 188.507 379.353C186.194 378.978 186.194 378.978 184.507 378.353C187.072 375.787 189.165 375.629 192.632 374.915C194.728 374.448 194.728 374.448 196.507 372.353Z" fill="#F7B32F"/>
</svg>
