<svg width="754" height="714" viewBox="0 0 754 714" fill="none" xmlns="http://www.w3.org/2000/svg">
<path d="M297.213 0.111405C298.355 0.106294 299.496 0.101183 300.672 0.0959174C304.417 0.0821071 308.162 0.0829725 311.906 0.085282C314.536 0.0813889 317.165 0.0770529 319.794 0.0722968C325.298 0.0641105 330.802 0.064972 336.306 0.0703894C342.617 0.0764074 348.929 0.0641639 355.24 0.0428194C361.365 0.0228868 367.489 0.0200528 373.614 0.0235545C376.194 0.0230457 378.774 0.0178932 381.354 0.00774255C399.344 -0.0543265 417.385 0.10153 434.438 6.57356C435.26 6.87472 436.083 7.17588 436.93 7.48616C472.188 20.751 497.607 44.3407 515.25 77.3861C515.633 78.1012 516.015 78.8163 516.409 79.5531C516.776 80.2585 517.142 80.9639 517.52 81.6908C517.852 82.3274 518.184 82.964 518.527 83.6199C519.25 85.3861 519.25 85.3861 519.25 88.3861C520.851 88.3625 520.851 88.3625 522.485 88.3385C526.525 88.2833 530.566 88.2494 534.607 88.2213C536.34 88.2064 538.074 88.1861 539.808 88.1597C570.613 87.7046 596.812 96.5656 619.213 118.07C637.852 136.352 651.167 162.957 651.631 189.365C651.659 192.337 651.65 195.307 651.638 198.279C651.642 199.944 651.648 201.609 651.654 203.274C651.669 207.812 651.665 212.35 651.657 216.888C651.652 221.797 651.665 226.705 651.675 231.614C651.692 241.217 651.693 250.82 651.688 260.424C651.684 268.234 651.685 276.045 651.691 283.856C651.691 284.97 651.692 286.084 651.693 287.231C651.694 289.495 651.696 291.758 651.698 294.021C651.711 315.223 651.706 336.426 651.694 357.628C651.684 376.995 651.697 396.361 651.721 415.727C651.746 435.644 651.755 455.561 651.749 475.478C651.745 486.648 651.747 497.817 651.765 508.986C651.78 518.496 651.78 528.005 651.763 537.515C651.754 542.36 651.752 547.205 651.767 552.05C651.781 556.498 651.776 560.946 651.757 565.395C651.753 566.991 651.756 568.587 651.767 570.183C651.839 582.023 650.036 592.886 647.25 604.386C646.137 603.433 645.023 602.479 643.91 601.526C643.29 600.995 642.67 600.464 642.031 599.917C635.563 594.356 629.384 588.572 623.395 582.499C621.427 580.56 619.411 578.744 617.313 576.949C613.22 573.441 609.478 569.629 605.692 565.796C602.978 563.118 600.142 560.64 597.246 558.163C594.184 555.436 591.348 552.492 588.469 549.574C586.456 547.589 584.396 545.725 582.25 543.886C579.279 541.339 576.499 538.672 573.75 535.886C571.062 533.162 568.352 530.553 565.438 528.074C561.297 524.528 557.509 520.673 553.682 516.798C550.285 513.375 546.783 510.153 543.11 507.027C540.357 504.598 537.821 501.966 535.246 499.351C533.329 497.464 531.354 495.699 529.313 493.949C525.503 490.676 522.002 487.155 518.477 483.581C515.797 480.939 512.984 478.495 510.125 476.05C508.36 474.483 506.748 472.848 505.125 471.136C501.733 467.689 498.037 464.695 494.25 461.699C493.378 461.003 493.378 461.003 492.488 460.293C488.588 457.249 484.596 454.753 480.25 452.386C480.25 452.056 480.25 451.726 480.25 451.386C480.98 451.366 481.71 451.346 482.462 451.326C485.829 451.23 489.196 451.12 492.563 451.011C494.285 450.965 494.285 450.965 496.041 450.917C518.298 450.161 537.855 442.801 553.25 426.386C568.281 409.124 571.716 389.479 571.654 367.334C571.66 365.456 571.667 363.579 571.675 361.701C571.693 356.641 571.692 351.581 571.686 346.521C571.683 342.279 571.689 338.038 571.695 333.796C571.709 323.781 571.708 313.766 571.696 303.75C571.685 293.456 571.699 283.163 571.726 272.868C571.748 263.994 571.754 255.12 571.749 246.245C571.745 240.961 571.748 235.677 571.765 230.393C571.78 225.42 571.776 220.448 571.758 215.475C571.754 213.663 571.757 211.851 571.767 210.038C571.844 195.769 570.453 182.258 563.563 169.449C562.961 168.305 562.359 167.162 561.739 165.984C560.486 163.534 560.486 163.534 559.25 162.386C556.456 162.276 553.687 162.231 550.892 162.228C550.005 162.223 549.118 162.218 548.204 162.213C545.208 162.197 542.213 162.189 539.217 162.181C537.079 162.171 534.941 162.161 532.803 162.151C526.979 162.124 521.154 162.103 515.33 162.083C509.251 162.061 503.172 162.034 497.093 162.007C485.572 161.957 474.051 161.912 462.53 161.869C449.418 161.819 436.306 161.764 423.194 161.709C396.212 161.595 369.231 161.488 342.25 161.386C342.255 162.489 342.259 163.592 342.263 164.728C342.267 166.187 342.27 167.646 342.274 169.105C342.278 170.193 342.278 170.193 342.283 171.303C342.309 186.538 338.066 203.484 327.129 214.808C313.445 226.302 300.252 231.681 282.25 230.386C274.773 228.723 265.748 224.883 260.25 219.386C260.203 240.266 260.168 261.147 260.147 282.027C260.136 291.724 260.122 301.42 260.099 311.116C260.079 319.573 260.067 328.029 260.062 336.486C260.059 340.958 260.053 345.431 260.039 349.904C260.025 354.125 260.021 358.345 260.024 362.566C260.024 364.104 260.02 365.643 260.012 367.182C259.895 391.54 265.091 410.992 282.137 429.097C284.3 431.44 286.285 433.876 288.25 436.386C284.145 435.934 280.042 435.473 275.938 435.011C274.216 434.822 274.216 434.822 272.459 434.628C267.177 434.03 261.972 433.371 256.762 432.312C250.311 431.091 243.927 430.981 237.375 430.949C236.198 430.916 235.021 430.883 233.809 430.849C218.917 430.759 207.704 436.729 196.848 446.562C184.644 458.974 178.71 475.823 178.828 493.025C179.432 510.634 188.603 524.119 200.922 535.952C203.656 538.482 206.438 540.943 209.25 543.386C210.029 544.087 210.807 544.789 211.61 545.511C217.013 550.153 222.674 553.362 229.103 556.334C234.117 558.678 238.656 561.526 243.299 564.533C248.317 567.684 253.53 570.463 258.75 573.261C259.82 573.841 260.89 574.421 261.992 575.019C269.745 579.198 275.323 581.403 284.25 580.386C296.366 576.526 301.568 566.616 307.429 556.17C308.504 554.254 309.591 552.345 310.68 550.437C316.673 540.266 316.673 540.266 318.438 528.824C318.428 527.151 318.428 527.151 318.418 525.445C318.279 522.91 317.988 520.799 317.25 518.386C326.637 518.804 335.802 519.825 345.09 521.222C354.445 522.61 363.834 523.526 373.25 524.386C376.052 530.401 377.809 536.538 379.543 542.933C379.85 544.049 380.158 545.165 380.474 546.315C381.128 548.693 381.78 551.072 382.43 553.451C384.113 559.608 385.813 565.761 387.512 571.913C387.842 573.108 388.171 574.303 388.511 575.533C390.839 583.949 393.234 592.338 395.75 600.699C398.264 609.053 400.707 617.423 403.063 625.824C403.341 626.813 403.62 627.803 403.906 628.823C405.27 633.714 406.56 638.613 407.762 643.546C408.812 647.803 410.05 651.921 411.482 656.062C413.034 660.758 414.263 665.553 415.563 670.324C417.879 678.744 420.324 687.074 423.296 695.288C424.677 699.208 425.609 703.047 426.329 707.144C426.503 708.128 426.678 709.112 426.857 710.125C427.052 711.244 427.052 711.244 427.25 712.386C385.168 712.5 343.086 712.589 301.003 712.641C296.038 712.648 291.072 712.654 286.106 712.661C285.118 712.662 284.129 712.663 283.111 712.665C267.093 712.686 251.076 712.726 235.058 712.772C218.629 712.819 202.2 712.846 185.771 712.857C175.629 712.863 165.487 712.885 155.345 712.926C148.395 712.952 141.446 712.96 134.496 712.954C130.483 712.95 126.47 712.955 122.458 712.982C118.785 713.006 115.114 713.008 111.441 712.991C109.48 712.987 107.52 713.009 105.559 713.031C96.0737 712.95 96.0738 712.95 92.9898 709.973C90.2821 705.946 90.1094 703.787 90.0574 698.92C90.0492 698.257 90.041 697.593 90.0326 696.909C90.0078 694.709 89.9912 692.508 89.9768 690.308C89.9688 689.18 89.9688 689.18 89.9607 688.029C89.934 684.048 89.9146 680.066 89.9002 676.085C89.8835 671.978 89.8388 667.871 89.7878 663.765C89.7541 660.602 89.7426 657.44 89.7369 654.278C89.7302 652.765 89.715 651.251 89.691 649.738C89.4918 636.404 89.4918 636.404 92.658 632.473C96.8936 629.063 100.101 629.211 105.364 629.183C106.17 629.177 106.977 629.172 107.808 629.166C109.517 629.156 111.226 629.15 112.935 629.146C115.542 629.136 118.149 629.105 120.756 629.074C122.417 629.067 124.078 629.062 125.739 629.058C126.516 629.046 127.293 629.033 128.094 629.021C132.668 629.039 135.639 629.51 139.25 632.386C141.25 635.386 141.25 635.386 141.25 645.386C151.15 644.726 161.05 644.066 171.25 643.386C176.964 629.901 182.67 616.412 188.339 602.908C188.899 601.574 189.459 600.241 190.019 598.908C193.163 591.427 196.272 583.935 199.25 576.386C198.656 575.717 198.062 575.048 197.449 574.359C168.506 540.824 159.592 504.298 159.727 460.882C159.737 456.513 159.722 452.144 159.711 447.775C159.694 439.242 159.697 430.71 159.709 422.177C159.718 415.233 159.719 408.29 159.715 401.346C159.714 400.354 159.714 399.361 159.713 398.339C159.712 396.322 159.711 394.304 159.709 392.287C159.698 373.42 159.711 354.553 159.732 335.686C159.75 319.543 159.747 303.401 159.729 287.258C159.707 268.458 159.699 249.658 159.711 230.858C159.713 228.847 159.714 226.837 159.715 224.827C159.716 223.838 159.716 222.85 159.717 221.831C159.72 214.908 159.715 207.985 159.705 201.062C159.694 192.608 159.697 184.153 159.718 175.699C159.729 171.396 159.733 167.094 159.72 162.791C159.597 119.755 167.857 82.78 196.25 49.3861C196.908 48.6062 197.565 47.8263 198.242 47.0228C222.153 19.3439 260.48 0.0249556 297.213 0.111405Z" fill="#2C2B2B"/>
<path d="M342.25 161.386C370.44 161.176 398.629 161.017 426.819 160.92C439.908 160.873 452.996 160.81 466.085 160.707C477.492 160.618 488.898 160.559 500.305 160.539C506.347 160.528 512.387 160.5 518.428 160.435C524.113 160.373 529.797 160.355 535.482 160.368C537.57 160.366 539.657 160.348 541.744 160.313C557.533 160.065 557.533 160.065 561.79 163.34C563.393 165.676 564.367 167.706 565.25 170.386C565.781 171.499 566.312 172.611 566.859 173.757C567.424 175.275 567.424 175.275 568 176.824C568.387 177.833 568.773 178.842 569.172 179.882C572.46 190.57 572.542 200.932 572.525 212.016C572.529 213.896 572.534 215.776 572.54 217.657C572.553 222.742 572.554 227.826 572.552 232.911C572.55 237.168 572.555 241.424 572.56 245.681C572.571 255.731 572.572 265.78 572.566 275.83C572.56 286.169 572.572 296.509 572.593 306.848C572.611 315.749 572.617 324.651 572.614 333.552C572.612 338.858 572.614 344.163 572.628 349.469C572.641 354.463 572.639 359.456 572.626 364.45C572.624 366.273 572.626 368.096 572.634 369.918C572.693 383.657 571.803 396.594 565.562 409.136C565.041 410.209 565.041 410.209 564.51 411.304C561.484 417.323 557.85 422.452 553.25 427.386C552.625 428.09 552 428.794 551.355 429.519C535.84 446.141 515.028 451.188 493.25 451.949C492.094 451.992 490.937 452.035 489.746 452.079C486.914 452.185 484.082 452.287 481.25 452.386C481.89 452.752 482.53 453.117 483.189 453.494C488.649 456.681 493.587 460.005 498.312 464.199C498.908 464.717 499.503 465.235 500.116 465.77C504.328 469.475 508.329 473.353 512.242 477.374C514.176 479.312 516.172 481.106 518.25 482.886C522.042 486.137 525.521 489.641 529.027 493.195C531.677 495.807 534.462 498.219 537.285 500.64C539.358 502.482 541.304 504.41 543.25 506.386C545.749 508.924 548.288 511.327 551 513.636C554.595 516.722 557.923 520.018 561.25 523.386C565.144 527.328 569.102 531.086 573.324 534.679C576.368 537.377 579.176 540.304 582.031 543.199C584.044 545.183 586.104 547.047 588.25 548.886C591.221 551.433 594.001 554.1 596.75 556.886C599.478 559.652 602.235 562.299 605.187 564.824C608.36 567.542 611.313 570.414 614.25 573.386C617.166 576.338 620.096 579.19 623.25 581.886C627.314 585.36 631.022 589.143 634.777 592.945C638.132 596.257 641.666 599.326 645.25 602.386C645.58 602.716 645.91 603.046 646.25 603.386C646.91 602.726 645.82 604.18 646.5 603.5C646.851 604.511 647.639 603.959 648 605C651.044 612.041 658.105 615.437 664.527 619.199C666.915 620.844 667.969 622.824 669.25 625.386C670.832 627.138 670.832 627.138 672.25 628.386C669.246 635.212 664.849 639.921 659.234 644.628C656.817 646.77 654.795 649.104 652.769 651.613C650.721 654.003 648.492 656.177 646.25 658.386C639.183 665.328 639.183 665.328 632.5 672.636C626.495 679.574 626.495 679.574 623.25 682.386C620.037 682.097 618.31 680.843 616.016 678.663C615.442 678.125 614.868 677.587 614.277 677.033C613.691 676.469 613.104 675.905 612.5 675.324C611.898 674.756 611.296 674.188 610.676 673.603C609.194 672.204 607.721 670.796 606.25 669.386C602.626 670.683 599.471 672.408 596.188 674.407C579.08 684.701 560.174 689.956 540.25 689.386C539.877 690.716 539.877 690.716 539.496 692.074C538.186 695.557 536.769 697.614 534.312 700.386C533.623 701.19 532.933 701.995 532.223 702.824C521.297 712.241 511.472 712.202 497.707 711.972C495.727 711.961 493.748 711.952 491.768 711.946C486.591 711.924 481.414 711.865 476.238 711.798C470.942 711.736 465.646 711.709 460.35 711.679C449.983 711.615 439.616 711.513 429.25 711.386C426.25 704.761 426.25 704.761 426.25 701.386C425.59 701.386 424.93 701.386 424.25 701.386C419.826 689.019 416.304 676.476 413.055 663.759C411.488 657.702 409.733 652.132 407.25 646.386C406.031 642.186 407.052 637.745 406 633.5C403.923 625.303 399.73 617.345 397.25 609.261C392.822 594.792 388.849 580.195 384.83 565.608C383.645 561.306 382.458 557.005 381.272 552.704C380.381 549.472 379.493 546.239 378.605 543.006C378.052 540.999 377.499 538.991 376.945 536.984C376.688 536.045 376.431 535.107 376.166 534.14C375.929 533.279 375.691 532.418 375.446 531.531C375.238 530.776 375.031 530.021 374.817 529.243C374.286 527.319 374.286 527.319 373.25 525.386C370.89 524.955 368.617 524.654 366.234 524.421C365.155 524.304 365.155 524.304 364.054 524.185C362.507 524.018 360.959 523.856 359.411 523.697C355.406 523.285 351.404 522.844 347.402 522.406C346.613 522.32 345.823 522.234 345.009 522.146C335.722 521.128 326.484 519.802 317.25 518.386C317.567 518.927 317.884 519.469 318.211 520.027C320.918 526.174 320.155 532.932 317.883 539.093C315.91 543.325 313.587 547.348 311.25 551.386C310.779 552.228 310.308 553.07 309.822 553.937C308.319 556.62 306.79 559.287 305.25 561.949C304.777 562.781 304.303 563.614 303.815 564.472C299.191 572.235 293.159 578.819 284.25 581.386C274.741 583.243 267.505 579.113 259.465 574.623C257.145 573.327 254.808 572.064 252.469 570.804C240.121 564.093 240.121 564.093 235.707 560.816C232.186 558.23 228.462 556.502 224.5 554.699C216.76 551.008 211.338 546.454 205.25 540.386C203.844 539.145 202.428 537.914 201 536.699C199.749 535.595 198.499 534.491 197.25 533.386C196.667 532.894 196.085 532.401 195.484 531.894C185.607 522.951 178.756 508.425 177.91 495.214C177.283 477.701 182.694 460.89 194.625 447.824C204.268 437.798 216.02 430.338 230.258 429.828C232.63 429.842 235.003 429.882 237.375 429.949C239.152 429.957 239.152 429.957 240.965 429.966C247.366 430.054 253.403 430.615 259.673 431.889C263.775 432.68 267.906 433.057 272.062 433.449C277.162 433.942 282.205 434.468 287.25 435.386C286.56 434.754 285.871 434.123 285.16 433.472C269.026 418.112 260.11 399.94 259.07 377.507C259.006 373.281 259.002 369.06 259.023 364.834C259.023 363.226 259.023 361.618 259.022 360.01C259.021 355.691 259.033 351.371 259.047 347.052C259.06 342.521 259.061 337.99 259.063 333.459C259.069 324.9 259.086 316.34 259.106 307.78C259.128 298.027 259.139 288.274 259.149 278.52C259.17 258.475 259.205 238.431 259.25 218.386C260.209 218.94 261.168 219.495 262.156 220.066C263.428 220.798 264.7 221.529 265.973 222.261C266.603 222.626 267.234 222.991 267.883 223.367C278.312 229.355 287.984 231.033 300.086 228.882C315.676 224.579 326.747 215.801 334.687 201.863C339.878 191.573 341.114 180.448 341.786 169.094C341.854 167.981 341.854 167.981 341.923 166.845C342.033 165.026 342.142 163.206 342.25 161.386Z" fill="#F8AB93"/>
<path d="M237.965 429.948C239.742 429.957 239.742 429.957 241.555 429.966C247.958 430.054 253.999 430.615 260.271 431.889C264.33 432.674 268.415 433.057 272.527 433.448C274.883 433.681 277.239 433.916 279.594 434.159C281.074 434.309 282.555 434.444 284.037 434.566C288.284 434.97 291.101 435.715 294.527 438.261C299.221 441.676 303.659 444.485 309.152 446.448C310.035 446.769 310.918 447.09 311.828 447.421C313.319 447.899 313.319 447.899 314.84 448.386C315.908 448.732 316.975 449.077 318.076 449.433C324.618 451.035 331.388 450.636 338.077 450.594C339.617 450.592 341.157 450.59 342.697 450.59C346.002 450.588 349.306 450.58 352.61 450.569C357.844 450.551 363.077 450.555 368.311 450.562C383.189 450.581 398.067 450.588 412.945 450.54C421.171 450.514 429.397 450.513 437.623 450.54C441.969 450.553 446.314 450.553 450.66 450.522C454.751 450.493 458.84 450.496 462.931 450.524C464.424 450.529 465.918 450.522 467.411 450.501C477.354 450.373 483.961 452.05 491.84 458.386C492.881 459.195 492.881 459.195 493.943 460.02C495.667 461.384 497.319 462.804 498.965 464.261C499.555 464.775 500.146 465.289 500.754 465.818C504.952 469.506 508.935 473.369 512.832 477.374C514.766 479.312 516.762 481.105 518.84 482.886C522.632 486.136 526.111 489.64 529.617 493.195C532.267 495.807 535.052 498.219 537.875 500.64C539.948 502.482 541.894 504.41 543.84 506.386C546.339 508.924 548.878 511.327 551.59 513.636C555.185 516.722 558.513 520.018 561.84 523.386C565.734 527.328 569.691 531.086 573.914 534.679C576.958 537.377 579.766 540.304 582.621 543.198C584.634 545.183 586.694 547.047 588.84 548.886C591.811 551.433 594.591 554.1 597.34 556.886C600.068 559.652 602.825 562.299 605.777 564.823C608.95 567.542 611.903 570.413 614.84 573.386C617.756 576.338 620.686 579.19 623.84 581.886C627.903 585.36 631.612 589.143 635.367 592.945C638.722 596.257 642.256 599.326 645.84 602.386C646.17 602.716 646.5 603.046 646.84 603.386C646.16 604.066 647.5 602.726 646.84 603.386C646.84 603.386 647 603.5 648.5 604.5C654.5 611 658.695 615.437 665.117 619.198C667.505 620.844 668.719 622.937 670 625.5C670.66 628.114 670 625.5 670.5 627.5C665.16 633.114 665.117 637.5 659.5 643.5C657.082 645.642 655.385 649.104 653.359 651.612C651.311 654.003 649.082 656.177 646.84 658.386C639.772 665.328 639.772 665.328 633.09 672.636C627.084 679.574 625.745 679.688 622.5 682.5C619.287 682.211 618.295 681.18 616 679C615.426 678.462 615.091 678.054 614.5 677.5C613.913 676.936 613.104 676.081 612.5 675.5C611.898 674.932 611.62 674.585 611 674C609.5 672.5 608 671 606.5 669.5C602.876 670.797 600.061 672.408 596.778 674.407C579.67 684.701 560.764 689.956 540.84 689.386C540.591 690.273 540.342 691.16 540.086 692.073C538.775 695.557 537.359 697.614 534.902 700.386C533.868 701.593 533.868 701.593 532.812 702.823C521.887 712.241 512.062 712.202 498.297 711.972C496.317 711.961 494.337 711.952 492.358 711.946C487.181 711.923 482.004 711.865 476.827 711.798C471.532 711.736 466.236 711.709 460.939 711.679C450.572 711.615 438.09 712.5 427.59 712.5C426.09 705.5 425 704.875 425 701.5C424.34 701.5 425.52 701.386 424.84 701.386C420.416 689.019 416.894 676.475 413.644 663.758C412.077 657.702 410.323 652.132 407.84 646.386C406.621 642.186 405.58 637.943 404.527 633.698C403.5 625.5 400.32 617.345 397.84 609.261C393.412 594.791 389.439 580.195 385.42 565.608C384.235 561.306 383.048 557.005 381.862 552.703C380.971 549.471 380.083 546.239 379.195 543.006C378.642 540.998 378.088 538.991 377.535 536.984C377.278 536.045 377.021 535.107 376.756 534.14C376.518 533.279 376.281 532.418 376.036 531.531C375.828 530.776 375.62 530.021 375.406 529.243C374.876 527.319 374.876 527.319 373.84 525.386C371.479 524.955 369.206 524.653 366.824 524.421C365.745 524.304 365.745 524.304 364.643 524.185C363.096 524.018 361.549 523.855 360.001 523.696C355.996 523.285 351.994 522.844 347.992 522.405C347.202 522.32 346.413 522.234 345.599 522.146C336.312 521.127 327.074 519.802 317.84 518.386C318.157 518.927 318.474 519.469 318.801 520.027C321.508 526.174 320.745 532.932 318.473 539.093C316.5 543.325 314.177 547.348 311.84 551.386C311.369 552.228 310.897 553.069 310.412 553.937C308.909 556.62 307.38 559.286 305.84 561.948C305.366 562.781 304.893 563.614 304.405 564.472C299.781 572.235 293.749 578.819 284.84 581.386C275.331 583.243 268.095 579.113 260.055 574.623C257.734 573.327 255.398 572.064 253.059 570.804C240.711 564.093 240.711 564.093 236.297 560.816C232.775 558.23 229.052 556.501 225.09 554.698C217.349 551.008 211.928 546.454 205.84 540.386C204.434 539.145 203.018 537.914 201.59 536.698C200.339 535.595 199.089 534.491 197.84 533.386C197.257 532.894 196.674 532.401 196.074 531.894C186.196 522.95 179.346 508.425 178.5 495.214C177.873 477.7 183.283 460.89 195.215 447.823C207.264 435.296 220.557 429.462 237.965 429.948Z" fill="#F4AF19"/>
<path d="M317.25 518.386C326.637 518.804 335.802 519.825 345.09 521.222C354.445 522.61 363.834 523.526 373.25 524.386C376.052 530.401 377.809 536.538 379.543 542.933C379.85 544.049 380.158 545.165 380.474 546.315C381.128 548.693 381.78 551.072 382.43 553.451C384.113 559.608 385.813 565.761 387.512 571.913C387.842 573.108 388.171 574.303 388.511 575.533C390.839 583.949 393.234 592.338 395.75 600.699C398.264 609.053 398.145 618.599 400.5 627C400.918 628.485 403.48 627.308 403.906 628.823C405.27 633.714 406.56 638.613 407.762 643.546C408.812 647.803 410.05 651.921 411.482 656.062C413.034 660.758 414.263 665.553 415.563 670.324C417.879 678.744 420.324 687.074 423.296 695.288C424.677 699.208 426.5 703 427.5 707C428 708 427.82 708.987 428 710C428.195 711.119 428.301 711.358 428.5 712.5C386.418 712.614 343.086 712.589 301.003 712.641C296.038 712.648 291.072 712.654 286.106 712.661C285.118 712.662 284.129 712.663 283.111 712.665C267.093 712.686 251.076 712.726 235.058 712.772C218.629 712.819 202.2 712.846 185.771 712.857C175.629 712.863 165.487 712.885 155.345 712.926C148.395 712.952 141.446 712.96 134.496 712.954C130.483 712.95 126.47 712.955 122.458 712.982C118.785 713.006 115.114 713.008 111.441 712.991C109.48 712.987 107.52 713.009 105.559 713.031C96.0737 712.95 96.0738 712.95 92.9898 709.973C90.2821 705.946 90.1094 703.787 90.0574 698.92C90.0492 698.257 90.041 697.593 90.0326 696.909C90.0078 694.709 89.9912 692.508 89.9768 690.308C89.9715 689.556 89.9662 688.804 89.9607 688.029C89.934 684.048 89.9146 680.066 89.9002 676.085C89.8835 671.978 89.8388 667.871 89.7878 663.765C89.7541 660.602 89.7426 657.44 89.7369 654.278C89.7302 652.765 89.715 651.251 89.691 649.738C89.4918 636.404 89.4918 636.404 92.658 632.473C96.8936 629.063 100.101 629.211 105.364 629.183C106.17 629.177 106.977 629.172 107.808 629.166C109.517 629.156 111.226 629.15 112.935 629.146C115.542 629.136 118.149 629.105 120.756 629.074C122.417 629.067 124.078 629.062 125.739 629.058C126.516 629.046 127.293 629.033 128.094 629.021C132.668 629.039 135.639 629.51 139.25 632.386C141.25 635.386 141.25 635.386 141.25 645.386C151.15 644.726 161.05 644.066 171.25 643.386C176.964 629.901 182.67 616.412 188.339 602.908C188.899 601.574 189.459 600.241 190.019 598.908C190.815 597.016 191.609 595.123 192.403 593.229C192.892 592.063 193.382 590.896 193.886 589.694C195.46 585.876 196.949 582.03 198.393 578.161C199.25 576.386 199.25 576.386 201.25 575.386C201.614 573.725 201.941 572.057 202.25 570.386C202.969 568.456 203.734 566.544 204.535 564.647C204.983 563.581 205.431 562.514 205.893 561.415C206.361 560.312 206.83 559.209 207.313 558.073C208.021 556.39 208.021 556.39 208.744 554.673C209.909 551.909 211.078 549.146 212.25 546.386C212.971 546.861 213.692 547.337 214.435 547.827C220.097 551.544 225.796 554.779 231.938 557.636C234.864 559.182 237.569 560.847 240.344 562.644C246.321 566.493 252.487 569.904 258.75 573.261C259.82 573.841 260.89 574.421 261.992 575.019C269.745 579.198 275.323 581.403 284.25 580.386C296.366 576.526 301.568 566.616 307.429 556.17C308.504 554.254 309.591 552.345 310.68 550.437C316.673 540.266 316.673 540.266 318.438 528.824C318.431 527.709 318.425 526.593 318.418 525.445C318.279 522.91 317.988 520.799 317.25 518.386Z" fill="#43ABA6"/>
<path d="M237.375 429.949C239.152 429.957 239.152 429.957 240.965 429.966C247.368 430.054 253.409 430.615 259.682 431.889C263.74 432.674 267.826 433.057 271.937 433.448C274.293 433.681 276.649 433.916 279.004 434.159C280.484 434.309 281.965 434.444 283.447 434.566C287.694 434.97 291.074 435.454 294.5 438C300.987 442.72 306.874 445.536 314.5 448C315.388 448.293 316.059 448.727 317 449C329.059 451.227 341.379 450.254 353.5 450.5C355.983 456.802 357.648 465.044 359.437 471.573C359.734 472.644 360.03 473.715 360.335 474.818C360.972 477.122 361.607 479.427 362.241 481.732C363.11 484.879 363.986 488.023 364.867 491.167C365.412 493.114 365.956 495.062 366.499 497.01C367.192 499.495 367.887 501.979 368.585 504.463C370.416 511.065 372.037 517.642 373.25 524.386C354.393 524.125 335.867 521.147 317.25 518.386C317.57 518.991 317.89 519.596 318.22 520.219C320.51 525.037 320.016 530.226 319.25 535.386C317.156 541.064 314.275 546.16 311.25 551.386C310.779 552.228 310.308 553.07 309.822 553.937C308.319 556.62 306.79 559.287 305.25 561.949C304.777 562.781 304.303 563.614 303.815 564.472C299.191 572.235 293.159 578.819 284.25 581.386C274.741 583.243 267.505 579.113 259.465 574.623C257.145 573.327 254.808 572.064 252.469 570.804C240.121 564.093 240.121 564.093 235.707 560.816C232.186 558.23 228.462 556.502 224.5 554.699C216.76 551.008 211.338 546.454 205.25 540.386C203.844 539.145 202.428 537.914 201 536.699C199.749 535.595 198.499 534.491 197.25 533.386C196.667 532.894 196.085 532.401 195.484 531.894C185.607 522.951 178.756 508.425 177.91 495.214C177.283 477.701 182.694 460.89 194.625 447.824C206.674 435.296 219.967 429.462 237.375 429.949Z" fill="#CC9219"/>
<path d="M317.25 518.386C326.637 518.804 335.802 519.825 345.09 521.222C354.445 522.61 363.834 523.526 373.25 524.386C376.052 530.401 377.809 536.538 379.543 542.933C379.85 544.049 380.158 545.165 380.474 546.315C381.128 548.693 381.78 551.072 382.43 553.451C384.113 559.608 385.813 565.761 387.512 571.913C387.842 573.108 388.171 574.303 388.511 575.533C390.839 583.949 393.234 592.338 395.75 600.699C398.286 609.141 393 618 401 626C402.373 627.373 403.778 628.12 404.082 629.174C404.353 630.135 404.623 631.095 404.902 632.085C405.139 632.919 405.377 633.752 405.621 634.611C406.431 638.186 407.562 641.86 408 645.5C389.892 645.734 371.035 645.796 352.927 645.904C344.517 645.955 336.108 646.025 327.699 646.14C320.362 646.24 313.026 646.304 305.689 646.327C301.81 646.34 297.933 646.37 294.054 646.443C277.122 646.752 263.773 646.777 250.25 635.386C249.59 635.386 248.93 635.386 248.25 635.386C246.6 638.686 244.95 641.986 243.25 645.386C219.49 645.386 195.73 645.386 171.25 645.386C174.621 634.15 174.621 634.15 176.887 629.206C177.378 628.122 177.869 627.038 178.375 625.921C178.89 624.796 179.406 623.67 179.938 622.511C183.684 614.217 187.347 605.915 190.688 597.448C191.005 596.644 191.323 595.84 191.65 595.012C192.244 593.501 192.838 591.99 193.43 590.478C194.645 587.377 195.875 584.285 197.125 581.198C197.494 580.277 197.862 579.355 198.242 578.405C199.25 576.386 199.5 576 200.5 574.5C201 573 201.941 572.057 202.25 570.386C202.969 568.456 203.734 566.544 204.535 564.647C204.983 563.581 205.431 562.514 205.893 561.415C206.361 560.312 206.83 559.209 207.313 558.073C208.021 556.39 208.021 556.39 208.744 554.673C209.909 551.909 211.078 549.146 212.25 546.386C213.332 547.099 213.332 547.099 214.435 547.827C220.097 551.544 225.796 554.779 231.938 557.636C234.864 559.182 237.569 560.847 240.344 562.644C246.321 566.493 252.487 569.904 258.75 573.261C259.82 573.841 260.89 574.421 261.992 575.019C269.745 579.198 275.323 581.403 284.25 580.386C296.366 576.526 301.568 566.616 307.429 556.17C308.504 554.254 309.591 552.345 310.68 550.437C316.673 540.266 316.673 540.266 318.438 528.824C318.431 527.709 318.425 526.593 318.418 525.445C318.279 522.91 317.988 520.799 317.25 518.386Z" fill="#288C87"/>
<path d="M362.25 204.386C373.469 210.921 380.283 220.954 383.796 233.309C384.571 236.861 384.434 240.484 384.453 244.105C384.458 244.959 384.464 245.812 384.47 246.692C384.479 248.501 384.486 250.31 384.49 252.119C384.499 254.849 384.53 257.578 384.562 260.308C384.665 276.985 382.4 290.953 370.25 303.386C361.209 310.961 350.163 314.193 338.449 313.769C325.94 312.272 316.069 306.342 308.039 296.808C301.236 287.598 298.935 277.797 298.949 266.511C298.945 265.702 298.94 264.892 298.936 264.058C298.93 262.361 298.93 260.664 298.934 258.966C298.937 256.392 298.914 253.819 298.888 251.245C298.886 249.584 298.885 247.923 298.886 246.261C298.877 245.505 298.868 244.748 298.858 243.969C298.905 238.474 299.821 233.364 302.25 228.386C304.746 226.73 304.746 226.73 307.687 225.886C319.024 221.865 327.258 214.773 333.25 204.386C333.577 203.65 333.904 202.914 334.242 202.156C338.968 193.857 356.298 201.464 362.25 204.386Z" fill="#FDFCFB"/>
<path d="M467.438 205.011C477.906 211.867 484.294 220.518 488.25 232.386C488.351 233.857 488.398 235.332 488.411 236.806C488.421 237.698 488.431 238.59 488.44 239.508C488.445 240.471 488.449 241.433 488.453 242.425C488.459 243.42 488.465 244.416 488.471 245.441C488.48 247.551 488.487 249.661 488.49 251.771C488.5 254.978 488.531 258.184 488.563 261.39C488.569 263.443 488.574 265.497 488.578 267.55C488.591 268.5 488.603 269.451 488.616 270.43C488.593 277.362 487.935 284.281 483.25 289.698C477.095 293.161 470.381 295.063 463.625 297.011C458.981 298.371 454.624 300.048 450.18 301.968C448.536 302.668 448.536 302.668 446.858 303.382C444.652 304.329 442.456 305.3 440.271 306.297C431.544 310.02 431.544 310.02 426.313 308.433C416.283 303.977 409.492 295.23 405.5 285.261C403.238 279.132 403.071 272.889 403.012 266.437C403.004 265.583 402.996 264.73 402.987 263.851C402.974 262.05 402.963 260.249 402.955 258.448C402.944 256.624 402.923 254.8 402.893 252.976C402.577 233.45 402.577 233.45 407.25 224.386C407.792 223.319 408.333 222.251 408.891 221.152C415.07 211.493 421.758 205.954 432.25 201.386C433.673 200.736 433.673 200.736 435.125 200.073C446.098 197.659 457.66 199.57 467.438 205.011Z" fill="#FDFCFB"/>
<path d="M342.25 125.386C362.54 125.295 382.829 125.222 403.119 125.178C412.542 125.158 421.965 125.13 431.387 125.084C439.608 125.044 447.828 125.018 456.049 125.009C460.395 125.004 464.74 124.992 469.086 124.963C499.376 124.766 526.483 126.628 549.535 148.694C557.726 156.815 557.726 156.815 559.25 161.386C487.64 161.386 416.03 161.386 342.25 161.386C342.25 149.506 342.25 137.626 342.25 125.386Z" fill="#DE413D"/>
<path d="M671.25 630.386C670.755 628.406 670.755 628.406 670.25 626.386L688.25 642.926C688.5 643 688.5 643 688.75 643.386C688.5 643 688.5 643 688.75 643.386L707 665.386H724.25C724.827 665.386 725.405 665.386 725.982 665.386L740.5 669.261C746.5 672.5 750.346 674.529 753.25 680.386C753.648 683.726 753.648 683.726 753.625 687.323C753.633 688.508 753.64 689.693 753.648 690.913C753.213 694.708 752.145 697.095 750.25 700.386C749.673 701.417 749.095 702.448 748.5 703.511C745.074 707.888 740.775 710.388 735.25 711.386C732.828 711.484 730.402 711.524 727.978 711.531C727.252 711.534 726.526 711.538 725.779 711.541C723.381 711.551 720.984 711.553 718.586 711.554C716.912 711.557 715.237 711.56 713.563 711.564C710.051 711.57 706.539 711.572 703.027 711.571C698.548 711.571 694.07 711.585 689.592 711.602C686.131 711.613 682.67 711.615 679.209 711.614C677.559 711.616 675.91 711.62 674.26 711.628C665.739 711.664 657.545 711.611 649.25 709.386C647.917 709.052 646.583 708.719 645.25 708.386C643.5 707.5 643.5 707.5 642.5 706.5C642 706 642 706 641.5 705.5C640 704 640.75 704.614 639.5 703.5C638.5 702 638.655 702.34 637.5 701C634.312 697.302 633 695.5 629.395 692.897C626.5 690 625 688.5 622.5 685.5C621.5 684 621.158 683.658 620 682.5C619 681.5 619.75 682.296 619 681.5C620.25 681.386 619.338 681.431 620.25 681.386C624.319 681.185 626.349 678.623 629.062 675.823C630.383 674.462 630.383 674.462 631.73 673.073C634.999 669.587 638.146 666.018 641.25 662.386C645.362 657.617 649.315 653.308 654.25 649.386C656.047 647.355 657.788 645.29 659.504 643.19C661.316 641.317 662.667 639.1 665 638C666.05 636.15 666.3 637.536 667.25 635.386C667.972 634.561 668.694 633.736 669.438 632.886C670.036 632.061 670.634 631.236 671.25 630.386Z" fill="#F6AB93"/>
<path d="M31.5628 566.948C39.009 571.312 42.0978 577.293 44.2503 585.386C44.7033 587.163 45.1508 588.942 45.5941 590.722C45.8573 591.778 46.1205 592.834 46.3917 593.923C47.2921 597.554 48.1874 601.187 49.0824 604.819C52.2432 617.624 55.4405 630.395 59.1671 643.05C61.1932 649.996 62.8729 657.003 64.4862 664.056C65.6195 668.952 66.9445 673.684 68.5628 678.448C70.8342 685.567 71.7859 693.198 69.0003 700.323C65.8587 705.821 62.7098 709.999 56.4535 711.944C49.3759 713.362 42.1614 713.319 35.8636 709.577C27.1859 703.169 25.7604 690.247 23.1878 680.386C22.7948 678.891 22.4016 677.397 22.0084 675.902C18.5341 662.651 15.2189 649.36 11.9342 636.061C9.98645 628.194 7.99797 620.346 5.84019 612.534C5.65071 611.844 5.46124 611.154 5.26602 610.443C4.38927 607.256 3.49969 604.074 2.58604 600.896C0.366213 592.896 -1.53164 585.057 1.81285 577.136C7.86792 566.529 20.1527 561.836 31.5628 566.948Z" fill="#288B87"/>
<path d="M286.201 495.154C288.351 496.447 290.523 497.693 292.703 498.933C313.459 510.804 313.459 510.804 319.25 522.386C321.003 533.844 316.775 541.842 311.25 551.386C310.779 552.228 310.308 553.07 309.822 553.937C308.319 556.62 306.79 559.287 305.25 561.949C304.777 562.781 304.303 563.614 303.815 564.472C299.191 572.235 293.159 578.819 284.25 581.386C274.741 583.243 267.505 579.113 259.465 574.623C257.145 573.327 254.808 572.064 252.469 570.804C232.436 559.916 232.436 559.916 229.375 553.698C228.986 552.931 228.597 552.165 228.195 551.374C227.883 550.718 227.572 550.062 227.25 549.386C226.92 548.726 226.59 548.066 226.25 547.386C223.749 535.325 229.694 526.835 235.732 516.914C237.186 514.493 238.566 512.045 239.926 509.57C244.706 500.944 248.997 493.655 258 488.949C269.372 486.98 276.556 489.321 286.201 495.154Z" fill="#F7AB92"/>
<path d="M480.625 331.323C486.621 334.693 490.102 339.941 492.25 346.386C493.623 359.714 488.151 370.836 480.098 381.14C465.868 397.721 446.707 406.21 425.301 408.734C416.435 409.062 406.806 407.067 399.941 401.234C395.16 396.01 392.969 390.437 392.625 383.386C392.969 376.338 395.105 370.558 400.117 365.503C405.972 360.788 411.584 359.46 419 359.011C427.023 358.446 434.083 356.34 440.5 351.5C441 351 441.075 351.247 442 350.5C442.925 349.753 442 350.5 443 349.753C450.842 334.902 463.331 323.897 480.625 331.323Z" fill="#FEFDFC"/>
<path d="M105.364 629.183C106.17 629.177 106.977 629.172 107.808 629.166C109.517 629.156 111.226 629.15 112.935 629.146C115.542 629.136 118.149 629.105 120.756 629.074C122.417 629.067 124.078 629.062 125.739 629.058C126.516 629.046 127.293 629.033 128.094 629.021C132.668 629.039 135.639 629.51 139.25 632.386C141.663 636.006 141.52 638.617 141.477 642.795C141.478 643.546 141.478 644.298 141.478 645.072C141.477 647.556 141.461 650.039 141.446 652.523C141.442 654.245 141.439 655.967 141.437 657.689C141.429 662.221 141.41 666.754 141.388 671.286C141.367 675.911 141.358 680.536 141.348 685.161C141.326 694.236 141.292 703.311 141.25 712.386C134.933 712.513 128.617 712.6 122.299 712.661C120.15 712.686 118.002 712.72 115.854 712.763C112.763 712.824 109.673 712.852 106.582 712.874C105.624 712.9 104.665 712.926 103.678 712.953C99.0062 712.954 96.9534 712.935 93.167 709.981C90.2151 705.985 90.1104 703.879 90.0574 698.92C90.0492 698.257 90.041 697.593 90.0326 696.909C90.0078 694.709 89.9912 692.508 89.9768 690.308C89.9715 689.556 89.9662 688.804 89.9607 688.029C89.934 684.048 89.9146 680.066 89.9002 676.085C89.8835 671.978 89.8388 667.871 89.7878 663.765C89.7541 660.602 89.7426 657.44 89.7369 654.278C89.7302 652.765 89.715 651.251 89.691 649.738C89.4918 636.404 89.4918 636.404 92.658 632.473C96.8936 629.063 100.101 629.211 105.364 629.183Z" fill="#278C87"/>
<path d="M317.25 518.386C326.637 518.804 335.802 519.825 345.09 521.222C354.445 522.61 363.834 523.526 373.25 524.386C376.052 530.401 377.809 536.538 379.543 542.933C379.851 544.05 380.158 545.166 380.475 546.317C381.129 548.696 381.781 551.075 382.431 553.454C384.109 559.592 385.802 565.725 387.496 571.858C387.825 573.05 388.154 574.242 388.493 575.47C391.44 586.123 394.531 596.725 397.735 607.304C398.242 608.997 398.747 610.691 399.25 612.386C399.547 613.375 399.844 614.365 400.151 615.384C400.436 616.371 400.722 617.358 401.016 618.374C401.277 619.263 401.537 620.151 401.806 621.067C402.25 623.386 402.25 623.386 401.25 626.386C400.693 625.817 400.136 625.249 399.563 624.663C395.326 620.376 391.036 616.243 386.465 612.315C383.769 609.967 381.132 607.556 378.5 605.136C377.993 604.67 377.486 604.203 376.963 603.723C374.864 601.793 372.766 599.861 370.668 597.929C363.568 591.393 356.421 584.933 349.07 578.679C342.241 572.862 335.53 566.955 328.945 560.862C326.577 558.686 324.18 556.555 321.75 554.448C321.133 553.906 320.515 553.363 319.879 552.804C318.499 551.603 317.096 550.429 315.688 549.261C314.25 547.386 314.25 547.386 314.313 545.073C315.25 542.386 315.25 542.386 316.813 539.386C319.605 533.216 319.182 524.789 317.25 518.386Z" fill="#2C2D2B"/>
<path d="M520.25 587.386C523.871 590.416 527.379 593.454 530.688 596.823C532.979 599.155 535.318 601.336 537.812 603.448C541.827 606.9 545.529 610.625 549.25 614.386C553.481 618.661 557.734 622.795 562.328 626.683C565.644 629.621 568.696 632.825 571.809 635.976C574.522 638.654 577.358 641.132 580.254 643.608C583.313 646.333 586.146 649.273 589.02 652.19C591.642 654.771 594.392 657.149 597.23 659.487C600.156 662.237 603.93 666.42 606.5 669.5C589.5 679.5 567.892 689.668 546.375 689.448C544.646 689.435 544.646 689.435 542.883 689.421C541.58 689.403 541.58 689.404 540.25 689.386C540.486 688.646 540.486 688.645 540.727 687.89C543.376 675.215 540.631 662.851 536.956 650.734C536.041 647.691 535.202 644.631 534.364 641.566C533.749 639.32 533.124 637.077 532.496 634.835C530.635 628.19 528.785 621.542 526.944 614.891C526.446 613.094 525.947 611.298 525.446 609.501C524.606 606.485 523.771 603.467 522.938 600.448C522.671 599.494 522.404 598.54 522.129 597.557C521.884 596.666 521.639 595.776 521.387 594.858C521.167 594.067 520.948 593.276 520.721 592.46C520.25 590.386 520.25 590.386 520.25 587.386Z" fill="#2D2D2B"/>
<path d="M264.25 594.386C268.947 595.833 271.928 598.596 275.375 601.948C279.346 605.718 283.335 609.35 287.625 612.761C293.636 617.584 299.184 622.859 304.789 628.14C309.086 632.185 313.456 636.141 318.059 639.839C319.485 640.985 320.873 642.181 322.25 643.386C322.25 644.046 322.25 644.706 322.25 645.386C314.568 645.642 306.888 645.815 299.203 645.935C296.596 645.985 293.989 646.053 291.383 646.14C275.035 646.673 262.918 646.506 250.25 635.386C249.92 635.056 249.59 634.726 249.25 634.386C249.687 629.117 251.134 624.576 253.156 619.737C253.441 619.039 253.726 618.341 254.019 617.622C254.617 616.16 255.219 614.7 255.825 613.241C256.755 610.999 257.673 608.754 258.59 606.507C259.174 605.083 259.758 603.66 260.344 602.237C260.758 601.228 260.758 601.228 261.18 600.198C263.133 595.503 263.133 595.503 264.25 594.386Z" fill="#2A2D2C"/>
<path d="M445.25 225.386C451.126 227.349 454.791 230.3 458.25 235.386C460.871 241.831 460.586 248.238 460.565 255.071C460.562 257.248 460.586 259.424 460.611 261.601C460.685 277.257 460.685 277.257 455.566 283.41C454.987 283.856 454.408 284.302 453.812 284.761C453.236 285.223 452.66 285.684 452.066 286.16C446.874 289.666 442.45 290.298 436.25 289.386C431.151 287.28 427.213 284.058 424.25 279.386C422.507 275.003 422.011 271.378 422.054 266.675C422.061 265.431 422.067 264.187 422.074 262.906C422.091 261.62 422.107 260.335 422.125 259.011C422.134 257.703 422.143 256.394 422.152 255.046C422.175 251.826 422.208 248.606 422.25 245.386C422.876 245.193 423.503 244.999 424.148 244.8C425.374 244.41 425.374 244.41 426.625 244.011C427.843 243.628 427.843 243.628 429.086 243.238C431.813 242.165 432.944 240.998 434.25 238.386C435.19 235.564 435.286 234.194 435.125 231.324C435.166 230.024 435.207 228.725 435.25 227.386C439.04 224.859 440.742 224.943 445.25 225.386Z" fill="#3C3C3C"/>
<path d="M353.25 225.386C359.626 224.866 364.188 225.268 369.25 229.386C374.606 234.7 375.418 239.166 375.489 246.491C375.497 247.29 375.505 248.088 375.513 248.91C375.527 250.6 375.538 252.291 375.546 253.981C375.557 255.7 375.577 257.42 375.607 259.139C375.65 261.632 375.666 264.123 375.676 266.616C375.694 267.375 375.711 268.134 375.729 268.915C375.702 275.652 373.672 280.964 368.875 285.761C363.724 288.95 358.298 290.559 352.25 289.386C345.246 286.67 341.399 283.186 338.216 276.404C336.364 270.619 336.737 264.772 336.938 258.761C336.972 256.825 336.972 256.825 337.006 254.851C337.065 251.695 337.147 248.541 337.25 245.386C337.943 245.192 338.636 244.998 339.35 244.798C340.256 244.537 341.161 244.276 342.094 244.007C342.993 243.751 343.892 243.495 344.819 243.231C348.43 241.976 349.561 240.835 351.25 237.386C352.143 233.408 352.76 229.432 353.25 225.386Z" fill="#3C3C3B"/>
<path d="M394.563 293.261C398.77 295.022 400.121 298.507 402.25 302.386C402.849 303.334 403.447 304.283 404.063 305.261C405.25 307.386 405.25 307.386 405.25 309.386C406.137 309.633 407.024 309.881 407.938 310.136C412.567 311.883 415.251 313.938 418.063 318.011C419.668 322.572 419.958 326.601 419.25 331.386C417.238 335.338 415.078 338.113 411.25 340.386C405.552 342.227 399.292 341.653 393.375 341.698C392.108 341.727 390.841 341.756 389.536 341.786C378.058 341.865 378.058 341.865 373.25 337.386C372.353 336.612 372.353 336.612 371.438 335.823C368.474 332.235 368.854 327.583 368.918 323.171C369.436 318.83 371.035 316.295 374.25 313.386C375.692 312.464 377.152 311.57 378.625 310.698C383.808 307.523 386.057 303.285 388.84 297.995C391.304 293.437 391.304 293.437 394.563 293.261Z" fill="#D67A5D"/>
</svg>
