<svg
    viewBox="0 0 32 32"
    fill="none"
    xmlns="http://www.w3.org/2000/svg"
    aria-hidden="true"
  >
    <path
      d="M10 6H22V15C22 18.9 19.3 22 16 22C12.7 22 10 18.9 10 15V6Z"
      fill="#F5A623"
    />
    <path
      d="M12 8H14V14C14 15.5 14.8 16.8 16 17.5"
      stroke="#FFD54F"
      strokeWidth="1.5"
      strokeLinecap="round"
      opacity="0.6"
    />
    <path
      d="M10 8H7.5C6.7 8 6 8.7 6 9.5V11C6 12.7 7.3 14 9 14H10"
      stroke="#C47D0A"
      strokeWidth="2"
      strokeLinecap="round"
      strokeLinejoin="round"
      fill="#F5A623"
    />
    <path
      d="M22 8H24.5C25.3 8 26 8.7 26 9.5V11C26 12.7 24.7 14 23 14H22"
      stroke="#C47D0A"
      strokeWidth="2"
      strokeLinecap="round"
      strokeLinejoin="round"
      fill="#F5A623"
    />
    <rect x="14" y="22" width="4" height="3" rx="1" fill="#C47D0A" />
    <rect x="11" y="25" width="10" height="2.5" rx="1.2" fill="#C47D0A" />
    <path
      d="M16 10L17 12.5L19.5 12.8L17.8 14.4L18.2 17L16 15.8L13.8 17L14.2 14.4L12.5 12.8L15 12.5L16 10Z"
      fill="#FFF176"
    />
  </svg>