<svg
    xmlns="http://www.w3.org/2000/svg"
    width="46"
    height="46"
    viewBox="0 0 46 46"
    fill="none"
  >
    <rect x="4" y="11" width="19" height="30" rx="4" fill="#1899D6" />
    <rect x="23" y="11" width="19" height="30" rx="4" fill="#1899D6" />

    <rect x="4" y="8" width="19" height="30" rx="4" fill="#1CB0F6" />
    <rect x="23" y="8" width="19" height="30" rx="4" fill="#1CB0F6" />

    <rect x="8" y="14" width="15" height="22" rx="2" fill="#E5E5E5" />
    <rect x="23" y="14" width="15" height="22" rx="2" fill="#E5E5E5" />

    <rect x="8" y="11" width="15" height="23" rx="2" fill="#FFFFFF" />
    <rect x="23" y="11" width="15" height="23" rx="2" fill="#FFFFFF" />

    <line
      x1="23"
      y1="11"
      x2="23"
      y2="34"
      stroke="#F0F0F0"
      strokeWidth="2"
      strokeLinecap="round"
    />

    <path d="M12 11V27L15.5 24L19 27V11H12Z" fill="#FFC800" />

    <rect x="26" y="16" width="9" height="3" rx="1.5" fill="#E5E5E5" />
    <rect x="26" y="22" width="9" height="3" rx="1.5" fill="#E5E5E5" />
    <rect x="26" y="28" width="6" height="3" rx="1.5" fill="#E5E5E5" />

    <rect
      x="5.5"
      y="10"
      width="1.5"
      height="10"
      rx="0.75"
      fill="white"
      opacity="0.4"
    />
    <rect
      x="39"
      y="10"
      width="1.5"
      height="10"
      rx="0.75"
      fill="white"
      opacity="0.4"
    />
  </svg>