<svg
    viewBox="0 0 32 32"
    fill="none"
    xmlns="http://www.w3.org/2000/svg"
    aria-hidden="true"
  >
    <path
      d="M16 3C16 3 8 11 8 18C8 22.4 11.6 26 16 26C20.4 26 24 22.4 24 18C24 11 16 3 16 3Z"
      fill="#FF6B35"
    />
    <path
      d="M16 9C16 9 11.5 14.5 11.5 18.5C11.5 21 13.5 23 16 23C18.5 23 20.5 21 20.5 18.5C20.5 14.5 16 9 16 9Z"
      fill="#FFAB00"
    />
    <path
      d="M16 14C16 14 13.5 17 13.5 19C13.5 20.4 14.6 21.5 16 21.5C17.4 21.5 18.5 20.4 18.5 19C18.5 17 16 14 16 14Z"
      fill="#FFD54F"
    />
    <circle cx="11" cy="8" r="1.2" fill="#FF9A6C" opacity="0.7" />
    <circle cx="21" cy="7" r="0.9" fill="#FF9A6C" opacity="0.5" />
  </svg>